<svg xmlns="http://www.w3.org/2000/svg" xmlns:xlink="http://www.w3.org/1999/xlink" width="340" height="420" viewBox="0 0 340 420">
  <defs>
    <clipPath id="clip-path">
      <rect x="-11.742" y="10.259" width="363.484" height="393.938" fill="none"/>
    </clipPath>
    <clipPath id="clip-path-3">
      <circle cx="165.282" cy="266.065" r="147.637" fill="none"/>
    </clipPath>
  </defs>
  <g id="DEvice">
    <g id="WBR_front_Clean">
      <g clip-path="url(#clip-path)">
        <rect x="196.387" y="193.841" width="88.017" height="17.672" fill="#fff"/>
        <rect x="196.387" y="193.841" width="88.017" height="17.672" stroke-width="0.649" stroke="#333" stroke-linecap="round" stroke-linejoin="round" fill="none"/>
        <g clip-path="url(#clip-path)">
          <path d="M275.263,193.841c-3.742,6.036-3.938,11.935,0,17.672" fill="none" stroke="#333" stroke-linecap="round" stroke-linejoin="round" stroke-width="0.649"/>
          <line x1="208.063" y1="199.063" x2="272.914" y2="199.063" fill="none" stroke="#333" stroke-linecap="round" stroke-linejoin="round" stroke-width="0.649"/>
          <line x1="208.063" y1="207.508" x2="273.01" y2="207.508" fill="none" stroke="#333" stroke-linecap="round" stroke-linejoin="round" stroke-width="0.649"/>
          <line x1="208.485" y1="204.693" x2="272.502" y2="204.693" fill="none" stroke="#333" stroke-linecap="round" stroke-linejoin="round" stroke-width="0.649"/>
          <line x1="208.566" y1="201.878" x2="272.382" y2="201.878" fill="none" stroke="#333" stroke-linecap="round" stroke-linejoin="round" stroke-width="0.649"/>
          <path d="M205.685,193.841c3.742,6.036,3.937,11.935,0,17.672" fill="none" stroke="#333" stroke-linecap="round" stroke-linejoin="round" stroke-width="0.649"/>
          <polyline points="192.106 11.138 192.106 15.118 148.162 15.118 148.162 11.138" fill="none" stroke="#333" stroke-linecap="round" stroke-linejoin="round" stroke-width="0.649"/>
          <polyline points="148.137 13.932 164.33 13.932 164.33 14.437 175.015 14.437 175.015 13.932 192.091 13.932" fill="none" stroke="#333" stroke-linecap="round" stroke-linejoin="round" stroke-width="0.649"/>
          <path d="M350.769,125.869a36.813,36.813,0,0,1-36.814,36.814H26.044A36.814,36.814,0,0,1-10.77,125.869" fill="none" stroke="#333" stroke-linecap="round" stroke-linejoin="round" stroke-width="0.649"/>
          <path d="M45.252,162.69V129.424a1.123,1.123,0,0,1,1.123-1.123H293.087a1.123,1.123,0,0,1,1.124,1.123V162.69" fill="none" stroke="#333" stroke-linecap="round" stroke-linejoin="round" stroke-width="0.649"/>
          <path d="M35,110.181h-5.45a5.605,5.605,0,1,1,0-11.21H35a5.605,5.605,0,0,1,0,11.21Z" fill="none" stroke="#333" stroke-linecap="round" stroke-linejoin="round" stroke-width="0.649"/>
          <path d="M35.916,118.02H21.007c-8.025,0-14.552-6.03-14.552-13.444s6.527-13.443,14.552-13.443H35.916c8.025,0,14.554,6.029,14.554,13.443S43.941,118.02,35.916,118.02Z" fill="none" stroke="#333" stroke-linecap="round" stroke-linejoin="round" stroke-width="0.649"/>
          <path d="M302.71,107.3V101.85a5.606,5.606,0,0,1,11.211,0V107.3a5.606,5.606,0,0,1-11.211,0Z" fill="none" stroke="#333" stroke-linecap="round" stroke-linejoin="round" stroke-width="0.649"/>
          <path d="M304.282,91.79a13.9,13.9,0,1,0,0,27.8h15.572a13.9,13.9,0,1,0,0-27.8Z" fill="none" stroke="#333" stroke-linecap="round" stroke-linejoin="round" stroke-width="0.649"/>
          <path d="M161.824,165.284V183.1c0,5.933-5.22,10.744-11.66,10.744h-95.4c-5.254,0-9.514-3.925-9.514-8.765V165.284Z" fill="none" stroke="#333" stroke-linecap="round" stroke-linejoin="round" stroke-width="0.649"/>
          <path d="M294.211,165.284v19.833c0,4.819-4.239,8.724-9.467,8.724H188.835c-5.562,0-10.072-4.156-10.072-9.28V165.284Z" fill="none" stroke="#333" stroke-linecap="round" stroke-linejoin="round" stroke-width="0.649"/>
          <polygon points="156.401 196.277 153.679 199.034 153.679 209.471 156.399 212.229 183.457 212.229 186.177 209.471 186.177 199.034 183.457 196.277 156.401 196.277" fill="none" stroke="#333" stroke-linecap="round" stroke-linejoin="round" stroke-width="0.649"/>
          <polygon points="174.685 204.775 174.685 214.583 177.627 214.583 177.627 221.295 162.374 221.295 162.374 214.583 165.314 214.583 165.314 204.733 174.685 204.775" fill="#fff"/>
          <polygon points="174.685 204.775 174.685 214.583 177.627 214.583 177.627 221.295 162.374 221.295 162.374 214.583 165.314 214.583 165.314 204.733 174.685 204.775" fill="none" stroke="#333" stroke-linecap="round" stroke-linejoin="round" stroke-width="0.623"/>
          <path d="M313.955,11.231H26.045A36.592,36.592,0,0,0-10.769,47.6V175.88a36.59,36.59,0,0,0,36.814,36.364H49.661l.9-.073H165.314v2.494h-2.94v6.63h15.253v-6.63h-2.942l0-2.421H313.955a36.59,36.59,0,0,0,36.814-36.364V47.6A36.592,36.592,0,0,0,313.955,11.231Z" fill="none" stroke="#333" stroke-linecap="round" stroke-linejoin="round" stroke-width="1.946"/>
          <rect x="54.252" y="136.996" width="39.699" height="20.775" fill="#fff"/>
          <rect x="54.252" y="136.996" width="39.699" height="20.775" stroke-width="0.649" stroke="#333" stroke-linecap="round" stroke-linejoin="round" fill="none"/>
          <path d="M65.328,147.471a4.754,4.754,0,1,1-4.754-4.753,4.755,4.755,0,0,1,4.754,4.753" fill="#fff"/>
          <circle cx="60.574" cy="147.471" r="4.754" fill="none" stroke="#333" stroke-linecap="round" stroke-linejoin="round" stroke-width="0.649"/>
          <line x1="55.917" y1="146.704" x2="65.239" y2="146.704" fill="none" stroke="#333" stroke-linecap="round" stroke-linejoin="round" stroke-width="0.649"/>
          <line x1="65.239" y1="148.238" x2="55.918" y2="148.238" fill="none" stroke="#333" stroke-linecap="round" stroke-linejoin="round" stroke-width="0.649"/>
          <path d="M78.854,147.471a4.754,4.754,0,1,1-4.754-4.753,4.754,4.754,0,0,1,4.754,4.753" fill="#fff"/>
          <circle cx="74.1" cy="147.471" r="4.754" fill="none" stroke="#333" stroke-linecap="round" stroke-linejoin="round" stroke-width="0.649"/>
          <line x1="69.444" y1="146.704" x2="78.766" y2="146.704" fill="none" stroke="#333" stroke-linecap="round" stroke-linejoin="round" stroke-width="0.649"/>
          <line x1="78.765" y1="148.238" x2="69.444" y2="148.238" fill="none" stroke="#333" stroke-linecap="round" stroke-linejoin="round" stroke-width="0.649"/>
          <path d="M92.381,147.471a4.754,4.754,0,1,1-4.753-4.753,4.754,4.754,0,0,1,4.753,4.753" fill="#fff"/>
          <circle cx="87.628" cy="147.471" r="4.754" fill="none" stroke="#333" stroke-linecap="round" stroke-linejoin="round" stroke-width="0.649"/>
          <line x1="82.97" y1="146.704" x2="92.292" y2="146.704" fill="none" stroke="#333" stroke-linecap="round" stroke-linejoin="round" stroke-width="0.649"/>
          <line x1="92.293" y1="148.238" x2="82.971" y2="148.238" fill="none" stroke="#333" stroke-linecap="round" stroke-linejoin="round" stroke-width="0.649"/>
          <rect x="54.252" y="139.467" width="39.699" height="15.834" stroke-width="0.649" stroke="#333" stroke-linecap="round" stroke-linejoin="round" fill="none"/>
          <rect x="107.437" y="136.996" width="39.697" height="20.775" fill="#fff"/>
          <rect x="107.437" y="136.996" width="39.697" height="20.775" stroke-width="0.649" stroke="#333" stroke-linecap="round" stroke-linejoin="round" fill="none"/>
          <path d="M118.511,147.471a4.754,4.754,0,1,1-4.753-4.753,4.754,4.754,0,0,1,4.753,4.753" fill="#fff"/>
          <circle cx="113.758" cy="147.471" r="4.754" fill="none" stroke="#333" stroke-linecap="round" stroke-linejoin="round" stroke-width="0.649"/>
          <line x1="109.102" y1="146.704" x2="118.423" y2="146.704" fill="none" stroke="#333" stroke-linecap="round" stroke-linejoin="round" stroke-width="0.649"/>
          <line x1="118.423" y1="148.238" x2="109.101" y2="148.238" fill="none" stroke="#333" stroke-linecap="round" stroke-linejoin="round" stroke-width="0.649"/>
          <path d="M132.039,147.471a4.754,4.754,0,1,1-4.754-4.753,4.755,4.755,0,0,1,4.754,4.753" fill="#fff"/>
          <circle cx="127.285" cy="147.471" r="4.754" fill="none" stroke="#333" stroke-linecap="round" stroke-linejoin="round" stroke-width="0.649"/>
          <line x1="122.628" y1="146.704" x2="131.949" y2="146.704" fill="none" stroke="#333" stroke-linecap="round" stroke-linejoin="round" stroke-width="0.649"/>
          <line x1="131.95" y1="148.238" x2="122.629" y2="148.238" fill="none" stroke="#333" stroke-linecap="round" stroke-linejoin="round" stroke-width="0.649"/>
          <path d="M145.565,147.471a4.754,4.754,0,1,1-4.754-4.753,4.755,4.755,0,0,1,4.754,4.753" fill="#fff"/>
          <circle cx="140.811" cy="147.471" r="4.754" fill="none" stroke="#333" stroke-linecap="round" stroke-linejoin="round" stroke-width="0.649"/>
          <line x1="136.155" y1="146.704" x2="145.477" y2="146.704" fill="none" stroke="#333" stroke-linecap="round" stroke-linejoin="round" stroke-width="0.649"/>
          <line x1="145.476" y1="148.238" x2="136.155" y2="148.238" fill="none" stroke="#333" stroke-linecap="round" stroke-linejoin="round" stroke-width="0.649"/>
          <rect x="107.437" y="139.467" width="39.697" height="15.834" stroke-width="0.649" stroke="#333" stroke-linecap="round" stroke-linejoin="round" fill="none"/>
          <rect x="173.229" y="136.996" width="39.697" height="20.775" fill="#fff"/>
          <rect x="173.229" y="136.996" width="39.697" height="20.775" stroke-width="0.649" stroke="#333" stroke-linecap="round" stroke-linejoin="round" fill="none"/>
          <path d="M184.305,147.471a4.754,4.754,0,1,1-4.753-4.753,4.755,4.755,0,0,1,4.753,4.753" fill="#fff"/>
          <circle cx="179.552" cy="147.471" r="4.754" transform="translate(-5.227 288.338) rotate(-76.717)" fill="none" stroke="#333" stroke-linecap="round" stroke-linejoin="round" stroke-width="0.649"/>
          <line x1="174.894" y1="146.704" x2="184.216" y2="146.704" fill="none" stroke="#333" stroke-linecap="round" stroke-linejoin="round" stroke-width="0.649"/>
          <line x1="184.215" y1="148.238" x2="174.894" y2="148.238" fill="none" stroke="#333" stroke-linecap="round" stroke-linejoin="round" stroke-width="0.649"/>
          <path d="M197.831,147.471a4.754,4.754,0,1,1-4.753-4.753,4.754,4.754,0,0,1,4.753,4.753" fill="#fff"/>
          <circle cx="193.078" cy="147.471" r="4.754" transform="translate(5.191 301.502) rotate(-76.717)" fill="none" stroke="#333" stroke-linecap="round" stroke-linejoin="round" stroke-width="0.649"/>
          <line x1="188.422" y1="146.704" x2="197.743" y2="146.704" fill="none" stroke="#333" stroke-linecap="round" stroke-linejoin="round" stroke-width="0.649"/>
          <line x1="197.743" y1="148.238" x2="188.421" y2="148.238" fill="none" stroke="#333" stroke-linecap="round" stroke-linejoin="round" stroke-width="0.649"/>
          <path d="M211.357,147.471a4.754,4.754,0,1,1-4.753-4.753,4.754,4.754,0,0,1,4.753,4.753" fill="#fff"/>
          <circle cx="206.604" cy="147.471" r="4.754" transform="translate(15.61 314.666) rotate(-76.718)" fill="none" stroke="#333" stroke-linecap="round" stroke-linejoin="round" stroke-width="0.649"/>
          <line x1="201.948" y1="146.704" x2="211.269" y2="146.704" fill="none" stroke="#333" stroke-linecap="round" stroke-linejoin="round" stroke-width="0.649"/>
          <line x1="211.269" y1="148.238" x2="201.947" y2="148.238" fill="none" stroke="#333" stroke-linecap="round" stroke-linejoin="round" stroke-width="0.649"/>
          <rect x="173.229" y="139.467" width="39.697" height="15.834" stroke-width="0.649" stroke="#333" stroke-linecap="round" stroke-linejoin="round" fill="none"/>
          <rect x="237.074" y="136.996" width="39.697" height="20.775" fill="#fff"/>
          <rect x="237.074" y="136.996" width="39.697" height="20.775" stroke-width="0.649" stroke="#333" stroke-linecap="round" stroke-linejoin="round" fill="none"/>
          <path d="M248.15,147.471a4.754,4.754,0,1,1-4.754-4.753,4.755,4.755,0,0,1,4.754,4.753" fill="#fff"/>
          <circle cx="243.396" cy="147.471" r="4.754" transform="translate(43.949 350.474) rotate(-76.718)" fill="none" stroke="#333" stroke-linecap="round" stroke-linejoin="round" stroke-width="0.649"/>
          <line x1="238.739" y1="146.704" x2="248.06" y2="146.704" fill="none" stroke="#333" stroke-linecap="round" stroke-linejoin="round" stroke-width="0.649"/>
          <line x1="248.061" y1="148.238" x2="238.739" y2="148.238" fill="none" stroke="#333" stroke-linecap="round" stroke-linejoin="round" stroke-width="0.649"/>
          <path d="M261.676,147.471a4.754,4.754,0,1,1-4.754-4.753,4.755,4.755,0,0,1,4.754,4.753" fill="#fff"/>
          <circle cx="256.922" cy="147.471" r="4.754" transform="translate(54.367 363.639) rotate(-76.718)" fill="none" stroke="#333" stroke-linecap="round" stroke-linejoin="round" stroke-width="0.649"/>
          <line x1="252.266" y1="146.704" x2="261.588" y2="146.704" fill="none" stroke="#333" stroke-linecap="round" stroke-linejoin="round" stroke-width="0.649"/>
          <line x1="261.587" y1="148.238" x2="252.265" y2="148.238" fill="none" stroke="#333" stroke-linecap="round" stroke-linejoin="round" stroke-width="0.649"/>
          <path d="M275.2,147.471a4.754,4.754,0,1,1-4.753-4.753,4.755,4.755,0,0,1,4.753,4.753" fill="#fff"/>
          <circle cx="270.45" cy="147.471" r="4.754" transform="translate(64.787 376.804) rotate(-76.718)" fill="none" stroke="#333" stroke-linecap="round" stroke-linejoin="round" stroke-width="0.649"/>
          <line x1="265.792" y1="146.704" x2="275.114" y2="146.704" fill="none" stroke="#333" stroke-linecap="round" stroke-linejoin="round" stroke-width="0.649"/>
          <line x1="275.113" y1="148.238" x2="265.791" y2="148.238" fill="none" stroke="#333" stroke-linecap="round" stroke-linejoin="round" stroke-width="0.649"/>
          <rect x="237.074" y="139.467" width="39.697" height="15.834" stroke-width="0.649" stroke="#333" stroke-linecap="round" stroke-linejoin="round" fill="none"/>
          <line x1="45.252" y1="157.771" x2="294.211" y2="157.771" fill="none" stroke="#333" stroke-linecap="round" stroke-linejoin="round" stroke-width="0.649"/>
          <rect x="165.351" y="196.277" width="9.154" height="4.953" fill="#fff"/>
          <rect x="165.351" y="196.277" width="9.154" height="4.953" stroke-width="0.623" stroke="#333" stroke-linecap="round" stroke-linejoin="round" fill="none"/>
          <path d="M291.352,203.015a6.949,6.949,0,1,1-6.948-6.948,6.947,6.947,0,0,1,6.948,6.948" fill="#fff"/>
          <path d="M291.352,203.015a6.949,6.949,0,1,1-6.948-6.948A6.947,6.947,0,0,1,291.352,203.015Z" fill="none" stroke="#333" stroke-linecap="round" stroke-linejoin="round" stroke-width="0.649"/>
          <path d="M288.293,203.015a3.89,3.89,0,1,1-3.889-3.891,3.89,3.89,0,0,1,3.889,3.891" fill="#fff"/>
          <path d="M288.293,203.015a3.89,3.89,0,1,1-3.889-3.891A3.89,3.89,0,0,1,288.293,203.015Z" fill="none" stroke="#333" stroke-linecap="round" stroke-linejoin="round" stroke-width="0.649"/>
          <path d="M288.9,202.488v1.054a.356.356,0,0,1-.355.358h-2.9a.357.357,0,0,0-.357.357v2.895a.357.357,0,0,1-.358.356h-1.054a.356.356,0,0,1-.357-.356v-2.895a.358.358,0,0,0-.357-.357h-2.895a.357.357,0,0,1-.358-.358v-1.054a.357.357,0,0,1,.358-.357h2.895a.358.358,0,0,0,.357-.357v-2.9a.357.357,0,0,1,.357-.357h1.054a.357.357,0,0,1,.358.357v2.9a.357.357,0,0,0,.357.357h2.9a.356.356,0,0,1,.355.357" fill="#fff"/>
          <path d="M288.9,202.488v1.054a.356.356,0,0,1-.355.358h-2.9a.357.357,0,0,0-.357.357v2.895a.357.357,0,0,1-.358.356h-1.054a.356.356,0,0,1-.357-.356v-2.895a.358.358,0,0,0-.357-.357h-2.895a.357.357,0,0,1-.358-.358v-1.054a.357.357,0,0,1,.358-.357h2.895a.358.358,0,0,0,.357-.357v-2.9a.357.357,0,0,1,.357-.357h1.054a.357.357,0,0,1,.358.357v2.9a.357.357,0,0,0,.357.357h2.9A.356.356,0,0,1,288.9,202.488Z" fill="none" stroke="#333" stroke-linecap="round" stroke-linejoin="round" stroke-width="0.649"/>
          <path d="M203.335,203.015a6.949,6.949,0,1,1-6.949-6.948,6.948,6.948,0,0,1,6.949,6.948" fill="#fff"/>
          <path d="M203.335,203.015a6.949,6.949,0,1,1-6.949-6.948A6.948,6.948,0,0,1,203.335,203.015Z" fill="none" stroke="#333" stroke-linecap="round" stroke-linejoin="round" stroke-width="0.649"/>
          <path d="M200.277,203.015a3.891,3.891,0,1,1-3.891-3.891,3.891,3.891,0,0,1,3.891,3.891" fill="#fff"/>
          <path d="M200.277,203.015a3.891,3.891,0,1,1-3.891-3.891A3.891,3.891,0,0,1,200.277,203.015Z" fill="none" stroke="#333" stroke-linecap="round" stroke-linejoin="round" stroke-width="0.649"/>
          <path d="M200.88,202.488v1.054a.357.357,0,0,1-.357.358h-2.9a.356.356,0,0,0-.355.357v2.895a.357.357,0,0,1-.358.356h-1.055a.356.356,0,0,1-.356-.356v-2.895a.358.358,0,0,0-.358-.357h-2.9a.357.357,0,0,1-.357-.358v-1.054a.357.357,0,0,1,.357-.357h2.9a.358.358,0,0,0,.358-.357v-2.9a.356.356,0,0,1,.356-.357h1.055a.358.358,0,0,1,.358.357v2.9a.356.356,0,0,0,.355.357h2.9a.357.357,0,0,1,.357.357" fill="#fff"/>
          <path d="M200.88,202.488v1.054a.357.357,0,0,1-.357.358h-2.9a.356.356,0,0,0-.355.357v2.895a.357.357,0,0,1-.358.356h-1.055a.356.356,0,0,1-.356-.356v-2.895a.358.358,0,0,0-.358-.357h-2.9a.357.357,0,0,1-.357-.358v-1.054a.357.357,0,0,1,.357-.357h2.9a.358.358,0,0,0,.358-.357v-2.9a.356.356,0,0,1,.356-.357h1.055a.358.358,0,0,1,.358.357v2.9a.356.356,0,0,0,.355.357h2.9A.357.357,0,0,1,200.88,202.488Z" fill="none" stroke="#333" stroke-linecap="round" stroke-linejoin="round" stroke-width="0.649"/>
          <polygon points="58.999 117.365 60.071 117.365 62.275 120.745 62.289 120.745 62.289 117.365 63.099 117.365 63.099 121.915 62.07 121.915 59.822 118.425 59.808 118.425 59.808 121.915 58.999 121.915 58.999 117.365" fill="#333"/>
          <path d="M238.405,108.491h.731l1.514,3.931h-.737l-.371-1.042h-1.568l-.368,1.042H236.9Zm-.243,2.367h1.2l-.59-1.69h-.017Z" fill="#333"/>
          <path d="M240.936,109.575h.594v.418l.012.012a1.044,1.044,0,0,1,.375-.372.981.981,0,0,1,.511-.135,1.071,1.071,0,0,1,.739.241.933.933,0,0,1,.269.728v1.954h-.628v-1.789a.789.789,0,0,0-.143-.488.52.52,0,0,0-.412-.151.675.675,0,0,0-.287.058.609.609,0,0,0-.214.159.779.779,0,0,0-.139.24.857.857,0,0,0-.049.292v1.679h-.628Z" fill="#333"/>
          <path d="M246.48,111.788a.329.329,0,0,0,.031.166.129.129,0,0,0,.119.049h.065a.431.431,0,0,0,.088-.011v.435l-.085.025c-.034.009-.07.016-.108.024s-.073.012-.11.017-.068.005-.092.005a.622.622,0,0,1-.321-.076.391.391,0,0,1-.164-.27,1.1,1.1,0,0,1-.46.263,1.787,1.787,0,0,1-.526.083,1.268,1.268,0,0,1-.37-.053.966.966,0,0,1-.31-.153.752.752,0,0,1-.214-.259.789.789,0,0,1-.08-.366.833.833,0,0,1,.1-.429.7.7,0,0,1,.253-.26,1.192,1.192,0,0,1,.351-.135c.13-.027.262-.048.393-.063.115-.022.224-.037.326-.047a1.433,1.433,0,0,0,.272-.047.413.413,0,0,0,.188-.1.282.282,0,0,0,.068-.207.308.308,0,0,0-.058-.2.375.375,0,0,0-.143-.119.587.587,0,0,0-.189-.055,1.533,1.533,0,0,0-.2-.013.781.781,0,0,0-.434.11.423.423,0,0,0-.192.341h-.629a.926.926,0,0,1,.133-.456.911.911,0,0,1,.295-.294,1.242,1.242,0,0,1,.4-.154,2.521,2.521,0,0,1,.462-.043,2.066,2.066,0,0,1,.415.043,1.21,1.21,0,0,1,.365.144.789.789,0,0,1,.261.256.7.7,0,0,1,.1.382Zm-.627-.793a.767.767,0,0,1-.352.113c-.139.013-.279.032-.419.057a1.315,1.315,0,0,0-.192.048.554.554,0,0,0-.165.082.354.354,0,0,0-.113.137.471.471,0,0,0-.041.208.254.254,0,0,0,.061.175.434.434,0,0,0,.145.113.628.628,0,0,0,.187.058,1.284,1.284,0,0,0,.184.017,1.052,1.052,0,0,0,.227-.027.833.833,0,0,0,.228-.094.634.634,0,0,0,.178-.168.425.425,0,0,0,.072-.251Z" fill="#333"/>
          <rect x="247.175" y="108.491" width="0.626" height="3.931" fill="#333"/>
          <path d="M249.79,112.5a1.561,1.561,0,0,1-.61-.113,1.3,1.3,0,0,1-.45-.311,1.33,1.33,0,0,1-.281-.474,1.819,1.819,0,0,1-.1-.6,1.8,1.8,0,0,1,.1-.6,1.33,1.33,0,0,1,.281-.474,1.286,1.286,0,0,1,.45-.311,1.7,1.7,0,0,1,1.218,0,1.277,1.277,0,0,1,.45.311,1.3,1.3,0,0,1,.282.474,1.822,1.822,0,0,1,.1.6,1.845,1.845,0,0,1-.1.6,1.289,1.289,0,0,1-.732.785,1.558,1.558,0,0,1-.608.113m0-.5a.7.7,0,0,0,.362-.089.744.744,0,0,0,.254-.232,1,1,0,0,0,.146-.321A1.493,1.493,0,0,0,250.6,111a1.513,1.513,0,0,0-.047-.363.987.987,0,0,0-.146-.322.774.774,0,0,0-.254-.228.783.783,0,0,0-.725,0,.788.788,0,0,0-.255.228,1.007,1.007,0,0,0-.145.322,1.464,1.464,0,0,0-.047.363,1.446,1.446,0,0,0,.047.366,1.021,1.021,0,0,0,.145.321.756.756,0,0,0,.255.232.7.7,0,0,0,.363.089" fill="#333"/>
          <path d="M254.38,112.273a1.213,1.213,0,0,1-.361.96,1.523,1.523,0,0,1-1.038.316,2.116,2.116,0,0,1-.431-.044,1.33,1.33,0,0,1-.4-.148,1,1,0,0,1-.3-.275.851.851,0,0,1-.143-.419h.628a.5.5,0,0,0,.092.214.511.511,0,0,0,.158.13.6.6,0,0,0,.2.061,1.87,1.87,0,0,0,.23.014.728.728,0,0,0,.556-.188.754.754,0,0,0,.177-.538v-.436h-.011a.971.971,0,0,1-.854.5,1.293,1.293,0,0,1-.58-.118,1.141,1.141,0,0,1-.4-.324,1.332,1.332,0,0,1-.228-.478,2.225,2.225,0,0,1-.072-.577,1.68,1.68,0,0,1,.088-.546,1.389,1.389,0,0,1,.253-.454,1.213,1.213,0,0,1,.948-.427,1.087,1.087,0,0,1,.494.113.757.757,0,0,1,.348.356h.011v-.391h.627Zm-1.392-.348a.687.687,0,0,0,.354-.084.678.678,0,0,0,.237-.227,1.014,1.014,0,0,0,.133-.319,1.625,1.625,0,0,0,.041-.361,1.426,1.426,0,0,0-.044-.352.972.972,0,0,0-.136-.3.625.625,0,0,0-.236-.208.731.731,0,0,0-.349-.078.667.667,0,0,0-.353.088.719.719,0,0,0-.231.228,1,1,0,0,0-.127.319,1.829,1.829,0,0,0-.039.356,1.425,1.425,0,0,0,.044.345.962.962,0,0,0,.137.3.717.717,0,0,0,.229.216.676.676,0,0,0,.34.081" fill="#333"/>
          <polygon points="257.672 108.396 258.273 108.396 256.693 112.514 256.092 112.514 257.672 108.396" fill="#333"/>
          <path d="M260.1,108.49h1.631a1.843,1.843,0,0,1,.78.154,1.457,1.457,0,0,1,.54.422,1.762,1.762,0,0,1,.31.625,2.916,2.916,0,0,1,0,1.529,1.762,1.762,0,0,1-.31.625,1.457,1.457,0,0,1-.54.422,1.843,1.843,0,0,1-.78.154H260.1Zm.688,3.369h.677a1.706,1.706,0,0,0,.657-.107.939.939,0,0,0,.4-.3,1.055,1.055,0,0,0,.2-.446,2.972,2.972,0,0,0,0-1.107,1.055,1.055,0,0,0-.2-.446.939.939,0,0,0-.4-.3,1.723,1.723,0,0,0-.657-.108h-.677Z" fill="#333"/>
          <path d="M264,108.491h.628v.594H264Zm0,1.084h.628v2.847H264Z" fill="#333"/>
          <path d="M267.944,112.273a1.212,1.212,0,0,1-.359.96,1.53,1.53,0,0,1-1.038.316,2.119,2.119,0,0,1-.432-.044,1.346,1.346,0,0,1-.4-.148,1,1,0,0,1-.3-.275.83.83,0,0,1-.141-.419h.626a.5.5,0,0,0,.094.214.476.476,0,0,0,.157.13.6.6,0,0,0,.2.061,1.882,1.882,0,0,0,.23.014.731.731,0,0,0,.556-.188.753.753,0,0,0,.176-.538v-.436h-.01a.971.971,0,0,1-.853.5,1.294,1.294,0,0,1-.581-.118,1.124,1.124,0,0,1-.4-.324,1.368,1.368,0,0,1-.229-.478,2.314,2.314,0,0,1-.072-.577,1.707,1.707,0,0,1,.089-.546,1.427,1.427,0,0,1,.253-.454,1.213,1.213,0,0,1,.948-.427,1.093,1.093,0,0,1,.494.113.752.752,0,0,1,.348.356h.01v-.391h.627Zm-1.392-.348a.666.666,0,0,0,.593-.311,1.012,1.012,0,0,0,.132-.319,1.624,1.624,0,0,0,.04-.361,1.474,1.474,0,0,0-.042-.352,1.021,1.021,0,0,0-.137-.3.633.633,0,0,0-.236-.208.732.732,0,0,0-.35-.078.66.66,0,0,0-.351.088.69.69,0,0,0-.231.228,1.028,1.028,0,0,0-.129.319,1.824,1.824,0,0,0-.037.356,1.377,1.377,0,0,0,.044.345.936.936,0,0,0,.135.3.7.7,0,0,0,.231.216.666.666,0,0,0,.338.081" fill="#333"/>
          <path d="M268.594,108.491h.626v.594h-.626Zm0,1.084h.626v2.847h-.626Z" fill="#333"/>
          <path d="M269.619,109.575h.473v-.854h.628v.854h.566v.468h-.566v1.519a1.694,1.694,0,0,0,.007.171.293.293,0,0,0,.039.12.173.173,0,0,0,.091.074.413.413,0,0,0,.165.026l.132,0a.753.753,0,0,0,.132-.02v.484l-.2.023a1.947,1.947,0,0,1-.2.011,1.4,1.4,0,0,1-.4-.047.55.55,0,0,1-.238-.137.476.476,0,0,1-.114-.23,1.753,1.753,0,0,1-.036-.314v-1.678h-.473Z" fill="#333"/>
          <path d="M274.121,111.788a.329.329,0,0,0,.031.166.129.129,0,0,0,.119.049h.065a.431.431,0,0,0,.088-.011v.435l-.085.025c-.034.009-.07.016-.108.024s-.073.012-.11.017-.066.005-.092.005a.622.622,0,0,1-.321-.076.391.391,0,0,1-.164-.27,1.1,1.1,0,0,1-.459.263,1.788,1.788,0,0,1-.527.083,1.268,1.268,0,0,1-.37-.053.977.977,0,0,1-.31-.153.752.752,0,0,1-.214-.259.789.789,0,0,1-.08-.366.833.833,0,0,1,.1-.429.717.717,0,0,1,.253-.26,1.188,1.188,0,0,1,.352-.135c.129-.027.262-.048.393-.063.114-.022.223-.037.325-.047a1.419,1.419,0,0,0,.272-.047.422.422,0,0,0,.189-.1.287.287,0,0,0,.068-.207.314.314,0,0,0-.058-.2.386.386,0,0,0-.144-.119.587.587,0,0,0-.189-.055,1.533,1.533,0,0,0-.2-.013.781.781,0,0,0-.434.11.426.426,0,0,0-.192.341h-.629a.9.9,0,0,1,.428-.75,1.251,1.251,0,0,1,.4-.154,2.523,2.523,0,0,1,.463-.043,2.064,2.064,0,0,1,.414.043,1.227,1.227,0,0,1,.366.144.8.8,0,0,1,.26.256.7.7,0,0,1,.1.382Zm-.627-.793a.767.767,0,0,1-.352.113c-.139.013-.279.032-.419.057a1.348,1.348,0,0,0-.192.048.554.554,0,0,0-.165.082.354.354,0,0,0-.113.137.471.471,0,0,0-.041.208.254.254,0,0,0,.061.175.434.434,0,0,0,.145.113.628.628,0,0,0,.187.058,1.284,1.284,0,0,0,.184.017,1.052,1.052,0,0,0,.227-.027.833.833,0,0,0,.228-.094.652.652,0,0,0,.179-.168.432.432,0,0,0,.071-.251Z" fill="#333"/>
          <rect x="274.815" y="108.491" width="0.626" height="3.931" fill="#333"/>
          <path d="M182.73,108.483h1.733a1.655,1.655,0,0,1,.682.122,1.054,1.054,0,0,1,.407.3,1.007,1.007,0,0,1,.2.395,1.725,1.725,0,0,1,.052.4,1.689,1.689,0,0,1-.052.394,1.012,1.012,0,0,1-.2.393,1.03,1.03,0,0,1-.407.3,1.694,1.694,0,0,1-.682.118h-1.046v1.509h-.687Zm.687,1.862h1.007a.9.9,0,0,0,.237-.033.706.706,0,0,0,.223-.107.533.533,0,0,0,.166-.2.685.685,0,0,0,.062-.31.815.815,0,0,0-.054-.32.519.519,0,0,0-.149-.2.513.513,0,0,0-.216-.1,1.069,1.069,0,0,0-.258-.028h-1.018Z" fill="#333"/>
          <path d="M188.7,111.781a.327.327,0,0,0,.031.166.126.126,0,0,0,.118.049h.066a.423.423,0,0,0,.088-.01v.435l-.085.024-.108.025-.11.017c-.036,0-.068.005-.093.005a.606.606,0,0,1-.32-.077.377.377,0,0,1-.164-.269,1.136,1.136,0,0,1-.459.263,1.794,1.794,0,0,1-.527.083,1.3,1.3,0,0,1-.37-.052.979.979,0,0,1-.31-.154.744.744,0,0,1-.214-.26.788.788,0,0,1-.08-.365.838.838,0,0,1,.1-.43.722.722,0,0,1,.253-.259,1.186,1.186,0,0,1,.351-.135c.131-.027.264-.048.395-.064.114-.022.221-.036.325-.046a1.473,1.473,0,0,0,.273-.047.424.424,0,0,0,.188-.1.286.286,0,0,0,.067-.208.312.312,0,0,0-.058-.2.371.371,0,0,0-.143-.118.611.611,0,0,0-.189-.056,1.555,1.555,0,0,0-.2-.013.779.779,0,0,0-.434.111.423.423,0,0,0-.192.341h-.629a.933.933,0,0,1,.132-.457.91.91,0,0,1,.3-.293,1.212,1.212,0,0,1,.4-.154,2.444,2.444,0,0,1,.462-.043,1.986,1.986,0,0,1,.414.043,1.222,1.222,0,0,1,.367.144.8.8,0,0,1,.259.255.7.7,0,0,1,.1.383Zm-.627-.792a.775.775,0,0,1-.352.113c-.14.012-.279.032-.419.057a1.225,1.225,0,0,0-.192.048.641.641,0,0,0-.166.081.366.366,0,0,0-.113.138.484.484,0,0,0-.04.207.245.245,0,0,0,.061.175.428.428,0,0,0,.144.113.652.652,0,0,0,.186.059,1.323,1.323,0,0,0,.186.016,1.043,1.043,0,0,0,.226-.027.794.794,0,0,0,.229-.093.651.651,0,0,0,.178-.169.422.422,0,0,0,.072-.25Z" fill="#333"/>
          <path d="M189.374,109.568h.589v.551h.01a.683.683,0,0,1,.108-.227,1.124,1.124,0,0,1,.192-.2.969.969,0,0,1,.252-.147.755.755,0,0,1,.281-.054,1.3,1.3,0,0,1,.15,0l.085.012v.6c-.043-.007-.088-.013-.134-.018a.913.913,0,0,0-.136-.009.747.747,0,0,0-.3.063.7.7,0,0,0-.245.187.957.957,0,0,0-.164.306,1.3,1.3,0,0,0-.061.418v1.355h-.627Z" fill="#333"/>
          <polygon points="191.328 108.484 191.955 108.484 191.955 110.719 193.088 109.568 193.86 109.568 192.771 110.615 193.965 112.415 193.199 112.415 192.33 111.033 191.955 111.397 191.955 112.415 191.328 112.415 191.328 108.484" fill="#333"/>
          <path d="M194.283,108.484h.628v.594h-.628Zm0,1.084h.628v2.847h-.628Z" fill="#333"/>
          <path d="M195.594,109.568h.594v.419l.012.012a1.036,1.036,0,0,1,.375-.372.981.981,0,0,1,.511-.135,1.065,1.065,0,0,1,.738.241.93.93,0,0,1,.27.728v1.954h-.628v-1.79a.786.786,0,0,0-.143-.487.52.52,0,0,0-.412-.151.713.713,0,0,0-.287.057.624.624,0,0,0-.215.16.808.808,0,0,0-.139.24.881.881,0,0,0-.048.292v1.679h-.628Z" fill="#333"/>
          <path d="M201.385,112.267a1.209,1.209,0,0,1-.359.959,1.523,1.523,0,0,1-1.038.317,2.119,2.119,0,0,1-.432-.044,1.319,1.319,0,0,1-.4-.148,1,1,0,0,1-.3-.275.83.83,0,0,1-.141-.419h.627a.49.49,0,0,0,.093.214.476.476,0,0,0,.157.13.6.6,0,0,0,.2.061,1.894,1.894,0,0,0,.23.014.735.735,0,0,0,.556-.188.755.755,0,0,0,.177-.538v-.436h-.011a.958.958,0,0,1-.36.368.972.972,0,0,1-.493.132,1.281,1.281,0,0,1-.581-.118,1.124,1.124,0,0,1-.4-.324,1.361,1.361,0,0,1-.228-.477,2.268,2.268,0,0,1-.073-.577,1.7,1.7,0,0,1,.089-.546,1.416,1.416,0,0,1,.253-.454,1.2,1.2,0,0,1,.948-.427,1.1,1.1,0,0,1,.5.113.761.761,0,0,1,.347.355h.011v-.39h.626Zm-1.392-.348a.685.685,0,0,0,.354-.084.693.693,0,0,0,.239-.227,1.022,1.022,0,0,0,.132-.319,1.574,1.574,0,0,0,.041-.361,1.477,1.477,0,0,0-.043-.353.979.979,0,0,0-.136-.3.652.652,0,0,0-.236-.209.737.737,0,0,0-.351-.078.656.656,0,0,0-.351.089.69.69,0,0,0-.231.228.993.993,0,0,0-.128.319,1.751,1.751,0,0,0-.038.355,1.418,1.418,0,0,0,.044.345.953.953,0,0,0,.135.3.71.71,0,0,0,.231.215.656.656,0,0,0,.338.082" fill="#333"/>
          <polygon points="85.898 117.365 86.707 117.365 86.707 121.182 88.641 121.182 88.641 121.915 85.898 121.915 85.898 117.365" fill="#333"/>
          <polygon points="72.892 117.365 73.701 117.365 73.701 121.182 75.635 121.182 75.635 121.915 72.892 121.915 72.892 117.365" fill="#333"/>
          <path d="M107.677,118.432a1.238,1.238,0,0,0-.957-.45,1.544,1.544,0,0,0-1.562,1.627,1.561,1.561,0,0,0,1.562,1.689,1.279,1.279,0,0,0,1.022-.553l.668.476a2.013,2.013,0,0,1-1.7.809,2.39,2.39,0,1,1,0-4.78,1.977,1.977,0,0,1,1.593.719Z" fill="#333"/>
          <path d="M111.112,117.249a2.26,2.26,0,0,1,2.422,2.385,2.318,2.318,0,0,1-2.422,2.4,2.391,2.391,0,1,1,0-4.782m.006,4.049a1.562,1.562,0,0,0,1.568-1.69,1.565,1.565,0,1,0-3.128,0,1.56,1.56,0,0,0,1.56,1.69" fill="#333"/>
          <polygon points="114.323 117.365 115.556 117.365 116.771 120.553 117.998 117.365 119.219 117.365 119.219 121.915 118.448 121.915 118.448 118.137 118.435 118.137 117.053 121.915 116.489 121.915 115.106 118.137 115.094 118.137 115.094 121.915 114.323 121.915 114.323 117.365" fill="#333"/>
          <polygon points="123.381 117.365 124.454 117.365 126.658 120.745 126.671 120.745 126.671 117.365 127.48 117.365 127.48 121.915 126.453 121.915 124.204 118.425 124.191 118.425 124.191 121.915 123.381 121.915 123.381 117.365" fill="#333"/>
          <path d="M131.617,118.432a1.239,1.239,0,0,0-.959-.45,1.543,1.543,0,0,0-1.56,1.627,1.561,1.561,0,0,0,1.56,1.689,1.281,1.281,0,0,0,1.024-.553l.666.476a2.007,2.007,0,0,1-1.7.809,2.39,2.39,0,1,1,0-4.78,1.977,1.977,0,0,1,1.593.719Z" fill="#333"/>
          <polygon points="135.911 117.365 136.982 117.365 139.187 120.745 139.2 120.745 139.2 117.365 140.009 117.365 140.009 121.915 138.982 121.915 136.733 118.425 136.719 118.425 136.719 121.915 135.911 121.915 135.911 117.365" fill="#333"/>
          <path d="M143.181,117.249a2.261,2.261,0,0,1,2.423,2.385,2.319,2.319,0,0,1-2.423,2.4,2.391,2.391,0,1,1,0-4.782m.008,4.049a1.561,1.561,0,0,0,1.566-1.69,1.565,1.565,0,1,0-3.128,0,1.562,1.562,0,0,0,1.562,1.69" fill="#333"/>
          <path d="M175.64,117.365h1.529c.88,0,1.677.309,1.677,1.318,0,1.143-.854,1.349-1.818,1.349h-.578v1.883h-.81Zm1.3,1.973c.461,0,1.059-.026,1.059-.642,0-.559-.533-.637-.97-.637h-.578v1.279Z" fill="#333"/>
          <polygon points="180.779 118.252 179.924 119.042 179.474 118.509 180.85 117.365 181.551 117.365 181.551 121.915 180.779 121.915 180.779 118.252" fill="#333"/>
          <path d="M188.645,117.365h1.529c.879,0,1.677.309,1.677,1.318,0,1.143-.856,1.349-1.819,1.349h-.578v1.883h-.809Zm1.3,1.973c.463,0,1.061-.026,1.061-.642,0-.559-.535-.637-.971-.637h-.578v1.279Z" fill="#333"/>
          <path d="M192.44,121.1l1.767-1.71a1.187,1.187,0,0,0,.47-.77.613.613,0,0,0-.663-.6.676.676,0,0,0-.7.617l-.811-.065a1.377,1.377,0,0,1,1.51-1.285c.817,0,1.473.418,1.473,1.292a1.77,1.77,0,0,1-.7,1.336l-1.409,1.305h2.109v.694H192.44Z" fill="#333"/>
          <path d="M201.649,117.365h1.529c.881,0,1.678.309,1.678,1.318,0,1.143-.856,1.349-1.82,1.349h-.578v1.883h-.809Zm1.3,1.973c.462,0,1.06-.026,1.06-.642,0-.559-.533-.637-.971-.637h-.578v1.279Z" fill="#333"/>
          <path d="M206.492,119.2h.2c.443,0,.887-.065.887-.617a.6.6,0,0,0-.649-.6.709.709,0,0,0-.679.5l-.817-.218a1.4,1.4,0,0,1,1.459-.977c.783,0,1.458.411,1.458,1.214a1.026,1.026,0,0,1-.779,1.027v.014a1.035,1.035,0,0,1,.889,1.106,1.393,1.393,0,0,1-1.537,1.342,1.452,1.452,0,0,1-1.562-1.066l.824-.219a.7.7,0,0,0,.738.591.728.728,0,0,0,.765-.713c0-.592-.539-.694-1.009-.694h-.187Z" fill="#333"/>
          <rect x="255.578" y="120.007" width="1.586" height="0.655" fill="#333"/>
          <path d="M243.028,117.365h.7l1.96,4.55h-.926l-.423-1.041h-1.974l-.411,1.041h-.906Zm1.027,2.815-.7-1.851-.714,1.851Z" fill="#333"/>
          <polygon points="269.049 119.64 269.049 118.226 269.705 118.226 269.705 119.64 271.119 119.64 271.119 120.295 269.705 120.295 269.705 121.709 269.049 121.709 269.049 120.295 267.635 120.295 267.635 119.64 269.049 119.64" fill="#333"/>
          <path d="M114.625,114.519a.115.115,0,0,1-.115-.114v-9.5a.115.115,0,0,1,.115-.114h17.992a.114.114,0,1,1,0,.228H114.741v9.388a.116.116,0,0,1-.116.114" fill="#333"/>
          <path d="M140.655,114.517a.114.114,0,0,1-.114-.115V111.38a.115.115,0,1,1,.23,0V114.4a.115.115,0,0,1-.116.115" fill="#333"/>
          <path d="M140.655,111.494a1.593,1.593,0,1,1,1.593-1.593,1.6,1.6,0,0,1-1.593,1.593m0-2.956a1.364,1.364,0,1,0,1.364,1.363,1.366,1.366,0,0,0-1.364-1.363" fill="#333"/>
          <path d="M127.535,114.517a.115.115,0,0,1-.116-.115V111.38a.115.115,0,1,1,.23,0V114.4a.114.114,0,0,1-.114.115" fill="#333"/>
          <path d="M127.535,111.494a1.593,1.593,0,1,1,1.594-1.593,1.593,1.593,0,0,1-1.594,1.593m0-2.956A1.364,1.364,0,1,0,128.9,109.9a1.364,1.364,0,0,0-1.363-1.363" fill="#333"/>
          <path d="M134.094,106.5a1.593,1.593,0,1,1,1.594-1.593,1.594,1.594,0,0,1-1.594,1.593m0-2.956a1.363,1.363,0,1,0,1.365,1.363,1.365,1.365,0,0,0-1.365-1.363" fill="#333"/>
          <path d="M128.751,111.536a.109.109,0,0,1-.082-.036.114.114,0,0,1,0-.163l5.344-5.04a.116.116,0,0,1,.159.168l-5.344,5.04a.119.119,0,0,1-.08.031" fill="#333"/>
          <path d="M273.928,114.365H238.815a.115.115,0,0,1,0-.229h35.113a.115.115,0,0,1,0,.229" fill="#333"/>
          <path d="M209.556,114.365H174.445a.115.115,0,1,1,0-.229h35.111a.115.115,0,0,1,0,.229" fill="#333"/>
          <path d="M61.047,128.228a.114.114,0,0,1-.114-.114v-3.839a.115.115,0,1,1,.229,0v3.839a.114.114,0,0,1-.115.114" fill="#333"/>
          <path d="M87.055,128.228a.115.115,0,0,1-.114-.114v-3.839a.115.115,0,1,1,.23,0v3.839a.115.115,0,0,1-.116.114" fill="#333"/>
          <path d="M74.052,128.228a.115.115,0,0,1-.115-.114v-3.839a.116.116,0,0,1,.115-.116.114.114,0,0,1,.114.116v3.839a.114.114,0,0,1-.114.114" fill="#333"/>
          <path d="M114.554,128.228a.115.115,0,0,1-.114-.114v-3.839a.115.115,0,1,1,.23,0v3.839a.116.116,0,0,1-.116.114" fill="#333"/>
          <path d="M127.607,128.228a.116.116,0,0,1-.116-.114v-3.839a.116.116,0,1,1,.231,0v3.839a.115.115,0,0,1-.115.114" fill="#333"/>
          <path d="M140.633,128.228a.115.115,0,0,1-.115-.116v-3.837a.115.115,0,1,1,.23,0v3.837a.115.115,0,0,1-.115.116" fill="#333"/>
          <path d="M179,128.228a.115.115,0,0,1-.115-.114v-3.839a.115.115,0,1,1,.23,0v3.839a.115.115,0,0,1-.115.114" fill="#333"/>
          <path d="M192,128.228a.114.114,0,0,1-.114-.116v-3.837a.114.114,0,0,1,.114-.116.116.116,0,0,1,.115.116v3.837a.116.116,0,0,1-.115.116" fill="#333"/>
          <path d="M205.005,128.228a.114.114,0,0,1-.115-.114v-3.839a.115.115,0,1,1,.229,0v3.839a.114.114,0,0,1-.114.114" fill="#333"/>
          <path d="M243.367,128.228a.116.116,0,0,1-.116-.114v-3.839a.116.116,0,1,1,.231,0v3.839a.115.115,0,0,1-.115.114" fill="#333"/>
          <path d="M256.371,128.228a.114.114,0,0,1-.115-.114v-3.839a.115.115,0,1,1,.229,0v3.839a.114.114,0,0,1-.114.114" fill="#333"/>
          <path d="M269.375,128.228a.115.115,0,0,1-.114-.114v-3.839a.115.115,0,1,1,.23,0v3.839a.116.116,0,0,1-.116.114" fill="#333"/>
          <path d="M145.208,99.437H110.073a.115.115,0,0,1,0-.23h35.135a.115.115,0,0,1,0,.23" fill="#333"/>
          <path d="M120.928,93.547h1.877a1.459,1.459,0,0,1,.976.281.982.982,0,0,1,.324.781,1.157,1.157,0,0,1-.083.466,1,1,0,0,1-.192.3.8.8,0,0,1-.218.163c-.073.032-.125.054-.157.066v.011a.672.672,0,0,1,.189.054.58.58,0,0,1,.191.141.758.758,0,0,1,.145.251,1.071,1.071,0,0,1,.057.385,3.659,3.659,0,0,0,.053.63.848.848,0,0,0,.163.405h-.737a.618.618,0,0,1-.091-.28c-.009-.1-.014-.2-.014-.3a2.711,2.711,0,0,0-.034-.466.822.822,0,0,0-.119-.325.524.524,0,0,0-.24-.19,1.047,1.047,0,0,0-.389-.061h-1.013v1.619h-.688Zm.688,1.79h1.128a.726.726,0,0,0,.5-.157.613.613,0,0,0,.17-.471.742.742,0,0,0-.054-.306.461.461,0,0,0-.152-.183.553.553,0,0,0-.219-.09,1.55,1.55,0,0,0-.258-.02h-1.117Z" fill="#333"/>
          <path d="M125.2,96.218a1.1,1.1,0,0,0,.048.319.806.806,0,0,0,.14.27.67.67,0,0,0,.237.184.778.778,0,0,0,.342.069.761.761,0,0,0,.443-.119.7.7,0,0,0,.25-.355h.594a1.143,1.143,0,0,1-.171.413,1.159,1.159,0,0,1-.29.306,1.228,1.228,0,0,1-.383.186,1.521,1.521,0,0,1-.443.064,1.493,1.493,0,0,1-.595-.11,1.234,1.234,0,0,1-.438-.309,1.308,1.308,0,0,1-.27-.472,1.921,1.921,0,0,1-.09-.606,1.7,1.7,0,0,1,.1-.576A1.434,1.434,0,0,1,124.95,95a1.354,1.354,0,0,1,1.607-.309,1.32,1.32,0,0,1,.442.372,1.483,1.483,0,0,1,.257.531,1.631,1.631,0,0,1,.04.62Zm1.466-.414a1.039,1.039,0,0,0-.064-.287.759.759,0,0,0-.143-.238.707.707,0,0,0-.22-.165.642.642,0,0,0-.289-.064.761.761,0,0,0-.3.058.69.69,0,0,0-.232.159.757.757,0,0,0-.153.24.835.835,0,0,0-.065.3Z" fill="#333"/>
          <rect x="127.792" y="93.546" width="0.628" height="3.931" fill="#333"/>
          <path d="M131.486,96.845a.332.332,0,0,0,.031.166.129.129,0,0,0,.119.049h.065a.5.5,0,0,0,.088-.01v.434c-.022.007-.049.016-.085.025s-.07.017-.108.024-.073.012-.11.017-.068.005-.092.005a.6.6,0,0,1-.321-.077.385.385,0,0,1-.164-.27,1.1,1.1,0,0,1-.459.264,1.794,1.794,0,0,1-.527.083,1.3,1.3,0,0,1-.37-.053.937.937,0,0,1-.31-.153.732.732,0,0,1-.214-.259.789.789,0,0,1-.08-.366.844.844,0,0,1,.1-.429.72.72,0,0,1,.254-.26,1.134,1.134,0,0,1,.352-.134c.129-.028.262-.048.393-.064a3.223,3.223,0,0,1,.325-.047,1.534,1.534,0,0,0,.273-.046.425.425,0,0,0,.188-.1.285.285,0,0,0,.067-.207.31.31,0,0,0-.058-.2.371.371,0,0,0-.143-.118.577.577,0,0,0-.189-.056,1.555,1.555,0,0,0-.2-.013.781.781,0,0,0-.434.11.426.426,0,0,0-.192.341h-.629a.948.948,0,0,1,.132-.458.924.924,0,0,1,.3-.291,1.213,1.213,0,0,1,.4-.155,2.529,2.529,0,0,1,.462-.044,2.049,2.049,0,0,1,.414.044,1.2,1.2,0,0,1,.367.144.8.8,0,0,1,.26.256.7.7,0,0,1,.1.382Zm-.627-.793a.756.756,0,0,1-.352.113c-.139.013-.279.033-.419.057a1.5,1.5,0,0,0-.192.047.58.58,0,0,0-.165.083.356.356,0,0,0-.114.137.485.485,0,0,0-.04.208.248.248,0,0,0,.061.175.422.422,0,0,0,.145.113.666.666,0,0,0,.185.058,1.2,1.2,0,0,0,.186.017.989.989,0,0,0,.226-.028.823.823,0,0,0,.229-.093.648.648,0,0,0,.178-.168.425.425,0,0,0,.072-.251Z" fill="#333"/>
          <path d="M131.85,94.632h.687l.745,2.124h.01l.721-2.124h.655l-1.106,3c-.052.129-.1.251-.152.369a1.357,1.357,0,0,1-.181.312.794.794,0,0,1-.268.214.908.908,0,0,1-.407.079,2.844,2.844,0,0,1-.434-.033v-.528c.052.007.1.016.148.025a.8.8,0,0,0,.149.014.513.513,0,0,0,.181-.028.3.3,0,0,0,.118-.079.451.451,0,0,0,.079-.125.825.825,0,0,0,.061-.164l.073-.221Z" fill="#333"/>
          <path d="M78.6,114.362H56.5a.115.115,0,0,1,0-.229H78.6a.115.115,0,1,1,0,.229" fill="#333"/>
          <path d="M59.6,111.115a.869.869,0,0,0,.078.385.687.687,0,0,0,.214.262.927.927,0,0,0,.317.149,1.536,1.536,0,0,0,.389.047,1.236,1.236,0,0,0,.384-.053.752.752,0,0,0,.259-.135.483.483,0,0,0,.143-.19.593.593,0,0,0,.044-.218.465.465,0,0,0-.1-.332.567.567,0,0,0-.223-.151,4.583,4.583,0,0,0-.486-.147q-.278-.067-.686-.179a1.435,1.435,0,0,1-.42-.172.984.984,0,0,1-.267-.24.84.84,0,0,1-.141-.28,1.154,1.154,0,0,1-.041-.3,1.02,1.02,0,0,1,.124-.515,1.1,1.1,0,0,1,.327-.36,1.474,1.474,0,0,1,.463-.212,2.068,2.068,0,0,1,.522-.069,2.031,2.031,0,0,1,.582.08,1.465,1.465,0,0,1,.479.239,1.2,1.2,0,0,1,.328.395,1.165,1.165,0,0,1,.119.541h-.687a.663.663,0,0,0-.258-.536,1.029,1.029,0,0,0-.589-.157,1.252,1.252,0,0,0-.249.025.842.842,0,0,0-.231.081.534.534,0,0,0-.174.157.433.433,0,0,0-.069.249.419.419,0,0,0,.13.327.821.821,0,0,0,.34.179l.171.047.34.091.366.1.256.068a1.179,1.179,0,0,1,.335.166,1.047,1.047,0,0,1,.24.239.987.987,0,0,1,.143.289,1.038,1.038,0,0,1,.046.309,1.128,1.128,0,0,1-.133.564,1.146,1.146,0,0,1-.356.383,1.544,1.544,0,0,1-.5.216,2.349,2.349,0,0,1-.574.07,2.309,2.309,0,0,1-.632-.083,1.436,1.436,0,0,1-.517-.253,1.245,1.245,0,0,1-.354-.438,1.477,1.477,0,0,1-.136-.63Z" fill="#333"/>
          <path d="M65.123,112.426h-.616v-.4H64.5a.854.854,0,0,1-.344.343.931.931,0,0,1-.465.13,1.045,1.045,0,0,1-.812-.277,1.224,1.224,0,0,1-.252-.84v-1.806h.629v1.745a.775.775,0,0,0,.143.53.524.524,0,0,0,.4.153.787.787,0,0,0,.33-.061.566.566,0,0,0,.214-.162.614.614,0,0,0,.119-.246,1.292,1.292,0,0,0,.036-.307v-1.652h.627Z" fill="#333"/>
          <path d="M65.8,109.578H66.4v.387h.009a.777.777,0,0,1,.371-.355,1.21,1.21,0,0,1,.511-.108,1.36,1.36,0,0,1,.585.118,1.145,1.145,0,0,1,.417.326,1.427,1.427,0,0,1,.249.481,2.154,2.154,0,0,1,.007,1.145,1.434,1.434,0,0,1-.225.476,1.155,1.155,0,0,1-.383.331,1.136,1.136,0,0,1-.545.123,1.515,1.515,0,0,1-.276-.025,1.126,1.126,0,0,1-.263-.079,1.039,1.039,0,0,1-.236-.141.786.786,0,0,1-.177-.2h-.013v1.42H65.8Zm2.191,1.427a1.43,1.43,0,0,0-.05-.375,1,1,0,0,0-.149-.321.766.766,0,0,0-.248-.226.665.665,0,0,0-.339-.086.691.691,0,0,0-.6.275,1.213,1.213,0,0,0-.2.733,1.547,1.547,0,0,0,.052.4,1,1,0,0,0,.157.316.8.8,0,0,0,.252.209.708.708,0,0,0,.34.076.7.7,0,0,0,.361-.086.753.753,0,0,0,.246-.23.926.926,0,0,0,.137-.319,1.65,1.65,0,0,0,.042-.366" fill="#333"/>
          <path d="M69.165,109.578h.595v.387h.009a.771.771,0,0,1,.37-.355,1.213,1.213,0,0,1,.511-.108,1.371,1.371,0,0,1,.586.118,1.146,1.146,0,0,1,.415.326,1.392,1.392,0,0,1,.249.481,2.045,2.045,0,0,1,.082.589,2.07,2.07,0,0,1-.073.556,1.418,1.418,0,0,1-.227.476,1.142,1.142,0,0,1-.382.331,1.13,1.13,0,0,1-.545.123,1.515,1.515,0,0,1-.276-.025,1.155,1.155,0,0,1-.263-.079,1.055,1.055,0,0,1-.235-.141.809.809,0,0,1-.178-.2h-.012v1.42h-.626Zm2.189,1.427a1.429,1.429,0,0,0-.048-.375,1.041,1.041,0,0,0-.149-.321.766.766,0,0,0-.248-.226.675.675,0,0,0-.341-.086.7.7,0,0,0-.6.275,1.226,1.226,0,0,0-.2.733,1.466,1.466,0,0,0,.052.4.955.955,0,0,0,.157.316.8.8,0,0,0,.252.209.7.7,0,0,0,.338.076.708.708,0,0,0,.364-.086.78.78,0,0,0,.245-.23.926.926,0,0,0,.137-.319,1.649,1.649,0,0,0,.04-.366" fill="#333"/>
          <rect x="72.527" y="108.494" width="0.628" height="3.931" fill="#333"/>
          <path d="M73.524,109.579h.688l.744,2.126h.01l.721-2.126h.657l-1.108,3c-.05.13-.1.252-.152.37a1.385,1.385,0,0,1-.18.311.8.8,0,0,1-.267.214.913.913,0,0,1-.407.08,2.87,2.87,0,0,1-.436-.033v-.528c.052.006.1.015.148.024a.818.818,0,0,0,.149.015.5.5,0,0,0,.181-.029.307.307,0,0,0,.12-.079.476.476,0,0,0,.079-.125,1.066,1.066,0,0,0,.061-.164l.072-.221Z" fill="#333"/>
          <path d="M69.817,191.219c-.081,0-.458.015-.539,0-.7-.134-1.114.579-.981-.124.023-.118,1.948-13.291-3.733-20.186-5.752-6.982-5.745-11.77-5.272-18.86a4.387,4.387,0,0,0,2.565,0c-.454,6.839-.441,10.96,4.708,17.211,6.463,7.842,4.381,21.791,4.28,22.322-.119.62-.417-.363-1.028-.363" fill="#fff"/>
          <path d="M69.817,191.219c-.081,0-.458.015-.539,0-.7-.134-1.114.579-.981-.124.023-.118,1.948-13.291-3.733-20.186-5.752-6.982-5.745-11.77-5.272-18.86a4.387,4.387,0,0,0,2.565,0c-.454,6.839-.441,10.96,4.708,17.211,6.463,7.842,4.381,21.791,4.28,22.322C70.726,192.2,70.428,191.219,69.817,191.219Z" fill="none" stroke="#333" stroke-linecap="round" stroke-linejoin="round" stroke-width="0.649"/>
          <path d="M74.249,191.441a1.3,1.3,0,0,1-1.3-1.3l-.143-37.993a4.876,4.876,0,0,0,2.594-.011l.143,37.993a1.3,1.3,0,0,1-1.292,1.313Z" fill="#fff"/>
          <path d="M74.249,191.441a1.3,1.3,0,0,1-1.3-1.3l-.143-37.993a4.876,4.876,0,0,0,2.594-.011l.143,37.993a1.3,1.3,0,0,1-1.292,1.313Z" fill="none" stroke="#333" stroke-linecap="round" stroke-linejoin="round" stroke-width="0.649"/>
          <path d="M64.792,207.508q.326-8.778.6-17.7l12.965.389q-.276,9.133-.614,18.106" fill="#fff"/>
          <path d="M64.792,207.508q.326-8.778.6-17.7l12.965.389q-.276,9.133-.614,18.106" fill="none" stroke="#333" stroke-linecap="round" stroke-linejoin="round" stroke-width="0.649"/>
          <path d="M77.638,211.087q-.647,17.058-1.38,33.475c-2.559,59.477-4.768,110.843,2.03,156.764l-12.831,1.9C58.48,356.081,60.82,301.642,63.3,244.005c.472-10.958.954-22.148,1.384-33.536" fill="#fff"/>
          <rect x="53.888" y="193.841" width="88.016" height="17.672" fill="#fff"/>
          <rect x="53.888" y="193.841" width="88.016" height="17.672" stroke-width="0.649" stroke="#333" stroke-linecap="round" stroke-linejoin="round" fill="none"/>
          <path d="M132.763,193.841c-3.742,6.036-3.938,11.935,0,17.672" fill="none" stroke="#333" stroke-linecap="round" stroke-linejoin="round" stroke-width="0.649"/>
          <line x1="65.565" y1="199.063" x2="130.416" y2="199.063" fill="none" stroke="#333" stroke-linecap="round" stroke-linejoin="round" stroke-width="0.649"/>
          <line x1="65.565" y1="207.508" x2="130.512" y2="207.508" fill="none" stroke="#333" stroke-linecap="round" stroke-linejoin="round" stroke-width="0.649"/>
          <line x1="65.987" y1="204.693" x2="130.003" y2="204.693" fill="none" stroke="#333" stroke-linecap="round" stroke-linejoin="round" stroke-width="0.649"/>
          <line x1="66.066" y1="201.878" x2="129.883" y2="201.878" fill="none" stroke="#333" stroke-linecap="round" stroke-linejoin="round" stroke-width="0.649"/>
          <path d="M63.186,193.841c3.742,6.036,3.938,11.935,0,17.672" fill="none" stroke="#333" stroke-linecap="round" stroke-linejoin="round" stroke-width="0.649"/>
          <path d="M60.837,203.015a6.949,6.949,0,1,1-6.948-6.948,6.948,6.948,0,0,1,6.948,6.948" fill="#fff"/>
          <path d="M60.837,203.015a6.949,6.949,0,1,1-6.948-6.948A6.948,6.948,0,0,1,60.837,203.015Z" fill="none" stroke="#333" stroke-linecap="round" stroke-linejoin="round" stroke-width="0.649"/>
          <path d="M57.778,203.015a3.891,3.891,0,1,1-3.89-3.891,3.891,3.891,0,0,1,3.89,3.891" fill="#fff"/>
          <path d="M57.778,203.015a3.891,3.891,0,1,1-3.89-3.891A3.891,3.891,0,0,1,57.778,203.015Z" fill="none" stroke="#333" stroke-linecap="round" stroke-linejoin="round" stroke-width="0.649"/>
          <path d="M58.381,202.488v1.054a.357.357,0,0,1-.356.358h-2.9a.357.357,0,0,0-.357.357v2.895a.356.356,0,0,1-.358.356H53.36a.357.357,0,0,1-.357-.356v-2.895a.358.358,0,0,0-.357-.357H49.752a.356.356,0,0,1-.358-.358v-1.054a.356.356,0,0,1,.358-.357h2.894a.358.358,0,0,0,.357-.357v-2.9a.358.358,0,0,1,.357-.357h1.054a.357.357,0,0,1,.358.357v2.9a.357.357,0,0,0,.357.357h2.9a.356.356,0,0,1,.356.357" fill="#fff"/>
          <path d="M58.381,202.488v1.054a.357.357,0,0,1-.356.358h-2.9a.357.357,0,0,0-.357.357v2.895a.356.356,0,0,1-.358.356H53.36a.357.357,0,0,1-.357-.356v-2.895a.358.358,0,0,0-.357-.357H49.752a.356.356,0,0,1-.358-.358v-1.054a.356.356,0,0,1,.358-.357h2.894a.358.358,0,0,0,.357-.357v-2.9a.358.358,0,0,1,.357-.357h1.054a.357.357,0,0,1,.358.357v2.9a.357.357,0,0,0,.357.357h2.9A.356.356,0,0,1,58.381,202.488Z" fill="none" stroke="#333" stroke-linecap="round" stroke-linejoin="round" stroke-width="0.649"/>
          <path d="M148.853,203.015a6.949,6.949,0,1,1-6.948-6.948,6.947,6.947,0,0,1,6.948,6.948" fill="#fff"/>
          <path d="M148.853,203.015a6.949,6.949,0,1,1-6.948-6.948A6.947,6.947,0,0,1,148.853,203.015Z" fill="none" stroke="#333" stroke-linecap="round" stroke-linejoin="round" stroke-width="0.649"/>
          <path d="M145.795,203.015a3.89,3.89,0,1,1-3.891-3.891,3.891,3.891,0,0,1,3.891,3.891" fill="#fff"/>
          <path d="M145.795,203.015a3.89,3.89,0,1,1-3.891-3.891A3.891,3.891,0,0,1,145.795,203.015Z" fill="none" stroke="#333" stroke-linecap="round" stroke-linejoin="round" stroke-width="0.649"/>
          <path d="M146.4,202.488v1.054a.356.356,0,0,1-.357.358h-2.9a.356.356,0,0,0-.355.357v2.895a.357.357,0,0,1-.358.356h-1.055a.356.356,0,0,1-.356-.356v-2.895a.358.358,0,0,0-.358-.357h-2.9a.357.357,0,0,1-.357-.358v-1.054a.357.357,0,0,1,.357-.357h2.9a.358.358,0,0,0,.358-.357v-2.9a.356.356,0,0,1,.356-.357h1.055a.358.358,0,0,1,.358.357v2.9a.356.356,0,0,0,.355.357h2.9a.356.356,0,0,1,.357.357" fill="#fff"/>
          <path d="M146.4,202.488v1.054a.356.356,0,0,1-.357.358h-2.9a.356.356,0,0,0-.355.357v2.895a.357.357,0,0,1-.358.356h-1.055a.356.356,0,0,1-.356-.356v-2.895a.358.358,0,0,0-.358-.357h-2.9a.357.357,0,0,1-.357-.358v-1.054a.357.357,0,0,1,.357-.357h2.9a.358.358,0,0,0,.358-.357v-2.9a.356.356,0,0,1,.356-.357h1.055a.358.358,0,0,1,.358.357v2.9a.356.356,0,0,0,.355.357h2.9A.356.356,0,0,1,146.4,202.488Z" fill="none" stroke="#333" stroke-linecap="round" stroke-linejoin="round" stroke-width="0.649"/>
        </g>
      </g>
    </g>
    <circle id="circle-2" cx="166.626" cy="265.328" r="150.785" fill="#fff" stroke="#4086aa" stroke-linecap="round" stroke-linejoin="round" stroke-width="4"/>
    <g clip-path="url(#clip-path-3)">
      <g>
        <path d="M-585.749,325.4V207.127a4,4,0,0,1,3.993-3.993H295.368a3.991,3.991,0,0,1,3.993,3.993V307.909" fill="none" stroke="#333" stroke-linecap="round" stroke-linejoin="round" stroke-width="0.649"/>
        <path d="M329.578,128.476V109.1a19.93,19.93,0,0,1,39.859,0v19.38a19.93,19.93,0,0,1-39.859,0Z" fill="none" stroke="#333" stroke-linecap="round" stroke-linejoin="round" stroke-width="0.649"/>
        <path d="M335.167,73.329a49.425,49.425,0,0,0,0,98.85h55.361a49.425,49.425,0,1,0,0-98.85Z" fill="none" stroke="#333" stroke-linecap="round" stroke-linejoin="round" stroke-width="0.649"/>
        <rect x="-130.759" y="234.048" width="141.134" height="73.862" fill="#fff"/>
        <rect x="-130.759" y="234.048" width="141.134" height="73.862" stroke-width="0.649" stroke="#333" stroke-linecap="round" stroke-linejoin="round" fill="none"/>
        <path d="M4.8,271.29a16.9,16.9,0,0,1-16.9,16.9A16.9,16.9,0,0,1-29,271.29a16.9,16.9,0,0,1,16.9-16.9,16.9,16.9,0,0,1,16.9,16.9" fill="#fff"/>
        <circle cx="-12.103" cy="271.29" r="16.9" transform="translate(-273.355 197.181) rotate(-76.718)" fill="none" stroke="#333" stroke-linecap="round" stroke-linejoin="round" stroke-width="0.649"/>
        <line x1="-28.657" y1="268.564" x2="4.484" y2="268.564" fill="none" stroke="#333" stroke-linecap="round" stroke-linejoin="round" stroke-width="0.649"/>
        <line x1="4.481" y1="274.017" x2="-28.659" y2="274.017" fill="none" stroke="#333" stroke-linecap="round" stroke-linejoin="round" stroke-width="0.649"/>
        <rect x="-130.759" y="242.832" width="141.134" height="56.293" stroke-width="0.649" stroke="#333" stroke-linecap="round" stroke-linejoin="round" fill="none"/>
        <rect x="96.226" y="234.048" width="141.134" height="73.862" fill="#fff"/>
        <rect x="96.226" y="234.048" width="141.134" height="73.862" stroke-width="0.649" stroke="#333" stroke-linecap="round" stroke-linejoin="round" fill="none"/>
        <path d="M135.6,271.29a16.9,16.9,0,1,1-16.9-16.9,16.9,16.9,0,0,1,16.9,16.9" fill="#fff"/>
        <circle cx="118.703" cy="271.29" r="16.9" transform="translate(-172.602 324.488) rotate(-76.718)" fill="none" stroke="#333" stroke-linecap="round" stroke-linejoin="round" stroke-width="0.649"/>
        <line x1="102.145" y1="268.564" x2="135.285" y2="268.564" fill="none" stroke="#333" stroke-linecap="round" stroke-linejoin="round" stroke-width="0.649"/>
        <line x1="135.287" y1="274.017" x2="102.147" y2="274.017" fill="none" stroke="#333" stroke-linecap="round" stroke-linejoin="round" stroke-width="0.649"/>
        <path d="M183.691,271.29a16.9,16.9,0,1,1-16.9-16.9,16.9,16.9,0,0,1,16.9,16.9" fill="#fff"/>
        <circle cx="166.791" cy="271.29" r="16.9" transform="translate(-135.562 371.29) rotate(-76.718)" fill="none" stroke="#333" stroke-linecap="round" stroke-linejoin="round" stroke-width="0.649"/>
        <line x1="150.238" y1="268.564" x2="183.378" y2="268.564" fill="none" stroke="#333" stroke-linecap="round" stroke-linejoin="round" stroke-width="0.649"/>
        <line x1="183.376" y1="274.017" x2="150.235" y2="274.017" fill="none" stroke="#333" stroke-linecap="round" stroke-linejoin="round" stroke-width="0.649"/>
        <path d="M231.784,271.29a16.9,16.9,0,1,1-16.9-16.9,16.9,16.9,0,0,1,16.9,16.9" fill="#fff"/>
        <circle cx="214.884" cy="271.29" r="16.9" transform="translate(-98.519 418.097) rotate(-76.718)" fill="none" stroke="#333" stroke-linecap="round" stroke-linejoin="round" stroke-width="0.649"/>
        <line x1="198.326" y1="268.564" x2="231.467" y2="268.564" fill="none" stroke="#333" stroke-linecap="round" stroke-linejoin="round" stroke-width="0.649"/>
        <line x1="231.464" y1="274.017" x2="198.324" y2="274.017" fill="none" stroke="#333" stroke-linecap="round" stroke-linejoin="round" stroke-width="0.649"/>
        <rect x="96.226" y="242.832" width="141.134" height="56.293" stroke-width="0.649" stroke="#333" stroke-linecap="round" stroke-linejoin="round" fill="none"/>
        <line x1="-585.749" y1="307.909" x2="299.361" y2="307.909" fill="none" stroke="#333" stroke-linecap="round" stroke-linejoin="round" stroke-width="0.649"/>
        <path d="M100.958,132.7h2.6l5.381,13.976h-2.619l-1.319-3.7H99.427l-1.309,3.7H95.591Zm-.862,8.415h4.27l-2.1-6.008h-.06Z" fill="#333"/>
        <path d="M109.958,136.558h2.112v1.489l.041.041a3.7,3.7,0,0,1,1.333-1.323,3.5,3.5,0,0,1,1.817-.479,3.813,3.813,0,0,1,2.628.857,3.318,3.318,0,0,1,.954,2.587v6.949h-2.231v-6.363a2.8,2.8,0,0,0-.508-1.734,1.852,1.852,0,0,0-1.466-.535,2.415,2.415,0,0,0-1.019.2,2.174,2.174,0,0,0-.761.567,2.692,2.692,0,0,0-.493.853,2.986,2.986,0,0,0-.175,1.038v5.971h-2.232Z" fill="#333"/>
        <path d="M129.666,144.425a1.175,1.175,0,0,0,.11.59.459.459,0,0,0,.425.176h.23a1.688,1.688,0,0,0,.314-.037V146.7c-.079.024-.175.056-.305.088s-.249.06-.382.088-.258.041-.392.06-.24.018-.328.018a2.18,2.18,0,0,1-1.139-.272,1.386,1.386,0,0,1-.585-.959,3.932,3.932,0,0,1-1.632.936,6.415,6.415,0,0,1-1.873.295,4.467,4.467,0,0,1-1.314-.189,3.371,3.371,0,0,1-1.1-.544,2.666,2.666,0,0,1-.761-.922,2.8,2.8,0,0,1-.286-1.3,2.985,2.985,0,0,1,.346-1.526,2.51,2.51,0,0,1,.9-.922,4.146,4.146,0,0,1,1.25-.48c.461-.1.931-.17,1.4-.226.406-.078.793-.129,1.158-.166a4.922,4.922,0,0,0,.968-.166,1.525,1.525,0,0,0,.669-.359,1.018,1.018,0,0,0,.239-.738,1.1,1.1,0,0,0-.207-.7,1.285,1.285,0,0,0-.507-.42,2.062,2.062,0,0,0-.674-.2,5.412,5.412,0,0,0-.7-.046,2.783,2.783,0,0,0-1.545.392,1.508,1.508,0,0,0-.682,1.213h-2.237a3.353,3.353,0,0,1,.475-1.624,3.237,3.237,0,0,1,1.047-1.042,4.366,4.366,0,0,1,1.434-.548,8.761,8.761,0,0,1,1.642-.153,7.15,7.15,0,0,1,1.475.153,4.315,4.315,0,0,1,1.3.511,2.824,2.824,0,0,1,.926.909,2.489,2.489,0,0,1,.351,1.36Zm-2.227-2.817a2.734,2.734,0,0,1-1.255.4c-.493.046-.991.115-1.489.2a4.788,4.788,0,0,0-.682.17,2.059,2.059,0,0,0-.586.291,1.262,1.262,0,0,0-.4.489,1.638,1.638,0,0,0-.148.737.906.906,0,0,0,.217.623,1.512,1.512,0,0,0,.516.4,2.23,2.23,0,0,0,.664.208,4.409,4.409,0,0,0,.655.06,3.722,3.722,0,0,0,.807-.1,2.9,2.9,0,0,0,.812-.332,2.244,2.244,0,0,0,.631-.6,1.5,1.5,0,0,0,.259-.89Z" fill="#333"/>
        <rect x="132.137" y="132.704" width="2.227" height="13.976" fill="#333"/>
        <path d="M141.434,146.951a5.524,5.524,0,0,1-2.167-.4,4.588,4.588,0,0,1-1.6-1.107,4.74,4.74,0,0,1-1-1.683,6.525,6.525,0,0,1-.341-2.153,6.456,6.456,0,0,1,.341-2.131,4.758,4.758,0,0,1,1-1.683,4.533,4.533,0,0,1,1.6-1.106,6.045,6.045,0,0,1,4.33,0,4.542,4.542,0,0,1,1.6,1.106,4.683,4.683,0,0,1,1,1.683,6.456,6.456,0,0,1,.342,2.131,6.525,6.525,0,0,1-.342,2.153,4.666,4.666,0,0,1-1,1.683,4.6,4.6,0,0,1-1.6,1.107,5.542,5.542,0,0,1-2.163.4m0-1.761a2.513,2.513,0,0,0,1.287-.314,2.629,2.629,0,0,0,.9-.825,3.6,3.6,0,0,0,.521-1.144,5.318,5.318,0,0,0,.166-1.3,5.417,5.417,0,0,0-.166-1.291,3.552,3.552,0,0,0-.521-1.144,2.734,2.734,0,0,0-.9-.811,2.8,2.8,0,0,0-2.578,0,2.777,2.777,0,0,0-.9.811,3.543,3.543,0,0,0-.516,1.144,5.174,5.174,0,0,0-.166,1.291,5.087,5.087,0,0,0,.166,1.3,3.592,3.592,0,0,0,.516,1.144,2.668,2.668,0,0,0,.9.825,2.516,2.516,0,0,0,1.291.314" fill="#333"/>
        <path d="M157.752,146.151a4.307,4.307,0,0,1-1.282,3.412,5.4,5.4,0,0,1-3.689,1.126,7.582,7.582,0,0,1-1.535-.157,4.751,4.751,0,0,1-1.411-.526,3.521,3.521,0,0,1-1.065-.977,2.992,2.992,0,0,1-.508-1.49h2.232a1.641,1.641,0,0,0,.89,1.222,2.1,2.1,0,0,0,.715.217,6.7,6.7,0,0,0,.821.051,2.588,2.588,0,0,0,1.973-.669,2.683,2.683,0,0,0,.632-1.914V144.9h-.042a3.389,3.389,0,0,1-1.282,1.309,3.426,3.426,0,0,1-1.752.471,4.581,4.581,0,0,1-2.061-.42,4,4,0,0,1-1.411-1.153,4.7,4.7,0,0,1-.812-1.7,7.935,7.935,0,0,1-.258-2.051,6.02,6.02,0,0,1,.314-1.942,5.015,5.015,0,0,1,.9-1.614,4.3,4.3,0,0,1,3.371-1.517,3.868,3.868,0,0,1,1.757.4,2.7,2.7,0,0,1,1.235,1.264h.042V136.56h2.227Zm-4.948-1.236a2.351,2.351,0,0,0,2.1-1.106,3.558,3.558,0,0,0,.47-1.135,5.712,5.712,0,0,0,.148-1.282,5.19,5.19,0,0,0-.157-1.254,3.392,3.392,0,0,0-.484-1.074,2.218,2.218,0,0,0-.839-.743,2.613,2.613,0,0,0-1.241-.276,2.358,2.358,0,0,0-1.254.313,2.519,2.519,0,0,0-.821.812,3.5,3.5,0,0,0-.452,1.134,6.357,6.357,0,0,0-.138,1.264,4.941,4.941,0,0,0,.157,1.226,3.383,3.383,0,0,0,.484,1.065,2.588,2.588,0,0,0,.816.766,2.387,2.387,0,0,0,1.208.29" fill="#333"/>
        <polygon points="169.457 132.369 171.592 132.369 165.976 147.01 163.841 147.01 169.457 132.369" fill="#333"/>
        <path d="M178.091,132.7h5.8a6.543,6.543,0,0,1,2.776.549,5.171,5.171,0,0,1,1.918,1.5,6.318,6.318,0,0,1,1.1,2.222,10.333,10.333,0,0,1,0,5.437,6.318,6.318,0,0,1-1.1,2.222,5.171,5.171,0,0,1-1.918,1.5,6.543,6.543,0,0,1-2.776.549h-5.8Zm2.444,11.98h2.407a6.006,6.006,0,0,0,2.337-.383,3.354,3.354,0,0,0,1.43-1.056,3.758,3.758,0,0,0,.7-1.586,10.544,10.544,0,0,0,0-3.933,3.758,3.758,0,0,0-.7-1.586,3.354,3.354,0,0,0-1.43-1.056,6.1,6.1,0,0,0-2.337-.383h-2.407Z" fill="#333"/>
        <path d="M191.963,132.7H194.2v2.111h-2.232Zm0,3.854H194.2V146.68h-2.232Z" fill="#333"/>
        <path d="M205.976,146.151a4.3,4.3,0,0,1-1.277,3.412,5.42,5.42,0,0,1-3.689,1.126,7.591,7.591,0,0,1-1.536-.157,4.786,4.786,0,0,1-1.415-.526,3.521,3.521,0,0,1-1.065-.977,2.941,2.941,0,0,1-.5-1.49h2.227a1.754,1.754,0,0,0,.332.761,1.729,1.729,0,0,0,.558.461,2.16,2.16,0,0,0,.719.217,6.7,6.7,0,0,0,.817.051,2.608,2.608,0,0,0,1.978-.669,2.685,2.685,0,0,0,.627-1.914V144.9h-.037a3.389,3.389,0,0,1-1.282,1.309,3.439,3.439,0,0,1-1.752.471,4.612,4.612,0,0,1-2.066-.42A4,4,0,0,1,197.2,145.1a4.847,4.847,0,0,1-.811-1.7,8.112,8.112,0,0,1-.259-2.051,6.049,6.049,0,0,1,.318-1.942,5.036,5.036,0,0,1,.9-1.614,4.3,4.3,0,0,1,3.37-1.517,3.893,3.893,0,0,1,1.757.4,2.694,2.694,0,0,1,1.236,1.264h.037V136.56h2.227Zm-4.948-1.236a2.367,2.367,0,0,0,2.108-1.106,3.675,3.675,0,0,0,.47-1.135,5.706,5.706,0,0,0,.143-1.282,5.187,5.187,0,0,0-.152-1.254,3.53,3.53,0,0,0-.484-1.074,2.291,2.291,0,0,0-.84-.743,2.613,2.613,0,0,0-1.245-.276,2.35,2.35,0,0,0-1.249.313,2.462,2.462,0,0,0-.821.812,3.6,3.6,0,0,0-.457,1.134,6.345,6.345,0,0,0-.133,1.264,4.988,4.988,0,0,0,.156,1.226,3.4,3.4,0,0,0,.48,1.065,2.553,2.553,0,0,0,.821.766,2.368,2.368,0,0,0,1.2.29" fill="#333"/>
        <path d="M208.286,132.7h2.228v2.111h-2.228Zm0,3.854h2.228V146.68h-2.228Z" fill="#333"/>
        <path d="M211.93,136.558h1.683v-3.035h2.232v3.035h2.015v1.664h-2.015v5.4a5.622,5.622,0,0,0,.028.609.971.971,0,0,0,.138.428.613.613,0,0,0,.323.263,1.444,1.444,0,0,0,.585.092c.157,0,.314,0,.471-.009a2.735,2.735,0,0,0,.47-.069v1.72c-.249.028-.489.055-.724.083s-.479.037-.724.037a4.961,4.961,0,0,1-1.42-.166,1.933,1.933,0,0,1-.844-.489,1.669,1.669,0,0,1-.406-.816,6.023,6.023,0,0,1-.129-1.116v-5.967H211.93Z" fill="#333"/>
        <path d="M227.937,144.425a1.162,1.162,0,0,0,.111.59.456.456,0,0,0,.424.176h.23a1.688,1.688,0,0,0,.314-.037V146.7c-.078.024-.175.056-.3.088s-.25.06-.383.088-.258.041-.392.06-.235.018-.328.018a2.174,2.174,0,0,1-1.138-.272,1.383,1.383,0,0,1-.586-.959,3.932,3.932,0,0,1-1.632.936,6.389,6.389,0,0,1-1.873.295,4.472,4.472,0,0,1-1.314-.189,3.371,3.371,0,0,1-1.1-.544,2.666,2.666,0,0,1-.761-.922,2.8,2.8,0,0,1-.286-1.3,2.985,2.985,0,0,1,.346-1.526,2.541,2.541,0,0,1,.9-.922,4.146,4.146,0,0,1,1.25-.48c.461-.1.931-.17,1.4-.226.406-.078.793-.129,1.158-.166a4.922,4.922,0,0,0,.968-.166,1.525,1.525,0,0,0,.669-.359,1.019,1.019,0,0,0,.244-.738,1.125,1.125,0,0,0-.208-.7,1.325,1.325,0,0,0-.511-.42,2.062,2.062,0,0,0-.674-.2,5.412,5.412,0,0,0-.705-.046,2.783,2.783,0,0,0-1.545.392,1.508,1.508,0,0,0-.682,1.213h-2.237a3.353,3.353,0,0,1,.475-1.624,3.286,3.286,0,0,1,1.047-1.042,4.4,4.4,0,0,1,1.434-.548,8.773,8.773,0,0,1,1.646-.153,7.14,7.14,0,0,1,1.471.153,4.315,4.315,0,0,1,1.3.511,2.824,2.824,0,0,1,.926.909,2.489,2.489,0,0,1,.351,1.36Zm-2.227-2.817a2.734,2.734,0,0,1-1.255.4c-.493.046-.991.115-1.489.2a4.788,4.788,0,0,0-.682.17,2.059,2.059,0,0,0-.586.291,1.262,1.262,0,0,0-.4.489,1.638,1.638,0,0,0-.148.737.906.906,0,0,0,.217.623,1.512,1.512,0,0,0,.516.4,2.23,2.23,0,0,0,.664.208,4.409,4.409,0,0,0,.655.06,3.722,3.722,0,0,0,.807-.1,2.9,2.9,0,0,0,.812-.332,2.332,2.332,0,0,0,.636-.6,1.532,1.532,0,0,0,.254-.89Z" fill="#333"/>
        <rect x="230.406" y="132.704" width="2.227" height="13.976" fill="#333"/>
        <rect x="162.013" y="173.646" width="5.639" height="2.329" fill="#333"/>
        <path d="M117.392,164.255h2.49l6.968,16.177h-3.293l-1.5-3.7h-7.018l-1.462,3.7h-3.218Zm3.652,10.007-2.485-6.58-2.536,6.58Z" fill="#333"/>
        <polygon points="209.904 172.344 209.904 167.317 212.237 167.317 212.237 172.344 217.263 172.344 217.263 174.672 212.237 174.672 212.237 179.698 209.904 179.698 209.904 174.672 204.878 174.672 204.878 172.344 209.904 172.344" fill="#333"/>
        <path d="M227.25,153.59H102.416a.408.408,0,0,1,0-.816H227.25a.408.408,0,0,1,0,.816" fill="#333"/>
        <path d="M118.6,202.875a.41.41,0,0,1-.41-.406V188.82a.41.41,0,1,1,.82,0v13.649a.41.41,0,0,1-.41.406" fill="#333"/>
        <path d="M164.832,202.875a.408.408,0,0,1-.41-.406V188.82a.408.408,0,1,1,.816,0v13.649a.407.407,0,0,1-.406.406" fill="#333"/>
        <path d="M211.066,202.875a.407.407,0,0,1-.406-.406V188.82a.408.408,0,1,1,.816,0v13.649a.411.411,0,0,1-.41.406" fill="#333"/>
        <rect x="-788.377" y="-216.533" width="1292.277" height="1400.547" fill="none"/>
        <rect x="-788.377" y="-216.533" width="1292.277" height="1400.547" fill="none"/>
      </g>
    </g>
  </g>
  <g id="Positive">
    <g id="Positive-2" data-name="Positive">
      <path id="Positive-3" data-name="Positive" d="M208.1,286.834l.6,120.37a146.836,146.836,0,0,0,13.855-5.031l-.574-115.408A44.1,44.1,0,0,1,208.1,286.834Z" fill="#fff" stroke="#333" stroke-linecap="round" stroke-linejoin="round" stroke-width="0.5"/>
      <rect id="Positive-4" data-name="Positive" x="176.88" y="314.252" width="50.509" height="25.444" transform="translate(-1.621 1.008) rotate(-0.285)" stroke-width="0.5" stroke="#333" stroke-linecap="round" stroke-linejoin="round" fill="#989898"/>
      <polygon id="Positive-5" data-name="Positive" points="192.554 325.741 197.581 325.741 197.581 328.074 192.554 328.074 192.554 333.1 190.226 333.1 190.226 328.074 185.2 328.074 185.2 325.741 190.226 325.741 190.226 320.715 192.554 320.715 192.554 325.741" fill="#fff"/>
    </g>
  </g>
  <g id="Negative">
    <g id="Negative-2" data-name="Negative">
      <path id="Negative-3" data-name="Negative" d="M159.89,286.834l.629,126.781c1.825.058,3.656.094,5.5.085,2.814-.014,5.607-.115,8.382-.284l-.629-126.651A44.1,44.1,0,0,1,159.89,286.834Z" fill="#fff" stroke="#333" stroke-linecap="round" stroke-linejoin="round" stroke-width="0.5"/>
      <rect id="Negative-4" data-name="Negative" x="127.4" y="350.41" width="50.509" height="25.444" transform="translate(-1.802 0.763) rotate(-0.285)" stroke-width="0.5" stroke="#333" stroke-linecap="round" stroke-linejoin="round" fill="#989898"/>
      <rect id="Negative-5" data-name="Negative" x="139.456" y="355.923" width="2.329" height="13.051" fill="#fff"/>
    </g>
  </g>
  <g id="A">
    <g id="A-2" data-name="A">
      <path id="A-3" data-name="A" d="M111.678,286.834l.582,117.055q6.8,2.616,13.9,4.568l-.6-121.692A44.1,44.1,0,0,1,111.678,286.834Z" fill="#fff" stroke="#333" stroke-linecap="round" stroke-linejoin="round" stroke-width="0.5"/>
      <rect id="A-4" data-name="A" x="76.397" y="312.24" width="52.522" height="25.444" transform="translate(-1.613 0.514) rotate(-0.285)" stroke-width="0.5" stroke="#333" stroke-linecap="round" stroke-linejoin="round" fill="#989898"/>
      <path id="A-5" data-name="A" d="M103.6,323.788v2.49l-16.176,6.967v-3.292l3.7-1.5v-7.018l-3.7-1.462v-3.219ZM93.594,327.44l6.58-2.485-6.58-2.537Z" fill="#fff"/>
    </g>
  </g>
</svg>
