<?xml version="1.0" encoding="utf-8"?>
<svg xmlns="http://www.w3.org/2000/svg" xmlns:xlink= "http://www.w3.org/1999/xlink"
      id="svg" version="1.0" width="340" height="420"
      viewBox="0.00 0.00 340 420"
      enable-background="new 0 0 340 420" x="0px" y="0px">
   <svg version="1.1" xmlns="http://www.w3.org/2000/svg" xmlns:xlink="http://www.w3.org/1999/xlink" x="0px" y="0px"
     width="340px"
     height="420px" viewBox="0 0 340 420" style="enable-background:new 0 0 340 420;">
    <style type="text/css">
        .st0{fill:#FFFFFF;stroke:#363636;stroke-width:1.5;stroke-linecap:round;stroke-linejoin:round;stroke-miterlimit:10;}
        .st1{fill:none;stroke:#363636;stroke-width:1.5;stroke-linecap:round;stroke-linejoin:round;stroke-miterlimit:10;}
        .st2{fill:none;stroke:#363636;stroke-width:0.5;stroke-linecap:round;stroke-linejoin:round;stroke-miterlimit:10;}
        .st3{fill:#FFFFFF;stroke:#363636;stroke-width:0.5;stroke-linecap:round;stroke-linejoin:round;stroke-miterlimit:10;}
        .st4{fill:#FFFFFF;}
        .st5{fill:#363636;}
        .st6{fill:#FFFFFF;stroke:#5782A9;stroke-width:4;stroke-linecap:round;stroke-linejoin:round;stroke-miterlimit:10;}
        .st7{fill:#5782A9;}
        .st8{fill:none;stroke:#5782A9;stroke-width:2;stroke-miterlimit:10;}
        .st9{fill:#2B2B2D;}
        .st10{fill:none;stroke:#5782A9;stroke-width:11.3668;stroke-miterlimit:10;}

        .DigitalConnector{ visibility : visible }
        .LabelA{ visibility : hidden }
        .LabelMinus{ visibility : visible }
        .LabelPlus{ visibility : visible }

        .AnalogConnector{ display : none }
        .LabelN{ null }
        .LabelL{ null }
        .Label1{ null }
        .Label2{ null }
        .Label3{ null }
        .Label4{ null }
    </style>
    <g id="Body">
        <g id="bodyEK">
            <path class="st0" d="M99.7,182.3"/>
            <path class="st1" d="M147.3,182.3h147.8c0.5,0,1-0.4,1-1V23.4c0-0.5-0.4-1-1-1h-80.9v-5c0-1.1-0.9-1.9-1.9-1.9h-11.5
			c-1.1,0-1.9,0.9-1.9,1.9v5H69v-0.7v-4.3c0-1.1-0.9-1.9-1.9-1.9H55.6c-1.1,0-1.9,0.9-1.9,1.9v9.3c0,0.3,0.1,0.7,0.2,0.9v153.6
			c0,0.5,0.4,1,1,1h29.6"/>
            <polyline class="st2" points="68.5,22.4 68.5,27 58.1,35.9 53.2,35.9 		"/>
            <polyline class="st2" points="270.6,26.7 290.8,26.7 290.8,177.4 268.7,177.5 		"/>
            <line class="st2" x1="189.3" y1="26.7" x2="213" y2="26.7"/>
            <line class="st2" x1="68.5" y1="26.7" x2="77.8" y2="26.7"/>
            <line class="st2" x1="213.5" y1="36.3" x2="213.3" y2="181.9"/>
            <polyline class="st3" points="198.4,22.4 198.4,26.8 208.8,35.8 213.4,35.8 213.6,22.3 		"/>
            <path class="st2" d="M67.7,36.1c0,0-2.3,2-2.3,5.1c0,3.2,2.6,4.2,2.6,4.2l7.7,0.2c0,0,2.1-1.7,2.3-4.8c-0.1-3.7-2.2-4.8-2.2-4.8
			L67.7,36.1z"/>
            <path class="st2" d="M190.9,44.8c0,0,2,2.3,5.1,2.3c3.2-0.1,4.1-2.2,4.1-2.2l-0.1-8.2c0,0-1.4-2-4.5-2.2c-3.7,0.1-4.8,2.2-4.8,2.2
			L190.9,44.8z"/>
            <path class="st2" d="M77.3,102.3c0,2.3-1.9,4.2-4.2,4.2h-7.2c-2.3,0-4.2-1.9-4.2-4.2l0,0c0-2.3,1.9-4.2,4.2-4.2h7.2
			C75.4,98,77.3,100,77.3,102.3L77.3,102.3z"/>
            <path class="st2" d="M197.1,110.1c2.3,0,4.2-1.9,4.2-4.2v-7.2c0-2.3-1.9-4.2-4.2-4.2l0,0c-2.3,0-4.2,1.9-4.2,4.2v7.2
			C192.9,108.2,194.8,110.1,197.1,110.1L197.1,110.1z"/>
            <path class="st2" d="M68.5,154.5c0,0-2.2,0.4-3.9,3.1c-1.7,2.8-1.1,5.2-1.1,5.2l11.6,6.7c0,0,2.1-1,3.7-3.2
			c1.6-2.2,1.2-5.3,1.2-5.3L68.5,154.5z"/>
            <path class="st2" d="M198.5,154.5c0,0,2.2,0.4,3.9,3.1c1.7,2.8,1.1,5.2,1.1,5.2l-11.6,6.7c0,0-2.1-1-3.7-3.2
			c-1.6-2.2-1.2-5.3-1.2-5.3L198.5,154.5z"/>
            <path class="st2" d="M186.3,87.2v2.3c0,0.3-0.3,0.8-0.3,0.8l-3.7,3.6v24.6c0,0.5-0.4,1-1,1h-1l-7.5,22.6l-5.5,6.2
			c0,0-1.2,0.2-1.5,0.2h-80c-0.5,0-1-0.4-1-1V95.5l-4.2-4.1c0,0-0.4-0.1-0.3-0.9v-3.3c0-0.5,0.4-1,1-1h104.1
			C185.9,86.2,186.3,86.6,186.3,87.2z"/>
            <line class="st2" x1="58.1" y1="35.8" x2="58.1" y2="172.2"/>
            <rect x="53.4" y="172.3" class="st2" width="20.6" height="9.6"/>
            <polyline class="st2" points="59.4,172.4 59.4,174.2 67.8,174.2 67.8,172.4 		"/>
            <polyline class="st2" points="59.4,181.9 59.4,177.6 67.8,177.6 67.8,181.8 		"/>
            <polyline class="st2" points="55.7,172.4 55.7,178.4 53.8,178.8 		"/>
            <polyline class="st2" points="71.9,172.4 71.9,178.4 73.9,178.8 		"/>
            <line class="st2" x1="55.5" y1="178.4" x2="59.4" y2="178.4"/>
            <line class="st2" x1="67.9" y1="178.4" x2="71.7" y2="178.4"/>
            <rect x="192.8" y="172.3" class="st2" width="20.6" height="9.6"/>
            <polyline class="st2" points="198.8,172.4 198.8,174.2 207.2,174.2 207.3,172.4 		"/>
            <polyline class="st2" points="198.9,181.9 198.9,177.6 207.3,177.6 207.3,181.8 		"/>
            <polyline class="st2" points="195.1,172.4 195.1,178.4 193.2,178.8 		"/>
            <polyline class="st2" points="211.4,172.4 211.4,178.4 213.3,178.8 		"/>
            <line class="st2" x1="195" y1="178.4" x2="198.8" y2="178.4"/>
            <line class="st2" x1="207.3" y1="178.4" x2="211.2" y2="178.4"/>
            <line class="st2" x1="84.9" y1="141.7" x2="84.9" y2="182.1"/>
            <polyline class="st2" points="84.8,171.7 81.2,171.7 81.2,181.9 		"/>
            <line class="st2" x1="74" y1="177.9" x2="81.2" y2="177.9"/>
            <path class="st3"
                  d="M189.3,139.9c0,0.5-0.4,1-1,1h-18.5c-0.5,0-1-0.4-1-1v-19.6c0-0.5,0.4-1,1-1h18.5c0.5,0,1,0.4,1,1V139.9z"/>
            <g>
                <path class="st4" d="M169.1,122.8c-0.1,0-0.2-0.1-0.2-0.2v-3c0-0.1,0.1-0.2,0.2-0.2h13.1c0.1,0,0.2,0.1,0.2,0.2v3
				c0,0.1-0.1,0.2-0.2,0.2H169.1z"/>
                <path class="st5" d="M182.2,119.5v3h-13.1v-3H182.2 M182.2,119h-13.1c-0.3,0-0.5,0.2-0.5,0.5v3c0,0.3,0.2,0.5,0.5,0.5h13.1
				c0.3,0,0.5-0.2,0.5-0.5v-3C182.7,119.3,182.5,119,182.2,119L182.2,119z"/>
            </g>
            <g>
                <path class="st4" d="M169.1,140.8c-0.1,0-0.2-0.1-0.2-0.2v-3c0-0.1,0.1-0.2,0.2-0.2h13.1c0.1,0,0.2,0.1,0.2,0.2v3
				c0,0.1-0.1,0.2-0.2,0.2H169.1z"/>
                <path class="st5" d="M182.2,137.5v3h-13.1v-3H182.2 M182.2,137h-13.1c-0.3,0-0.5,0.2-0.5,0.5v3c0,0.3,0.2,0.5,0.5,0.5h13.1
				c0.3,0,0.5-0.2,0.5-0.5v-3C182.7,137.3,182.5,137,182.2,137L182.2,137z"/>
            </g>
            <circle class="st3" cx="179.7" cy="130" r="6.4"/>
            <path class="st2" d="M78,22.5v13.7c0,0,1.2,1.3,1.4,4.1c0.2,2.9-1.5,4.9-1.5,4.9v47.9l3.6,3.8v55.2h3.2"/>
            <path class="st2" d="M189.2,22.4v13.7c0,0-1.2,1.3-1.4,4.1c-0.2,2.9,1.5,4.9,1.5,4.9v31.8"/>
            <rect x="81.9" y="23.2" class="st3" width="12.6" height="19.1"/>
            <rect x="100" y="23.2" class="st3" width="12.6" height="19.1"/>
            <rect x="118.2" y="23.2" class="st3" width="12.6" height="19.1"/>
            <rect x="136.3" y="23.2" class="st3" width="12.6" height="19.1"/>
            <rect x="154.2" y="23.2" class="st3" width="12.6" height="19.1"/>
            <rect x="172.3" y="23.2" class="st3" width="12.6" height="19.1"/>
            <rect x="218.2" y="23.2" class="st3" width="12.6" height="19.1"/>
            <rect x="236.3" y="23.2" class="st3" width="12.6" height="19.1"/>
            <rect x="254" y="23.2" class="st3" width="12.6" height="19.1"/>
            <line class="st2" x1="77.9" y1="51.8" x2="189.3" y2="51.8"/>
            <line class="st2" x1="77.8" y1="54.6" x2="189.3" y2="54.6"/>
            <polyline class="st2" points="77.8,77.1 80.4,77.1 80.4,56.3 96.1,56.3 96.1,77.1 98.4,77.1 98.5,56.3 114.3,56.4 114.3,77.1
			116.8,77.1 116.8,56.4 132.4,56.3 132.4,77.1 134.8,77.1 134.8,56.4 150.4,56.4 150.4,77.1 152.8,77.1 152.8,56.4 168.4,56.4
			168.3,77.1 171.2,77.1 171.2,56.4 186.2,56.4 186.2,77.1 189.4,77.1 		"/>
            <path class="st2" d="M194.8,56.3"/>
            <path class="st2" d="M66.6,56.3"/>
            <path class="st2" d="M209.3,77.1"/>
            <path class="st2" d="M67.5,77.1"/>
            <line class="st2" x1="80.4" y1="73.2" x2="96.1" y2="73.2"/>
            <line class="st2" x1="98.4" y1="73.2" x2="114.3" y2="73.2"/>
            <line class="st2" x1="116.9" y1="73.2" x2="132.4" y2="73.2"/>
            <line class="st2" x1="134.8" y1="73.2" x2="150.4" y2="73.2"/>
            <line class="st2" x1="152.8" y1="73.2" x2="168.4" y2="73.2"/>
            <line class="st2" x1="171.3" y1="73.2" x2="186.1" y2="73.2"/>
            <line class="st2" x1="217" y1="73.2" x2="231.9" y2="73.2"/>
            <line class="st2" x1="235.3" y1="73.2" x2="250.1" y2="73.2"/>
            <line class="st2" x1="253.5" y1="73.2" x2="268.3" y2="73.2"/>
            <path class="st2" d="M92.6,65.2c0,2.4-1.9,4.3-4.3,4.3c-2.4,0-4.3-1.9-4.3-4.3c0-2.4,1.9-4.3,4.3-4.3C90.7,61,92.6,62.9,92.6,65.2
			z"/>
            <path class="st2" d="M110.6,65.2c0,2.4-1.9,4.3-4.3,4.3c-2.4,0-4.3-1.9-4.3-4.3c0-2.4,1.9-4.3,4.3-4.3
			C108.7,61,110.6,62.9,110.6,65.2z"/>
            <path class="st2" d="M128.7,65.2c0,2.4-1.9,4.3-4.3,4.3c-2.4,0-4.3-1.9-4.3-4.3c0-2.4,1.9-4.3,4.3-4.3
			C126.8,61,128.7,62.9,128.7,65.2z"/>
            <path class="st2" d="M146.7,65.2c0,2.4-1.9,4.3-4.3,4.3c-2.4,0-4.3-1.9-4.3-4.3c0-2.4,1.9-4.3,4.3-4.3
			C144.8,61,146.7,62.9,146.7,65.2z"/>
            <path class="st2"
                  d="M164.9,65.2c0,2.4-1.9,4.3-4.3,4.3s-4.3-1.9-4.3-4.3c0-2.4,1.9-4.3,4.3-4.3S164.9,62.9,164.9,65.2z"/>
            <path class="st2"
                  d="M183,65.2c0,2.4-1.9,4.3-4.3,4.3c-2.4,0-4.3-1.9-4.3-4.3c0-2.4,1.9-4.3,4.3-4.3C181,61,183,62.9,183,65.2z"/>
            <path class="st2" d="M228.8,65.2c0,2.4-1.9,4.3-4.3,4.3c-2.4,0-4.3-1.9-4.3-4.3c0-2.4,1.9-4.3,4.3-4.3
			C226.9,61,228.8,62.9,228.8,65.2z"/>
            <path class="st2" d="M246.8,65.2c0,2.4-1.9,4.3-4.3,4.3c-2.4,0-4.3-1.9-4.3-4.3c0-2.4,1.9-4.3,4.3-4.3
			C244.9,61,246.8,62.9,246.8,65.2z"/>
            <path class="st2" d="M264.8,65.2c0,2.4-1.9,4.3-4.3,4.3c-2.4,0-4.3-1.9-4.3-4.3c0-2.4,1.9-4.3,4.3-4.3
			C262.9,61,264.8,62.9,264.8,65.2z"/>
            <line class="st2" x1="80.3" y1="76.9" x2="80.3" y2="88.2"/>
            <line class="st2" x1="186.2" y1="76.8" x2="186.2" y2="86.2"/>
            <polyline class="st2" points="178.8,140.8 170.7,149 170.7,181.9 		"/>
            <line class="st2" x1="167.5" y1="148.3" x2="167.5" y2="182.1"/>
            <polyline class="st2"
                      points="85.5,182.2 85.5,178.2 90.5,178.2 90.5,181.5 99.6,181.6 99.6,178.2 111.1,178.2 111.1,181.6 		"/>
            <rect x="161.5" y="178.2" class="st2" width="5.6" height="3"/>
            <polyline class="st2" points="120.2,181.7 120.2,178.2 131.7,178.2 131.7,181.7 		"/>
            <path class="st2" d="M120.2,181.7"/>
            <path class="st2" d="M131.7,181.7"/>
            <polyline class="st2" points="141,181.7 141,178.2 152.4,178.2 152.4,181.7 		"/>
            <polyline class="st3" points="105.2,181.9 106.6,179.7 124.9,179.7 126.3,181.9 		"/>
            <polyline class="st3" points="84.9,181.8 86.3,179.5 104.6,179.6 105.9,181.8 		"/>
            <polyline class="st3" points="126.1,182 127.5,179.8 145.8,179.8 147.1,182 		"/>
            <polyline class="st3" points="146.9,181.9 148.3,179.7 166.6,179.7 167.9,181.8 		"/>
            <line class="st2" x1="170.6" y1="177.7" x2="192.6" y2="177.7"/>
            <polyline class="st2" points="213.5,77.1 216.8,77.1 216.8,56.7 232.1,56.7 232.1,77 235.1,77 235.1,56.7 250.4,56.7 250.4,77.1
			253.4,77.1 253.4,56.7 268.5,56.7 268.5,76.9 270.9,76.9 		"/>
            <line class="st2" x1="213.4" y1="51.8" x2="270.6" y2="51.8"/>
            <line class="st2" x1="213.4" y1="54.5" x2="270.9" y2="54.5"/>
            <line class="st2" x1="270.9" y1="22" x2="270.9" y2="177.4"/>
            <line class="st2" x1="268.6" y1="76.4" x2="268.6" y2="182.5"/>
            <rect x="213.9" y="86.5" class="st2" width="54.7" height="62.8"/>
            <polyline class="st2" points="213.3,119.8 210.6,119.8 210.6,172.3 		"/>
            <polyline class="st2"
                      points="213.7,181.3 214.8,179.8 239.5,179.8 240.8,181.1 242.1,179.9 266.8,179.9 268.4,181.5 		"/>
            <polyline class="st2" points="213.5,178.3 222.5,178.3 222.5,179.8 		"/>
            <polyline class="st2" points="232.1,179.6 232.1,178.5 249.5,178.5 249.5,179.9 		"/>
            <polyline class="st2" points="259.2,179.8 259.2,178.4 268.5,178.4 		"/>
            <path class="st2"
                  d="M87.2,42.1c0,0.1-3.1,0.1-3.2,0L84.3,25c0-0.6,0.5-1.1,1-1.1h0.5c0.6,0,1.1,0.5,1.1,1.1L87.2,42.1z"/>
            <path class="st2"
                  d="M92.4,42.1c0,0.1-3.1,0.1-3.2,0L89.5,25c0-0.6,0.5-1.1,1.1-1.1h0.5c0.6,0,1.1,0.5,1.1,1.1L92.4,42.1z"/>
            <path class="st2"
                  d="M105.1,42.1c0,0.1-3.1,0.1-3.2,0l0.3-17.1c0-0.6,0.5-1.1,1-1.1h0.5c0.6,0,1,0.5,1,1.1L105.1,42.1z"/>
            <path class="st2"
                  d="M110.3,42.1c0,0.1-3.1,0.1-3.2,0l0.3-17.1c0-0.6,0.5-1.1,1-1.1h0.5c0.6,0,1.1,0.5,1.1,1.1L110.3,42.1z"/>
            <path class="st2"
                  d="M123.4,42.1c0,0.1-3.1,0.1-3.2,0l0.3-17.1c0-0.6,0.5-1.1,1.1-1.1h0.5c0.6,0,1.1,0.5,1.1,1.1L123.4,42.1z"/>
            <path class="st2"
                  d="M128.5,42.1c0,0.1-3.1,0.1-3.2,0l0.3-17.1c0-0.6,0.5-1.1,1.1-1.1h0.5c0.6,0,1,0.5,1,1.1L128.5,42.1z"/>
            <path class="st2"
                  d="M141.4,42.1c0,0.1-3.1,0.1-3.2,0l0.3-17.1c0-0.6,0.5-1.1,1.1-1.1h0.5c0.6,0,1,0.5,1,1.1L141.4,42.1z"/>
            <path class="st2"
                  d="M146.6,42.1c0,0.1-3.1,0.1-3.2,0l0.3-17.1c0-0.6,0.5-1.1,1-1.1h0.5c0.6,0,1.1,0.5,1.1,1.1L146.6,42.1z"/>
            <path class="st2"
                  d="M159.4,42.1c0,0.1-3.1,0.1-3.2,0l0.3-17.1c0-0.6,0.5-1.1,1-1.1h0.5c0.6,0,1.1,0.5,1.1,1.1L159.4,42.1z"/>
            <path class="st2"
                  d="M164.6,42.1c0,0.1-3.1,0.1-3.2,0l0.3-17.1c0-0.6,0.5-1.1,1.1-1.1h0.5c0.6,0,1,0.5,1,1.1L164.6,42.1z"/>
            <path class="st2"
                  d="M177.7,42.1c0,0.1-3.1,0.1-3.2,0l0.3-17.1c0-0.6,0.5-1.1,1.1-1.1h0.5c0.6,0,1,0.5,1,1.1L177.7,42.1z"/>
            <path class="st2"
                  d="M182.9,42.1c0,0.1-3.1,0.1-3.2,0L180,25c0-0.6,0.5-1.1,1-1.1h0.5c0.6,0,1,0.5,1,1.1L182.9,42.1z"/>
            <path class="st2"
                  d="M223.6,42.1c0,0.1-3.1,0.1-3.2,0l0.3-17.1c0-0.6,0.5-1.1,1-1.1h0.5c0.6,0,1.1,0.5,1.1,1.1L223.6,42.1z"/>
            <path class="st2"
                  d="M228.8,42.1c0,0.1-3.1,0.1-3.2,0l0.3-17.1c0-0.6,0.5-1.1,1.1-1.1h0.5c0.6,0,1,0.5,1,1.1L228.8,42.1z"/>
            <path class="st2"
                  d="M241.4,42.1c0,0.1-3.1,0.1-3.2,0l0.3-17.1c0-0.6,0.5-1.1,1-1.1h0.5c0.6,0,1.1,0.5,1.1,1.1L241.4,42.1z"/>
            <path class="st2"
                  d="M246.6,42.1c0,0.1-3.1,0.1-3.2,0l0.3-17.1c0-0.6,0.5-1.1,1.1-1.1h0.5c0.6,0,1.1,0.5,1.1,1.1L246.6,42.1z"/>
            <path class="st2"
                  d="M259.3,42.1c0,0.1-3.1,0.1-3.2,0l0.3-17.1c0-0.6,0.5-1.1,1-1.1h0.5c0.6,0,1.1,0.5,1.1,1.1L259.3,42.1z"/>
            <path class="st2"
                  d="M264.5,42.1c0,0.1-3.1,0.1-3.2,0l0.3-17.1c0-0.6,0.5-1.1,1.1-1.1h0.5c0.6,0,1.1,0.5,1.1,1.1L264.5,42.1z"/>
            <line class="st2" x1="262.3" y1="61.6" x2="256.9" y2="67.3"/>
            <line class="st2" x1="263.6" y1="62.8" x2="258" y2="68.8"/>
            <line class="st2" x1="245" y1="61.9" x2="238.7" y2="67.3"/>
            <line class="st2" x1="246.1" y1="63" x2="239.9" y2="68.5"/>
            <line class="st2" x1="226.3" y1="61.3" x2="221.3" y2="67.8"/>
            <line class="st2" x1="227.6" y1="62.4" x2="222.7" y2="69"/>
            <line class="st2" x1="180.7" y1="61.5" x2="175.2" y2="67.6"/>
            <line class="st2" x1="182" y1="62.7" x2="176.4" y2="68.8"/>
            <line class="st2" x1="162.4" y1="61.4" x2="157.1" y2="67.5"/>
            <line class="st2" x1="163.9" y1="62.5" x2="158.5" y2="68.9"/>
            <line class="st2" x1="126.2" y1="61.6" x2="120.9" y2="67.7"/>
            <line class="st2" x1="127.7" y1="62.7" x2="122.3" y2="69.1"/>
            <line class="st2" x1="108.4" y1="61.6" x2="103" y2="67.7"/>
            <line class="st2" x1="109.7" y1="62.9" x2="104.5" y2="69.1"/>
            <line class="st2" x1="90.1" y1="61.5" x2="84.8" y2="67.6"/>
            <line class="st2" x1="91.6" y1="62.6" x2="86.2" y2="69"/>
            <line class="st2" x1="144.3" y1="61.7" x2="138.9" y2="67.4"/>
            <line class="st2" x1="145.9" y1="63.1" x2="140.4" y2="68.9"/>
            <path class="st1" d="M147,181.7"/>
            <line class="st1" x1="82.8" y1="182.3" x2="168.6" y2="182.3"/>
        </g>
    </g>
    <g id="circle_1_">
        <path id="circle" class="st6" d="M314.4,245.9c0,70.9-57.5,128.4-128.4,128.4c-70.9,0-128.4-57.5-128.4-128.4
		c0-70.9,57.5-128.4,128.4-128.4C256.9,117.5,314.4,175,314.4,245.9z"/>
    </g>



    <g class="AnalogConnector">
        <g id="miniN" class="LabelN">
            <path id="miniN_4_" class="st4" d="M131.3,94.7c-2.5-2.8-7-4.3-13.4-4.4c-10.8-0.2-15.1-0.6-19-1.9c-1.1-0.4-2.1-1-3-1.8l0.8-0.6
		l-2-2.1l-0.8,0.6c-3.4-4.3-5.3-10.4-5.4-10.5l-0.4-0.7H86l0.3,0.3c0.1,0.4,2.3,7.2,6.2,12.1L92,86.1l-1.5,1.4l1.7,1.9l1.6-1.2
		l0.6-0.5c1.2,1.1,2.5,2,3.9,2.5c4.2,1.4,8.5,1.9,19.6,2c5.7,0.1,9.9,1.4,11.9,3.7c1.6,1.8,1.4,3.6,1.4,3.7l2,0.3
		C133.2,99.8,133.5,97.2,131.3,94.7z"/>
            <path id="miniN_1_" class="st5" d="M131.5,94.6c-2.5-2.9-7.1-4.4-13.6-4.5c-10.8-0.2-15-0.6-18.9-1.9c-1-0.3-1.9-0.9-2.7-1.6
		l0.6-0.4c0.1,0,0.1-0.1,0.1-0.2c0-0.1,0-0.1-0.1-0.2l-2-2.1c-0.1-0.1-0.2-0.1-0.3,0L94,84.1c-3.2-4.2-5.1-9.8-5.2-10.2L88.3,73
		h-2.8l0.6,0.7c0.2,0.7,2.4,7.2,6,11.9L91.8,86l-1.5,1.4c0,0-0.1,0.1-0.1,0.2c0,0.1,0,0.1,0.1,0.2l1.7,1.9c0,0.1,0.1,0.1,0.2,0.1
		c0.1,0,0.1,0,0.2-0.1l2-1.5c1.2,1.1,2.5,2,3.8,2.4c4.2,1.4,8.6,1.9,19.7,2.1c5.7,0.1,9.7,1.3,11.7,3.6c1.5,1.7,1.4,3.5,1.4,3.5
		l0.5,0.1c0,0,0.2-2-1.5-3.9c-2.1-2.4-6.3-3.7-12.1-3.8c-11-0.2-15.4-0.6-19.5-2c-1.3-0.4-2.5-1.3-3.6-2.3l1.2-0.9
		c0.9,0.8,1.9,1.4,2.9,1.8c3.9,1.4,8.2,1.8,19.1,2c6.4,0.1,10.8,1.6,13.3,4.3c2.1,2.4,1.8,4.9,1.8,5l0.5,0.1
		C133.4,99.8,133.7,97.1,131.5,94.6z M86.6,73.5H88l0.3,0.5c0.1,0.3,2,6.1,5.3,10.3l-1.1,0.9C88.9,80.6,86.8,74.1,86.6,73.5z
		 M95.5,86.5l-1.2,0.9l-0.4,0.3l-1.7,1.4l-1.4-1.5l1.3-1.2l0.3-0.3l0.4-0.3l1.1-0.9l0.4-0.3l0.4-0.3l1.6,1.7l-0.4,0.3L95.5,86.5z"/>
        </g>
        <g id="miniL" class="LabelL">
            <path id="miniL_4_" class="st4" d="M131.6,91.5c-3.2-4.3-10.1-6.2-20.5-5.6c-1.8-0.1-3.2-0.7-4-1.7l0.6-0.2l-1.1-2.6l-0.6,0.3
		c-0.6-3.4,1-7.7,1-7.7l0.3-0.7h-2.1c-0.1,0.2-2,5.2-1,9.3l-0.8,0.4l-1.9,0.8l0.9,2.4l1.9-0.7l1-0.4c1.2,1.8,3.2,2.7,5.9,2.9
		c0,0,0.1,0,0.1,0c9.5-0.6,16,1.1,18.8,4.7c2,2.7,1.6,5.8,1.3,7.1l1.7,1.2C133.1,100.8,134.8,95.8,131.6,91.5z"/>
            <path id="miniL_1_" class="st5" d="M131.8,91.3c-3.3-4.4-10.3-6.3-20.6-5.7c-1.6-0.1-2.8-0.5-3.6-1.3l0.3-0.1
		c0.1,0,0.1-0.1,0.1-0.1s0-0.1,0-0.2l-1.1-2.6c0-0.1-0.1-0.1-0.1-0.1c-0.1,0-0.1,0-0.2,0l-0.3,0.2c-0.5-3.3,1-7.2,1.1-7.3l0.4-1.1
		h-2.7l-0.1,0.2c-0.1,0.2-2,5.1-1.1,9.3l-0.6,0.3l-1.9,0.8c-0.1,0.1-0.2,0.2-0.1,0.3l0.9,2.4c0,0.1,0.1,0.2,0.2,0.2c0,0,0.1,0,0.1,0
		l1.9-0.7l0.8-0.3c1.3,1.7,3.3,2.7,5.9,2.8c0.1,0,0.1,0,0.2,0c9.4-0.6,15.8,1,18.6,4.6c2,2.6,1.6,5.7,1.3,6.9l0.5,0.1
		c0.3-1.3,0.7-4.5-1.4-7.3c-2.8-3.8-9.4-5.4-19-4.8c0,0,0,0-0.1,0c-2.5-0.1-4.3-1-5.5-2.5l1.5-0.6c0.9,1,2.3,1.5,4.1,1.6
		c10.2-0.6,17,1.2,20.2,5.5c3.2,4.2,1.5,9.1,1.4,9.3l0.5,0.2C133.4,100.9,135.1,95.7,131.8,91.3z M105.3,73.5h1.6l-0.1,0.4
		c0,0.1-1.6,4.2-1.1,7.7l-1.4,0.7C103.5,78.6,105,74.4,105.3,73.5z M107.2,83.9l-0.5,0.2l-1.4,0.6l-0.5,0.2l-0.7,0.3l-1.7,0.6
		l-0.8-1.9l1.7-0.7l0.5-0.2l0.5-0.2l1.4-0.7l0.5-0.2l0.2-0.1l0.9,2.1L107.2,83.9z"/>
        </g>
        <g id="mini1" class="Label1">
            <path id="mini1_4_" class="st4" d="M134.9,99.2c-0.1-0.1-5.6-8.1-8-13.5l0.5-0.2l-0.8-2.4l-0.6,0.2c-1.4-5-0.8-10-0.8-10h-2
		c0,0-0.7,5.1,0.9,10.6l-2.9,0.9l0.8,2.7l3-1c2.5,5.6,8,13.6,8.2,14l0.6,0.8l1.6-1.1L134.9,99.2z"/>
            <path id="mini1_1_" class="st5" d="M135.1,99.1c-0.1-0.1-5.4-7.8-7.9-13.2l0.3-0.1c0.1,0,0.2-0.2,0.1-0.3l-0.8-2.4
		c0-0.1-0.2-0.2-0.3-0.2l-0.4,0.1c-1.3-4.8-0.7-9.6-0.7-9.6l0-0.3H123l0,0.2c0,0.1-0.7,5.1,0.8,10.4l-2.6,0.8
		c-0.1,0-0.1,0.1-0.1,0.1c0,0.1,0,0.1,0,0.2l0.8,2.7c0,0.1,0.1,0.1,0.1,0.2c0,0,0.1,0,0.1,0c0,0,0.1,0,0.1,0l2.8-1
		c2.5,5.7,7.9,13.4,8.2,13.8l0.7,1l2.1-1.4L135.1,99.1z M123.5,73.6h1.5c-0.1,1.1-0.4,5.3,0.8,9.6l-1.4,0.4
		C123,78.9,123.4,74.6,123.5,73.6z M124.7,86.3l-2.5,0.9l-0.7-2.2l2.4-0.7l0.5-0.1l0.4-0.1l1.1-0.3l0.5-0.2l0.2-0.1l0.6,2l-0.1,0
		l-0.5,0.2l-1.1,0.4l-0.3,0.1L124.7,86.3z M133.5,100.2c-0.3-0.4-5.6-8.1-8.1-13.7l0.3-0.1l1.1-0.4c2.5,5.5,7.9,13.3,7.9,13.3
		l0.4,0.6l-1.2,0.9L133.5,100.2z"/>
        </g>
        <g id="mini2" class="Label2">
            <path id="mini2_4_" class="st4" d="M144.5,81.9l-1-0.3c0.7-4.5-0.5-8.4-0.5-8.6l0.1,0.2l-2.1,0l0.1,0.4c0,0,1.1,3.5,0.5,7.5L141,81
		l-2-0.5l-0.7,2.5l1.9,0.6l0.7,0.2c-1.8,5.2-9.7,16.2-9.8,16.3l1.6,1.2c0.3-0.5,8.2-11.4,10.1-16.9l1,0.3L144.5,81.9z"/>
            <path id="mini2_1_" class="st5" d="M144.7,81.7c0-0.1-0.1-0.1-0.2-0.1l-0.8-0.2c0.5-3.6-0.1-6.7-0.4-7.9l0,0l-0.1-0.3
		c0-0.2-0.1-0.2-0.1-0.3L143,73v0l-2.4-0.1l0.2,0.8c0,0,1,3.3,0.5,7.1l-0.3-0.1l-2-0.5c-0.1,0-0.3,0-0.3,0.2l-0.7,2.5
		c0,0.1,0,0.3,0.2,0.3l1.9,0.6l0.4,0.1c-1.9,5.2-9.6,15.8-9.7,16l0.4,0.3c0.1-0.1,7.8-10.8,9.7-16.1l1.4,0.4
		c-2,5.6-9.9,16.5-10,16.6l0.4,0.3c0.1-0.1,8-11.1,10-16.7l0.8,0.2c0,0,0,0,0.1,0c0,0,0.1,0,0.1,0c0.1,0,0.1-0.1,0.1-0.2l0.7-2.8
		C144.8,81.9,144.8,81.8,144.7,81.7z M141.3,73.6l0-0.1l1.6,0c0.3,1.1,1,4.2,0.5,7.8l-1.5-0.4C142.3,77,141.3,73.6,141.3,73.6z
		 M143.7,84.3l-0.5-0.1l-0.5-0.1l-1.4-0.4l-0.5-0.1l-0.4-0.1l-1.7-0.5l0.5-2l2.1,0.5l0.5,0.1l1.5,0.4l0.5,0.1l0.5,0.1L143.7,84.3z"
            />
        </g>

        <g id="mini3" class="Label3">
            <path id="mini3_4_" class="st4" d="M163,82.9l-1.3-0.5c1.2-4.4,0.4-8.6,0.3-8.8l-0.1-0.3h-2L160,74c0,0.1,0.8,3.9-0.3,7.7l-0.2-0.1
		l-1.9-0.7l-0.9,2.4l1.8,0.8l0.2,0.1c-0.6,1.1-1.3,2.1-2.3,2.9c-5.7,4.8-24.3,11.6-24.5,11.7l-1.4,0.5l1.1,1.7l0.9-0.3
		c0.8-0.3,19.1-7,25.1-12c1.3-1.1,2.2-2.4,2.9-3.7l1.4,0.6L163,82.9z"/>
            <path id="mini3_1_" class="st5" d="M163.3,82.8c0-0.1-0.1-0.1-0.1-0.1l-1.1-0.4c1.2-4.3,0.3-8.5,0.3-8.7l-0.1-0.5h-2.6l0.2,1
		c0,0.1,0.8,3.6-0.2,7.3l-1.8-0.7c-0.1,0-0.3,0-0.3,0.1l-0.9,2.4c0,0.1,0,0.3,0.1,0.3l1.8,0.8c-0.5,0.9-1.2,1.8-2.1,2.6
		c-5.6,4.8-24.2,11.6-24.4,11.6l-1.4,0.5l0.2,0.5l1.4-0.5c0.2-0.1,18.9-6.9,24.5-11.7c1-0.8,1.7-1.8,2.3-2.8l1.4,0.6
		c-0.7,1.2-1.5,2.4-2.7,3.4c-5.9,5-24.2,11.7-25,12l-0.9,0.3l0.2,0.5l0.9-0.3c0.8-0.3,19.2-7,25.2-12.1c1.2-1.1,2.2-2.3,2.8-3.6
		l1.2,0.5c0,0,0.1,0,0.1,0c0,0,0.1,0,0.1,0c0.1,0,0.1-0.1,0.1-0.1l1-2.7C163.3,82.9,163.3,82.8,163.3,82.8z M160.3,73.9l-0.1-0.4
		h1.5l0,0.1c0.1,0.3,0.9,4.3-0.2,8.5l-1.4-0.5C161,77.7,160.3,74,160.3,73.9z M161.9,85.2l-0.9-0.4l-0.5-0.2l-1.4-0.6l-0.4-0.2l0,0
		l-1.6-0.7l0.7-1.9l1.7,0.6L160,82l1.4,0.5l0.5,0.2l0.9,0.3L161.9,85.2z"/>
        </g>

        <g id="mini4" class="Label4">
            <path id="mini4_4_" class="st4" d="M175.8,73.2l-0.2,8.1c0,0,0,2.8-2.1,4.5c0,0,0,0,0,0l-0.4-0.9l-0.8-1.9l-2.3,1l0.7,1.9l0.4,1
		c-1.2,0.3-2.6,0.3-4.1,0c-5.1-1-21.5,0.3-27.5,5.4c-3.5,2.6-6.9,8.1-7.1,8.4l2.1,0.5c0.8-1.2,3.5-5.2,6.3-7.3
		c5.4-4.6,21.3-6,25.9-5c2,0.3,3.7,0.3,5.2-0.1l0.2,0.6l2.6-1.2l-0.3-0.6c0.2-0.1,0.3-0.2,0.5-0.4c2.7-2.3,2.8-5.9,2.8-6.1l0.3-8.1
		H175.8z"/>
            <path id="mini4_1_" class="st5" d="M175.6,73l-0.2,8.3c0,0,0,2.5-1.7,4.1l-0.2-0.5l-0.8-1.9c-0.1-0.1-0.2-0.2-0.3-0.1l-2.3,1
		c-0.1,0.1-0.2,0.2-0.1,0.3l0.7,1.9l0.3,0.8c-1.1,0.2-2.3,0.2-3.7-0.1c-5.1-1-21.7,0.3-27.7,5.5c-3.6,2.6-7,8.2-7.2,8.4l0.4,0.3
		c0.1-0.2,3.5-5.7,7-8.3c5.9-5.1,22.2-6.4,27.3-5.4c1.5,0.3,2.9,0.3,4,0l0.6,1.4c-1.4,0.3-3,0.3-4.9,0c-4.6-0.9-20.6,0.4-26.1,5.1
		c-2.9,2.1-5.6,6.2-6.3,7.4l0.4,0.3c0.8-1.2,3.4-5.2,6.2-7.2c5.3-4.6,21.1-5.9,25.7-5c1.9,0.3,3.6,0.3,5.1-0.1l0.1,0.4
		c0,0.1,0.1,0.1,0.1,0.1c0,0,0.1,0,0.1,0c0,0,0.1,0,0.1,0l2.6-1.2c0.1,0,0.1-0.1,0.1-0.1s0-0.1,0-0.2l-0.2-0.4
		c0.1-0.1,0.2-0.2,0.3-0.2c2.8-2.4,2.8-6.1,2.8-6.2l0.3-8.3H175.6z M174.3,88.2l-0.8,0.4c-0.2,0.1-0.3,0.2-0.5,0.2l-0.8,0.4l0-0.1
		l-0.2-0.5l-0.6-1.4l-0.2-0.5l-0.3-0.8l-0.6-1.7l1.9-0.8l1,2.3l0.2,0.5l0.6,1.4L174.3,88.2L174.3,88.2z M177.4,81.3
		c0,0.1,0,3.6-2.7,5.9c-0.1,0.1-0.1,0.1-0.2,0.2l-0.6-1.4c2-1.8,2-4.6,2-4.6l0.2-7.8h1.6L177.4,81.3z"/>
        </g>
        <g id="minicableNL1234">
            <path id="cableA-_x2B__5_" class="st4"
                  d="M136.7,125.2l0-26.5c0-0.3-1.2-1.5-2.8-1.5c-1.6,0-3.1,1.2-3.1,1.5l-0.3,29.1"/>
            <path id="cableA-_x2B__4_" class="st5" d="M130.3,128.2l0.5-0.3l0.3-29.2c0.1-0.2,1.4-1.2,2.8-1.2c1.4,0,2.4,1,2.5,1.2l0,27
		l0.5-0.3l0-26.7c0-0.5-1.4-1.7-3-1.7c-1.7,0-3.3,1.2-3.3,1.7L130.3,128.2z"/>
        </g>

        <g class="LabelN">
            <path id="LabelN_8_" class="st4" d="M179.2,343.4l-1.4-3.5c-0.4-1.1-11.1-27-23.6-35.4c-5.1-3.5-12-6.6-19.3-9.9
		c-9.8-4.5-20.9-9.5-29.2-16.1c-10.8-8.7-11-34.9-10.2-44.2l0.3-3.7l-7.5-0.7l-0.3,3.7c-0.1,1.5-3.2,37.7,12.9,50.7
		c9,7.2,20.6,12.5,30.8,17.1c7,3.2,13.6,6.2,18.2,9.3c8.8,6,16.9,22.8,19.7,29.7C173.2,339,176.4,340.2,179.2,343.4z"/>
            <path id="LabelN_3_" class="st7" d="M103.2,272.1l-21.8,25.8l17.5,16.4l23.5-28.6L103.2,272.1z M98.8,305l-1.7-1.3l1.1-9.8
		c0.2-2.1,0.5-4.3,1-6.2l-0.1,0c-1.2,1.7-2.4,3.3-4.1,5.4l-4.4,5.5l-1.6-1.2l10.3-12.9l1.8,1.4l-1.1,9.8c-0.2,2.3-0.6,4.2-1,6l0.1,0
		c1.2-1.9,2.4-3.5,4-5.5l4.3-5.4l1.6,1.3L98.8,305z"/>
            <path id="LabelN_2_" class="st5" d="M178,339.8c-0.5-1.1-11.2-27.1-23.7-35.5c-5.1-3.5-12.1-6.6-19.4-10c-4.3-2-8.9-4-13.4-6.3
		l1.5-1.8c0.1-0.2,0.2-0.4,0.2-0.6s-0.1-0.4-0.3-0.5l-19.3-13.6c-0.3-0.2-0.8-0.2-1,0.1l-1.1,1.4c-6.4-11.2-6.5-30.9-5.7-38.7
		l0.3-3.7c0-0.1-0.1-0.3-0.2-0.3l-7.5-0.7c-0.1,0-0.1,0-0.2,0.1s-0.1,0.1-0.1,0.2l-0.3,3.7c-0.1,1.4-2.6,30.3,8.3,45.8l-15.2,18.1
		c-0.3,0.3-0.2,0.8,0.1,1l17.5,16.4c0.1,0.1,0.3,0.2,0.5,0.2c0,0,0,0,0,0c0.2,0,0.4-0.1,0.5-0.3l16.8-20.4
		c5.1,2.7,10.4,5.1,15.3,7.3c7,3.2,13.6,6.2,18.2,9.3c8.4,5.7,16.5,21.7,19.7,29.4c0.1,0.1,0.3,0,0.3,0s0.2,0,0.1-0.2
		c-0.1-0.2-4.2-9.4-7.6-15c-4.3-7.1-8.4-12-12.2-14.6c-4.6-3.1-11.2-6.1-18.3-9.3c-4.9-2.2-10.1-4.6-15.2-7.2l4.6-5.5
		c4.5,2.3,9.1,4.4,13.5,6.4c7.3,3.3,14.2,6.4,19.3,9.9c12.4,8.4,23,34.2,23.5,35.3l1.4,3.5c0,0.1,0.1,0.2,0.2,0.2c0,0,0.1,0,0.1,0
		c0.1-0.1,0.2-0.2,0.1-0.3L178,339.8z M88.6,254.6c-1.2-11-0.4-20.6-0.3-21l0.3-3.5l7,0.6l-0.3,3.5c-0.7,7.9-0.7,27.9,5.9,39.2
		l-4.7,5.6C92.5,273.2,89.8,264.9,88.6,254.6z M115.3,293.2l-0.3,0.4l-16.1,19.6l-16.4-15.3L97,280.6l0.3-0.4l4.6-5.5l0.3-0.4l1-1.2
		l18.1,12.7l-1.2,1.5l-0.3,0.4L115.3,293.2z"/>
        </g>
        <g class="LabelL">
            <path id="LabelL_8_" class="st4" d="M167,341.5l-30.5-55.9c-9.8-18-8.6-50.5-8.6-51.9l0.2-3.7l7.5,0.3l-0.1,3.7
		c0,0.3-1.2,31.9,7.6,48l31.8,58.3C172,339.4,169.4,339.9,167,341.5z"/>
            <path id="LabelL_3_" class="st7" d="M136.7,246.8l-33.2,6l3.1,23.8l36.4-7.1L136.7,246.8z M113.7,267.7l-1.9,0.4l-1.9-9.9l17.8-3.5
		l0.4,2.3l-15.9,3.1L113.7,267.7z"/>
            <path id="LabelL_2_" class="st5" d="M174,354.6 M167.2,341.4l-30.5-55.9c-2-3.7-3.6-8.1-4.8-12.7l6.9-1.3c1,3.9,2.4,7.6,4.1,10.7
		l31.8,58.3l0.6-0.1l-31.9-58.5c-1.7-3.1-3-6.7-4-10.5l3.8-0.7c0.2,0,0.4-0.2,0.5-0.3c0.1-0.2,0.1-0.4,0.1-0.6l-6.2-22.7
		c-0.1-0.4-0.5-0.6-0.9-0.5l-0.7,0.1c-0.3-7.1-0.2-12.3-0.2-12.5l0.1-3.7c0-0.1-0.1-0.3-0.2-0.3l-7.5-0.3c-0.1,0-0.3,0.1-0.3,0.2
		l-0.2,3.7c0,0.6-0.2,6.4,0.2,14.3l-24.5,4.5c-0.4,0.1-0.7,0.4-0.6,0.8l3.1,23.8c0,0.2,0.1,0.4,0.3,0.5c0.1,0.1,0.3,0.1,0.4,0.1
		c0,0,0.1,0,0.1,0l24.7-4.8c1.2,4.6,2.8,9.1,4.8,12.8l30.6,56L167.2,341.4z M128.2,233.7l0.1-3.5l7,0.3l-0.1,3.5
		c0,0.5-0.2,5.6,0.1,12.6l-6.9,1.3C128,240,128.2,234.2,128.2,233.7z M131.1,271.4l-23.9,4.6l-2.9-22.3l23.7-4.3l0.5-0.1l6.9-1.3
		l0.5-0.1l0.2,0l5.9,21.3l-3.1,0.6l-0.5,0.1l-6.8,1.3L131.1,271.4z"/>
        </g>
        <g class="Label1">
            <path id="Label1_8_" class="st4" d="M177.5,341.5c-0.1-2.1-2.2-51.3-7.8-66.1c-4.1-10.9,0.1-35.5,2.1-44.1l0.4-1.9l-7.7,0.1l0,0
		c-0.3,1.3-7.7,33.2-1.8,48.4c5.2,13.6,7.3,61.5,7.3,62C172.7,339.5,175.2,339.9,177.5,341.5z"/>
            <path id="Label1_3_" class="st7" d="M169.5,266.5l-31.7,4.4l3.4,23.1l30.9-7.8L169.5,266.5z M145.2,284.3l-0.3-2.8l15.2-2.8l0-0.1
		l-2.1-3.4l1.7-0.9l2.6,4.3l0.3,2.5L145.2,284.3z"/>
            <path id="Label1_2_" class="st5" d="M172.7,286.8c0.1-0.2,0.2-0.4,0.2-0.6l-2.6-19.7c0-0.2-0.1-0.4-0.3-0.5
		c-0.2-0.1-0.4-0.2-0.6-0.1l-1.2,0.2c-0.6-12,2.3-28,3.8-34.6l0.4-1.9c0-0.1,0-0.2,0-0.2s-0.1-0.1-0.2-0.1l-7.7,0.1
		c-0.1,0-0.2,0.1-0.2,0.2c-0.3,1.1-4.9,21.5-3.9,37.5l-22.6,3.1c-0.2,0-0.4,0.1-0.5,0.3c-0.1,0.2-0.2,0.4-0.1,0.6l3.4,23.1
		c0,0.2,0.1,0.4,0.3,0.5c0.1,0.1,0.3,0.1,0.4,0.1c0.1,0,0.1,0,0.2,0l23.6-6c3.3,19.1,4.7,50.9,4.7,51.3c0,0.1,0.1,0.2,0.2,0.2
		c0,0,0,0,0,0c0.1,0,0.2-0.1,0.2-0.3c0-0.4-1.4-32.1-4.7-51.4l6.8-1.7c3.5,20.1,4.9,52.8,5,54.5c0,0.1,0.1,0.2,0.2,0.2c0,0,0,0,0,0
		c0.1,0,0.2-0.1,0.2-0.3C177.7,339.8,176.2,307,172.7,286.8z M164.7,229.9l7.2-0.1l-0.4,1.5c-1.5,6.6-4.4,22.7-3.8,34.7l-6.9,1
		C159.8,251.7,164.1,232.3,164.7,229.9z M171.3,285.7l-6.1,1.5l-0.5,0.1l-22.9,5.8l-3.1-21.6l21.7-3l0.5-0.1l6.9-1l0.5-0.1l0.6-0.1
		l1.1,8.2l0.4,2.8L171.3,285.7z"/>
        </g>
        <g class="Label2">
            <path id="Label2_10_" class="st4" d="M176.8,341.2c-0.1-0.4,6.5-36.6,14.6-60.5c2.5-7.4,18-50.9,18-50.9l-7.4,0.1
                c0,0-15.8,40.1-18.7,49.6c-9.3,30.1-14.1,58.8-13.7,60.8C171.8,339.3,174.2,339.5,176.8,341.2"/>
            <g id="Label2_3_">
                <path id="Label2_4_" class="st7" d="M193.6,242.8l-5.6,19.7l31.6,8.3l7.7-21.5L193.6,242.8z M216.8,264.6l-1.4-0.5l-1.1-2.3
                c-2.6-5.6-4.1-8.3-6.6-9.2c-1.7-0.6-3.5-0.3-4.4,2.2c-0.5,1.5-0.2,3,0.2,4l-1.8,0.2c-0.6-1.5-0.7-3.4-0.1-5.3
                c1.2-3.6,4.2-4.3,6.6-3.5c3.1,1,4.8,4.1,7,8.8l0.8,1.8l0.1,0l2.5-7.5l1.9,0.6L216.8,264.6z"/>
            </g>
            <path id="Label2_2_" class="st5" d="M227.9,248.9c-0.1-0.2-0.3-0.3-0.5-0.4l-22.9-4.5c2.8-8,5-14.1,5.1-14.3c0-0.1,0-0.2,0-0.2
                c0-0.1-0.1-0.1-0.2-0.1l-7.4,0.1c-0.1,0-0.2,0.1-0.2,0.2c-0.1,0.1-2.2,5.6-5,12.8l-3-0.6c-0.4-0.1-0.8,0.2-0.9,0.5l-5.6,19.7
                c-0.1,0.2,0,0.4,0.1,0.6c0.1,0.2,0.3,0.3,0.5,0.4l1,0.3c-2.6,6.9-4.8,13-5.7,15.9c-9.4,30.4-14.1,59-13.7,61c0,0.1,0.1,0,0.2,0
                c0.1,0,0.3,0.1,0.2,0c-0.4-2,4.4-30.4,13.7-60.7c0.9-3,3.1-9.1,5.7-16l7.2,1.9c-2.5,6.9-4.5,12.8-5.3,15.1
                c-8,23.5-14.7,60.1-14.6,60.7c0,0.1,0.2,0.1,0.3,0.1c0,0,0,0,0,0.1c0,0.1,0.2-0.1,0.2-0.3c0-0.8,6.4-36.4,14.6-60.5
                c0.8-2.3,2.8-8.2,5.3-15.1l22.5,5.9c0.1,0,0.1,0,0.2,0c0.3,0,0.6-0.2,0.7-0.5l7.7-21.5C228,249.4,228,249.1,227.9,248.9z
                M202.1,230.1l6.9-0.1c-0.5,1.4-2.5,7-5,14l-6.8-1.3C199.7,236.1,201.7,231.1,202.1,230.1z M219.1,269.9l-21.7-5.7l-0.5-0.1
                l-7.2-1.9l-0.5-0.1l-0.4-0.1l5.2-18.3l2,0.4l0.5,0.1l6.9,1.3l0.5,0.1l22.3,4.3L219.1,269.9z"/>
        </g>
        <g class="Label3">
            <path id="Label3_8_" class="st4" d="M241.7,257.8c0.7-1.4,1.7-2.2,2.7-2.6c2.1-9.7,2.5-19.7,2.5-21.5l0.1-3.8l-7.5-0.2l-0.1,3.8
		c-0.3,9.9-2.6,27.6-7.5,32.9c-5.9,6.4-14.6,15.2-27.5,27c-10.4,9.6-32.1,44.2-33,46.2c2.1-0.1,3.8,0.4,5.3,1.5
		c-0.1-0.4,19.3-31.1,38-48.1c8.9-8.1,15.6-13.8,22.7-21.6c2.1-2.3,3.8-5.6,5-9.4L241,262C240.8,261,241,259.3,241.7,257.8z"/>
            <path id="Label3_3_" class="st7" d="M236.9,243.2l-9.2,18.5l26.4,14.2l10.9-14.5L236.9,243.2z M253.1,268.8l-1.2-1.3
		c0.6-0.4,1.8-1.3,2.4-2.7c1.2-2.4,0.1-4-1.1-4.5c-2-1-3.7,0.4-4.6,2.2l-0.5,1.1l-1.4-0.7l0.5-1.1c0.7-1.4,0.9-3.5-0.8-4.3
		c-1.1-0.6-2.5-0.3-3.3,1.4c-0.6,1.1-0.6,2.4-0.5,3.3L241,262c-0.2-1,0-2.7,0.8-4.2c1.4-2.8,3.6-3.2,5.3-2.3c1.4,0.7,2.2,2.2,2,4.2
		l0,0c1.2-1.5,3.2-2.3,5.2-1.3c2.2,1.1,3.3,3.9,1.6,7.2C255.1,267.2,253.9,268.3,253.1,268.8z"/>
            <path id="Label3_2_" class="st5" d="M265.4,260.8l-19.5-12.7c1-7,1.2-13.1,1.3-14.4l0.1-3.8c0-0.1,0-0.1-0.1-0.2
		c0,0-0.1-0.1-0.2-0.1l-7.5-0.2c-0.1,0-0.3,0.1-0.3,0.2l-0.1,3.8c-0.1,2.8-0.3,6.2-0.7,9.8l-1.1-0.7c-0.2-0.1-0.4-0.2-0.6-0.1
		c-0.2,0.1-0.4,0.2-0.5,0.4l-9.2,18.5c-0.2,0.4,0,0.8,0.3,1l5.3,2.9c-0.3,0.4-0.6,0.8-0.9,1.1c-7.2,7.8-16.5,16.9-27.5,27
		c-10.4,9.5-32.2,44.2-33,46.3c-0.1,0.1,0,0.3,0.1,0.3c0.1,0.1,0.3,0,0.3-0.1c0.9-2.2,22.6-36.7,32.9-46.1
		c11-10.1,20.3-19.3,27.5-27.1c0.3-0.3,0.6-0.7,0.9-1.2l6.2,3.3c-0.6,1-1.2,1.9-1.9,2.6c-5.7,6.2-11.2,11.2-17.6,16.9
		c-1.6,1.5-3.3,3-5.1,4.6c-9.8,8.9-19.6,21.4-26.1,30.3c-6.3,8.6-12.1,17.5-12,18c0,0.1,0.1,0.2,0.2,0.2c0,0,0,0,0,0
		c0.1,0,0.2-0.1,0.2-0.2c0.4-1.1,19.3-31,37.9-47.9c1.8-1.6,3.5-3.1,5.1-4.6c6.4-5.8,11.9-10.8,17.7-17c0.7-0.8,1.4-1.7,2-2.7
		l14,7.6c0.1,0.1,0.2,0.1,0.4,0.1c0.2,0,0.5-0.1,0.6-0.3l10.9-14.5c0.1-0.2,0.2-0.4,0.1-0.6C265.7,261.1,265.6,260.9,265.4,260.8z
		 M239.7,233.5l0.1-3.5l7,0.2l-0.1,3.5c0,1.3-0.3,7.2-1.2,14.1l-6.5-4.2C239.4,239.9,239.6,236.4,239.7,233.5z M253.9,275l-13.4-7.3
		l-0.4-0.2l-6.1-3.3l-0.4-0.2l-4.7-2.5l8.5-17.1l1.1,0.7l0.5,0.3l6.5,4.2l0.5,0.3l18.2,11.9L253.9,275z"/>
        </g>
        <g class="Label4">
            <g id="Label4_3_">
                <path id="Label4_12_" class="st4" d="M269.6,288.1l2.4,2.4c5.1-8.6,4.4-17,4.3-17.4l3-43.8l-7.5,0l-2.9,44.6
			c0,0.1,0.4,8.4-5.3,15.5c-5.2,6.6-14.4,10.6-27.2,11.8c-54.1,5.2-64.2,37.1-64.6,38.5c2.8,0.1,5.1,1.1,7,3.1
			c0.4-1.2,9.5-29.5,58.3-34.2c14.3-1.4,24.8-5.9,31.4-13.6l-0.9-5.2L269.6,288.1z"/>
                <path id="Label4_5_" class="st7" d="M269.7,291.3L269.7,291.3c0.3,1.2,0.5,2,0.7,2.9l1.2,7.3l0,0l4.1-4.1l-4.2-4.2
			C271,292.6,270.3,291.9,269.7,291.3z"/>
                <path id="Label4_4_" class="st7" d="M265.4,276.7l-14.3,14.8l24,22.2l16.9-15.4L265.4,276.7z M277.1,298.7l-5.8,5.8l-1.1-1.1
			l-2.4-13.5l1.8-1.8l7.7,7.7l1.7-1.7l1.3,1.3l-1.7,1.7l3.4,3.4l-1.6,1.6L277.1,298.7z"/>
            </g>
            <path id="Label4_2_" class="st5" d="M292.5,297.7l-17.2-14c1.8-6,1.3-10.6,1.3-10.6l3-43.8c0-0.1,0-0.1-0.1-0.2
		c0-0.1-0.1-0.1-0.2-0.1l-7.5,0c0,0,0,0,0,0c-0.1,0-0.2,0.1-0.2,0.2l-2.9,44.6c0,0,0.1,1.7-0.4,4.3l-2.5-2c-0.3-0.2-0.7-0.2-1,0.1
		l-14.3,14.8c-0.1,0.1-0.2,0.3-0.2,0.5s0.1,0.4,0.2,0.5l4.4,4.1c-4.9,2.5-11.1,4.2-18.5,4.9c-54.3,5.2-64.4,37.3-64.8,38.7
		c0,0.1,0,0.3,0.2,0.3c0.1,0,0.3,0,0.3-0.2c0.4-1.4,10.4-33.1,64.4-38.3c7.6-0.7,13.8-2.4,18.8-5l5.4,5c-6.1,3.7-14,6.1-23.5,7
		c-48.8,4.7-58.2,33.1-58.5,34.3c0,0.1,0,0.3,0.2,0.3c0,0,0,0,0.1,0c0.1,0,0.2-0.1,0.2-0.2c0.4-1.2,9.6-29.3,58.1-34
		c9.7-0.9,17.7-3.3,23.9-7.2l13.5,12.5c0.1,0.1,0.3,0.2,0.5,0.2c0.2,0,0.4-0.1,0.5-0.2l16.9-15.4c0.2-0.1,0.3-0.4,0.2-0.6
		C292.8,298.1,292.7,297.8,292.5,297.7z M269.3,273.9l2.8-44.4l7,0l-3,43.6c0,0.1,0.5,4.5-1.3,10.3l-6-4.9
		C269.3,275.8,269.3,273.9,269.3,273.9z M275.2,312.6l-12.7-11.7l-0.4-0.3l-5.3-4.9l-0.4-0.4l-4.2-3.9l13.2-13.7l2.6,2.1l0.4,0.4
		l5.9,4.8l0.4,0.3l16.1,13.1L275.2,312.6z"/>
        </g>
        <g id="connectorNL">
            <g id="connectorNL_2_">
                <path id="connectorNL_15_" class="st5" d="M297.6,188.2l-223.4-0.1c-0.2,0-0.4,0.1-0.5,0.2s-0.2,0.3-0.2,0.5V238
                c0,0.4,0.3,0.8,0.8,0.8H80c0.4,0,0.8-0.3,0.8-0.8v-7.5h29v7.5c0,0.4,0.3,0.8,0.8,0.8h5.8c0.4,0,0.8-0.3,0.8-0.8v-7.5l29-0.1l0,7.6
                c0,0.4,0.3,0.8,0.8,0.8h5.8c0.4,0,0.8-0.3,0.8-0.8v-7.6l29,0.1l0,7.5c0,0.2,0.1,0.4,0.2,0.5s0.3,0.2,0.5,0.2h5.5
                c0.4,0,0.8-0.3,0.8-0.8v-7.5h29v7.5c0,0.4,0.3,0.8,0.8,0.8h5.8c0.4,0,0.8-0.3,0.8-0.8v-7.5l29-0.1l0,7.6c0,0.4,0.3,0.8,0.8,0.8
                h5.8c0.4,0,0.8-0.3,0.8-0.8v-7.6l29,0.1l0,7.5c0,0.2,0.1,0.4,0.2,0.5s0.3,0.2,0.5,0.2h5.8c0.4,0,0.8-0.3,0.8-0.8V189
                C298.4,188.6,298,188.2,297.6,188.2z M110.6,229C110.6,229,110.6,229,110.6,229L80,229c0,0,0,0-0.1,0v-33.8h30.6V229z M146.9,229
                C146.9,229,146.9,229,146.9,229L146.9,229l-30.5,0.1c0,0-0.1,0-0.1,0v-33.8h30.6V229z M183.3,229.1c-0.1,0-0.1,0-0.2,0l-30.5-0.1
                v-33.7h30.6V229.1z M219.2,229h-30.5c-0.1,0-0.1,0-0.1,0v-33.8h30.6V229z M255.6,229C255.5,229,255.5,229,255.6,229L255.6,229
                l-30.6,0c0,0,0,0-0.1,0v-33.8h30.6V229z M291.8,229l-30.4-0.1h0c-0.1,0-0.1,0-0.2,0v-33.7h30.6V229z M296.9,237.3h-4.3l0-7.5
                c0-0.2-0.1-0.4-0.3-0.6V195c0-0.1-0.1-0.2-0.2-0.2h-31.1c-0.1,0-0.2,0.1-0.2,0.2v34.4c0,0.1-0.1,0.2-0.1,0.3v7.6h-4.3l0-7.6
                c0-0.2-0.1-0.3-0.2-0.5V195c0-0.1-0.1-0.2-0.3-0.2h-31.1c-0.1,0-0.2,0.1-0.2,0.2v34.3c-0.1,0.1-0.2,0.3-0.2,0.5v7.5h-4.3v-7.5
                c0-0.2-0.1-0.4-0.3-0.6V195c0-0.1-0.1-0.2-0.2-0.2h-31.1c-0.1,0-0.2,0.1-0.2,0.2v34.4c-0.1,0.1-0.1,0.2-0.1,0.4v7.5h-4l0-7.5
                c0-0.1,0-0.2-0.1-0.3V195c0-0.1-0.1-0.2-0.2-0.2h-31.1c-0.1,0-0.2,0.1-0.2,0.2v34.1c0,0,0,0-0.1,0c-0.1,0.1-0.2,0.3-0.2,0.5v7.6
                h-4.3l0-7.6c0-0.2-0.1-0.4-0.2-0.5c0,0,0,0,0,0V195c0-0.1-0.1-0.2-0.2-0.2H116c-0.1,0-0.2,0.1-0.2,0.2v34.4
                c-0.1,0.1-0.1,0.3-0.1,0.4v7.5h-4.3v-7.5c0-0.2-0.1-0.4-0.2-0.5V195c0-0.1-0.1-0.2-0.2-0.2H79.7c-0.1,0-0.2,0.1-0.2,0.2v34.3
                c-0.1,0.1-0.2,0.3-0.2,0.5v7.5H75v-47.6l221.9,0.1V237.3z"/>
                <path id="connectorNL_14_" class="st5" d="M95.3,203.9c-4.5,0-8.1,3.6-8.1,8.1c0,2.1,0.8,4.1,2.2,5.5c0,0,0,0,0,0c0,0,0,0,0,0
                c0.5,0.5,1,0.9,1.6,1.3c0,0,0,0,0,0c0,0,0,0,0,0c1.2,0.8,2.7,1.2,4.3,1.2c4.5,0,8.1-3.6,8.1-8.1
                C103.4,207.5,99.7,203.9,95.3,203.9z M95.3,204.4c1.5,0,2.9,0.4,4.1,1.2l-9.8,11.4c-1.2-1.3-1.9-3.1-1.9-5
                C87.7,207.8,91.1,204.4,95.3,204.4z M89.9,217.3l9.9-11.4c0.4,0.3,0.8,0.7,1.2,1.1l-9.9,11.3C90.7,218,90.3,217.7,89.9,217.3z
                M95.3,219.6c-1.4,0-2.6-0.4-3.8-1l9.7-11.2c1,1.3,1.6,2.9,1.6,4.6C102.9,216.2,99.5,219.6,95.3,219.6z"/>
                <path id="connectorNL_13_" class="st5" d="M131.6,203.9c-4.5,0-8.1,3.6-8.1,8.1c0,2.1,0.8,4.1,2.2,5.5c0,0,0,0,0,0c0,0,0,0,0,0
                c0.5,0.5,1,0.9,1.6,1.3c0,0,0,0,0,0c0,0,0,0,0,0c1.2,0.8,2.7,1.2,4.3,1.2c4.5,0,8.1-3.6,8.1-8.1
                C139.6,207.5,136,203.9,131.6,203.9z M131.6,204.4c1.5,0,2.9,0.4,4.1,1.2l-9.8,11.4c-1.2-1.3-1.9-3.1-1.9-5
                C124,207.8,127.4,204.4,131.6,204.4z M126.2,217.3l9.9-11.4c0.4,0.3,0.8,0.7,1.2,1.1l-9.9,11.3C126.9,218,126.6,217.7,126.2,217.3
                z M131.6,219.6c-1.4,0-2.6-0.4-3.8-1l9.7-11.2c1,1.3,1.6,2.9,1.6,4.6C139.1,216.2,135.7,219.6,131.6,219.6z"/>
                <path id="connectorNL_12_" class="st5" d="M168,203.9c-4.5,0-8.1,3.6-8.1,8.1c0,2.1,0.8,4.1,2.2,5.5c0,0,0,0,0,0c0,0,0,0,0,0
                c0.5,0.5,1,0.9,1.6,1.3c0,0,0,0,0,0c0,0,0,0,0,0c1.2,0.8,2.7,1.2,4.3,1.2c4.5,0,8.1-3.6,8.1-8.1
                C176.1,207.5,172.5,203.9,168,203.9z M168,204.4c1.5,0,2.9,0.4,4.1,1.2l-9.8,11.4c-1.2-1.3-1.9-3.1-1.9-5
                C160.4,207.8,163.8,204.4,168,204.4z M162.6,217.3l9.9-11.4c0.4,0.3,0.8,0.7,1.2,1.1l-9.9,11.3C163.4,218,163,217.7,162.6,217.3z
                M168,219.6c-1.4,0-2.6-0.4-3.8-1l9.7-11.2c1,1.3,1.6,2.9,1.6,4.6C175.6,216.2,172.2,219.6,168,219.6z"/>
                <path id="connectorNL_11_" class="st5" d="M203.9,203.9c-4.5,0-8.1,3.6-8.1,8.1c0,2.1,0.8,4.1,2.2,5.5c0,0,0,0,0,0c0,0,0,0,0,0
                c0.5,0.5,1,0.9,1.6,1.3c0,0,0,0,0,0c0,0,0,0,0,0c1.2,0.8,2.7,1.2,4.3,1.2c4.5,0,8.1-3.6,8.1-8.1
                C211.9,207.5,208.3,203.9,203.9,203.9z M203.9,204.4c1.5,0,2.9,0.4,4.1,1.2l-9.8,11.4c-1.2-1.3-1.9-3.1-1.9-5
                C196.3,207.8,199.7,204.4,203.9,204.4z M198.5,217.3l9.9-11.4c0.4,0.3,0.8,0.7,1.2,1.1l-9.9,11.3
                C199.2,218,198.8,217.7,198.5,217.3z M203.9,219.6c-1.4,0-2.6-0.4-3.8-1l9.7-11.2c1,1.3,1.6,2.9,1.6,4.6
                C211.4,216.2,208,219.6,203.9,219.6z"/>
                <path id="connectorNL_10_" class="st5" d="M240.3,203.9c-4.5,0-8.1,3.6-8.1,8.1c0,2.1,0.8,4.1,2.2,5.5c0,0,0,0,0,0c0,0,0,0,0,0
                c0.5,0.5,1,0.9,1.6,1.3c0,0,0,0,0,0c0,0,0,0,0,0c1.2,0.8,2.7,1.2,4.3,1.2c4.5,0,8.1-3.6,8.1-8.1
                C248.3,207.5,244.7,203.9,240.3,203.9z M240.3,204.4c1.5,0,2.9,0.4,4.1,1.2l-9.8,11.4c-1.2-1.3-1.9-3.1-1.9-5
                C232.7,207.8,236.1,204.4,240.3,204.4z M234.9,217.3l9.9-11.4c0.4,0.3,0.8,0.7,1.2,1.1l-9.9,11.3
                C235.6,218,235.2,217.7,234.9,217.3z M240.3,219.6c-1.4,0-2.6-0.4-3.8-1l9.7-11.2c1,1.3,1.6,2.9,1.6,4.6
                C247.8,216.2,244.4,219.6,240.3,219.6z"/>
                <path id="connectorNL_9_" class="st5" d="M283.8,208.6c-0.9-2-2.5-3.4-4.6-4.2c-2-0.7-4.2-0.6-6.2,0.3c-4,1.9-5.8,6.7-3.9,10.7
                c0.9,1.9,2.4,3.3,4.3,4.1c0,0,0,0,0,0c0,0,0,0,0,0c0.1,0,0.1,0.1,0.2,0.1c0.9,0.3,1.8,0.5,2.8,0.5c1.2,0,2.3-0.3,3.4-0.8
                c2-0.9,3.4-2.5,4.2-4.6C284.8,212.7,284.7,210.5,283.8,208.6z M269.6,215.2c-1.8-3.8-0.1-8.3,3.7-10.1c1-0.5,2.1-0.7,3.2-0.7
                c0.3,0,0.7,0,1,0.1l-4.1,14.4C271.7,218.2,270.4,216.9,269.6,215.2z M273.8,219.1l4.1-14.5c0.4,0.1,0.7,0.2,1.1,0.3
                c0.1,0.1,0.3,0.1,0.4,0.2l-4.1,14.4C274.8,219.4,274.3,219.3,273.8,219.1C273.8,219.1,273.8,219.1,273.8,219.1z M283.6,214.6
                c-0.7,1.9-2.1,3.4-3.9,4.3c-1.2,0.6-2.5,0.8-3.8,0.7l4.1-14.3c1.5,0.8,2.7,2,3.4,3.5C284.2,210.6,284.3,212.7,283.6,214.6z"/>
                <path id="connectorNL_8_" class="st5" d="M88.4,184.4v-15.2h2.1l4.9,7.7c1.1,1.8,2,3.4,2.7,4.9l0,0c-0.2-2-0.2-3.9-0.2-6.2v-6.3
                h1.8v15.2h-2l-4.8-7.7c-1.1-1.7-2.1-3.4-2.8-5.1l-0.1,0c0.1,1.9,0.2,3.7,0.2,6.3v6.5H88.4z"/>
                <path id="connectorNL_7_" class="st5" d="M126.3,169.3h2v13.5h6.5v1.6h-8.4V169.3z"/>
                <path id="connectorNL_6_" class="st5"
                      d="M166.3,171.6L166.3,171.6l-2.6,1.4l-0.4-1.5l3.2-1.7h1.7v14.6h-1.9V171.6z"/>
                <path id="connectorNL_5_" class="st5" d="M198.2,184.4v-1.2l1.6-1.5c3.7-3.6,5.4-5.4,5.4-7.6c0-1.5-0.7-2.9-2.9-2.9
                c-1.3,0-2.4,0.7-3.1,1.2l-0.6-1.4c1-0.9,2.5-1.5,4.1-1.5c3.1,0,4.5,2.2,4.5,4.3c0,2.7-2,4.9-5,7.9l-1.2,1.1v0h6.6v1.6H198.2z"/>
                <path id="connectorNL_4_" class="st5" d="M235.7,182.1c0.6,0.4,1.9,0.9,3.2,0.9c2.5,0,3.3-1.6,3.3-2.8c0-2-1.9-2.9-3.8-2.9h-1.1
                v-1.5h1.1c1.4,0,3.3-0.7,3.3-2.5c0-1.2-0.7-2.2-2.6-2.2c-1.2,0-2.3,0.5-2.9,1l-0.5-1.4c0.8-0.6,2.2-1.1,3.8-1.1
                c2.9,0,4.2,1.7,4.2,3.5c0,1.5-0.9,2.8-2.7,3.4v0c1.8,0.4,3.3,1.7,3.3,3.8c0,2.3-1.8,4.4-5.3,4.4c-1.6,0-3.1-0.5-3.8-1L235.7,182.1
                z"/>
                <path id="connectorNL_3_" class="st5" d="M277.7,184.3v-4h-6.8v-1.3l6.5-9.3h2.1v9.1h2v1.6h-2v4H277.7z M277.7,178.8v-4.9
                c0-0.8,0-1.5,0.1-2.3h-0.1c-0.5,0.9-0.8,1.5-1.2,2.2l-3.6,5v0H277.7z"/>
            </g>
            <path id="connectorNL_1_" class="st5" d="M180.8,372.5C180.8,372.5,180.8,372.5,180.8,372.5c-0.1,0-0.2-0.1-0.2-0.3v-23.7
        c0-4.7-3.8-8.5-8.5-8.5s-8.5,3.8-8.5,8.5v21.7c0,0.1-0.1,0.2-0.2,0.2s-0.2-0.1-0.2-0.2v-21.7c0-5,4-9,9-9s9,4,9,9v23.7
        C181.1,372.4,181,372.5,180.8,372.5z"/>
        </g>
        <g id="BlueconnectorNL1234_1_">
            <g id="BlueconnectorNL1234">
                <g>
                    <line class="st8" x1="130" y1="71.6" x2="147.9" y2="124.9"/>
                    <g>
                        <g>
                            <path class="st4" d="M125.8,73.3c-0.8-2.4,0.5-4.9,2.8-5.7s4.9,0.5,5.7,2.8c0.8,2.4-0.5,4.9-2.8,5.7
						C129.1,76.9,126.6,75.6,125.8,73.3z"/>
                            <path class="st7" d="M125.2,73.5c0.9,2.7,3.8,4.1,6.5,3.2c2.7-0.9,4.1-3.8,3.2-6.5c-0.9-2.7-3.8-4.1-6.5-3.2
						C125.8,67.9,124.3,70.8,125.2,73.5C126.1,76.1,124.3,70.8,125.2,73.5z M133.8,70.6c0.7,2-0.4,4.3-2.5,5s-4.3-0.4-5-2.5
						c-0.7-2,0.4-4.3,2.5-5S133.1,68.5,133.8,70.6C134.5,72.6,133.1,68.5,133.8,70.6z"/>
                        </g>
                    </g>
                </g>
            </g>
        </g>
    </g>

    <g class="DigitalConnector">
        <g id="miniA_2_" class="LabelA">
            <path id="miniA_1_" class="st4" d="M244.5,100.1l-0.7-1.2c1.3-1.9,2.6-4.4,1.8-6.1c-0.5-1.2-2-1.9-4.2-2.1
		c-9.3-1-13.1-4.5-15.4-8.1l0.9-0.4c2.2,3.3,5.8,6.6,14.5,7.5c2.7,0.3,4.4,1.2,5.1,2.7C247.4,94.5,245.7,98.2,244.5,100.1z"/>
            <path id="miniA" class="st5" d="M246.9,92.2c-0.8-1.7-2.6-2.7-5.5-2.9c-8.5-0.9-12-4-14.1-7.2l0.6-0.2c0.1,0,0.1-0.1,0.1-0.1
		c0-0.1,0-0.1,0-0.2l-1.3-2.5c-0.1-0.1-0.2-0.2-0.3-0.1L226,79c-0.4-2-0.6-4.7-0.7-5.8c0-0.1-0.1-0.2-0.3-0.2l-1.5,0.1
		c-0.1,0-0.2,0.1-0.2,0.3c0,0.5,0.2,4,0.8,6.6l-1.1,0.5l-1.8,0.9c-0.1,0-0.1,0.1-0.1,0.1c0,0.1,0,0.1,0,0.2l1.1,2.3
		c0,0.1,0.1,0.1,0.2,0.1c0,0,0.1,0,0.1,0l2.8-1.2c2.3,3.7,6.2,7.4,15.8,8.4c2.1,0.2,3.4,0.8,3.8,1.8c0.5,1.2-0.1,3.2-1.8,5.7
		c-0.1,0.1-0.1,0.2,0,0.3l1,1.7c0,0.1,0.1,0.1,0.2,0.1c0,0,0,0,0,0c0.1,0,0.2,0,0.2-0.1C246,98.7,248,94.7,246.9,92.2z M223.8,73.5
		l1,0c0.1,0.8,0.3,3.6,0.7,5.8l-0.9,0.4C224.1,77.4,223.9,74.5,223.8,73.5z M225.2,82.4l-2.5,1l-0.9-1.9l1.6-0.8l1-0.5l0.5-0.2
		l0.9-0.4l0.5-0.2l0.2-0.1l1.1,2.1l-0.4,0.2l-0.5,0.2l-0.9,0.4L225.2,82.4z M244.5,100.1l-0.7-1.2c1.3-1.9,2.6-4.4,1.8-6.1
		c-0.5-1.2-2-1.9-4.2-2.1c-9.3-1-13.1-4.5-15.4-8.1l0.9-0.4c2.2,3.3,5.8,6.6,14.5,7.5c2.7,0.3,4.4,1.2,5.1,2.7
		C247.4,94.5,245.7,98.2,244.5,100.1z"/>
        </g>
        <g id="mini_-_2_" class="LabelMinus">
            <path id="mini_-" class="st4" d="M242.7,80.9c0.2,0.4,0.3,0.8,0.5,1.2l0,0.1c1.3,2.8,3.1,7,3.2,9.4c0.1,2.6-2.1,7-2.6,7.9l0.8,0.7
		c0.6-1.2,2.9-5.9,2.8-8.6c-0.1-2.7-2-7-3.3-9.8l-0.1-0.1c-0.2-0.4-0.4-0.8-0.5-1.2c-0.2-0.4-0.3-0.8-0.4-1.2l-1,0.1
		C242.4,80,242.5,80.5,242.7,80.9z"/>
            <path id="mini_-_1_" class="st5" d="M241.7,79.5c0.1,0.6,0.3,1.1,0.5,1.6c0.2,0.4,0.3,0.8,0.5,1.2l0.1,0.1c1.2,2.7,3.1,6.9,3.2,9.2
		c0.1,2.7-2.6,7.8-2.6,7.9c-0.1,0.1,0,0.2,0.1,0.3l1.2,1c0,0,0.1,0.1,0.2,0.1c0,0,0,0,0,0c0.1,0,0.1-0.1,0.2-0.1
		c0.3-0.6,3.1-6,3-9.2c-0.1-2.8-2-7.1-3.3-10l0-0.1c-0.2-0.4-0.4-0.8-0.5-1.2c-0.1-0.3-0.2-0.7-0.3-1l0.3,0c0.1,0,0.1,0,0.2-0.1
		c0-0.1,0.1-0.1,0.1-0.2l-0.4-2.8c0-0.1,0-0.1-0.1-0.2c-0.1,0-0.1-0.1-0.2,0l-0.3,0c0-1.4,0.1-2.5,0.1-2.6c0-0.1,0-0.1-0.1-0.2
		c0-0.1-0.1-0.1-0.2-0.1l-1.5,0c-0.1,0-0.2,0.1-0.2,0.2c0,0.1-0.1,1.4-0.1,3l-1.3,0.2l-2,0.3c-0.1,0-0.2,0.1-0.2,0.3l0.3,2.5
		c0,0.1,0.1,0.2,0.2,0.2c0,0,0,0,0,0l2-0.1L241.7,79.5 M242,73.6l1,0c0,0.4-0.1,1.4-0.1,2.5l-1,0.2C241.9,75.1,241.9,74.1,242,73.6z
		 M241.9,79l-0.2,0l-1.3,0.2l-1.8,0.1l-0.2-2.1l1.8-0.2l1.2-0.2l0.2,0l0.2,0l1-0.2l0.2,0l0.2,0l0.1,0l0.3,2.3l-0.1,0l-0.2,0l-0.2,0
		l-1,0.1L241.9,79z M244.7,100.3l-0.8-0.7c0.5-0.9,2.7-5.4,2.6-7.9c-0.1-2.5-2-6.6-3.2-9.4l0-0.1c-0.2-0.4-0.4-0.8-0.5-1.2
		c-0.2-0.4-0.3-0.9-0.5-1.5l1-0.1c0.1,0.4,0.2,0.8,0.4,1.2c0.2,0.4,0.3,0.8,0.5,1.2l0.1,0.1c1.3,2.8,3.2,7.1,3.3,9.8
		C247.6,94.4,245.3,99.1,244.7,100.3z"/>
        </g>
        <g id="mini__x2B__2_" class="LabelPlus">
            <path id="mini__x2B_" class="st4" d="M259.5,90.3c-0.6,0.7-1.3,1-2.1,1.1c-5.8,0.4-12.1,7.4-13.2,8.6l0.7,0.8
		c1.1-1.3,7.2-8.1,12.5-8.4c1.1-0.1,2-0.5,2.8-1.4c1.4-1.6,1.8-6.2,1.9-10.4l-0.9,0C261.2,84.4,260.8,88.8,259.5,90.3z"/>
            <path id="mini__x2B__1_" class="st5" d="M263.4,77.3c0,0-0.1-0.1-0.2-0.1l-0.5,0c0-2.2-0.1-3.7-0.1-3.8c0-0.1-0.1-0.3-0.3-0.2
		l-1.4,0.1c-0.1,0-0.1,0-0.2,0.1c0,0-0.1,0.1-0.1,0.2c0,0.8,0.1,2.1,0.1,3.7l-1.2,0l-2,0c0,0,0,0,0,0c-0.1,0-0.2,0.1-0.2,0.2
		l-0.1,2.5c0,0.1,0.1,0.2,0.2,0.3l2,0.2l1.3,0.1c-0.1,3.9-0.5,8.2-1.7,9.5c-0.5,0.6-1.1,0.9-1.7,0.9c-6.4,0.4-13.4,8.6-13.7,8.9
		c-0.1,0.1-0.1,0.2,0,0.3l1.1,1.2c0,0,0.1,0.1,0.2,0.1c0,0,0,0,0,0c0.1,0,0.1,0,0.2-0.1c0.1-0.1,6.8-8.1,12.3-8.4
		c1.2-0.1,2.3-0.6,3.1-1.6c1.5-1.7,2-6.5,2.1-10.7l0.5,0c0,0,0,0,0,0c0.1,0,0.1,0,0.2-0.1c0,0,0.1-0.1,0.1-0.2l0-2.8
		C263.5,77.4,263.5,77.3,263.4,77.3z M262.1,73.7c0.1,0.8,0.1,2,0.1,3.5l-0.9,0c0-1.6-0.1-2.9-0.1-3.5L262.1,73.7z M260.3,90.9
		c-0.8,0.9-1.7,1.3-2.8,1.4c-5.3,0.3-11.3,7.1-12.5,8.4l-0.7-0.8c1.1-1.2,7.4-8.2,13.2-8.6c0.8-0.1,1.5-0.4,2.1-1.1
		c1.3-1.5,1.7-5.9,1.8-9.8l0.9,0C262.1,84.7,261.7,89.3,260.3,90.9z M263,80l-0.2,0l-0.5,0l-0.9,0l-0.5,0l-1.3-0.1l-1.8-0.1l0.1-2.1
		l3,0l0.5,0l0.9,0l0.5,0l0.3,0L263,80z"/>
        </g>

        <g id="connectorA-_x2B_">
            <path id="connectorA-_x2B__4_" class="st9" d="M127,144.7h3l8.5,19.6h-4l-1.8-4.5h-8.5l-1.8,4.5h-3.9L127,144.7z M131.4,156.9l-3-8
		l-3.1,8H131.4z"/>
            <rect id="connectorA-_x2B__3_" x="174.9" y="153" class="st9" width="18.2" height="3.1"/>
            <polygon id="connectorA-_x2B__2_" class="st9" points="246.1,154 238.5,154 238.5,146.5 235.5,146.5 235.5,154 227.9,154
		227.9,157.1 235.5,157.1 235.5,164.7 238.5,164.7 238.5,157.1 246.1,157.1 	"/>
            <path id="connectorA-_x2B__1_" class="st5" d="M267.1,168.7l-169.4-0.1c-0.2,0-0.4,0.1-0.5,0.2s-0.2,0.3-0.2,0.5v72.5
		c0,0.4,0.3,0.8,0.8,0.8h8.6c0.4,0,0.8-0.3,0.8-0.8v-11.5h43.5l0,11.5c0,0.2,0.1,0.4,0.2,0.5s0.3,0.2,0.5,0.2h8.6
		c0.4,0,0.8-0.3,0.8-0.8v-11.5l43.5-0.1l0,11.5c0,0.4,0.3,0.8,0.8,0.8h8.6c0.4,0,0.8-0.3,0.8-0.8v-11.5l43.5,0.1l0,11.5
		c0,0.2,0.1,0.4,0.2,0.5s0.3,0.2,0.5,0.2h8.6c0.4,0,0.8-0.3,0.8-0.8v-72.4C267.8,169,267.5,168.7,267.1,168.7z M106.2,228.9
		c-0.2,0-0.3,0.1-0.4,0.2v-47.3h45.9v47.3c-0.1-0.1-0.3-0.2-0.4-0.2H106.2z M204.9,228.8L204.9,228.8l-45,0.1
		c-0.2,0-0.3,0.1-0.4,0.2v-47.3h45.9V229C205.2,228.9,205,228.8,204.9,228.8z M213.5,228.8L213.5,228.8c-0.2,0-0.4,0.1-0.5,0.2
		c0,0,0,0,0,0v-47.3h45.9V229c-0.1,0-0.2-0.1-0.3-0.1L213.5,228.8z M266.3,241.1h-7.1l0-11.3c0,0,0.1-0.1,0.1-0.2v-48.2
		c0-0.1-0.1-0.2-0.2-0.2h-46.4c-0.1,0-0.2,0.1-0.2,0.2v48.2c0,0.1,0.1,0.2,0.2,0.2c0,0,0,0,0.1,0v11.2h-7.1l0-11.2
		c0.1,0,0.2-0.1,0.2-0.2v-48.2c0-0.1-0.1-0.2-0.2-0.2h-46.4c-0.1,0-0.2,0.1-0.2,0.2v48.2c0,0.1,0.1,0.2,0.2,0.2v11.2H152l0-11.2
		c0.1,0,0.2-0.1,0.2-0.2v-48.2c0-0.1-0.1-0.2-0.2-0.2h-46.4c-0.1,0-0.2,0.1-0.2,0.2v48.2c0,0.1,0.1,0.2,0.2,0.2v11.2h-7.1v-71
		l167.9,0.1V241.1z"/>
            <path id="connectorA-_x2B__5_" class="st5" d="M128.5,193.8c-6.6,0-11.9,5.4-11.9,11.9c0,6.6,5.4,11.9,11.9,11.9
		c6.6,0,11.9-5.4,11.9-11.9C140.4,199.2,135,193.8,128.5,193.8z M118.6,211.6C118.6,211.6,118.7,211.6,118.6,211.6
		c0.1,0,0.1,0,0.2,0l16.8-14.2c0.1-0.1,0.1-0.2,0-0.4c-0.1-0.1-0.2-0.1-0.4,0l-16.8,14.2c0,0,0,0.1-0.1,0.1
		c-0.9-1.6-1.4-3.5-1.4-5.5c0-6.3,5.1-11.4,11.4-11.4c4.2,0,7.8,2.3,9.8,5.6c-0.1-0.1-0.2-0.1-0.3,0l-16.8,14.2
		c-0.1,0.1-0.1,0.2,0,0.3C120.1,213.7,119.3,212.7,118.6,211.6z M128.5,217.2c-2.8,0-5.3-1-7.3-2.6c0,0,0.1,0.1,0.1,0.1
		c0.1,0,0.1,0,0.2-0.1l16.8-14.2c0.1-0.1,0.1-0.2,0-0.3c1,1.7,1.6,3.7,1.6,5.8C139.9,212.1,134.8,217.2,128.5,217.2z"/>
            <path id="connectorA-_x2B__6_" class="st5" d="M183.5,193.8c-6.6,0-11.9,5.4-11.9,11.9c0,6.6,5.4,11.9,11.9,11.9
		s11.9-5.4,11.9-11.9C195.4,199.2,190,193.8,183.5,193.8z M173.6,211.6C173.6,211.6,173.6,211.6,173.6,211.6c0.1,0,0.1,0,0.2,0
		l16.8-14.2c0.1-0.1,0.1-0.2,0-0.4c-0.1-0.1-0.2-0.1-0.4,0l-16.8,14.2c0,0,0,0.1-0.1,0.1c-0.9-1.6-1.4-3.5-1.4-5.5
		c0-6.3,5.1-11.4,11.4-11.4c4.2,0,7.8,2.3,9.8,5.6c-0.1-0.1-0.2-0.1-0.3,0l-16.8,14.2c-0.1,0.1-0.1,0.2,0,0.3
		C175.1,213.7,174.3,212.7,173.6,211.6z M183.5,217.2c-2.8,0-5.3-1-7.3-2.6c0,0,0.1,0.1,0.1,0.1c0.1,0,0.1,0,0.2-0.1l16.8-14.2
		c0.1-0.1,0.1-0.2,0-0.3c1,1.7,1.6,3.7,1.6,5.8C194.9,212.1,189.8,217.2,183.5,217.2z"/>
            <path id="connectorA-_x2B__7_" class="st5" d="M245.8,199.5c-3.5-5.6-10.8-7.3-16.4-3.8c-5.6,3.5-7.3,10.8-3.8,16.4
		c1.7,2.7,4.3,4.6,7.4,5.3c0.9,0.2,1.8,0.3,2.7,0.3c2.2,0,4.4-0.6,6.3-1.8c2.7-1.7,4.6-4.3,5.3-7.4
		C248,205.4,247.5,202.2,245.8,199.5z M230.4,215.9c0.1,0,0.1-0.1,0.1-0.1l6.8-21c0-0.1,0-0.3-0.2-0.3c-0.1,0-0.3,0-0.3,0.2l-6.8,21
		c0,0,0,0.1,0,0.1c-1.7-0.9-3.1-2.3-4.1-3.9c-3.3-5.4-1.7-12.4,3.7-15.7c1.9-1.2,4-1.7,6-1.7c1.8,0,3.7,0.5,5.3,1.3
		c-0.1,0-0.3,0-0.3,0.2l-6.8,21c0,0.1,0,0.2,0.1,0.3c-0.3,0-0.6-0.1-0.9-0.2C232.1,216.7,231.3,216.3,230.4,215.9z M246.8,208.4
		c-0.7,3-2.5,5.5-5.1,7.1c-2.3,1.4-4.9,2-7.6,1.6c0.1,0,0.2-0.1,0.2-0.2l6.8-21c0-0.1,0-0.3-0.1-0.3c1.7,0.9,3.3,2.3,4.4,4.1
		C247,202.3,247.5,205.4,246.8,208.4z"/>
        </g>
        <g class="LabelPlus">
            <path id="Label__x2B__2_" class="st7" d="M240.4,278.3l-32.9,5.2l4.6,29.1l32.7-6.3l16.3-3.1l-4.7-26.9L240.4,278.3z M228.2,304.7
		l-3,0.5l-1.2-7.5l-7.5,1.2l-0.5-3l7.5-1.2l-1.2-7.5l3-0.5l1.2,7.5l7.5-1.2l0.5,3l-7.5,1.2L228.2,304.7z"/>
            <path id="Label__x2B__1_" class="st5" d="M257.8,275.4c-0.1-0.4-0.4-0.7-0.8-0.6l-8.4,1c-5.2-13.2-10.5-27-10.5-45.3v-0.2h-12v0.2
		c0,19.2,4.9,33.5,10.2,46.9l-29.8,4.7c-0.4,0.1-0.7,0.4-0.6,0.9l4.8,30.6c0,0.2,0.1,0.4,0.3,0.5c0.1,0.1,0.3,0.1,0.4,0.1
		c0,0,0.1,0,0.1,0l33.5-6.4l2.7-0.5c1,3.7,1.6,7.6,1.8,11.7c0.4,7.3,0.5,13.9,0.7,19.2c0.2,7.6,0.4,13.1,0.9,15.4l0.5-0.1
		c-0.5-2.3-0.6-7.8-0.9-15.3c-0.2-5.3-0.4-11.9-0.7-19.2c-0.2-4.2-0.9-8.1-1.8-11.8l8.9-1.7c0.9,4.6,1.6,9.1,2.1,13.8
		c0.2,2.3,0.7,14.6,1,21.9c0.1,3.2,0.2,5.5,0.2,6l0.5,0c0-0.5-0.1-2.8-0.2-6c-0.3-7.3-0.7-19.6-1-22c-0.5-4.7-1.2-9.3-2.1-13.9
		l4.5-0.8c0.4-0.1,0.7-0.5,0.6-0.9L257.8,275.4z M226.6,230.7h11c0,18.2,5.2,31.9,10.5,45.1l-7.9,0.9l-3.4,0.5
		C231.5,264,226.6,249.8,226.6,230.7z M257.4,304l-0.5,0.1l-9,1.7l-0.5,0.1l-2.6,0.5l-32.7,6.3l-4.6-29.1l29.3-4.7l0.5-0.1l3-0.5
		l8.2-1l0.5-0.1l7.3-0.9l4.7,26.9L257.4,304z"/>
        </g>
        <g class="LabelMinus">
            <path id="Label_-_2_" class="st7" d="M186.2,282.2l-15.8,3.7l-32.1,8.9l7.8,28.4l31.8-9.9l15.9-4.9L186.2,282.2z M158.6,314.6
		L154,297l3-0.8l4.6,17.6L158.6,314.6z"/>
            <path id="Label_-_1_" class="st5" d="M223.4,361.8c-5.8-4.9-17.7-15.1-28.4-33.5c-3-5.1-5.1-10.7-6.7-16.7l6.8-2.1
		c0.4-0.1,0.6-0.5,0.5-0.9l-8.3-27.5c-0.1-0.4-0.5-0.6-0.9-0.5l-2.1,0.5c-0.4-10.1-0.2-20.6,0-31.4c0.1-5.9,0.2-12.6,0.2-19.3V230
		h-12v0.2c0,6.5-0.1,13.2-0.2,19.1c-0.2,11.8-0.4,23.4,0.1,34.5l-2.4,0.6l-32.8,9.3c-0.4,0.1-0.6,0.5-0.5,0.9l8.4,29.8
		c0.1,0.2,0.2,0.4,0.4,0.5c0.1,0.1,0.2,0.1,0.4,0.1c0.1,0,0.2,0,0.2,0l30.8-9.8c1.8,6.8,4.4,13.2,7.8,19.1
		c12.5,21.6,23.9,30.6,27.7,33.5c0.5,0.4,0.9,0.7,1.1,0.9l0.4-0.3c-0.2-0.2-0.5-0.5-1.1-0.9c-3.7-2.9-15.1-11.8-27.6-33.3
		c-3.4-5.9-5.9-12.3-7.8-19l1.2-0.4l9.3-2.9c1.6,6,3.8,11.7,6.8,16.8c10.7,18.6,22.7,28.8,28.5,33.7c1.6,1.4,2.8,2.4,3.3,3l0.4-0.3
		C226.3,364.3,225.1,363.3,223.4,361.8z M172.7,249.4c0.1-5.8,0.2-12.4,0.2-18.9h11c0,6.6-0.1,13.2-0.2,19.1
		c-0.2,10.8-0.4,21.4,0,31.5l-10.9,2.7C172.3,272.7,172.5,261.1,172.7,249.4z M187.4,310.2l-9.4,2.9l-1.2,0.4l-0.5,0.2l-30.1,9.6
		l-8-28.3l32-9.1l2.1-0.5l0.5-0.1l10.9-2.6l0.5-0.1l1.7-0.4l7.9,26.1l-6,1.9L187.4,310.2z"/>
        </g>
        <g class="LabelA">
            <path id="Label_A_3_" class="st7" d="M127.7,272.4l-16.9-0.3l-34.1,0.6l0.6,30.9l34.1-1.7l17.4-0.8L127.7,272.4z M105.9,289
		l-19.6,8.5v-4l4.5-1.8v-8.5l-4.5-1.8v-3.9l19.6,8.5V289z"/>
            <polygon id="Label_A_2_" class="st7" points="93.7,284.3 93.7,290.4 101.7,287.4 	"/>
            <path id="Label_A_1_" class="st5" d="M143.7,341.9c-0.2-0.5-0.7-1.4-1.5-2.9c-7.8-15-13.1-27.4-15.9-37.1l2.4-0.1
		c0.4,0,0.7-0.4,0.7-0.8l-1-28.7c0-0.4-0.3-0.7-0.7-0.7l-1.9,0c2.9-18.6,8.5-40.5,8.8-41.8l0.1-0.3h-12.5l0,0.2
		c-0.3,1.2-5.8,22.6-8.5,41.7l-2.9-0.1l-34.1,0.6c-0.4,0-0.7,0.3-0.7,0.8l0.6,30.9c0,0.2,0.1,0.4,0.2,0.5c0.1,0.1,0.3,0.2,0.5,0.2
		c0,0,0,0,0,0l34.1-1.7l2.7-0.1c3.6,14.5,11.4,30.7,17.7,42.8l0.3,0.5c0.5,0.9,0.8,1.5,1,1.9c2.5,5.2,1.5,10.3,0.6,12.2l0.5,0.2
		c0.1-0.2,2.6-5.9-0.6-12.6c-0.2-0.4-0.5-1-1-1.9l-0.3-0.5c-6.3-12.1-14.1-28.2-17.7-42.6l11.3-0.5c2.8,9.8,8.1,22.2,15.9,37.3
		c0.7,1.4,1.2,2.3,1.5,2.9c3.8,8.1,2.1,17.3,0.8,22l-0.1,0.3l0.5,0.1l0.1-0.3C145.8,359.5,147.5,350.1,143.7,341.9z M122.5,230H134
		c-0.7,2.9-6,23.8-8.8,41.6l-11.1-0.2C116.8,252.9,121.9,232.4,122.5,230z M125.4,300.5l-11.2,0.5l-0.5,0l-2.4,0.1L78,302.8
		l-0.5-29.4l33.3-0.6l2.7,0.1l0.5,0l11.1,0.2l0.5,0l1.4,0l0.9,27.3l-2,0.1L125.4,300.5z"/>
        </g>
        <g id="minicableA-_x2B_">
            <path id="cableA-_x2B__1_" class="st4" d="M242.9,128.2V98.7c0-0.3,1.1-1.5,2.5-1.5c1.5,0,2.8,1.2,2.8,1.5V131"/>
            <path id="cableA-_x2B_" class="st5" d="M248.5,131.4l-0.5-0.3l0-32.4c-0.1-0.2-1.3-1.2-2.6-1.2c-1.3,0-2.2,1-2.3,1.2l0,29.9
		l-0.5-0.3V98.7c0-0.5,1.2-1.7,2.8-1.7c1.6,0,3.1,1.2,3.1,1.7V131.4z"/>
        </g>
        <g id="blueconnectorA-_x2B__1_">
            <g id="blueconnectorA-_x2B_">
                <g>
                    <line class="st8" x1="245" y1="71.6" x2="227.2" y2="124.9"/>
                    <g>
                        <g>
                            <path class="st4" d="M240.7,70.4c0.8-2.4,3.4-3.6,5.7-2.8s3.6,3.3,2.8,5.7c-0.8,2.4-3.3,3.6-5.7,2.8
						C241.2,75.3,239.9,72.8,240.7,70.4z"/>
                            <path class="st7" d="M240.1,70.2c-0.9,2.7,0.5,5.6,3.2,6.5c2.7,0.9,5.6-0.5,6.5-3.2c0.9-2.7-0.5-5.6-3.2-6.5
						C243.9,66.1,241,67.5,240.1,70.2C239.2,72.9,241,67.5,240.1,70.2z M248.7,73.1c-0.7,2-2.9,3.2-5,2.5s-3.2-2.9-2.5-5
						c0.7-2,2.9-3.2,5-2.5S249.3,71,248.7,73.1C248,75.1,249.3,71,248.7,73.1z"/>
                        </g>
                    </g>
                </g>
            </g>
        </g>
    </g>


    <g id="flecha">
        <g id="arrow_1_">
            <g>
                <line class="st10" x1="294" y1="256.8" x2="294" y2="283.9"/>
                <g>
                    <polygon class="st7" points="282.8,260.1 294.1,240.5 305.4,260.1 				"/>
                </g>
            </g>
        </g>
    </g>
</svg>

</svg>
