<svg xmlns="http://www.w3.org/2000/svg" xmlns:xlink="http://www.w3.org/1999/xlink" width="340" height="420" viewBox="0 0 340 420">
  <defs>
    <clipPath id="clip-path">
      <circle cx="165.844" cy="254.188" r="147.637" fill="none"/>
    </clipPath>
  </defs>
  <g id="Device">
    <g id="Device-2" data-name="Device">
      <rect x="196.653" y="186.806" width="88.017" height="17.672" fill="#fff"/>
      <rect x="196.653" y="186.806" width="88.017" height="17.672" stroke-width="0.649" stroke="#333" stroke-linecap="round" stroke-linejoin="round" fill="none"/>
      <path d="M275.528,186.806c-3.742,6.036-3.937,11.935,0,17.671" fill="none" stroke="#333" stroke-linecap="round" stroke-linejoin="round" stroke-width="0.649"/>
      <line x1="208.329" y1="192.028" x2="273.18" y2="192.028" fill="none" stroke="#333" stroke-linecap="round" stroke-linejoin="round" stroke-width="0.649"/>
      <line x1="208.329" y1="200.473" x2="273.276" y2="200.473" fill="none" stroke="#333" stroke-linecap="round" stroke-linejoin="round" stroke-width="0.649"/>
      <line x1="208.75" y1="197.658" x2="272.768" y2="197.658" fill="none" stroke="#333" stroke-linecap="round" stroke-linejoin="round" stroke-width="0.649"/>
      <line x1="208.831" y1="194.843" x2="272.648" y2="194.843" fill="none" stroke="#333" stroke-linecap="round" stroke-linejoin="round" stroke-width="0.649"/>
      <path d="M205.951,186.806c3.742,6.036,3.937,11.935,0,17.671" fill="none" stroke="#333" stroke-linecap="round" stroke-linejoin="round" stroke-width="0.649"/>
      <polyline points="192.372 4.103 192.372 8.082 148.428 8.082 148.428 4.103" fill="none" stroke="#333" stroke-linecap="round" stroke-linejoin="round" stroke-width="0.649"/>
      <polyline points="148.403 6.897 164.596 6.897 164.596 7.402 175.281 7.402 175.281 6.897 192.357 6.897" fill="none" stroke="#333" stroke-linecap="round" stroke-linejoin="round" stroke-width="0.649"/>
      <path d="M351.034,118.834a36.813,36.813,0,0,1-36.814,36.814H26.31A36.814,36.814,0,0,1-10.5,118.834" fill="none" stroke="#333" stroke-linecap="round" stroke-linejoin="round" stroke-width="0.649"/>
      <path d="M45.518,155.654V122.389a1.124,1.124,0,0,1,1.123-1.124H293.353a1.123,1.123,0,0,1,1.123,1.124v33.265" fill="none" stroke="#333" stroke-linecap="round" stroke-linejoin="round" stroke-width="0.649"/>
      <path d="M35.269,103.146h-5.45a5.605,5.605,0,1,1,0-11.21h5.45a5.605,5.605,0,0,1,0,11.21Z" fill="none" stroke="#333" stroke-linecap="round" stroke-linejoin="round" stroke-width="0.649"/>
      <path d="M36.182,110.984H21.273c-8.025,0-14.553-6.03-14.553-13.443S13.248,84.1,21.273,84.1H36.182c8.024,0,14.553,6.03,14.553,13.444S44.206,110.984,36.182,110.984Z" fill="none" stroke="#333" stroke-linecap="round" stroke-linejoin="round" stroke-width="0.649"/>
      <path d="M302.976,100.266V94.815a5.606,5.606,0,0,1,11.211,0v5.451a5.606,5.606,0,0,1-11.211,0Z" fill="none" stroke="#333" stroke-linecap="round" stroke-linejoin="round" stroke-width="0.649"/>
      <path d="M304.547,84.755a13.9,13.9,0,0,0,0,27.8h15.572a13.9,13.9,0,1,0,0-27.8Z" fill="none" stroke="#333" stroke-linecap="round" stroke-linejoin="round" stroke-width="0.649"/>
      <path d="M162.09,158.248v17.813c0,5.934-5.22,10.745-11.66,10.745h-95.4c-5.254,0-9.513-3.925-9.513-8.766V158.248Z" fill="none" stroke="#333" stroke-linecap="round" stroke-linejoin="round" stroke-width="0.649"/>
      <path d="M294.477,158.248v19.834c0,4.818-4.239,8.724-9.467,8.724H189.1c-5.561,0-10.071-4.156-10.071-9.28V158.248Z" fill="none" stroke="#333" stroke-linecap="round" stroke-linejoin="round" stroke-width="0.649"/>
      <polygon points="156.666 189.241 153.945 191.999 153.945 202.436 156.665 205.193 183.723 205.193 186.443 202.436 186.443 191.999 183.723 189.241 156.666 189.241" fill="none" stroke="#333" stroke-linecap="round" stroke-linejoin="round" stroke-width="0.649"/>
      <polygon points="174.951 197.74 174.951 207.548 177.893 207.548 177.893 214.26 162.64 214.26 162.64 207.548 165.58 207.548 165.58 197.698 174.951 197.74" fill="#fff"/>
      <polygon points="174.951 197.74 174.951 207.548 177.893 207.548 177.893 214.26 162.64 214.26 162.64 207.548 165.58 207.548 165.58 197.698 174.951 197.74" fill="none" stroke="#333" stroke-linecap="round" stroke-linejoin="round" stroke-width="0.623"/>
      <path d="M314.221,4.2H26.31A36.592,36.592,0,0,0-10.5,40.562V168.844A36.591,36.591,0,0,0,26.31,205.208H49.926l.9-.072H165.58v2.494h-2.94v6.63h15.253v-6.63h-2.942l0-2.422H314.221a36.59,36.59,0,0,0,36.814-36.364V40.562A36.591,36.591,0,0,0,314.221,4.2Z" fill="none" stroke="#333" stroke-linecap="round" stroke-linejoin="round" stroke-width="1.946"/>
      <rect x="54.518" y="129.961" width="39.699" height="20.775" fill="#fff"/>
      <rect x="54.518" y="129.961" width="39.699" height="20.775" stroke-width="0.649" stroke="#333" stroke-linecap="round" stroke-linejoin="round" fill="none"/>
      <path d="M65.594,140.436a4.754,4.754,0,1,1-4.754-4.754,4.754,4.754,0,0,1,4.754,4.754" fill="#fff"/>
      <circle cx="60.84" cy="140.436" r="4.754" fill="none" stroke="#333" stroke-linecap="round" stroke-linejoin="round" stroke-width="0.649"/>
      <line x1="56.183" y1="139.669" x2="65.504" y2="139.669" fill="none" stroke="#333" stroke-linecap="round" stroke-linejoin="round" stroke-width="0.649"/>
      <line x1="65.505" y1="141.203" x2="56.183" y2="141.203" fill="none" stroke="#333" stroke-linecap="round" stroke-linejoin="round" stroke-width="0.649"/>
      <path d="M79.12,140.436a4.754,4.754,0,1,1-4.754-4.754,4.754,4.754,0,0,1,4.754,4.754" fill="#fff"/>
      <circle cx="74.366" cy="140.436" r="4.754" fill="none" stroke="#333" stroke-linecap="round" stroke-linejoin="round" stroke-width="0.649"/>
      <line x1="69.71" y1="139.669" x2="79.032" y2="139.669" fill="none" stroke="#333" stroke-linecap="round" stroke-linejoin="round" stroke-width="0.649"/>
      <line x1="79.031" y1="141.203" x2="69.709" y2="141.203" fill="none" stroke="#333" stroke-linecap="round" stroke-linejoin="round" stroke-width="0.649"/>
      <path d="M92.647,140.436a4.754,4.754,0,1,1-4.754-4.754,4.753,4.753,0,0,1,4.754,4.754" fill="#fff"/>
      <circle cx="87.893" cy="140.436" r="4.754" fill="none" stroke="#333" stroke-linecap="round" stroke-linejoin="round" stroke-width="0.649"/>
      <line x1="83.236" y1="139.669" x2="92.558" y2="139.669" fill="none" stroke="#333" stroke-linecap="round" stroke-linejoin="round" stroke-width="0.649"/>
      <line x1="92.558" y1="141.203" x2="83.237" y2="141.203" fill="none" stroke="#333" stroke-linecap="round" stroke-linejoin="round" stroke-width="0.649"/>
      <rect x="54.518" y="132.431" width="39.699" height="15.834" stroke-width="0.649" stroke="#333" stroke-linecap="round" stroke-linejoin="round" fill="none"/>
      <rect x="107.703" y="129.961" width="39.697" height="20.775" fill="#fff"/>
      <rect x="107.703" y="129.961" width="39.697" height="20.775" stroke-width="0.649" stroke="#333" stroke-linecap="round" stroke-linejoin="round" fill="none"/>
      <path d="M118.777,140.436a4.754,4.754,0,1,1-4.753-4.754,4.753,4.753,0,0,1,4.753,4.754" fill="#fff"/>
      <circle cx="114.024" cy="140.436" r="4.754" fill="none" stroke="#333" stroke-linecap="round" stroke-linejoin="round" stroke-width="0.649"/>
      <line x1="109.367" y1="139.669" x2="118.689" y2="139.669" fill="none" stroke="#333" stroke-linecap="round" stroke-linejoin="round" stroke-width="0.649"/>
      <line x1="118.688" y1="141.203" x2="109.367" y2="141.203" fill="none" stroke="#333" stroke-linecap="round" stroke-linejoin="round" stroke-width="0.649"/>
      <path d="M132.3,140.436a4.754,4.754,0,1,1-4.753-4.754,4.753,4.753,0,0,1,4.753,4.754" fill="#fff"/>
      <circle cx="127.551" cy="140.436" r="4.754" fill="none" stroke="#333" stroke-linecap="round" stroke-linejoin="round" stroke-width="0.649"/>
      <line x1="122.894" y1="139.669" x2="132.215" y2="139.669" fill="none" stroke="#333" stroke-linecap="round" stroke-linejoin="round" stroke-width="0.649"/>
      <line x1="132.216" y1="141.203" x2="122.894" y2="141.203" fill="none" stroke="#333" stroke-linecap="round" stroke-linejoin="round" stroke-width="0.649"/>
      <path d="M145.83,140.436a4.754,4.754,0,1,1-4.753-4.754,4.753,4.753,0,0,1,4.753,4.754" fill="#fff"/>
      <circle cx="141.077" cy="140.436" r="4.754" fill="none" stroke="#333" stroke-linecap="round" stroke-linejoin="round" stroke-width="0.649"/>
      <line x1="136.421" y1="139.669" x2="145.742" y2="139.669" fill="none" stroke="#333" stroke-linecap="round" stroke-linejoin="round" stroke-width="0.649"/>
      <line x1="145.742" y1="141.203" x2="136.42" y2="141.203" fill="none" stroke="#333" stroke-linecap="round" stroke-linejoin="round" stroke-width="0.649"/>
      <rect x="107.703" y="132.431" width="39.697" height="15.834" stroke-width="0.649" stroke="#333" stroke-linecap="round" stroke-linejoin="round" fill="none"/>
      <rect x="173.495" y="129.961" width="39.697" height="20.775" fill="#fff"/>
      <rect x="173.495" y="129.961" width="39.697" height="20.775" stroke-width="0.649" stroke="#333" stroke-linecap="round" stroke-linejoin="round" fill="none"/>
      <path d="M184.571,140.436a4.754,4.754,0,1,1-4.754-4.754,4.755,4.755,0,0,1,4.754,4.754" fill="#fff"/>
      <circle cx="179.817" cy="140.436" r="4.754" transform="translate(1.825 283.178) rotate(-76.717)" fill="none" stroke="#333" stroke-linecap="round" stroke-linejoin="round" stroke-width="0.649"/>
      <line x1="175.16" y1="139.669" x2="184.482" y2="139.669" fill="none" stroke="#333" stroke-linecap="round" stroke-linejoin="round" stroke-width="0.649"/>
      <line x1="184.481" y1="141.203" x2="175.159" y2="141.203" fill="none" stroke="#333" stroke-linecap="round" stroke-linejoin="round" stroke-width="0.649"/>
      <path d="M198.1,140.436a4.754,4.754,0,1,1-4.754-4.754,4.753,4.753,0,0,1,4.754,4.754" fill="#fff"/>
      <circle cx="193.343" cy="140.436" r="4.754" transform="translate(12.243 296.342) rotate(-76.717)" fill="none" stroke="#333" stroke-linecap="round" stroke-linejoin="round" stroke-width="0.649"/>
      <line x1="188.687" y1="139.669" x2="198.009" y2="139.669" fill="none" stroke="#333" stroke-linecap="round" stroke-linejoin="round" stroke-width="0.649"/>
      <line x1="198.008" y1="141.203" x2="188.687" y2="141.203" fill="none" stroke="#333" stroke-linecap="round" stroke-linejoin="round" stroke-width="0.649"/>
      <path d="M211.623,140.436a4.754,4.754,0,1,1-4.753-4.754,4.753,4.753,0,0,1,4.753,4.754" fill="#fff"/>
      <circle cx="206.87" cy="140.436" r="4.754" transform="translate(22.662 309.506) rotate(-76.718)" fill="none" stroke="#333" stroke-linecap="round" stroke-linejoin="round" stroke-width="0.649"/>
      <line x1="202.213" y1="139.669" x2="211.535" y2="139.669" fill="none" stroke="#333" stroke-linecap="round" stroke-linejoin="round" stroke-width="0.649"/>
      <line x1="211.534" y1="141.203" x2="202.213" y2="141.203" fill="none" stroke="#333" stroke-linecap="round" stroke-linejoin="round" stroke-width="0.649"/>
      <rect x="173.495" y="132.431" width="39.697" height="15.834" stroke-width="0.649" stroke="#333" stroke-linecap="round" stroke-linejoin="round" fill="none"/>
      <rect x="237.34" y="129.961" width="39.697" height="20.775" fill="#fff"/>
      <rect x="237.34" y="129.961" width="39.697" height="20.775" stroke-width="0.649" stroke="#333" stroke-linecap="round" stroke-linejoin="round" fill="none"/>
      <path d="M248.415,140.436a4.754,4.754,0,1,1-4.753-4.754,4.754,4.754,0,0,1,4.753,4.754" fill="#fff"/>
      <circle cx="243.662" cy="140.436" r="4.754" transform="translate(51.001 345.314) rotate(-76.718)" fill="none" stroke="#333" stroke-linecap="round" stroke-linejoin="round" stroke-width="0.649"/>
      <line x1="239.004" y1="139.669" x2="248.326" y2="139.669" fill="none" stroke="#333" stroke-linecap="round" stroke-linejoin="round" stroke-width="0.649"/>
      <line x1="248.327" y1="141.203" x2="239.005" y2="141.203" fill="none" stroke="#333" stroke-linecap="round" stroke-linejoin="round" stroke-width="0.649"/>
      <path d="M261.941,140.436a4.754,4.754,0,1,1-4.753-4.754,4.753,4.753,0,0,1,4.753,4.754" fill="#fff"/>
      <circle cx="257.188" cy="140.436" r="4.754" transform="translate(61.419 358.478) rotate(-76.718)" fill="none" stroke="#333" stroke-linecap="round" stroke-linejoin="round" stroke-width="0.649"/>
      <line x1="252.532" y1="139.669" x2="261.853" y2="139.669" fill="none" stroke="#333" stroke-linecap="round" stroke-linejoin="round" stroke-width="0.649"/>
      <line x1="261.853" y1="141.203" x2="252.531" y2="141.203" fill="none" stroke="#333" stroke-linecap="round" stroke-linejoin="round" stroke-width="0.649"/>
      <path d="M275.469,140.436a4.754,4.754,0,1,1-4.754-4.754,4.755,4.755,0,0,1,4.754,4.754" fill="#fff"/>
      <circle cx="270.715" cy="140.436" r="4.754" transform="translate(71.839 371.644) rotate(-76.718)" fill="none" stroke="#333" stroke-linecap="round" stroke-linejoin="round" stroke-width="0.649"/>
      <line x1="266.058" y1="139.669" x2="275.379" y2="139.669" fill="none" stroke="#333" stroke-linecap="round" stroke-linejoin="round" stroke-width="0.649"/>
      <line x1="275.379" y1="141.203" x2="266.057" y2="141.203" fill="none" stroke="#333" stroke-linecap="round" stroke-linejoin="round" stroke-width="0.649"/>
      <rect x="237.34" y="132.431" width="39.697" height="15.834" stroke-width="0.649" stroke="#333" stroke-linecap="round" stroke-linejoin="round" fill="none"/>
      <line x1="45.518" y1="150.736" x2="294.476" y2="150.736" fill="none" stroke="#333" stroke-linecap="round" stroke-linejoin="round" stroke-width="0.649"/>
      <rect x="165.617" y="189.242" width="9.154" height="4.953" fill="#fff"/>
      <rect x="165.617" y="189.242" width="9.154" height="4.953" stroke-width="0.623" stroke="#333" stroke-linecap="round" stroke-linejoin="round" fill="none"/>
      <path d="M291.618,195.98a6.949,6.949,0,1,1-6.948-6.948,6.947,6.947,0,0,1,6.948,6.948" fill="#fff"/>
      <path d="M291.618,195.98a6.949,6.949,0,1,1-6.948-6.948A6.947,6.947,0,0,1,291.618,195.98Z" fill="none" stroke="#333" stroke-linecap="round" stroke-linejoin="round" stroke-width="0.649"/>
      <path d="M288.559,195.98a3.891,3.891,0,1,1-3.89-3.891,3.891,3.891,0,0,1,3.89,3.891" fill="#fff"/>
      <path d="M288.559,195.98a3.891,3.891,0,1,1-3.89-3.891A3.891,3.891,0,0,1,288.559,195.98Z" fill="none" stroke="#333" stroke-linecap="round" stroke-linejoin="round" stroke-width="0.649"/>
      <path d="M289.162,195.452v1.055a.356.356,0,0,1-.355.358h-2.9a.356.356,0,0,0-.356.356v2.9a.357.357,0,0,1-.358.357h-1.055a.356.356,0,0,1-.356-.357v-2.9a.357.357,0,0,0-.357-.356h-2.895a.358.358,0,0,1-.358-.358v-1.055a.357.357,0,0,1,.358-.356h2.895a.358.358,0,0,0,.357-.357v-2.9a.356.356,0,0,1,.356-.357H285.2a.357.357,0,0,1,.358.357v2.9a.356.356,0,0,0,.356.357h2.9a.355.355,0,0,1,.355.356" fill="#fff"/>
      <path d="M289.162,195.452v1.055a.356.356,0,0,1-.355.358h-2.9a.356.356,0,0,0-.356.356v2.9a.357.357,0,0,1-.358.357h-1.055a.356.356,0,0,1-.356-.357v-2.9a.357.357,0,0,0-.357-.356h-2.895a.358.358,0,0,1-.358-.358v-1.055a.357.357,0,0,1,.358-.356h2.895a.358.358,0,0,0,.357-.357v-2.9a.356.356,0,0,1,.356-.357H285.2a.357.357,0,0,1,.358.357v2.9a.356.356,0,0,0,.356.357h2.9A.355.355,0,0,1,289.162,195.452Z" fill="none" stroke="#333" stroke-linecap="round" stroke-linejoin="round" stroke-width="0.649"/>
      <path d="M203.6,195.98a6.949,6.949,0,1,1-6.948-6.948,6.947,6.947,0,0,1,6.948,6.948" fill="#fff"/>
      <path d="M203.6,195.98a6.949,6.949,0,1,1-6.948-6.948A6.947,6.947,0,0,1,203.6,195.98Z" fill="none" stroke="#333" stroke-linecap="round" stroke-linejoin="round" stroke-width="0.649"/>
      <path d="M200.543,195.98a3.891,3.891,0,1,1-3.891-3.891,3.891,3.891,0,0,1,3.891,3.891" fill="#fff"/>
      <path d="M200.543,195.98a3.891,3.891,0,1,1-3.891-3.891A3.891,3.891,0,0,1,200.543,195.98Z" fill="none" stroke="#333" stroke-linecap="round" stroke-linejoin="round" stroke-width="0.649"/>
      <path d="M201.146,195.452v1.055a.357.357,0,0,1-.357.358h-2.9a.356.356,0,0,0-.356.356v2.9a.357.357,0,0,1-.358.357h-1.054a.357.357,0,0,1-.357-.357v-2.9a.357.357,0,0,0-.358-.356h-2.9a.357.357,0,0,1-.356-.358v-1.055a.356.356,0,0,1,.356-.356h2.9a.357.357,0,0,0,.358-.357v-2.9a.357.357,0,0,1,.357-.357h1.054a.357.357,0,0,1,.358.357v2.9a.357.357,0,0,0,.356.357h2.9a.356.356,0,0,1,.357.356" fill="#fff"/>
      <path d="M201.146,195.452v1.055a.357.357,0,0,1-.357.358h-2.9a.356.356,0,0,0-.356.356v2.9a.357.357,0,0,1-.358.357h-1.054a.357.357,0,0,1-.357-.357v-2.9a.357.357,0,0,0-.358-.356h-2.9a.357.357,0,0,1-.356-.358v-1.055a.356.356,0,0,1,.356-.356h2.9a.357.357,0,0,0,.358-.357v-2.9a.357.357,0,0,1,.357-.357h1.054a.357.357,0,0,1,.358.357v2.9a.357.357,0,0,0,.356.357h2.9A.356.356,0,0,1,201.146,195.452Z" fill="none" stroke="#333" stroke-linecap="round" stroke-linejoin="round" stroke-width="0.649"/>
      <polygon points="59.264 110.33 60.337 110.33 62.541 113.71 62.555 113.71 62.555 110.33 63.364 110.33 63.364 114.88 62.336 114.88 60.088 111.39 60.074 111.39 60.074 114.88 59.264 114.88 59.264 110.33" fill="#333"/>
      <path d="M238.671,101.455h.731l1.514,3.931h-.737l-.371-1.041H238.24l-.368,1.041h-.711Zm-.243,2.367h1.2l-.59-1.69h-.017Z" fill="#333"/>
      <path d="M241.2,102.539h.594v.419l.012.012a1.028,1.028,0,0,1,.375-.372.981.981,0,0,1,.511-.135,1.073,1.073,0,0,1,.739.241.933.933,0,0,1,.268.728v1.954h-.627V103.6a.786.786,0,0,0-.143-.487.521.521,0,0,0-.412-.151.675.675,0,0,0-.287.057.611.611,0,0,0-.214.16.749.749,0,0,0-.139.24.833.833,0,0,0-.049.292v1.679H241.2Z" fill="#333"/>
      <path d="M246.745,104.752a.325.325,0,0,0,.032.166.126.126,0,0,0,.119.049h.065a.431.431,0,0,0,.088-.01v.435c-.022.006-.049.015-.086.024s-.07.017-.107.025l-.111.017c-.036,0-.067,0-.092,0a.609.609,0,0,1-.32-.077.388.388,0,0,1-.165-.269,1.11,1.11,0,0,1-.459.263,1.792,1.792,0,0,1-.526.083,1.264,1.264,0,0,1-.37-.053.956.956,0,0,1-.31-.153.744.744,0,0,1-.214-.26.788.788,0,0,1-.08-.365.837.837,0,0,1,.1-.43.7.7,0,0,1,.253-.259,1.165,1.165,0,0,1,.351-.135c.13-.027.262-.048.393-.064.114-.022.223-.036.326-.046a1.433,1.433,0,0,0,.272-.047.428.428,0,0,0,.188-.1.285.285,0,0,0,.068-.208.306.306,0,0,0-.059-.2.354.354,0,0,0-.142-.118.593.593,0,0,0-.19-.056,1.518,1.518,0,0,0-.2-.013.782.782,0,0,0-.435.111.425.425,0,0,0-.192.341h-.629a.944.944,0,0,1,.134-.457.9.9,0,0,1,.294-.293,1.225,1.225,0,0,1,.4-.154,2.426,2.426,0,0,1,.461-.043,1.982,1.982,0,0,1,.415.043,1.216,1.216,0,0,1,.366.144.786.786,0,0,1,.261.255.7.7,0,0,1,.1.383Zm-.626-.792a.771.771,0,0,1-.353.113c-.139.012-.279.032-.419.057a1.254,1.254,0,0,0-.192.048.571.571,0,0,0-.164.081.357.357,0,0,0-.113.138.455.455,0,0,0-.042.207.256.256,0,0,0,.061.175.416.416,0,0,0,.146.113.633.633,0,0,0,.186.059,1.3,1.3,0,0,0,.184.016,1.038,1.038,0,0,0,.227-.027.794.794,0,0,0,.229-.093.634.634,0,0,0,.177-.169.422.422,0,0,0,.073-.25Z" fill="#333"/>
      <rect x="247.441" y="101.455" width="0.626" height="3.931" fill="#333"/>
      <path d="M250.056,105.463a1.558,1.558,0,0,1-.61-.113,1.3,1.3,0,0,1-.45-.311,1.349,1.349,0,0,1-.282-.474,1.851,1.851,0,0,1-.1-.606,1.831,1.831,0,0,1,.1-.6,1.336,1.336,0,0,1,.282-.473,1.273,1.273,0,0,1,.45-.311,1.7,1.7,0,0,1,1.218,0,1.273,1.273,0,0,1,.45.311,1.305,1.305,0,0,1,.281.473,1.8,1.8,0,0,1,.1.6,1.825,1.825,0,0,1-.1.606,1.318,1.318,0,0,1-.281.474,1.3,1.3,0,0,1-.45.311,1.558,1.558,0,0,1-.608.113m0-.5a.7.7,0,0,0,.361-.088.738.738,0,0,0,.255-.232,1.007,1.007,0,0,0,.146-.322,1.487,1.487,0,0,0,.047-.366,1.519,1.519,0,0,0-.047-.363.991.991,0,0,0-.146-.321.771.771,0,0,0-.255-.229.72.72,0,0,0-.361-.088.729.729,0,0,0-.364.088.787.787,0,0,0-.254.229.99.99,0,0,0-.145.321,1.47,1.47,0,0,0-.047.363,1.44,1.44,0,0,0,.047.366,1,1,0,0,0,.145.322.753.753,0,0,0,.254.232.709.709,0,0,0,.364.088" fill="#333"/>
      <path d="M254.645,105.238a1.209,1.209,0,0,1-.36.959,1.518,1.518,0,0,1-1.038.317,2.126,2.126,0,0,1-.432-.044,1.34,1.34,0,0,1-.4-.148.992.992,0,0,1-.3-.275.831.831,0,0,1-.143-.419h.628a.464.464,0,0,0,.25.344.59.59,0,0,0,.2.061,1.9,1.9,0,0,0,.231.014.729.729,0,0,0,.555-.188.756.756,0,0,0,.178-.538v-.436h-.012a.958.958,0,0,1-.36.368.969.969,0,0,1-.493.132,1.276,1.276,0,0,1-.58-.118,1.132,1.132,0,0,1-.4-.324,1.327,1.327,0,0,1-.228-.477,2.224,2.224,0,0,1-.073-.577,1.676,1.676,0,0,1,.089-.546,1.4,1.4,0,0,1,.252-.454,1.2,1.2,0,0,1,.949-.427,1.087,1.087,0,0,1,.494.113.757.757,0,0,1,.347.355h.012v-.39h.626Zm-1.391-.348a.687.687,0,0,0,.354-.084.7.7,0,0,0,.237-.227,1,1,0,0,0,.132-.319,1.575,1.575,0,0,0,.042-.361,1.478,1.478,0,0,0-.044-.353.956.956,0,0,0-.136-.3.636.636,0,0,0-.236-.209.734.734,0,0,0-.349-.078.658.658,0,0,0-.353.089.7.7,0,0,0-.231.228.969.969,0,0,0-.127.319,1.753,1.753,0,0,0-.039.355,1.418,1.418,0,0,0,.044.345.955.955,0,0,0,.136.3.728.728,0,0,0,.23.215.664.664,0,0,0,.34.082" fill="#333"/>
      <polygon points="257.938 101.361 258.538 101.361 256.958 105.479 256.358 105.479 257.938 101.361" fill="#333"/>
      <path d="M260.366,101.455H262a1.829,1.829,0,0,1,.781.154,1.454,1.454,0,0,1,.54.421,1.792,1.792,0,0,1,.31.626,2.916,2.916,0,0,1,0,1.529,1.8,1.8,0,0,1-.31.625,1.444,1.444,0,0,1-.54.421,1.829,1.829,0,0,1-.781.155h-1.63Zm.688,3.369h.677a1.685,1.685,0,0,0,.657-.108.937.937,0,0,0,.4-.3,1.062,1.062,0,0,0,.2-.446,2.966,2.966,0,0,0,0-1.106,1.067,1.067,0,0,0-.2-.446.945.945,0,0,0-.4-.3,1.7,1.7,0,0,0-.657-.108h-.677Z" fill="#333"/>
      <path d="M264.268,101.455h.628v.594h-.628Zm0,1.084h.628v2.847h-.628Z" fill="#333"/>
      <path d="M268.21,105.238a1.209,1.209,0,0,1-.36.959,1.521,1.521,0,0,1-1.037.317,2.119,2.119,0,0,1-.432-.044,1.336,1.336,0,0,1-.4-.148,1,1,0,0,1-.3-.275.83.83,0,0,1-.141-.419h.626a.477.477,0,0,0,.25.344.608.608,0,0,0,.2.061,1.865,1.865,0,0,0,.229.014.736.736,0,0,0,.557-.188.755.755,0,0,0,.176-.538v-.436h-.01a.953.953,0,0,1-.361.368.969.969,0,0,1-.493.132,1.287,1.287,0,0,1-.581-.118,1.132,1.132,0,0,1-.4-.324,1.379,1.379,0,0,1-.228-.477,2.268,2.268,0,0,1-.073-.577,1.7,1.7,0,0,1,.09-.546,1.416,1.416,0,0,1,.253-.454,1.222,1.222,0,0,1,.406-.312,1.237,1.237,0,0,1,.542-.115,1.093,1.093,0,0,1,.494.113.759.759,0,0,1,.348.355h.01v-.39h.627Zm-1.392-.348a.685.685,0,0,0,.354-.084.693.693,0,0,0,.239-.227,1.072,1.072,0,0,0,.132-.319,1.63,1.63,0,0,0,.04-.361,1.428,1.428,0,0,0-.043-.353.979.979,0,0,0-.136-.3.652.652,0,0,0-.236-.209.732.732,0,0,0-.35-.078.657.657,0,0,0-.352.089.687.687,0,0,0-.23.228.994.994,0,0,0-.129.319,1.822,1.822,0,0,0-.037.355,1.371,1.371,0,0,0,.044.345.931.931,0,0,0,.135.3.707.707,0,0,0,.23.215.662.662,0,0,0,.339.082" fill="#333"/>
      <path d="M268.859,101.455h.627v.594h-.627Zm0,1.084h.627v2.847h-.627Z" fill="#333"/>
      <path d="M269.884,102.539h.474v-.853h.627v.853h.567v.468h-.567v1.519a1.665,1.665,0,0,0,.008.171.27.27,0,0,0,.039.121.177.177,0,0,0,.091.074.413.413,0,0,0,.165.026q.066,0,.132,0a.75.75,0,0,0,.132-.019v.484l-.2.023c-.067.006-.135.01-.2.01a1.412,1.412,0,0,1-.4-.046.538.538,0,0,1-.237-.138.465.465,0,0,1-.114-.229,1.666,1.666,0,0,1-.036-.314v-1.679h-.474Z" fill="#333"/>
      <path d="M274.387,104.752a.327.327,0,0,0,.031.166.126.126,0,0,0,.119.049h.065a.431.431,0,0,0,.088-.01v.435c-.022.006-.049.015-.086.024s-.07.017-.107.025l-.11.017c-.037,0-.067,0-.093,0a.609.609,0,0,1-.32-.077.388.388,0,0,1-.165-.269,1.11,1.11,0,0,1-.459.263,1.782,1.782,0,0,1-.526.083,1.268,1.268,0,0,1-.37-.053.966.966,0,0,1-.31-.153.755.755,0,0,1-.214-.26.788.788,0,0,1-.08-.365.837.837,0,0,1,.1-.43.707.707,0,0,1,.253-.259,1.165,1.165,0,0,1,.351-.135c.13-.027.262-.048.393-.064.114-.022.223-.036.326-.046a1.433,1.433,0,0,0,.272-.047.428.428,0,0,0,.188-.1.285.285,0,0,0,.069-.208.318.318,0,0,0-.058-.2.374.374,0,0,0-.144-.118.593.593,0,0,0-.19-.056,1.518,1.518,0,0,0-.2-.013.787.787,0,0,0-.435.111.425.425,0,0,0-.192.341h-.629a.944.944,0,0,1,.134-.457.924.924,0,0,1,.294-.293,1.243,1.243,0,0,1,.4-.154,2.439,2.439,0,0,1,.463-.043,1.993,1.993,0,0,1,.414.043,1.221,1.221,0,0,1,.365.144.786.786,0,0,1,.261.255.7.7,0,0,1,.1.383Zm-.627-.792a.771.771,0,0,1-.353.113c-.138.012-.279.032-.419.057a1.254,1.254,0,0,0-.192.048.571.571,0,0,0-.164.081.357.357,0,0,0-.113.138.455.455,0,0,0-.042.207.256.256,0,0,0,.061.175.435.435,0,0,0,.146.113.633.633,0,0,0,.186.059,1.3,1.3,0,0,0,.185.016,1.052,1.052,0,0,0,.227-.027.8.8,0,0,0,.228-.093.655.655,0,0,0,.179-.169.436.436,0,0,0,.071-.25Z" fill="#333"/>
      <rect x="275.081" y="101.455" width="0.626" height="3.931" fill="#333"/>
      <path d="M183,101.448h1.732a1.66,1.66,0,0,1,.683.122,1.06,1.06,0,0,1,.407.3,1.017,1.017,0,0,1,.2.4,1.725,1.725,0,0,1,.052.4,1.689,1.689,0,0,1-.052.394,1.026,1.026,0,0,1-.2.393,1.037,1.037,0,0,1-.407.3,1.7,1.7,0,0,1-.683.118h-1.045v1.508H183Zm.687,1.861h1.006a.907.907,0,0,0,.238-.032.709.709,0,0,0,.223-.108.531.531,0,0,0,.166-.2.7.7,0,0,0,.062-.31.824.824,0,0,0-.054-.321.5.5,0,0,0-.365-.3,1.122,1.122,0,0,0-.258-.027h-1.018Z" fill="#333"/>
      <path d="M188.962,104.746a.327.327,0,0,0,.031.166.127.127,0,0,0,.118.049h.066a.515.515,0,0,0,.088-.01v.434c-.023.007-.05.016-.085.025l-.108.025-.11.016c-.037,0-.068.006-.094.006a.605.605,0,0,1-.319-.077.383.383,0,0,1-.165-.27,1.113,1.113,0,0,1-.459.264,1.826,1.826,0,0,1-.526.083,1.292,1.292,0,0,1-.37-.052.96.96,0,0,1-.31-.155.732.732,0,0,1-.214-.259.789.789,0,0,1-.08-.366.836.836,0,0,1,.1-.429.725.725,0,0,1,.253-.26,1.184,1.184,0,0,1,.351-.134c.131-.028.263-.048.394-.064.115-.022.222-.036.326-.047a1.374,1.374,0,0,0,.272-.046.41.41,0,0,0,.188-.1.279.279,0,0,0,.068-.207.306.306,0,0,0-.059-.2.361.361,0,0,0-.142-.118.583.583,0,0,0-.19-.056,1.529,1.529,0,0,0-.2-.013.782.782,0,0,0-.435.11.425.425,0,0,0-.191.341h-.63a.936.936,0,0,1,.133-.456.917.917,0,0,1,.295-.293,1.218,1.218,0,0,1,.4-.155,2.521,2.521,0,0,1,.462-.042,2.038,2.038,0,0,1,.413.042,1.212,1.212,0,0,1,.367.144.8.8,0,0,1,.26.256.7.7,0,0,1,.1.382Zm-.627-.793a.763.763,0,0,1-.353.113c-.14.013-.278.033-.419.057a1.334,1.334,0,0,0-.191.048.612.612,0,0,0-.166.082.363.363,0,0,0-.113.137.474.474,0,0,0-.041.208.251.251,0,0,0,.061.175.449.449,0,0,0,.144.113.667.667,0,0,0,.187.058,1.2,1.2,0,0,0,.186.017,1.028,1.028,0,0,0,.225-.027.791.791,0,0,0,.23-.094.648.648,0,0,0,.178-.168.424.424,0,0,0,.072-.25Z" fill="#333"/>
      <path d="M189.64,102.533h.589v.551h.01a.674.674,0,0,1,.108-.227,1.1,1.1,0,0,1,.192-.2.949.949,0,0,1,.251-.146.745.745,0,0,1,.282-.055,1.244,1.244,0,0,1,.15.006l.085.011v.605l-.134-.019a1.07,1.07,0,0,0-.136-.009.728.728,0,0,0-.3.064.689.689,0,0,0-.245.187.959.959,0,0,0-.165.306,1.322,1.322,0,0,0-.061.417v1.356h-.626Z" fill="#333"/>
      <polygon points="191.594 101.449 192.221 101.449 192.221 103.683 193.354 102.533 194.126 102.533 193.036 103.58 194.231 105.38 193.464 105.38 192.595 103.997 192.221 104.362 192.221 105.38 191.594 105.38 191.594 101.449" fill="#333"/>
      <path d="M194.549,101.449h.628v.594h-.628Zm0,1.084h.628v2.847h-.628Z" fill="#333"/>
      <path d="M195.86,102.533h.594v.419l.012.011a1.044,1.044,0,0,1,.375-.372.981.981,0,0,1,.511-.135,1.069,1.069,0,0,1,.738.242.928.928,0,0,1,.269.727v1.955h-.627v-1.79a.789.789,0,0,0-.143-.488.521.521,0,0,0-.412-.15.69.69,0,0,0-.287.057.635.635,0,0,0-.215.159.8.8,0,0,0-.139.24.86.86,0,0,0-.048.292v1.68h-.628Z" fill="#333"/>
      <path d="M201.651,105.231a1.21,1.21,0,0,1-.36.96,1.526,1.526,0,0,1-1.037.317,2.12,2.12,0,0,1-.432-.045,1.308,1.308,0,0,1-.4-.147,1.009,1.009,0,0,1-.3-.275.837.837,0,0,1-.141-.419h.626a.5.5,0,0,0,.094.214.485.485,0,0,0,.157.129.6.6,0,0,0,.2.061,1.878,1.878,0,0,0,.23.015.735.735,0,0,0,.556-.188.756.756,0,0,0,.176-.539v-.436h-.01a.949.949,0,0,1-.361.369.968.968,0,0,1-.492.132,1.3,1.3,0,0,1-.582-.118,1.129,1.129,0,0,1-.4-.324,1.372,1.372,0,0,1-.229-.477,2.322,2.322,0,0,1-.072-.578,1.712,1.712,0,0,1,.089-.546,1.427,1.427,0,0,1,.253-.454,1.208,1.208,0,0,1,.948-.426,1.08,1.08,0,0,1,.494.113.759.759,0,0,1,.348.355h.01v-.391h.627Zm-1.392-.347a.67.67,0,0,0,.593-.312,1.026,1.026,0,0,0,.132-.319,1.615,1.615,0,0,0,.04-.36,1.477,1.477,0,0,0-.042-.353,1,1,0,0,0-.137-.3.644.644,0,0,0-.236-.209.732.732,0,0,0-.35-.078.66.66,0,0,0-.351.088.684.684,0,0,0-.231.229,1.018,1.018,0,0,0-.129.319,1.807,1.807,0,0,0-.037.355,1.377,1.377,0,0,0,.044.345.941.941,0,0,0,.135.3.711.711,0,0,0,.231.215.666.666,0,0,0,.338.082" fill="#333"/>
      <polygon points="86.163 110.33 86.973 110.33 86.973 114.147 88.906 114.147 88.906 114.88 86.163 114.88 86.163 110.33" fill="#333"/>
      <polygon points="73.158 110.33 73.967 110.33 73.967 114.147 75.901 114.147 75.901 114.88 73.158 114.88 73.158 110.33" fill="#333"/>
      <path d="M107.943,111.4a1.239,1.239,0,0,0-.958-.45,1.543,1.543,0,0,0-1.561,1.626,1.56,1.56,0,0,0,1.561,1.689,1.277,1.277,0,0,0,1.022-.552l.668.476a2.013,2.013,0,0,1-1.7.809,2.391,2.391,0,1,1,0-4.781,1.978,1.978,0,0,1,1.593.72Z" fill="#333"/>
      <path d="M111.377,110.214A2.261,2.261,0,0,1,113.8,112.6a2.319,2.319,0,0,1-2.423,2.4,2.391,2.391,0,1,1,0-4.782m.007,4.049a1.563,1.563,0,0,0,1.568-1.69,1.569,1.569,0,1,0-1.568,1.69" fill="#333"/>
      <polygon points="114.588 110.33 115.822 110.33 117.037 113.518 118.264 110.33 119.485 110.33 119.485 114.88 118.714 114.88 118.714 111.102 118.701 111.102 117.319 114.88 116.754 114.88 115.372 111.102 115.36 111.102 115.36 114.88 114.588 114.88 114.588 110.33" fill="#333"/>
      <polygon points="123.647 110.33 124.72 110.33 126.923 113.71 126.936 113.71 126.936 110.33 127.746 110.33 127.746 114.88 126.718 114.88 124.469 111.39 124.456 111.39 124.456 114.88 123.647 114.88 123.647 110.33" fill="#333"/>
      <path d="M131.883,111.4a1.239,1.239,0,0,0-.959-.45,1.542,1.542,0,0,0-1.56,1.626,1.559,1.559,0,0,0,1.56,1.689,1.279,1.279,0,0,0,1.023-.552l.667.476a2.011,2.011,0,0,1-1.695.809,2.391,2.391,0,1,1,0-4.781,1.978,1.978,0,0,1,1.593.72Z" fill="#333"/>
      <polygon points="136.176 110.33 137.248 110.33 139.453 113.71 139.466 113.71 139.466 110.33 140.275 110.33 140.275 114.88 139.248 114.88 136.999 111.39 136.985 111.39 136.985 114.88 136.176 114.88 136.176 110.33" fill="#333"/>
      <path d="M143.447,110.214a2.26,2.26,0,0,1,2.422,2.385,2.318,2.318,0,0,1-2.422,2.4,2.391,2.391,0,1,1,0-4.782m.007,4.049a1.562,1.562,0,0,0,1.567-1.69,1.565,1.565,0,1,0-3.128,0,1.561,1.561,0,0,0,1.561,1.69" fill="#333"/>
      <path d="M175.906,110.33h1.529c.88,0,1.677.309,1.677,1.318,0,1.142-.855,1.349-1.818,1.349h-.579v1.883h-.809Zm1.3,1.973c.462,0,1.06-.026,1.06-.642,0-.559-.533-.637-.97-.637h-.579V112.3Z" fill="#333"/>
      <polygon points="181.045 111.217 180.19 112.007 179.74 111.473 181.116 110.33 181.816 110.33 181.816 114.879 181.045 114.879 181.045 111.217" fill="#333"/>
      <path d="M188.91,110.33h1.529c.88,0,1.677.309,1.677,1.318,0,1.142-.856,1.349-1.818,1.349h-.578v1.883h-.81Zm1.3,1.973c.463,0,1.061-.026,1.061-.642,0-.559-.534-.637-.97-.637h-.578V112.3Z" fill="#333"/>
      <path d="M192.706,114.063l1.767-1.709a1.185,1.185,0,0,0,.469-.771.612.612,0,0,0-.662-.6.677.677,0,0,0-.7.617l-.81-.065a1.375,1.375,0,0,1,1.51-1.285c.817,0,1.473.417,1.473,1.292a1.768,1.768,0,0,1-.7,1.335l-1.409,1.305h2.109v.694h-3.047Z" fill="#333"/>
      <path d="M201.914,110.33h1.53c.88,0,1.678.309,1.678,1.318,0,1.142-.856,1.349-1.82,1.349h-.578v1.883h-.81Zm1.3,1.973c.461,0,1.059-.026,1.059-.642,0-.559-.533-.637-.97-.637h-.578V112.3Z" fill="#333"/>
      <path d="M206.758,112.162h.2c.444,0,.888-.065.888-.618a.6.6,0,0,0-.649-.6.711.711,0,0,0-.68.5l-.817-.218a1.4,1.4,0,0,1,1.459-.976c.784,0,1.458.411,1.458,1.214a1.027,1.027,0,0,1-.778,1.027v.014a1.034,1.034,0,0,1,.889,1.105,1.393,1.393,0,0,1-1.537,1.343,1.452,1.452,0,0,1-1.562-1.067l.824-.219a.7.7,0,0,0,.738.592.729.729,0,0,0,.765-.714c0-.591-.54-.694-1.009-.694h-.187Z" fill="#333"/>
      <rect x="255.844" y="112.971" width="1.586" height="0.655" fill="#333"/>
      <path d="M243.293,110.33h.7l1.959,4.55h-.926l-.422-1.042H242.63l-.411,1.042h-.905Zm1.027,2.814-.7-1.85-.713,1.85Z" fill="#333"/>
      <polygon points="269.314 112.605 269.314 111.191 269.971 111.191 269.971 112.605 271.384 112.605 271.384 113.26 269.971 113.26 269.971 114.674 269.314 114.674 269.314 113.26 267.901 113.26 267.901 112.605 269.314 112.605" fill="#333"/>
      <path d="M114.891,107.483a.115.115,0,0,1-.115-.114v-9.5a.115.115,0,0,1,.115-.114h17.992a.115.115,0,0,1,0,.229H115.007v9.387a.115.115,0,0,1-.116.114" fill="#333"/>
      <path d="M140.921,107.482a.115.115,0,0,1-.114-.115v-3.022a.115.115,0,1,1,.23,0v3.022a.116.116,0,0,1-.116.115" fill="#333"/>
      <path d="M140.921,104.458a1.593,1.593,0,1,1,1.593-1.592,1.595,1.595,0,0,1-1.593,1.592m0-2.956a1.364,1.364,0,1,0,1.363,1.364,1.367,1.367,0,0,0-1.363-1.364" fill="#333"/>
      <path d="M127.8,107.482a.116.116,0,0,1-.115-.115v-3.022a.115.115,0,1,1,.23,0v3.022a.115.115,0,0,1-.115.115" fill="#333"/>
      <path d="M127.8,104.458a1.593,1.593,0,1,1,1.594-1.592,1.592,1.592,0,0,1-1.594,1.592m0-2.956a1.364,1.364,0,1,0,1.364,1.364A1.365,1.365,0,0,0,127.8,101.5" fill="#333"/>
      <path d="M134.36,99.46a1.593,1.593,0,1,1,1.594-1.592,1.594,1.594,0,0,1-1.594,1.592m0-2.956a1.364,1.364,0,1,0,1.365,1.364A1.365,1.365,0,0,0,134.36,96.5" fill="#333"/>
      <path d="M129.016,104.5a.1.1,0,0,1-.081-.037.113.113,0,0,1,0-.162l5.345-5.04a.115.115,0,0,1,.158.167l-5.343,5.04a.122.122,0,0,1-.081.032" fill="#333"/>
      <path d="M274.193,107.33H239.081a.115.115,0,0,1,0-.229h35.112a.115.115,0,0,1,0,.229" fill="#333"/>
      <path d="M209.822,107.33H174.711a.115.115,0,1,1,0-.229h35.111a.115.115,0,0,1,0,.229" fill="#333"/>
      <path d="M61.313,121.192a.114.114,0,0,1-.115-.114v-3.839a.115.115,0,1,1,.23,0v3.839a.114.114,0,0,1-.115.114" fill="#333"/>
      <path d="M87.321,121.192a.113.113,0,0,1-.114-.114v-3.839a.115.115,0,1,1,.229,0v3.839a.114.114,0,0,1-.115.114" fill="#333"/>
      <path d="M74.318,121.192a.114.114,0,0,1-.115-.114v-3.839a.115.115,0,1,1,.229,0v3.839a.113.113,0,0,1-.114.114" fill="#333"/>
      <path d="M114.82,121.192a.114.114,0,0,1-.114-.114v-3.839a.115.115,0,1,1,.23,0v3.839a.115.115,0,0,1-.116.114" fill="#333"/>
      <path d="M127.873,121.192a.115.115,0,0,1-.116-.114v-3.839a.116.116,0,0,1,.231,0v3.839a.115.115,0,0,1-.115.114" fill="#333"/>
      <path d="M140.9,121.192a.114.114,0,0,1-.114-.115v-3.838a.115.115,0,1,1,.23,0v3.838a.115.115,0,0,1-.116.115" fill="#333"/>
      <path d="M179.261,121.192a.114.114,0,0,1-.114-.114v-3.839a.115.115,0,1,1,.23,0v3.839a.114.114,0,0,1-.116.114" fill="#333"/>
      <path d="M192.266,121.192a.114.114,0,0,1-.115-.115v-3.838a.115.115,0,0,1,.23,0v3.838a.115.115,0,0,1-.115.115" fill="#333"/>
      <path d="M205.271,121.192a.114.114,0,0,1-.115-.114v-3.839a.115.115,0,1,1,.229,0v3.839a.113.113,0,0,1-.114.114" fill="#333"/>
      <path d="M243.633,121.192a.115.115,0,0,1-.116-.114v-3.839a.116.116,0,0,1,.231,0v3.839a.115.115,0,0,1-.115.114" fill="#333"/>
      <path d="M256.637,121.192a.114.114,0,0,1-.116-.114v-3.839a.115.115,0,1,1,.23,0v3.839a.114.114,0,0,1-.114.114" fill="#333"/>
      <path d="M269.641,121.192a.114.114,0,0,1-.114-.114v-3.839a.115.115,0,1,1,.23,0v3.839a.115.115,0,0,1-.116.114" fill="#333"/>
      <path d="M145.473,92.4H110.339a.115.115,0,0,1,0-.229h35.134a.115.115,0,0,1,0,.229" fill="#333"/>
      <path d="M121.194,86.511h1.877a1.456,1.456,0,0,1,.975.282.978.978,0,0,1,.325.781,1.134,1.134,0,0,1-.084.465,1,1,0,0,1-.191.3.8.8,0,0,1-.218.164c-.073.032-.125.054-.157.066v.01a.722.722,0,0,1,.189.055.553.553,0,0,1,.191.141.781.781,0,0,1,.145.25,1.077,1.077,0,0,1,.057.386,3.668,3.668,0,0,0,.053.63.868.868,0,0,0,.162.405h-.736a.622.622,0,0,1-.091-.281c-.009-.1-.014-.2-.014-.3a2.7,2.7,0,0,0-.034-.465.833.833,0,0,0-.119-.326.534.534,0,0,0-.24-.189,1.031,1.031,0,0,0-.389-.061h-1.013v1.619h-.688Zm.688,1.79h1.128a.722.722,0,0,0,.5-.157.613.613,0,0,0,.17-.471.728.728,0,0,0-.055-.306.457.457,0,0,0-.151-.183.564.564,0,0,0-.22-.089,1.54,1.54,0,0,0-.258-.021h-1.116Z" fill="#333"/>
      <path d="M125.47,89.182a1.09,1.09,0,0,0,.048.319.8.8,0,0,0,.14.27.648.648,0,0,0,.237.184.887.887,0,0,0,.785-.049.71.71,0,0,0,.25-.355h.594a1.19,1.19,0,0,1-.462.718,1.225,1.225,0,0,1-.382.187,1.523,1.523,0,0,1-.444.064,1.488,1.488,0,0,1-.594-.111,1.223,1.223,0,0,1-.438-.308,1.316,1.316,0,0,1-.27-.472,1.925,1.925,0,0,1-.091-.606,1.7,1.7,0,0,1,.1-.576,1.439,1.439,0,0,1,.275-.479,1.331,1.331,0,0,1,.431-.328,1.316,1.316,0,0,1,.572-.12,1.268,1.268,0,0,1,.6.14,1.314,1.314,0,0,1,.443.372,1.5,1.5,0,0,1,.257.53,1.653,1.653,0,0,1,.04.62Zm1.465-.413a1,1,0,0,0-.063-.287.764.764,0,0,0-.143-.239.7.7,0,0,0-.22-.164.643.643,0,0,0-.29-.064.773.773,0,0,0-.3.057.683.683,0,0,0-.232.16.746.746,0,0,0-.153.24.831.831,0,0,0-.065.3Z" fill="#333"/>
      <rect x="128.058" y="86.511" width="0.628" height="3.931" fill="#333"/>
      <path d="M131.752,89.809a.327.327,0,0,0,.031.166.126.126,0,0,0,.119.05h.065a.439.439,0,0,0,.088-.011v.435c-.022.006-.049.015-.085.024s-.071.017-.108.025-.073.012-.11.017-.068,0-.092,0a.6.6,0,0,1-.321-.078.383.383,0,0,1-.165-.269,1.1,1.1,0,0,1-.459.264,1.792,1.792,0,0,1-.526.083,1.3,1.3,0,0,1-.37-.053.966.966,0,0,1-.31-.153.741.741,0,0,1-.214-.259.792.792,0,0,1-.08-.366.845.845,0,0,1,.1-.43.717.717,0,0,1,.254-.259,1.139,1.139,0,0,1,.351-.135c.13-.027.262-.048.393-.063a3.2,3.2,0,0,1,.326-.047,1.517,1.517,0,0,0,.272-.047.428.428,0,0,0,.188-.1.282.282,0,0,0,.068-.207.307.307,0,0,0-.059-.2.379.379,0,0,0-.142-.118.6.6,0,0,0-.19-.055,1.529,1.529,0,0,0-.2-.013.787.787,0,0,0-.435.11.427.427,0,0,0-.192.341h-.629a.959.959,0,0,1,.133-.458.934.934,0,0,1,.3-.292,1.23,1.23,0,0,1,.4-.154,2.436,2.436,0,0,1,.462-.044,1.964,1.964,0,0,1,.413.044,1.163,1.163,0,0,1,.367.144.786.786,0,0,1,.261.255.706.706,0,0,1,.1.383Zm-.627-.792a.771.771,0,0,1-.353.113c-.138.013-.278.032-.419.057a1.379,1.379,0,0,0-.192.047.527.527,0,0,0-.164.083.356.356,0,0,0-.114.137.471.471,0,0,0-.041.208.254.254,0,0,0,.061.175.432.432,0,0,0,.146.112.667.667,0,0,0,.185.059,1.336,1.336,0,0,0,.186.017.926.926,0,0,0,.225-.029.786.786,0,0,0,.23-.092.637.637,0,0,0,.178-.169.42.42,0,0,0,.072-.25Z" fill="#333"/>
      <path d="M132.116,87.6h.687l.745,2.125h.01l.721-2.125h.655l-1.106,3c-.052.13-.1.252-.152.37a1.3,1.3,0,0,1-.182.311.769.769,0,0,1-.267.214.894.894,0,0,1-.407.079,2.856,2.856,0,0,1-.435-.032V91.01c.052.007.1.016.148.025a.81.81,0,0,0,.149.014.519.519,0,0,0,.182-.028.3.3,0,0,0,.118-.08.47.47,0,0,0,.079-.124.9.9,0,0,0,.061-.165l.073-.22Z" fill="#333"/>
      <path d="M78.861,107.327h-22.1a.115.115,0,1,1,0-.23h22.1a.115.115,0,1,1,0,.23" fill="#333"/>
      <path d="M59.862,104.079a.874.874,0,0,0,.078.386.694.694,0,0,0,.214.262.927.927,0,0,0,.317.149,1.532,1.532,0,0,0,.389.046,1.236,1.236,0,0,0,.384-.053.736.736,0,0,0,.259-.135.473.473,0,0,0,.143-.189.593.593,0,0,0,.044-.218.463.463,0,0,0-.1-.332.56.56,0,0,0-.223-.152,4.508,4.508,0,0,0-.486-.146c-.186-.046-.414-.105-.686-.179a1.427,1.427,0,0,1-.421-.173.981.981,0,0,1-.267-.24.828.828,0,0,1-.14-.28,1.147,1.147,0,0,1-.041-.3,1.018,1.018,0,0,1,.124-.515,1.108,1.108,0,0,1,.327-.361,1.462,1.462,0,0,1,.463-.211,2.016,2.016,0,0,1,.521-.069,2.069,2.069,0,0,1,.583.079,1.452,1.452,0,0,1,.478.24,1.124,1.124,0,0,1,.448.935h-.688a.659.659,0,0,0-.258-.535,1.024,1.024,0,0,0-.588-.157,1.267,1.267,0,0,0-.25.024.816.816,0,0,0-.23.082.534.534,0,0,0-.174.157.425.425,0,0,0-.069.249.419.419,0,0,0,.13.327.814.814,0,0,0,.34.179l.171.046c.1.028.214.059.34.091l.365.1.257.069a1.192,1.192,0,0,1,.335.166,1.028,1.028,0,0,1,.24.239.96.96,0,0,1,.142.289,1.009,1.009,0,0,1,.047.309,1.131,1.131,0,0,1-.133.564,1.143,1.143,0,0,1-.356.382,1.543,1.543,0,0,1-.5.217,2.355,2.355,0,0,1-.574.07,2.316,2.316,0,0,1-.633-.083,1.447,1.447,0,0,1-.516-.253,1.235,1.235,0,0,1-.354-.438,1.478,1.478,0,0,1-.136-.631Z" fill="#333"/>
      <path d="M65.388,105.39h-.616v-.4h-.01a.856.856,0,0,1-.344.344.931.931,0,0,1-.465.13,1.042,1.042,0,0,1-.812-.278,1.214,1.214,0,0,1-.252-.839v-1.807h.629v1.746a.772.772,0,0,0,.143.529.517.517,0,0,0,.4.153.764.764,0,0,0,.329-.061.548.548,0,0,0,.214-.162.605.605,0,0,0,.12-.245,1.3,1.3,0,0,0,.036-.307v-1.653h.626Z" fill="#333"/>
      <path d="M66.067,102.543h.6v.387h.009a.784.784,0,0,1,.371-.356,1.225,1.225,0,0,1,.511-.107,1.363,1.363,0,0,1,.585.118,1.15,1.15,0,0,1,.416.325,1.4,1.4,0,0,1,.249.481,2.05,2.05,0,0,1,.082.589,2.119,2.119,0,0,1-.074.557,1.416,1.416,0,0,1-.226.476,1.149,1.149,0,0,1-.382.33,1.136,1.136,0,0,1-.545.124,1.515,1.515,0,0,1-.276-.025,1.176,1.176,0,0,1-.263-.079,1.08,1.08,0,0,1-.236-.142.779.779,0,0,1-.177-.2h-.013v1.42h-.626Zm2.19,1.427a1.467,1.467,0,0,0-.049-.375,1,1,0,0,0-.149-.322.775.775,0,0,0-.248-.225.668.668,0,0,0-.34-.086.692.692,0,0,0-.6.275,1.217,1.217,0,0,0-.2.733,1.5,1.5,0,0,0,.052.4.96.96,0,0,0,.157.317.792.792,0,0,0,.252.209.718.718,0,0,0,.339.076.691.691,0,0,0,.362-.087.737.737,0,0,0,.245-.229.909.909,0,0,0,.138-.319,1.663,1.663,0,0,0,.041-.366" fill="#333"/>
      <path d="M69.431,102.543h.595v.387h.009a.769.769,0,0,1,.37-.356,1.228,1.228,0,0,1,.511-.107,1.371,1.371,0,0,1,.586.118,1.163,1.163,0,0,1,.415.325,1.437,1.437,0,0,1,.249.481,2.05,2.05,0,0,1,.082.589,2.118,2.118,0,0,1-.073.557,1.437,1.437,0,0,1-.227.476,1.1,1.1,0,0,1-.927.454,1.515,1.515,0,0,1-.276-.025,1.233,1.233,0,0,1-.264-.079,1.116,1.116,0,0,1-.234-.142.823.823,0,0,1-.178-.2h-.012v1.42h-.626Zm2.189,1.427a1.423,1.423,0,0,0-.048-.375,1.07,1.07,0,0,0-.149-.322.775.775,0,0,0-.248-.225.677.677,0,0,0-.341-.086.7.7,0,0,0-.6.275,1.224,1.224,0,0,0-.2.733,1.458,1.458,0,0,0,.052.4.941.941,0,0,0,.157.317.792.792,0,0,0,.252.209.708.708,0,0,0,.338.076.692.692,0,0,0,.363-.087.756.756,0,0,0,.245-.229.909.909,0,0,0,.138-.319,1.662,1.662,0,0,0,.04-.366" fill="#333"/>
      <rect x="72.793" y="101.459" width="0.628" height="3.931" fill="#333"/>
      <path d="M73.79,102.544h.687l.745,2.125h.01l.721-2.125h.657l-1.108,3c-.051.129-.1.251-.152.369a1.37,1.37,0,0,1-.18.312.813.813,0,0,1-.267.214.918.918,0,0,1-.408.08,2.857,2.857,0,0,1-.435-.034v-.528c.051.007.1.016.147.025a.837.837,0,0,0,.15.014.506.506,0,0,0,.181-.028.326.326,0,0,0,.12-.079.476.476,0,0,0,.079-.125,1.15,1.15,0,0,0,.061-.165l.072-.22Z" fill="#333"/>
      <path d="M70.082,184.183c-.08,0-.457.016-.538,0-.7-.133-1.114.58-.982-.123.024-.118,1.949-13.292-3.732-20.187-5.753-6.981-5.745-11.77-5.273-18.859a4.4,4.4,0,0,0,2.566,0c-.454,6.839-.441,10.959,4.708,17.211,6.463,7.842,4.381,21.791,4.28,22.321-.119.62-.418-.363-1.029-.363" fill="#fff"/>
      <path d="M70.082,184.183c-.08,0-.457.016-.538,0-.7-.133-1.114.58-.982-.123.024-.118,1.949-13.292-3.732-20.187-5.753-6.981-5.745-11.77-5.273-18.859a4.4,4.4,0,0,0,2.566,0c-.454,6.839-.441,10.959,4.708,17.211,6.463,7.842,4.381,21.791,4.28,22.321C70.992,185.166,70.693,184.183,70.082,184.183Z" fill="none" stroke="#333" stroke-linecap="round" stroke-linejoin="round" stroke-width="0.649"/>
      <path d="M74.514,184.406a1.3,1.3,0,0,1-1.3-1.3l-.142-37.993a4.876,4.876,0,0,0,2.594-.01l.142,37.993a1.3,1.3,0,0,1-1.291,1.313Z" fill="#fff"/>
      <path d="M74.514,184.406a1.3,1.3,0,0,1-1.3-1.3l-.142-37.993a4.876,4.876,0,0,0,2.594-.01l.142,37.993a1.3,1.3,0,0,1-1.291,1.313Z" fill="none" stroke="#333" stroke-linecap="round" stroke-linejoin="round" stroke-width="0.649"/>
      <path d="M65.058,200.473q.325-8.778.6-17.7l12.965.389q-.277,9.133-.614,18.106" fill="#fff"/>
      <path d="M65.058,200.473q.325-8.778.6-17.7l12.965.389q-.277,9.133-.614,18.106" fill="none" stroke="#333" stroke-linecap="round" stroke-linejoin="round" stroke-width="0.649"/>
      <rect x="54.153" y="186.806" width="88.016" height="17.672" fill="#fff"/>
      <rect x="54.153" y="186.806" width="88.016" height="17.672" stroke-width="0.649" stroke="#333" stroke-linecap="round" stroke-linejoin="round" fill="none"/>
      <path d="M133.029,186.806c-3.742,6.036-3.938,11.935,0,17.671" fill="none" stroke="#333" stroke-linecap="round" stroke-linejoin="round" stroke-width="0.649"/>
      <line x1="65.831" y1="192.028" x2="130.682" y2="192.028" fill="none" stroke="#333" stroke-linecap="round" stroke-linejoin="round" stroke-width="0.649"/>
      <line x1="65.831" y1="200.473" x2="130.778" y2="200.473" fill="none" stroke="#333" stroke-linecap="round" stroke-linejoin="round" stroke-width="0.649"/>
      <line x1="66.252" y1="197.658" x2="130.268" y2="197.658" fill="none" stroke="#333" stroke-linecap="round" stroke-linejoin="round" stroke-width="0.649"/>
      <line x1="66.332" y1="194.843" x2="130.149" y2="194.843" fill="none" stroke="#333" stroke-linecap="round" stroke-linejoin="round" stroke-width="0.649"/>
      <path d="M63.452,186.806c3.742,6.036,3.938,11.935,0,17.671" fill="none" stroke="#333" stroke-linecap="round" stroke-linejoin="round" stroke-width="0.649"/>
      <path d="M61.1,195.98a6.949,6.949,0,1,1-6.948-6.948A6.947,6.947,0,0,1,61.1,195.98" fill="#fff"/>
      <path d="M61.1,195.98a6.949,6.949,0,1,1-6.948-6.948A6.947,6.947,0,0,1,61.1,195.98Z" fill="none" stroke="#333" stroke-linecap="round" stroke-linejoin="round" stroke-width="0.649"/>
      <path d="M58.043,195.98a3.89,3.89,0,1,1-3.889-3.891,3.89,3.89,0,0,1,3.889,3.891" fill="#fff"/>
      <path d="M58.043,195.98a3.89,3.89,0,1,1-3.889-3.891A3.89,3.89,0,0,1,58.043,195.98Z" fill="none" stroke="#333" stroke-linecap="round" stroke-linejoin="round" stroke-width="0.649"/>
      <path d="M58.646,195.452v1.055a.356.356,0,0,1-.355.358H55.4a.356.356,0,0,0-.357.356v2.9a.357.357,0,0,1-.358.357H53.626a.358.358,0,0,1-.357-.357v-2.9a.357.357,0,0,0-.357-.356H50.017a.358.358,0,0,1-.358-.358v-1.055a.357.357,0,0,1,.358-.356h2.895a.358.358,0,0,0,.357-.357v-2.9a.358.358,0,0,1,.357-.357H54.68a.357.357,0,0,1,.358.357v2.9a.357.357,0,0,0,.357.357h2.9a.355.355,0,0,1,.355.356" fill="#fff"/>
      <path d="M58.646,195.452v1.055a.356.356,0,0,1-.355.358H55.4a.356.356,0,0,0-.357.356v2.9a.357.357,0,0,1-.358.357H53.626a.358.358,0,0,1-.357-.357v-2.9a.357.357,0,0,0-.357-.356H50.017a.358.358,0,0,1-.358-.358v-1.055a.357.357,0,0,1,.358-.356h2.895a.358.358,0,0,0,.357-.357v-2.9a.358.358,0,0,1,.357-.357H54.68a.357.357,0,0,1,.358.357v2.9a.357.357,0,0,0,.357.357h2.9A.355.355,0,0,1,58.646,195.452Z" fill="none" stroke="#333" stroke-linecap="round" stroke-linejoin="round" stroke-width="0.649"/>
      <path d="M149.119,195.98a6.949,6.949,0,1,1-6.948-6.948,6.948,6.948,0,0,1,6.948,6.948" fill="#fff"/>
      <path d="M149.119,195.98a6.949,6.949,0,1,1-6.948-6.948A6.948,6.948,0,0,1,149.119,195.98Z" fill="none" stroke="#333" stroke-linecap="round" stroke-linejoin="round" stroke-width="0.649"/>
      <path d="M146.061,195.98a3.891,3.891,0,1,1-3.891-3.891,3.891,3.891,0,0,1,3.891,3.891" fill="#fff"/>
      <path d="M146.061,195.98a3.891,3.891,0,1,1-3.891-3.891A3.891,3.891,0,0,1,146.061,195.98Z" fill="none" stroke="#333" stroke-linecap="round" stroke-linejoin="round" stroke-width="0.649"/>
      <path d="M146.664,195.452v1.055a.357.357,0,0,1-.357.358h-2.9a.355.355,0,0,0-.355.356v2.9a.358.358,0,0,1-.358.357h-1.055a.356.356,0,0,1-.356-.357v-2.9a.357.357,0,0,0-.358-.356h-2.9a.357.357,0,0,1-.357-.358v-1.055a.356.356,0,0,1,.357-.356h2.9a.358.358,0,0,0,.358-.357v-2.9a.356.356,0,0,1,.356-.357H142.7a.358.358,0,0,1,.358.357v2.9a.356.356,0,0,0,.355.357h2.9a.356.356,0,0,1,.357.356" fill="#fff"/>
      <path d="M146.664,195.452v1.055a.357.357,0,0,1-.357.358h-2.9a.355.355,0,0,0-.355.356v2.9a.358.358,0,0,1-.358.357h-1.055a.356.356,0,0,1-.356-.357v-2.9a.357.357,0,0,0-.358-.356h-2.9a.357.357,0,0,1-.357-.358v-1.055a.356.356,0,0,1,.357-.356h2.9a.358.358,0,0,0,.358-.357v-2.9a.356.356,0,0,1,.356-.357H142.7a.358.358,0,0,1,.358.357v2.9a.356.356,0,0,0,.355.357h2.9A.356.356,0,0,1,146.664,195.452Z" fill="none" stroke="#333" stroke-linecap="round" stroke-linejoin="round" stroke-width="0.649"/>
      <rect x="-11.476" y="3.224" width="363.484" height="393.938" fill="none"/>
      <rect x="-11.476" y="3.224" width="363.484" height="393.938" fill="none"/>
    </g>
    <circle id="circle-2" cx="167.188" cy="253.452" r="150.785" fill="#fff" stroke="#4086aa" stroke-linecap="round" stroke-linejoin="round" stroke-width="4"/>
    <g clip-path="url(#clip-path)">
      <g>
        <path d="M21.428,274.245V209.261a2.195,2.195,0,0,1,2.194-2.194H505.567a2.194,2.194,0,0,1,2.194,2.194v64.984" fill="none" stroke="#333" stroke-linecap="round" stroke-linejoin="round" stroke-width="0.649"/>
        <path d="M1.406,171.671H-9.24A10.951,10.951,0,0,1-20.191,160.72,10.95,10.95,0,0,1-9.24,149.773H1.406a10.949,10.949,0,0,1,0,21.9Z" fill="none" stroke="#333" stroke-linecap="round" stroke-linejoin="round" stroke-width="0.649"/>
        <path d="M3.19,186.983H-25.934c-15.676,0-28.428-11.779-28.428-26.261S-41.61,134.46-25.934,134.46H3.19c15.676,0,28.43,11.779,28.43,26.262S18.866,186.983,3.19,186.983Z" fill="none" stroke="#333" stroke-linecap="round" stroke-linejoin="round" stroke-width="0.649"/>
        <rect x="39.009" y="224.053" width="77.55" height="40.584" fill="#fff"/>
        <rect x="39.009" y="224.053" width="77.55" height="40.584" stroke-width="0.649" stroke="#333" stroke-linecap="round" stroke-linejoin="round" fill="none"/>
        <path d="M60.645,244.516a9.286,9.286,0,1,1-9.286-9.286,9.287,9.287,0,0,1,9.286,9.286" fill="#fff"/>
        <circle cx="51.359" cy="244.516" r="9.286" transform="translate(-194.199 198.393) rotate(-67.5)" fill="none" stroke="#333" stroke-linecap="round" stroke-linejoin="round" stroke-width="0.649"/>
        <line x1="42.261" y1="243.018" x2="60.471" y2="243.018" fill="none" stroke="#333" stroke-linecap="round" stroke-linejoin="round" stroke-width="0.649"/>
        <line x1="60.472" y1="246.014" x2="42.263" y2="246.014" fill="none" stroke="#333" stroke-linecap="round" stroke-linejoin="round" stroke-width="0.649"/>
        <path d="M87.068,244.516a9.286,9.286,0,1,1-9.286-9.286,9.287,9.287,0,0,1,9.286,9.286" fill="#fff"/>
        <circle cx="77.782" cy="244.516" r="9.286" transform="translate(-177.887 222.805) rotate(-67.5)" fill="none" stroke="#333" stroke-linecap="round" stroke-linejoin="round" stroke-width="0.649"/>
        <line x1="68.687" y1="243.018" x2="86.896" y2="243.018" fill="none" stroke="#333" stroke-linecap="round" stroke-linejoin="round" stroke-width="0.649"/>
        <line x1="86.895" y1="246.014" x2="68.685" y2="246.014" fill="none" stroke="#333" stroke-linecap="round" stroke-linejoin="round" stroke-width="0.649"/>
        <path d="M113.493,244.516a9.286,9.286,0,1,1-9.286-9.286,9.287,9.287,0,0,1,9.286,9.286" fill="#fff"/>
        <circle cx="104.207" cy="244.516" r="9.286" transform="translate(-161.575 247.219) rotate(-67.5)" fill="none" stroke="#333" stroke-linecap="round" stroke-linejoin="round" stroke-width="0.649"/>
        <line x1="95.109" y1="243.018" x2="113.319" y2="243.018" fill="none" stroke="#333" stroke-linecap="round" stroke-linejoin="round" stroke-width="0.649"/>
        <line x1="113.32" y1="246.014" x2="95.111" y2="246.014" fill="none" stroke="#333" stroke-linecap="round" stroke-linejoin="round" stroke-width="0.649"/>
        <rect x="39.009" y="228.88" width="77.55" height="30.931" stroke-width="0.649" stroke="#333" stroke-linecap="round" stroke-linejoin="round" fill="none"/>
        <rect x="142.904" y="224.053" width="77.548" height="40.584" fill="#fff"/>
        <rect x="142.904" y="224.053" width="77.548" height="40.584" stroke-width="0.649" stroke="#333" stroke-linecap="round" stroke-linejoin="round" fill="none"/>
        <path d="M164.537,244.516a9.286,9.286,0,1,1-9.285-9.286,9.286,9.286,0,0,1,9.285,9.286" fill="#fff"/>
        <circle cx="155.252" cy="244.516" r="9.286" transform="translate(-130.064 294.378) rotate(-67.5)" fill="none" stroke="#333" stroke-linecap="round" stroke-linejoin="round" stroke-width="0.649"/>
        <line x1="146.156" y1="243.018" x2="164.365" y2="243.018" fill="none" stroke="#333" stroke-linecap="round" stroke-linejoin="round" stroke-width="0.649"/>
        <line x1="164.364" y1="246.014" x2="146.155" y2="246.014" fill="none" stroke="#333" stroke-linecap="round" stroke-linejoin="round" stroke-width="0.649"/>
        <path d="M190.963,244.516a9.286,9.286,0,1,1-9.286-9.286,9.287,9.287,0,0,1,9.286,9.286" fill="#fff"/>
        <circle cx="181.677" cy="244.516" r="9.286" transform="translate(-113.751 318.791) rotate(-67.5)" fill="none" stroke="#333" stroke-linecap="round" stroke-linejoin="round" stroke-width="0.649"/>
        <line x1="172.579" y1="243.018" x2="190.788" y2="243.018" fill="none" stroke="#333" stroke-linecap="round" stroke-linejoin="round" stroke-width="0.649"/>
        <line x1="190.79" y1="246.014" x2="172.58" y2="246.014" fill="none" stroke="#333" stroke-linecap="round" stroke-linejoin="round" stroke-width="0.649"/>
        <path d="M217.385,244.516a9.286,9.286,0,1,1-9.285-9.286,9.286,9.286,0,0,1,9.285,9.286" fill="#fff"/>
        <circle cx="208.1" cy="244.516" r="9.286" transform="matrix(0.383, -0.924, 0.924, 0.383, -97.44, 343.203)" fill="none" stroke="#333" stroke-linecap="round" stroke-linejoin="round" stroke-width="0.649"/>
        <line x1="199.004" y1="243.018" x2="217.213" y2="243.018" fill="none" stroke="#333" stroke-linecap="round" stroke-linejoin="round" stroke-width="0.649"/>
        <line x1="217.212" y1="246.014" x2="199.003" y2="246.014" fill="none" stroke="#333" stroke-linecap="round" stroke-linejoin="round" stroke-width="0.649"/>
        <rect x="142.904" y="228.88" width="77.548" height="30.931" stroke-width="0.649" stroke="#333" stroke-linecap="round" stroke-linejoin="round" fill="none"/>
        <rect x="271.427" y="224.053" width="77.548" height="40.584" fill="#fff"/>
        <rect x="271.427" y="224.053" width="77.548" height="40.584" stroke-width="0.649" stroke="#333" stroke-linecap="round" stroke-linejoin="round" fill="none"/>
        <path d="M293.064,244.516a9.286,9.286,0,1,1-9.286-9.286,9.289,9.289,0,0,1,9.286,9.286" fill="#fff"/>
        <circle cx="283.778" cy="244.516" r="9.286" transform="translate(-19.396 464.524) rotate(-76.717)" fill="none" stroke="#333" stroke-linecap="round" stroke-linejoin="round" stroke-width="0.649"/>
        <line x1="274.68" y1="243.018" x2="292.889" y2="243.018" fill="none" stroke="#333" stroke-linecap="round" stroke-linejoin="round" stroke-width="0.649"/>
        <line x1="292.888" y1="246.014" x2="274.678" y2="246.014" fill="none" stroke="#333" stroke-linecap="round" stroke-linejoin="round" stroke-width="0.649"/>
        <path d="M319.486,244.516a9.286,9.286,0,1,1-9.285-9.286,9.286,9.286,0,0,1,9.285,9.286" fill="#fff"/>
        <circle cx="310.201" cy="244.516" r="9.286" transform="translate(0.956 490.24) rotate(-76.717)" fill="none" stroke="#333" stroke-linecap="round" stroke-linejoin="round" stroke-width="0.649"/>
        <line x1="301.105" y1="243.018" x2="319.314" y2="243.018" fill="none" stroke="#333" stroke-linecap="round" stroke-linejoin="round" stroke-width="0.649"/>
        <line x1="319.313" y1="246.014" x2="301.104" y2="246.014" fill="none" stroke="#333" stroke-linecap="round" stroke-linejoin="round" stroke-width="0.649"/>
        <path d="M345.909,244.516a9.286,9.286,0,1,1-9.286-9.286,9.287,9.287,0,0,1,9.286,9.286" fill="#fff"/>
        <circle cx="336.623" cy="244.516" r="9.286" transform="translate(21.308 515.956) rotate(-76.718)" fill="none" stroke="#333" stroke-linecap="round" stroke-linejoin="round" stroke-width="0.649"/>
        <line x1="327.528" y1="243.018" x2="345.737" y2="243.018" fill="none" stroke="#333" stroke-linecap="round" stroke-linejoin="round" stroke-width="0.649"/>
        <line x1="345.736" y1="246.014" x2="327.527" y2="246.014" fill="none" stroke="#333" stroke-linecap="round" stroke-linejoin="round" stroke-width="0.649"/>
        <rect x="271.427" y="228.88" width="77.548" height="30.931" stroke-width="0.649" stroke="#333" stroke-linecap="round" stroke-linejoin="round" fill="none"/>
        <line x1="21.428" y1="264.637" x2="507.761" y2="264.637" fill="none" stroke="#333" stroke-linecap="round" stroke-linejoin="round" stroke-width="0.649"/>
        <polygon points="48.281 185.705 50.377 185.705 54.681 192.308 54.709 192.308 54.709 185.705 56.29 185.705 56.29 194.593 54.281 194.593 49.89 187.775 49.862 187.775 49.862 194.593 48.281 194.593 48.281 185.705" fill="#333"/>
        <path d="M289.986,168.354h3.385a3.2,3.2,0,0,1,1.333.239,2.052,2.052,0,0,1,.8.592,2,2,0,0,1,.385.773,3.387,3.387,0,0,1,.1.773,3.328,3.328,0,0,1-.1.77,1.986,1.986,0,0,1-1.181,1.356,3.314,3.314,0,0,1-1.333.23h-2.042v2.947h-1.343Zm1.343,3.636H293.3a1.767,1.767,0,0,0,.464-.063,1.373,1.373,0,0,0,.436-.21,1.049,1.049,0,0,0,.324-.388,1.351,1.351,0,0,0,.122-.606,1.58,1.58,0,0,0-.107-.625,1.014,1.014,0,0,0-.291-.393,1.037,1.037,0,0,0-.421-.2,2.153,2.153,0,0,0-.5-.053h-1.989Z" fill="#333"/>
        <path d="M301.641,174.8a.638.638,0,0,0,.061.325.249.249,0,0,0,.23.1h.129a.988.988,0,0,0,.173-.02v.849c-.046.012-.1.03-.167.048s-.137.033-.211.048-.142.023-.215.033-.132.01-.183.01a1.187,1.187,0,0,1-.623-.15.746.746,0,0,1-.322-.527,2.183,2.183,0,0,1-.9.515,3.51,3.51,0,0,1-1.028.162,2.535,2.535,0,0,1-.722-.1,1.892,1.892,0,0,1-.606-.3,1.428,1.428,0,0,1-.418-.507,1.533,1.533,0,0,1-.157-.714,1.637,1.637,0,0,1,.188-.839,1.41,1.41,0,0,1,.494-.506,2.319,2.319,0,0,1,.686-.264c.256-.053.515-.094.77-.124.223-.043.434-.071.636-.091a2.847,2.847,0,0,0,.532-.092.812.812,0,0,0,.368-.2.553.553,0,0,0,.132-.406.61.61,0,0,0-.114-.385.731.731,0,0,0-.279-.23,1.17,1.17,0,0,0-.37-.109,2.939,2.939,0,0,0-.388-.026,1.516,1.516,0,0,0-.848.216.828.828,0,0,0-.375.666h-1.229a1.837,1.837,0,0,1,.258-.892,1.774,1.774,0,0,1,.578-.572,2.36,2.36,0,0,1,.788-.3,4.812,4.812,0,0,1,.9-.083,3.908,3.908,0,0,1,.808.083,2.348,2.348,0,0,1,.717.281,1.573,1.573,0,0,1,.507.5,1.348,1.348,0,0,1,.195.747Zm-1.224-1.548a1.5,1.5,0,0,1-.689.221c-.274.025-.545.063-.818.111a2.671,2.671,0,0,0-.375.094,1.263,1.263,0,0,0-.325.16.718.718,0,0,0-.22.268.949.949,0,0,0-.079.406.488.488,0,0,0,.119.342.862.862,0,0,0,.282.22,1.253,1.253,0,0,0,.365.114,2.516,2.516,0,0,0,.362.033,2.035,2.035,0,0,0,.441-.053,1.567,1.567,0,0,0,.448-.183,1.237,1.237,0,0,0,.347-.329.824.824,0,0,0,.142-.489Z" fill="#333"/>
        <path d="M302.966,170.474h1.15v1.076h.02a1.284,1.284,0,0,1,.211-.443,2.119,2.119,0,0,1,.375-.39,1.918,1.918,0,0,1,.491-.287,1.49,1.49,0,0,1,.55-.106,2.771,2.771,0,0,1,.294.01l.164.023v1.181c-.083-.013-.172-.026-.26-.036a2.05,2.05,0,0,0-.266-.018,1.44,1.44,0,0,0-.586.125,1.367,1.367,0,0,0-.479.364,1.88,1.88,0,0,0-.321.6,2.576,2.576,0,0,0-.12.816v2.648h-1.223Z" fill="#333"/>
        <polygon points="306.783 168.355 308.007 168.355 308.007 172.721 310.222 170.474 311.729 170.474 309.601 172.518 311.934 176.035 310.437 176.035 308.739 173.334 308.007 174.046 308.007 176.035 306.783 176.035 306.783 168.355" fill="#333"/>
        <path d="M312.555,168.356h1.227v1.16h-1.227Zm0,2.118h1.227v5.561h-1.227Z" fill="#333"/>
        <path d="M315.117,170.474h1.16v.818l.023.023a2.031,2.031,0,0,1,.732-.727,1.919,1.919,0,0,1,1-.264,2.084,2.084,0,0,1,1.441.471,1.816,1.816,0,0,1,.527,1.422v3.818h-1.226v-3.5a1.533,1.533,0,0,0-.279-.952,1.017,1.017,0,0,0-.805-.294,1.368,1.368,0,0,0-.56.111,1.229,1.229,0,0,0-.421.312,1.567,1.567,0,0,0-.271.469,1.713,1.713,0,0,0-.094.57v3.281h-1.226Z" fill="#333"/>
        <path d="M326.429,175.745a2.366,2.366,0,0,1-.7,1.875,2.978,2.978,0,0,1-2.027.618,4.183,4.183,0,0,1-.844-.086,2.572,2.572,0,0,1-.778-.289,1.958,1.958,0,0,1-.585-.537,1.615,1.615,0,0,1-.276-.819h1.224a.914.914,0,0,0,.489.672,1.181,1.181,0,0,0,.395.119,3.591,3.591,0,0,0,.448.028,1.429,1.429,0,0,0,1.087-.368,1.47,1.47,0,0,0,.345-1.051v-.851h-.02a1.9,1.9,0,0,1-1.667.978,2.531,2.531,0,0,1-1.136-.231,2.2,2.2,0,0,1-.775-.633,2.673,2.673,0,0,1-.446-.933,4.465,4.465,0,0,1-.142-1.127,3.315,3.315,0,0,1,.175-1.067,2.771,2.771,0,0,1,.494-.887,2.36,2.36,0,0,1,1.852-.833,2.138,2.138,0,0,1,.966.22,1.494,1.494,0,0,1,.679.694h.02v-.762h1.224Zm-2.719-.679a1.3,1.3,0,0,0,1.158-.608,2.016,2.016,0,0,0,.258-.624,3.1,3.1,0,0,0,.079-.7,2.82,2.82,0,0,0-.084-.689,1.912,1.912,0,0,0-.266-.59,1.252,1.252,0,0,0-.461-.408,1.428,1.428,0,0,0-.684-.152,1.292,1.292,0,0,0-.687.172,1.355,1.355,0,0,0-.451.446,1.981,1.981,0,0,0-.25.623,3.472,3.472,0,0,0-.074.694,2.761,2.761,0,0,0,.086.674,1.872,1.872,0,0,0,.264.586,1.4,1.4,0,0,0,.451.42,1.292,1.292,0,0,0,.661.16" fill="#333"/>
        <polygon points="100.827 185.705 102.408 185.705 102.408 193.162 106.186 193.162 106.186 194.593 100.827 194.593 100.827 185.705" fill="#333"/>
        <polygon points="75.422 185.705 77.003 185.705 77.003 193.162 80.78 193.162 80.78 194.593 75.422 194.593 75.422 185.705" fill="#333"/>
        <path d="M143.372,187.79a2.417,2.417,0,0,0-1.869-.88,3.015,3.015,0,0,0-3.051,3.178,3.047,3.047,0,0,0,3.051,3.3,2.494,2.494,0,0,0,2-1.079l1.305.93a3.931,3.931,0,0,1-3.314,1.581,4.67,4.67,0,1,1,0-9.339,3.86,3.86,0,0,1,3.111,1.406Z" fill="#333"/>
        <path d="M150.082,185.478a4.416,4.416,0,0,1,4.733,4.659,4.529,4.529,0,0,1-4.733,4.682,4.671,4.671,0,1,1,0-9.341m.013,7.91a3.053,3.053,0,0,0,3.063-3.3,3.058,3.058,0,1,0-6.111,0,3.049,3.049,0,0,0,3.048,3.3" fill="#333"/>
        <polygon points="156.355 185.705 158.764 185.705 161.138 191.933 163.535 185.705 165.919 185.705 165.919 194.593 164.415 194.593 164.415 187.213 164.389 187.213 161.688 194.593 160.586 194.593 157.885 187.213 157.862 187.213 157.862 194.593 156.355 194.593 156.355 185.705" fill="#333"/>
        <polygon points="174.051 185.705 176.146 185.705 180.451 192.308 180.476 192.308 180.476 185.705 182.057 185.705 182.057 194.593 180.051 194.593 175.657 187.775 175.632 187.775 175.632 194.593 174.051 194.593 174.051 185.705" fill="#333"/>
        <path d="M190.139,187.79a2.42,2.42,0,0,0-1.873-.88,3.015,3.015,0,0,0-3.048,3.178,3.047,3.047,0,0,0,3.048,3.3,2.5,2.5,0,0,0,2-1.079l1.3.93a3.927,3.927,0,0,1-3.312,1.581,4.67,4.67,0,1,1,0-9.339,3.862,3.862,0,0,1,3.112,1.406Z" fill="#333"/>
        <polygon points="198.527 185.705 200.619 185.705 204.927 192.308 204.952 192.308 204.952 185.705 206.533 185.705 206.533 194.593 204.526 194.593 200.133 187.775 200.105 187.775 200.105 194.593 198.527 194.593 198.527 185.705" fill="#333"/>
        <path d="M212.729,185.478a4.415,4.415,0,0,1,4.732,4.659,4.527,4.527,0,0,1-4.732,4.682,4.671,4.671,0,1,1,0-9.341m.015,7.91a3.05,3.05,0,0,0,3.06-3.3,3.058,3.058,0,1,0-6.111,0,3.05,3.05,0,0,0,3.051,3.3" fill="#333"/>
        <path d="M276.137,185.705h2.987c1.718,0,3.276.6,3.276,2.574,0,2.232-1.669,2.635-3.552,2.635h-1.13v3.679h-1.581Zm2.536,3.854c.9,0,2.07-.051,2.07-1.254,0-1.092-1.041-1.244-1.895-1.244h-1.13v2.5Z" fill="#333"/>
        <polygon points="286.175 187.437 284.506 188.98 283.626 187.939 286.315 185.704 287.683 185.704 287.683 194.592 286.175 194.592 286.175 187.437" fill="#333"/>
        <path d="M301.541,185.705h2.987c1.718,0,3.276.6,3.276,2.574,0,2.232-1.672,2.635-3.552,2.635h-1.13v3.679h-1.581Zm2.533,3.854c.9,0,2.073-.051,2.073-1.254,0-1.092-1.044-1.244-1.895-1.244h-1.13v2.5Z" fill="#333"/>
        <path d="M308.956,193l3.451-3.339a2.318,2.318,0,0,0,.917-1.5,1.2,1.2,0,0,0-1.3-1.168,1.32,1.32,0,0,0-1.365,1.206l-1.584-.127a2.689,2.689,0,0,1,2.949-2.511c1.6,0,2.878.816,2.878,2.524a3.456,3.456,0,0,1-1.368,2.609l-2.751,2.549h4.119v1.356h-5.951Z" fill="#333"/>
        <path d="M326.944,185.705h2.987c1.72,0,3.278.6,3.278,2.574,0,2.232-1.672,2.635-3.554,2.635h-1.13v3.679h-1.581Zm2.536,3.854c.9,0,2.07-.051,2.07-1.254,0-1.092-1.041-1.244-1.9-1.244h-1.13v2.5Z" fill="#333"/>
        <path d="M336.405,189.283h.388c.867,0,1.733-.127,1.733-1.206a1.177,1.177,0,0,0-1.267-1.168,1.387,1.387,0,0,0-1.327.98l-1.6-.425a2.74,2.74,0,0,1,2.851-1.908c1.53,0,2.848.8,2.848,2.371a2.007,2.007,0,0,1-1.521,2.007v.028a2.021,2.021,0,0,1,1.736,2.159,2.72,2.72,0,0,1-3,2.622,2.836,2.836,0,0,1-3.051-2.083l1.609-.428a1.371,1.371,0,0,0,1.442,1.155,1.422,1.422,0,0,0,1.494-1.393c0-1.155-1.054-1.356-1.971-1.356h-.365Z" fill="#333"/>
        <path d="M156.946,180.144a.225.225,0,0,1-.225-.223V161.36a.225.225,0,0,1,.225-.223h35.147a.223.223,0,0,1,0,.446H157.172v18.338a.226.226,0,0,1-.226.223" fill="#333"/>
        <path d="M207.8,180.142a.224.224,0,0,1-.223-.226v-5.9a.224.224,0,0,1,.223-.226.227.227,0,0,1,.226.226v5.9a.227.227,0,0,1-.226.226" fill="#333"/>
        <path d="M207.8,174.235a3.112,3.112,0,1,1,3.112-3.112,3.117,3.117,0,0,1-3.112,3.112m0-5.774a2.664,2.664,0,1,0,2.663,2.662,2.669,2.669,0,0,0-2.663-2.662" fill="#333"/>
        <path d="M182.164,180.142a.226.226,0,0,1-.225-.226v-5.9a.224.224,0,1,1,.448,0v5.9a.224.224,0,0,1-.223.226" fill="#333"/>
        <path d="M182.164,174.235a3.112,3.112,0,1,1,3.114-3.112,3.112,3.112,0,0,1-3.114,3.112m0-5.774a2.664,2.664,0,1,0,2.663,2.662,2.666,2.666,0,0,0-2.663-2.662" fill="#333"/>
        <path d="M194.979,164.471a3.111,3.111,0,1,1,3.113-3.111,3.115,3.115,0,0,1-3.113,3.111m0-5.774a2.663,2.663,0,1,0,2.665,2.663,2.666,2.666,0,0,0-2.665-2.663" fill="#333"/>
        <path d="M184.54,174.317a.206.206,0,0,1-.16-.071.22.22,0,0,1,0-.316l10.441-9.846a.225.225,0,0,1,.309.327L184.7,174.257a.24.24,0,0,1-.157.06" fill="#333"/>
        <path d="M342.391,179.845H273.8a.225.225,0,1,1,0-.449h68.589a.225.225,0,0,1,0,.449" fill="#333"/>
        <path d="M52.282,206.925a.224.224,0,0,1-.223-.223v-7.5a.225.225,0,1,1,.449,0v7.5a.225.225,0,0,1-.226.223" fill="#333"/>
        <path d="M103.089,206.925a.224.224,0,0,1-.223-.223v-7.5a.224.224,0,1,1,.448,0v7.5a.224.224,0,0,1-.225.223" fill="#333"/>
        <path d="M77.688,206.925a.226.226,0,0,1-.226-.223v-7.5a.227.227,0,0,1,.226-.226.224.224,0,0,1,.223.226v7.5a.224.224,0,0,1-.223.223" fill="#333"/>
        <path d="M156.808,206.925a.224.224,0,0,1-.223-.223v-7.5a.224.224,0,1,1,.448,0v7.5a.226.226,0,0,1-.225.223" fill="#333"/>
        <path d="M182.305,206.925a.226.226,0,0,1-.225-.223v-7.5a.226.226,0,1,1,.451,0v7.5a.226.226,0,0,1-.226.223" fill="#333"/>
        <path d="M207.751,206.925a.224.224,0,0,1-.223-.226v-7.5a.224.224,0,1,1,.448,0v7.5a.225.225,0,0,1-.225.226" fill="#333"/>
        <path d="M282.691,206.925a.224.224,0,0,1-.223-.223v-7.5a.225.225,0,1,1,.449,0v7.5a.225.225,0,0,1-.226.223" fill="#333"/>
        <path d="M308.1,206.925a.224.224,0,0,1-.223-.226v-7.5a.224.224,0,1,1,.448,0v7.5a.226.226,0,0,1-.225.226" fill="#333"/>
        <path d="M333.5,206.925a.225.225,0,0,1-.226-.223v-7.5a.225.225,0,1,1,.449,0v7.5a.224.224,0,0,1-.223.223" fill="#333"/>
        <path d="M216.688,150.682H148.053a.225.225,0,0,1,0-.449h68.635a.225.225,0,0,1,0,.449" fill="#333"/>
        <path d="M169.259,139.176h3.666a2.843,2.843,0,0,1,1.906.55,1.916,1.916,0,0,1,.633,1.525,2.246,2.246,0,0,1-.162.91,1.971,1.971,0,0,1-.375.58,1.53,1.53,0,0,1-.426.319c-.142.063-.243.107-.306.129v.021a1.413,1.413,0,0,1,.37.106,1.115,1.115,0,0,1,.372.276,1.5,1.5,0,0,1,.284.489,2.1,2.1,0,0,1,.111.753,7.008,7.008,0,0,0,.1,1.231,1.663,1.663,0,0,0,.317.791h-1.439a1.212,1.212,0,0,1-.178-.548c-.017-.2-.027-.395-.027-.58a5.293,5.293,0,0,0-.066-.91,1.608,1.608,0,0,0-.233-.635,1.022,1.022,0,0,0-.469-.37,2.03,2.03,0,0,0-.76-.119H170.6v3.162h-1.343Zm1.343,3.5h2.2a1.411,1.411,0,0,0,.981-.306,1.2,1.2,0,0,0,.332-.92,1.445,1.445,0,0,0-.107-.6.882.882,0,0,0-.3-.357,1.077,1.077,0,0,0-.428-.175,2.969,2.969,0,0,0-.505-.04H170.6Z" fill="#333"/>
        <path d="M177.611,144.394a2.127,2.127,0,0,0,.094.623,1.556,1.556,0,0,0,.274.527,1.287,1.287,0,0,0,.463.36,1.737,1.737,0,0,0,1.533-.1,1.379,1.379,0,0,0,.489-.695h1.161a2.338,2.338,0,0,1-.9,1.4,2.422,2.422,0,0,1-.748.365,2.968,2.968,0,0,1-.866.124,2.918,2.918,0,0,1-1.161-.215,2.41,2.41,0,0,1-.856-.6,2.544,2.544,0,0,1-.527-.923,3.749,3.749,0,0,1-.177-1.183,3.314,3.314,0,0,1,.19-1.125,2.857,2.857,0,0,1,.537-.935,2.506,2.506,0,0,1,1.961-.876,2.507,2.507,0,0,1,1.178.273,2.569,2.569,0,0,1,.864.728,2.906,2.906,0,0,1,.5,1.036,3.191,3.191,0,0,1,.078,1.211Zm2.863-.808a1.985,1.985,0,0,0-.124-.56,1.458,1.458,0,0,0-.279-.467,1.362,1.362,0,0,0-.43-.321,1.253,1.253,0,0,0-.565-.124,1.507,1.507,0,0,0-.586.111,1.368,1.368,0,0,0-.453.312,1.487,1.487,0,0,0-.3.468,1.641,1.641,0,0,0-.127.581Z" fill="#333"/>
        <rect x="182.667" y="139.176" width="1.226" height="7.68" fill="#333"/>
        <path d="M189.883,145.619a.644.644,0,0,0,.061.324.252.252,0,0,0,.233.1h.126a.9.9,0,0,0,.173-.02v.849c-.043.012-.1.03-.168.048s-.136.033-.21.048-.142.023-.215.033-.132.01-.18.01a1.18,1.18,0,0,1-.626-.152.754.754,0,0,1-.322-.527,2.15,2.15,0,0,1-.9.517,3.51,3.51,0,0,1-1.028.162,2.511,2.511,0,0,1-.722-.1,1.857,1.857,0,0,1-.606-.3,1.418,1.418,0,0,1-.418-.507,1.533,1.533,0,0,1-.157-.714,1.66,1.66,0,0,1,.187-.839,1.41,1.41,0,0,1,.5-.506,2.2,2.2,0,0,1,.687-.264c.253-.053.511-.094.767-.124a6.4,6.4,0,0,1,.636-.091,2.978,2.978,0,0,0,.532-.091.832.832,0,0,0,.368-.2.561.561,0,0,0,.132-.405.611.611,0,0,0-.114-.386.731.731,0,0,0-.279-.23,1.147,1.147,0,0,0-.37-.109,2.932,2.932,0,0,0-.388-.025,1.535,1.535,0,0,0-.849.215.83.83,0,0,0-.374.666H185.13a1.87,1.87,0,0,1,.258-.894,1.788,1.788,0,0,1,.578-.57,2.381,2.381,0,0,1,.788-.3,4.9,4.9,0,0,1,.9-.086,3.958,3.958,0,0,1,.808.086,2.31,2.31,0,0,1,.717.282,1.537,1.537,0,0,1,.509.5,1.372,1.372,0,0,1,.193.747Zm-1.224-1.548a1.5,1.5,0,0,1-.689.22c-.271.025-.545.063-.818.112a2.812,2.812,0,0,0-.375.091,1.094,1.094,0,0,0-.322.162.7.7,0,0,0-.223.268.949.949,0,0,0-.079.406.489.489,0,0,0,.119.342.837.837,0,0,0,.284.22,1.319,1.319,0,0,0,.362.114,2.4,2.4,0,0,0,.363.033,1.876,1.876,0,0,0,.441-.056,1.557,1.557,0,0,0,.448-.179,1.269,1.269,0,0,0,.347-.33.824.824,0,0,0,.142-.489Z" fill="#333"/>
        <path d="M190.594,141.3h1.343l1.454,4.15h.02l1.409-4.15h1.28l-2.162,5.86c-.1.253-.2.492-.3.722a2.6,2.6,0,0,1-.355.608,1.531,1.531,0,0,1-.522.418,1.767,1.767,0,0,1-.795.155,5.441,5.441,0,0,1-.849-.064v-1.031c.1.013.2.031.289.048a1.536,1.536,0,0,0,.291.028,1.014,1.014,0,0,0,.355-.055.589.589,0,0,0,.231-.155.9.9,0,0,0,.154-.243,1.794,1.794,0,0,0,.119-.322l.142-.431Z" fill="#333"/>
        <path d="M86.563,179.839H43.392a.225.225,0,0,1,0-.449H86.563a.225.225,0,1,1,0,.449" fill="#333"/>
        <path d="M49.449,173.5a1.706,1.706,0,0,0,.152.752,1.335,1.335,0,0,0,.418.512,1.789,1.789,0,0,0,.618.291,2.981,2.981,0,0,0,.76.092,2.411,2.411,0,0,0,.75-.1,1.467,1.467,0,0,0,.507-.264.928.928,0,0,0,.279-.37,1.132,1.132,0,0,0,.086-.425.909.909,0,0,0-.2-.649,1.1,1.1,0,0,0-.436-.3,8.881,8.881,0,0,0-.95-.287q-.543-.132-1.34-.349a2.815,2.815,0,0,1-.821-.337,1.924,1.924,0,0,1-.522-.469,1.636,1.636,0,0,1-.274-.547,2.244,2.244,0,0,1-.081-.593,1.993,1.993,0,0,1,.243-1.006,2.153,2.153,0,0,1,.639-.7,2.863,2.863,0,0,1,.9-.413,4.083,4.083,0,0,1,2.156.02,2.835,2.835,0,0,1,.935.469,2.2,2.2,0,0,1,.874,1.826H52.8A1.3,1.3,0,0,0,52.3,169.6a2,2,0,0,0-1.15-.307,2.541,2.541,0,0,0-.486.048,1.63,1.63,0,0,0-.451.16,1.031,1.031,0,0,0-.34.307.844.844,0,0,0-.134.486.824.824,0,0,0,.253.639,1.606,1.606,0,0,0,.664.349c.025.008.139.038.335.091s.418.114.663.178l.715.187c.233.064.4.107.5.135a2.278,2.278,0,0,1,.653.324,2,2,0,0,1,.469.466,1.921,1.921,0,0,1,.279.565,2.015,2.015,0,0,1,.091.6,2.2,2.2,0,0,1-.261,1.1,2.242,2.242,0,0,1-.694.748,3.067,3.067,0,0,1-.978.423,4.629,4.629,0,0,1-1.12.137,4.582,4.582,0,0,1-1.237-.162,2.854,2.854,0,0,1-1.008-.5,2.428,2.428,0,0,1-.692-.856,2.9,2.9,0,0,1-.266-1.231Z" fill="#333"/>
        <path d="M60.244,176.055h-1.2v-.775H59.02a1.688,1.688,0,0,1-.671.672,1.832,1.832,0,0,1-.91.253,2.041,2.041,0,0,1-1.586-.542,2.389,2.389,0,0,1-.491-1.639v-3.53h1.229v3.41a1.515,1.515,0,0,0,.278,1.034,1.02,1.02,0,0,0,.786.3,1.51,1.51,0,0,0,.643-.119,1.064,1.064,0,0,0,.418-.317,1.175,1.175,0,0,0,.234-.479,2.525,2.525,0,0,0,.07-.6v-3.228h1.224Z" fill="#333"/>
        <path d="M61.569,170.494h1.163v.755h.018a1.515,1.515,0,0,1,.725-.695,2.383,2.383,0,0,1,1-.21,2.67,2.67,0,0,1,1.143.231,2.253,2.253,0,0,1,.813.636,2.779,2.779,0,0,1,.486.94,4.005,4.005,0,0,1,.16,1.15,4.116,4.116,0,0,1-.144,1.087,2.827,2.827,0,0,1-.441.93,2.254,2.254,0,0,1-.748.646,2.219,2.219,0,0,1-1.064.24,2.987,2.987,0,0,1-.54-.048,2.225,2.225,0,0,1-.514-.154,2.167,2.167,0,0,1-.461-.276,1.55,1.55,0,0,1-.345-.391h-.025v2.775H61.569Zm4.28,2.787a2.815,2.815,0,0,0-.1-.733,1.958,1.958,0,0,0-.291-.628,1.525,1.525,0,0,0-.484-.441,1.307,1.307,0,0,0-.664-.167,1.353,1.353,0,0,0-1.168.537,2.371,2.371,0,0,0-.4,1.432,2.948,2.948,0,0,0,.1.78,1.9,1.9,0,0,0,.307.618,1.552,1.552,0,0,0,.491.408,1.393,1.393,0,0,0,.664.15,1.364,1.364,0,0,0,.707-.17,1.45,1.45,0,0,0,.479-.449,1.815,1.815,0,0,0,.269-.623,3.21,3.21,0,0,0,.081-.714" fill="#333"/>
        <path d="M68.141,170.494H69.3v.755h.018a1.5,1.5,0,0,1,.722-.695,2.393,2.393,0,0,1,1-.21,2.686,2.686,0,0,1,1.145.231,2.263,2.263,0,0,1,.811.636,2.779,2.779,0,0,1,.486.94,4.005,4.005,0,0,1,.16,1.15,4.115,4.115,0,0,1-.142,1.087,2.81,2.81,0,0,1-.443.93,2.141,2.141,0,0,1-1.812.886,2.987,2.987,0,0,1-.54-.048,2.285,2.285,0,0,1-.514-.154,2.171,2.171,0,0,1-.458-.276,1.6,1.6,0,0,1-.348-.391h-.022v2.775H68.141Zm4.277,2.787a2.856,2.856,0,0,0-.094-.733,2.1,2.1,0,0,0-.291-.628,1.546,1.546,0,0,0-.484-.441,1.326,1.326,0,0,0-.667-.167,1.359,1.359,0,0,0-1.168.537,2.384,2.384,0,0,0-.392,1.432,2.829,2.829,0,0,0,.1.78,1.863,1.863,0,0,0,.306.618,1.556,1.556,0,0,0,.492.408,1.55,1.55,0,0,0,1.371-.02,1.511,1.511,0,0,0,.479-.449,1.8,1.8,0,0,0,.268-.623,3.209,3.209,0,0,0,.079-.714" fill="#333"/>
        <rect x="74.708" y="168.376" width="1.226" height="7.68" fill="#333"/>
        <path d="M76.656,170.5H78l1.454,4.152h.021l1.408-4.152h1.282L80,176.355c-.1.253-.2.491-.3.722a2.662,2.662,0,0,1-.352.608,1.56,1.56,0,0,1-.522.418,1.777,1.777,0,0,1-.8.157,5.605,5.605,0,0,1-.852-.066v-1.031c.1.013.2.031.289.048a1.577,1.577,0,0,0,.291.028.978.978,0,0,0,.355-.056.6.6,0,0,0,.233-.154.935.935,0,0,0,.155-.243,2.162,2.162,0,0,0,.119-.322l.142-.431Z" fill="#333"/>
        <rect x="-89.908" y="-23.523" width="710.055" height="769.545" fill="none"/>
        <rect x="-89.908" y="-23.523" width="710.055" height="769.545" fill="none"/>
      </g>
    </g>
  </g>
  <g id="P1">
    <g id="P1-2" data-name="P1">
      <path id="P1-3" data-name="P1" d="M280.356,253.236l.827,95.333c2.13-1.192,4.761-5.5,6.28-7.772l-.8-87.587A10.12,10.12,0,0,1,280.356,253.236Z" fill="#fff" stroke="#333" stroke-linecap="round" stroke-linejoin="round" stroke-width="0.5"/>
      <rect id="P1-4" data-name="P1" x="261.478" y="270.63" width="27.69" height="18.323" transform="translate(-1.386 1.371) rotate(-0.285)" stroke-width="0.5" stroke="#333" stroke-linecap="round" stroke-linejoin="round" fill="#989898"/>
      <path id="P1-5" data-name="P1" d="M274.113,272.963v2.8c0,1.613-.566,3.076-2.417,3.076-2.1,0-2.474-1.568-2.474-3.335v-1.061h-3.454v-1.484Zm-3.618,2.381c0,.847.047,1.943,1.177,1.943,1.026,0,1.168-.977,1.168-1.779v-1.061H270.5Z" fill="#fff"/>
      <polygon id="P1-6" data-name="P1" points="272.487 282.387 271.038 280.82 272.016 279.994 274.114 282.518 274.114 283.803 265.769 283.803 265.769 282.387 272.487 282.387" fill="#fff"/>
    </g>
  </g>
  <g id="NO">
    <g id="NO-2" data-name="NO">
      <path id="NO-3" data-name="NO" d="M205.2,253.2,206.437,397.2c2.112-.185,3.936-1.62,6.024-1.873L211.5,253.168A9.664,9.664,0,0,1,205.2,253.2Z" fill="#fff" stroke="#333" stroke-linecap="round" stroke-linejoin="round" stroke-width="0.5"/>
      <rect id="NO-4" data-name="NO" x="187.619" y="296.335" width="27.69" height="18.323" transform="translate(-1.515 1.004) rotate(-0.285)" stroke-width="0.5" stroke="#333" stroke-linecap="round" stroke-linejoin="round" fill="#989898"/>
      <g id="NO-5" data-name="NO">
        <path d="M199.628,300.628l-4.295,2.7v.017l4.309-.021.006,1.323-6.423.031-.007-1.412,4.287-2.693v-.018l-4.3.022-.007-1.323,6.423-.032Z" fill="#fff"/>
        <path d="M197.752,305.836a3.238,3.238,0,0,1,1.078.616,2.854,2.854,0,0,1,.725.991,3.52,3.52,0,0,1,.013,2.658,2.867,2.867,0,0,1-.715.993,3.222,3.222,0,0,1-1.072.626,4.028,4.028,0,0,1-1.335.223,3.873,3.873,0,0,1-1.309-.21,3.13,3.13,0,0,1-1.061-.615,2.859,2.859,0,0,1-.711-.986,3.571,3.571,0,0,1-.013-2.658,2.824,2.824,0,0,1,.7-1,3.155,3.155,0,0,1,1.054-.626,3.893,3.893,0,0,1,1.307-.222A4.049,4.049,0,0,1,197.752,305.836Zm-2.117,1.3a2.136,2.136,0,0,0-.687.305,1.542,1.542,0,0,0-.487.542,1.873,1.873,0,0,0,.008,1.619,1.525,1.525,0,0,0,.493.537,2.092,2.092,0,0,0,.689.3,3.182,3.182,0,0,0,.788.091,3.45,3.45,0,0,0,.818-.1,2.125,2.125,0,0,0,.7-.305,1.51,1.51,0,0,0,.492-.542,1.87,1.87,0,0,0-.008-1.618,1.52,1.52,0,0,0-.5-.538,2.159,2.159,0,0,0-.708-.3,3.471,3.471,0,0,0-.82-.09A3.218,3.218,0,0,0,195.635,307.138Z" fill="#fff"/>
      </g>
    </g>
  </g>
  <g id="NC">
    <g id="NC-2" data-name="NC">
      <path id="NC-3" data-name="NC" d="M178.8,253.292l.967,148.352c2.091.113,4.192-.891,6.3-.846L185.1,253.265A9.667,9.667,0,0,1,178.8,253.292Z" fill="#fff" stroke="#333" stroke-linecap="round" stroke-linejoin="round" stroke-width="0.5"/>
      <rect id="NC-4" data-name="NC" x="160.628" y="271.63" width="27.69" height="18.323" transform="translate(-1.392 0.87) rotate(-0.285)" stroke-width="0.5" stroke="#333" stroke-linecap="round" stroke-linejoin="round" fill="#989898"/>
      <g id="NC-5" data-name="NC">
        <g>
          <path d="M173.137,276.115l-4.295,2.7v.017l4.308-.021.007,1.323-6.423.031-.007-1.412,4.286-2.693v-.018l-4.3.022-.006-1.323,6.423-.032Z" fill="#fff"/>
          <path d="M171.47,285.506a1.442,1.442,0,0,0,.354-.317,1.474,1.474,0,0,0,.319-.928,1.65,1.65,0,0,0-.189-.808,1.52,1.52,0,0,0-.5-.538,2.15,2.15,0,0,0-.708-.3,3.462,3.462,0,0,0-.819-.09,3.206,3.206,0,0,0-.786.1,2.117,2.117,0,0,0-.687.305,1.545,1.545,0,0,0-.488.542,1.654,1.654,0,0,0-.18.811,1.311,1.311,0,0,0,.4,1.01,1.832,1.832,0,0,0,1.046.44l.007,1.367a3.283,3.283,0,0,1-1.09-.273,2.607,2.607,0,0,1-.831-.59,2.55,2.55,0,0,1-.525-.861,3.151,3.151,0,0,1-.185-1.088,3.275,3.275,0,0,1,.249-1.327,2.826,2.826,0,0,1,.7-1,3.136,3.136,0,0,1,1.054-.626,3.884,3.884,0,0,1,1.307-.222,4.043,4.043,0,0,1,1.337.209,3.228,3.228,0,0,1,1.078.616,2.829,2.829,0,0,1,.725.991,3.43,3.43,0,0,1,.119,2.329,2.707,2.707,0,0,1-.441.848,2.4,2.4,0,0,1-.721.619,2.6,2.6,0,0,1-.988.312l-.007-1.368A1.155,1.155,0,0,0,171.47,285.506Z" fill="#fff"/>
        </g>
      </g>
    </g>
  </g>
  <g id="COM">
    <g id="COM-2" data-name="COM">
      <path id="COM-3" data-name="COM" d="M152.179,253.292l.972,148.563c2.087.406,4.17-.129,6.286.208l-.955-148.8A9.667,9.667,0,0,1,152.179,253.292Z" fill="#fff" stroke="#333" stroke-linecap="round" stroke-linejoin="round" stroke-width="0.5"/>
      <rect id="COM-4" data-name="COM" x="131.452" y="295.112" width="31.528" height="18.323" transform="translate(-1.509 0.735) rotate(-0.285)" stroke-width="0.5" stroke="#333" stroke-linecap="round" stroke-linejoin="round" fill="#989898"/>
      <g id="COM-5" data-name="COM">
        <path d="M140.132,299.835a1.115,1.115,0,0,0,.513-.952,1.251,1.251,0,0,0-.144-.617,1.143,1.143,0,0,0-.379-.411,1.659,1.659,0,0,0-.541-.228,2.7,2.7,0,0,0-.627-.069,2.5,2.5,0,0,0-.6.075,1.622,1.622,0,0,0-.525.233,1.175,1.175,0,0,0-.373.415,1.261,1.261,0,0,0-.138.619,1,1,0,0,0,.306.772,1.4,1.4,0,0,0,.8.336l0,1.045a2.482,2.482,0,0,1-.833-.209,2,2,0,0,1-.635-.45,1.929,1.929,0,0,1-.4-.659,2.422,2.422,0,0,1-.142-.831,2.492,2.492,0,0,1,.191-1.014,2.158,2.158,0,0,1,.536-.763,2.4,2.4,0,0,1,.8-.479,2.959,2.959,0,0,1,1-.169,3.072,3.072,0,0,1,1.022.159,2.463,2.463,0,0,1,.824.471,2.169,2.169,0,0,1,.554.757,2.485,2.485,0,0,1,.2,1.013,2.447,2.447,0,0,1-.113.767,2.061,2.061,0,0,1-.337.648,1.829,1.829,0,0,1-.551.473,1.988,1.988,0,0,1-.755.238l-.006-1.045A.9.9,0,0,0,140.132,299.835Z" fill="#fff"/>
        <path d="M140,301.732a2.453,2.453,0,0,1,.824.471,2.169,2.169,0,0,1,.554.757,2.678,2.678,0,0,1,.01,2.031,2.185,2.185,0,0,1-.546.76,2.472,2.472,0,0,1-.819.478,3.093,3.093,0,0,1-1.021.17,2.962,2.962,0,0,1-1-.16,2.412,2.412,0,0,1-.81-.47,2.183,2.183,0,0,1-.544-.754,2.729,2.729,0,0,1-.01-2.031,2.167,2.167,0,0,1,.536-.763,2.385,2.385,0,0,1,.806-.478,2.924,2.924,0,0,1,1-.17A3.072,3.072,0,0,1,140,301.732Zm-1.617.995a1.6,1.6,0,0,0-.525.234,1.17,1.17,0,0,0-.372.414,1.427,1.427,0,0,0,.006,1.237,1.177,1.177,0,0,0,.376.41,1.6,1.6,0,0,0,.527.228,2.461,2.461,0,0,0,.6.07,2.628,2.628,0,0,0,.625-.076,1.629,1.629,0,0,0,.539-.233,1.161,1.161,0,0,0,.376-.414,1.427,1.427,0,0,0-.006-1.237,1.163,1.163,0,0,0-.38-.411,1.65,1.65,0,0,0-.541-.228,2.7,2.7,0,0,0-.626-.069A2.5,2.5,0,0,0,138.379,302.727Z" fill="#fff"/>
        <path d="M141.485,308.642l-3.37,1.164v.014l3.381,1.069.007,1.52-4.908.024,0-1.011,3.478-.017v-.013l-3.484-1.186,0-.832,3.438-1.22v-.014l-3.444.017-.005-1.01,4.908-.025Z" fill="#fff"/>
      </g>
    </g>
  </g>
  <g id="L_2">
    <g id="L_2-2" data-name="L_2">
      <path id="L_2-3" data-name="L_2" d="M100.839,253.366l.844,133.4c2.078,1.119,4.422,1.972,6.561,3.013l-1.1-136.436A9.7,9.7,0,0,1,100.839,253.366Z" fill="#fff" stroke="#333" stroke-linecap="round" stroke-linejoin="round" stroke-width="0.5"/>
      <rect id="L_2-4" data-name="L_2" x="82.734" y="273.084" width="27.811" height="18.323" transform="translate(-1.401 0.483) rotate(-0.285)" stroke-width="0.5" stroke="#333" stroke-linecap="round" stroke-linejoin="round" fill="#989898"/>
      <g id="L_2-5" data-name="L_2">
        <path d="M96.819,282.065,90.5,282.1l.019,3.777-1.433.008L89.06,280.4l7.751-.039Z" fill="#fff"/>
      </g>
    </g>
  </g>
  <g id="L_1">
    <g id="L_1-2" data-name="L_1">
      <path id="L_1-3" data-name="L_1" d="M74.545,253.366l.791,116.983q3.09,2.565,6.332,4.991l-.82-122A9.694,9.694,0,0,1,74.545,253.366Z" fill="#fff" stroke="#333" stroke-linecap="round" stroke-linejoin="round" stroke-width="0.5"/>
      <rect id="L_1-4" data-name="L_1" x="58.359" y="299.544" width="25.892" height="18.323" transform="translate(-1.532 0.358) rotate(-0.285)" stroke-width="0.5" stroke="#333" stroke-linecap="round" stroke-linejoin="round" fill="#989898"/>
      <g id="L_1-5" data-name="L_1">
        <path d="M70.505,308.521l-6.317.031.019,3.778-1.433.007-.028-5.482,7.751-.039Z" fill="#fff"/>
      </g>
    </g>
  </g>
  <g id="N">
    <g id="N-2" data-name="N">
      <path id="N-3" data-name="N" d="M47.7,253.18l-.354,88.385c2.014,2.77,5.12,6.272,7.341,8.909L54,253.153A9.544,9.544,0,0,1,47.7,253.18Z" fill="#fff" stroke="#333" stroke-linecap="round" stroke-linejoin="round" stroke-width="0.5"/>
      <rect id="N-4" data-name="N" x="31.809" y="267.562" width="28.628" height="18.503" transform="matrix(1, -0.005, 0.005, 1, -1.388, 0.235)" stroke-width="0.5" stroke="#333" stroke-linecap="round" stroke-linejoin="round" fill="#989898"/>
      <g id="N-5" data-name="N">
        <path d="M44.63,275.854l-5.2,3.266v.021h5.2v1.612H36.88v-1.721l5.188-3.256v-.021H36.88v-1.612h7.75Z" fill="#fff"/>
      </g>
    </g>
  </g>
</svg>
