<svg xmlns="http://www.w3.org/2000/svg" xmlns:xlink="http://www.w3.org/1999/xlink" width="340" height="420" viewBox="0 0 340 420">
  <defs>
    <clipPath id="clip-path">
      <circle cx="165.844" cy="254.188" r="147.637" fill="none"/>
    </clipPath>
  </defs>
  <g id="Device">
    <g id="Device-2" data-name="Device">
      <rect x="196.653" y="186.806" width="88.017" height="17.672" fill="#fff"/>
      <rect x="196.653" y="186.806" width="88.017" height="17.672" stroke-width="0.649" stroke="#333" stroke-linecap="round" stroke-linejoin="round" fill="none"/>
      <path d="M275.528,186.806c-3.742,6.036-3.937,11.935,0,17.671" fill="none" stroke="#333" stroke-linecap="round" stroke-linejoin="round" stroke-width="0.649"/>
      <line x1="208.329" y1="192.028" x2="273.18" y2="192.028" fill="none" stroke="#333" stroke-linecap="round" stroke-linejoin="round" stroke-width="0.649"/>
      <line x1="208.329" y1="200.473" x2="273.276" y2="200.473" fill="none" stroke="#333" stroke-linecap="round" stroke-linejoin="round" stroke-width="0.649"/>
      <line x1="208.75" y1="197.658" x2="272.768" y2="197.658" fill="none" stroke="#333" stroke-linecap="round" stroke-linejoin="round" stroke-width="0.649"/>
      <line x1="208.831" y1="194.843" x2="272.648" y2="194.843" fill="none" stroke="#333" stroke-linecap="round" stroke-linejoin="round" stroke-width="0.649"/>
      <path d="M205.951,186.806c3.742,6.036,3.937,11.935,0,17.671" fill="none" stroke="#333" stroke-linecap="round" stroke-linejoin="round" stroke-width="0.649"/>
      <polyline points="192.372 4.103 192.372 8.082 148.428 8.082 148.428 4.103" fill="none" stroke="#333" stroke-linecap="round" stroke-linejoin="round" stroke-width="0.649"/>
      <polyline points="148.403 6.897 164.596 6.897 164.596 7.402 175.281 7.402 175.281 6.897 192.357 6.897" fill="none" stroke="#333" stroke-linecap="round" stroke-linejoin="round" stroke-width="0.649"/>
      <path d="M351.034,118.834a36.813,36.813,0,0,1-36.814,36.814H26.31A36.814,36.814,0,0,1-10.5,118.834" fill="none" stroke="#333" stroke-linecap="round" stroke-linejoin="round" stroke-width="0.649"/>
      <path d="M45.518,155.654V122.389a1.124,1.124,0,0,1,1.123-1.124H293.353a1.123,1.123,0,0,1,1.123,1.124v33.265" fill="none" stroke="#333" stroke-linecap="round" stroke-linejoin="round" stroke-width="0.649"/>
      <path d="M35.269,103.146h-5.45a5.605,5.605,0,1,1,0-11.21h5.45a5.605,5.605,0,0,1,0,11.21Z" fill="none" stroke="#333" stroke-linecap="round" stroke-linejoin="round" stroke-width="0.649"/>
      <path d="M36.182,110.984H21.273c-8.025,0-14.553-6.03-14.553-13.443S13.248,84.1,21.273,84.1H36.182c8.024,0,14.553,6.03,14.553,13.444S44.206,110.984,36.182,110.984Z" fill="none" stroke="#333" stroke-linecap="round" stroke-linejoin="round" stroke-width="0.649"/>
      <path d="M302.976,100.266V94.815a5.606,5.606,0,0,1,11.211,0v5.451a5.606,5.606,0,0,1-11.211,0Z" fill="none" stroke="#333" stroke-linecap="round" stroke-linejoin="round" stroke-width="0.649"/>
      <path d="M304.547,84.755a13.9,13.9,0,0,0,0,27.8h15.572a13.9,13.9,0,1,0,0-27.8Z" fill="none" stroke="#333" stroke-linecap="round" stroke-linejoin="round" stroke-width="0.649"/>
      <path d="M162.09,158.248v17.813c0,5.934-5.22,10.745-11.66,10.745h-95.4c-5.254,0-9.513-3.925-9.513-8.766V158.248Z" fill="none" stroke="#333" stroke-linecap="round" stroke-linejoin="round" stroke-width="0.649"/>
      <path d="M294.477,158.248v19.834c0,4.818-4.239,8.724-9.467,8.724H189.1c-5.561,0-10.071-4.156-10.071-9.28V158.248Z" fill="none" stroke="#333" stroke-linecap="round" stroke-linejoin="round" stroke-width="0.649"/>
      <polygon points="156.666 189.241 153.945 191.999 153.945 202.436 156.665 205.193 183.723 205.193 186.443 202.436 186.443 191.999 183.723 189.241 156.666 189.241" fill="none" stroke="#333" stroke-linecap="round" stroke-linejoin="round" stroke-width="0.649"/>
      <polygon points="174.951 197.74 174.951 207.548 177.893 207.548 177.893 214.26 162.64 214.26 162.64 207.548 165.58 207.548 165.58 197.698 174.951 197.74" fill="#fff"/>
      <polygon points="174.951 197.74 174.951 207.548 177.893 207.548 177.893 214.26 162.64 214.26 162.64 207.548 165.58 207.548 165.58 197.698 174.951 197.74" fill="none" stroke="#333" stroke-linecap="round" stroke-linejoin="round" stroke-width="0.623"/>
      <path d="M314.221,4.2H26.31A36.592,36.592,0,0,0-10.5,40.562V168.844A36.591,36.591,0,0,0,26.31,205.208H49.926l.9-.072H165.58v2.494h-2.94v6.63h15.253v-6.63h-2.942l0-2.422H314.221a36.59,36.59,0,0,0,36.814-36.364V40.562A36.591,36.591,0,0,0,314.221,4.2Z" fill="none" stroke="#333" stroke-linecap="round" stroke-linejoin="round" stroke-width="1.946"/>
      <rect x="54.518" y="129.961" width="39.699" height="20.775" fill="#fff"/>
      <rect x="54.518" y="129.961" width="39.699" height="20.775" stroke-width="0.649" stroke="#333" stroke-linecap="round" stroke-linejoin="round" fill="none"/>
      <path d="M65.594,140.436a4.754,4.754,0,1,1-4.754-4.754,4.754,4.754,0,0,1,4.754,4.754" fill="#fff"/>
      <circle cx="60.84" cy="140.436" r="4.754" fill="none" stroke="#333" stroke-linecap="round" stroke-linejoin="round" stroke-width="0.649"/>
      <line x1="56.183" y1="139.669" x2="65.504" y2="139.669" fill="none" stroke="#333" stroke-linecap="round" stroke-linejoin="round" stroke-width="0.649"/>
      <line x1="65.505" y1="141.203" x2="56.183" y2="141.203" fill="none" stroke="#333" stroke-linecap="round" stroke-linejoin="round" stroke-width="0.649"/>
      <path d="M79.12,140.436a4.754,4.754,0,1,1-4.754-4.754,4.754,4.754,0,0,1,4.754,4.754" fill="#fff"/>
      <circle cx="74.366" cy="140.436" r="4.754" fill="none" stroke="#333" stroke-linecap="round" stroke-linejoin="round" stroke-width="0.649"/>
      <line x1="69.71" y1="139.669" x2="79.032" y2="139.669" fill="none" stroke="#333" stroke-linecap="round" stroke-linejoin="round" stroke-width="0.649"/>
      <line x1="79.031" y1="141.203" x2="69.709" y2="141.203" fill="none" stroke="#333" stroke-linecap="round" stroke-linejoin="round" stroke-width="0.649"/>
      <path d="M92.647,140.436a4.754,4.754,0,1,1-4.754-4.754,4.753,4.753,0,0,1,4.754,4.754" fill="#fff"/>
      <circle cx="87.893" cy="140.436" r="4.754" fill="none" stroke="#333" stroke-linecap="round" stroke-linejoin="round" stroke-width="0.649"/>
      <line x1="83.236" y1="139.669" x2="92.558" y2="139.669" fill="none" stroke="#333" stroke-linecap="round" stroke-linejoin="round" stroke-width="0.649"/>
      <line x1="92.558" y1="141.203" x2="83.237" y2="141.203" fill="none" stroke="#333" stroke-linecap="round" stroke-linejoin="round" stroke-width="0.649"/>
      <rect x="54.518" y="132.431" width="39.699" height="15.834" stroke-width="0.649" stroke="#333" stroke-linecap="round" stroke-linejoin="round" fill="none"/>
      <rect x="107.703" y="129.961" width="39.697" height="20.775" fill="#fff"/>
      <rect x="107.703" y="129.961" width="39.697" height="20.775" stroke-width="0.649" stroke="#333" stroke-linecap="round" stroke-linejoin="round" fill="none"/>
      <path d="M118.777,140.436a4.754,4.754,0,1,1-4.753-4.754,4.753,4.753,0,0,1,4.753,4.754" fill="#fff"/>
      <circle cx="114.024" cy="140.436" r="4.754" fill="none" stroke="#333" stroke-linecap="round" stroke-linejoin="round" stroke-width="0.649"/>
      <line x1="109.367" y1="139.669" x2="118.689" y2="139.669" fill="none" stroke="#333" stroke-linecap="round" stroke-linejoin="round" stroke-width="0.649"/>
      <line x1="118.688" y1="141.203" x2="109.367" y2="141.203" fill="none" stroke="#333" stroke-linecap="round" stroke-linejoin="round" stroke-width="0.649"/>
      <path d="M132.3,140.436a4.754,4.754,0,1,1-4.753-4.754,4.753,4.753,0,0,1,4.753,4.754" fill="#fff"/>
      <circle cx="127.551" cy="140.436" r="4.754" fill="none" stroke="#333" stroke-linecap="round" stroke-linejoin="round" stroke-width="0.649"/>
      <line x1="122.894" y1="139.669" x2="132.215" y2="139.669" fill="none" stroke="#333" stroke-linecap="round" stroke-linejoin="round" stroke-width="0.649"/>
      <line x1="132.216" y1="141.203" x2="122.894" y2="141.203" fill="none" stroke="#333" stroke-linecap="round" stroke-linejoin="round" stroke-width="0.649"/>
      <path d="M145.83,140.436a4.754,4.754,0,1,1-4.753-4.754,4.753,4.753,0,0,1,4.753,4.754" fill="#fff"/>
      <circle cx="141.077" cy="140.436" r="4.754" fill="none" stroke="#333" stroke-linecap="round" stroke-linejoin="round" stroke-width="0.649"/>
      <line x1="136.421" y1="139.669" x2="145.742" y2="139.669" fill="none" stroke="#333" stroke-linecap="round" stroke-linejoin="round" stroke-width="0.649"/>
      <line x1="145.742" y1="141.203" x2="136.42" y2="141.203" fill="none" stroke="#333" stroke-linecap="round" stroke-linejoin="round" stroke-width="0.649"/>
      <rect x="107.703" y="132.431" width="39.697" height="15.834" stroke-width="0.649" stroke="#333" stroke-linecap="round" stroke-linejoin="round" fill="none"/>
      <rect x="173.495" y="129.961" width="39.697" height="20.775" fill="#fff"/>
      <rect x="173.495" y="129.961" width="39.697" height="20.775" stroke-width="0.649" stroke="#333" stroke-linecap="round" stroke-linejoin="round" fill="none"/>
      <path d="M184.571,140.436a4.754,4.754,0,1,1-4.754-4.754,4.755,4.755,0,0,1,4.754,4.754" fill="#fff"/>
      <circle cx="179.817" cy="140.436" r="4.754" transform="translate(1.825 283.178) rotate(-76.717)" fill="none" stroke="#333" stroke-linecap="round" stroke-linejoin="round" stroke-width="0.649"/>
      <line x1="175.16" y1="139.669" x2="184.482" y2="139.669" fill="none" stroke="#333" stroke-linecap="round" stroke-linejoin="round" stroke-width="0.649"/>
      <line x1="184.481" y1="141.203" x2="175.159" y2="141.203" fill="none" stroke="#333" stroke-linecap="round" stroke-linejoin="round" stroke-width="0.649"/>
      <path d="M198.1,140.436a4.754,4.754,0,1,1-4.754-4.754,4.753,4.753,0,0,1,4.754,4.754" fill="#fff"/>
      <circle cx="193.343" cy="140.436" r="4.754" transform="translate(12.243 296.342) rotate(-76.717)" fill="none" stroke="#333" stroke-linecap="round" stroke-linejoin="round" stroke-width="0.649"/>
      <line x1="188.687" y1="139.669" x2="198.009" y2="139.669" fill="none" stroke="#333" stroke-linecap="round" stroke-linejoin="round" stroke-width="0.649"/>
      <line x1="198.008" y1="141.203" x2="188.687" y2="141.203" fill="none" stroke="#333" stroke-linecap="round" stroke-linejoin="round" stroke-width="0.649"/>
      <path d="M211.623,140.436a4.754,4.754,0,1,1-4.753-4.754,4.753,4.753,0,0,1,4.753,4.754" fill="#fff"/>
      <circle cx="206.87" cy="140.436" r="4.754" transform="translate(22.662 309.506) rotate(-76.718)" fill="none" stroke="#333" stroke-linecap="round" stroke-linejoin="round" stroke-width="0.649"/>
      <line x1="202.213" y1="139.669" x2="211.535" y2="139.669" fill="none" stroke="#333" stroke-linecap="round" stroke-linejoin="round" stroke-width="0.649"/>
      <line x1="211.534" y1="141.203" x2="202.213" y2="141.203" fill="none" stroke="#333" stroke-linecap="round" stroke-linejoin="round" stroke-width="0.649"/>
      <rect x="173.495" y="132.431" width="39.697" height="15.834" stroke-width="0.649" stroke="#333" stroke-linecap="round" stroke-linejoin="round" fill="none"/>
      <rect x="237.34" y="129.961" width="39.697" height="20.775" fill="#fff"/>
      <rect x="237.34" y="129.961" width="39.697" height="20.775" stroke-width="0.649" stroke="#333" stroke-linecap="round" stroke-linejoin="round" fill="none"/>
      <path d="M248.415,140.436a4.754,4.754,0,1,1-4.753-4.754,4.754,4.754,0,0,1,4.753,4.754" fill="#fff"/>
      <circle cx="243.662" cy="140.436" r="4.754" transform="translate(51.001 345.314) rotate(-76.718)" fill="none" stroke="#333" stroke-linecap="round" stroke-linejoin="round" stroke-width="0.649"/>
      <line x1="239.004" y1="139.669" x2="248.326" y2="139.669" fill="none" stroke="#333" stroke-linecap="round" stroke-linejoin="round" stroke-width="0.649"/>
      <line x1="248.327" y1="141.203" x2="239.005" y2="141.203" fill="none" stroke="#333" stroke-linecap="round" stroke-linejoin="round" stroke-width="0.649"/>
      <path d="M261.941,140.436a4.754,4.754,0,1,1-4.753-4.754,4.753,4.753,0,0,1,4.753,4.754" fill="#fff"/>
      <circle cx="257.188" cy="140.436" r="4.754" transform="translate(61.419 358.478) rotate(-76.718)" fill="none" stroke="#333" stroke-linecap="round" stroke-linejoin="round" stroke-width="0.649"/>
      <line x1="252.532" y1="139.669" x2="261.853" y2="139.669" fill="none" stroke="#333" stroke-linecap="round" stroke-linejoin="round" stroke-width="0.649"/>
      <line x1="261.853" y1="141.203" x2="252.531" y2="141.203" fill="none" stroke="#333" stroke-linecap="round" stroke-linejoin="round" stroke-width="0.649"/>
      <path d="M275.469,140.436a4.754,4.754,0,1,1-4.754-4.754,4.755,4.755,0,0,1,4.754,4.754" fill="#fff"/>
      <circle cx="270.715" cy="140.436" r="4.754" transform="translate(71.839 371.644) rotate(-76.718)" fill="none" stroke="#333" stroke-linecap="round" stroke-linejoin="round" stroke-width="0.649"/>
      <line x1="266.058" y1="139.669" x2="275.379" y2="139.669" fill="none" stroke="#333" stroke-linecap="round" stroke-linejoin="round" stroke-width="0.649"/>
      <line x1="275.379" y1="141.203" x2="266.057" y2="141.203" fill="none" stroke="#333" stroke-linecap="round" stroke-linejoin="round" stroke-width="0.649"/>
      <rect x="237.34" y="132.431" width="39.697" height="15.834" stroke-width="0.649" stroke="#333" stroke-linecap="round" stroke-linejoin="round" fill="none"/>
      <line x1="45.518" y1="150.736" x2="294.476" y2="150.736" fill="none" stroke="#333" stroke-linecap="round" stroke-linejoin="round" stroke-width="0.649"/>
      <rect x="165.617" y="189.242" width="9.154" height="4.953" fill="#fff"/>
      <rect x="165.617" y="189.242" width="9.154" height="4.953" stroke-width="0.623" stroke="#333" stroke-linecap="round" stroke-linejoin="round" fill="none"/>
      <path d="M291.618,195.98a6.949,6.949,0,1,1-6.948-6.948,6.947,6.947,0,0,1,6.948,6.948" fill="#fff"/>
      <path d="M291.618,195.98a6.949,6.949,0,1,1-6.948-6.948A6.947,6.947,0,0,1,291.618,195.98Z" fill="none" stroke="#333" stroke-linecap="round" stroke-linejoin="round" stroke-width="0.649"/>
      <path d="M288.559,195.98a3.891,3.891,0,1,1-3.89-3.891,3.891,3.891,0,0,1,3.89,3.891" fill="#fff"/>
      <path d="M288.559,195.98a3.891,3.891,0,1,1-3.89-3.891A3.891,3.891,0,0,1,288.559,195.98Z" fill="none" stroke="#333" stroke-linecap="round" stroke-linejoin="round" stroke-width="0.649"/>
      <path d="M289.162,195.452v1.055a.356.356,0,0,1-.355.358h-2.9a.356.356,0,0,0-.356.356v2.9a.357.357,0,0,1-.358.357h-1.055a.356.356,0,0,1-.356-.357v-2.9a.357.357,0,0,0-.357-.356h-2.895a.358.358,0,0,1-.358-.358v-1.055a.357.357,0,0,1,.358-.356h2.895a.358.358,0,0,0,.357-.357v-2.9a.356.356,0,0,1,.356-.357H285.2a.357.357,0,0,1,.358.357v2.9a.356.356,0,0,0,.356.357h2.9a.355.355,0,0,1,.355.356" fill="#fff"/>
      <path d="M289.162,195.452v1.055a.356.356,0,0,1-.355.358h-2.9a.356.356,0,0,0-.356.356v2.9a.357.357,0,0,1-.358.357h-1.055a.356.356,0,0,1-.356-.357v-2.9a.357.357,0,0,0-.357-.356h-2.895a.358.358,0,0,1-.358-.358v-1.055a.357.357,0,0,1,.358-.356h2.895a.358.358,0,0,0,.357-.357v-2.9a.356.356,0,0,1,.356-.357H285.2a.357.357,0,0,1,.358.357v2.9a.356.356,0,0,0,.356.357h2.9A.355.355,0,0,1,289.162,195.452Z" fill="none" stroke="#333" stroke-linecap="round" stroke-linejoin="round" stroke-width="0.649"/>
      <path d="M203.6,195.98a6.949,6.949,0,1,1-6.948-6.948,6.947,6.947,0,0,1,6.948,6.948" fill="#fff"/>
      <path d="M203.6,195.98a6.949,6.949,0,1,1-6.948-6.948A6.947,6.947,0,0,1,203.6,195.98Z" fill="none" stroke="#333" stroke-linecap="round" stroke-linejoin="round" stroke-width="0.649"/>
      <path d="M200.543,195.98a3.891,3.891,0,1,1-3.891-3.891,3.891,3.891,0,0,1,3.891,3.891" fill="#fff"/>
      <path d="M200.543,195.98a3.891,3.891,0,1,1-3.891-3.891A3.891,3.891,0,0,1,200.543,195.98Z" fill="none" stroke="#333" stroke-linecap="round" stroke-linejoin="round" stroke-width="0.649"/>
      <path d="M201.146,195.452v1.055a.357.357,0,0,1-.357.358h-2.9a.356.356,0,0,0-.356.356v2.9a.357.357,0,0,1-.358.357h-1.054a.357.357,0,0,1-.357-.357v-2.9a.357.357,0,0,0-.358-.356h-2.9a.357.357,0,0,1-.356-.358v-1.055a.356.356,0,0,1,.356-.356h2.9a.357.357,0,0,0,.358-.357v-2.9a.357.357,0,0,1,.357-.357h1.054a.357.357,0,0,1,.358.357v2.9a.357.357,0,0,0,.356.357h2.9a.356.356,0,0,1,.357.356" fill="#fff"/>
      <path d="M201.146,195.452v1.055a.357.357,0,0,1-.357.358h-2.9a.356.356,0,0,0-.356.356v2.9a.357.357,0,0,1-.358.357h-1.054a.357.357,0,0,1-.357-.357v-2.9a.357.357,0,0,0-.358-.356h-2.9a.357.357,0,0,1-.356-.358v-1.055a.356.356,0,0,1,.356-.356h2.9a.357.357,0,0,0,.358-.357v-2.9a.357.357,0,0,1,.357-.357h1.054a.357.357,0,0,1,.358.357v2.9a.357.357,0,0,0,.356.357h2.9A.356.356,0,0,1,201.146,195.452Z" fill="none" stroke="#333" stroke-linecap="round" stroke-linejoin="round" stroke-width="0.649"/>
      <polygon points="59.264 110.33 60.337 110.33 62.541 113.71 62.555 113.71 62.555 110.33 63.364 110.33 63.364 114.88 62.336 114.88 60.088 111.39 60.074 111.39 60.074 114.88 59.264 114.88 59.264 110.33" fill="#333"/>
      <path d="M238.671,101.455h.731l1.514,3.931h-.737l-.371-1.041H238.24l-.368,1.041h-.711Zm-.243,2.367h1.2l-.59-1.69h-.017Z" fill="#333"/>
      <path d="M241.2,102.539h.594v.419l.012.012a1.028,1.028,0,0,1,.375-.372.981.981,0,0,1,.511-.135,1.073,1.073,0,0,1,.739.241.933.933,0,0,1,.268.728v1.954h-.627V103.6a.786.786,0,0,0-.143-.487.521.521,0,0,0-.412-.151.675.675,0,0,0-.287.057.611.611,0,0,0-.214.16.749.749,0,0,0-.139.24.833.833,0,0,0-.049.292v1.679H241.2Z" fill="#333"/>
      <path d="M246.745,104.752a.325.325,0,0,0,.032.166.126.126,0,0,0,.119.049h.065a.431.431,0,0,0,.088-.01v.435c-.022.006-.049.015-.086.024s-.07.017-.107.025l-.111.017c-.036,0-.067,0-.092,0a.609.609,0,0,1-.32-.077.388.388,0,0,1-.165-.269,1.11,1.11,0,0,1-.459.263,1.792,1.792,0,0,1-.526.083,1.264,1.264,0,0,1-.37-.053.956.956,0,0,1-.31-.153.744.744,0,0,1-.214-.26.788.788,0,0,1-.08-.365.837.837,0,0,1,.1-.43.7.7,0,0,1,.253-.259,1.165,1.165,0,0,1,.351-.135c.13-.027.262-.048.393-.064.114-.022.223-.036.326-.046a1.433,1.433,0,0,0,.272-.047.428.428,0,0,0,.188-.1.285.285,0,0,0,.068-.208.306.306,0,0,0-.059-.2.354.354,0,0,0-.142-.118.593.593,0,0,0-.19-.056,1.518,1.518,0,0,0-.2-.013.782.782,0,0,0-.435.111.425.425,0,0,0-.192.341h-.629a.944.944,0,0,1,.134-.457.9.9,0,0,1,.294-.293,1.225,1.225,0,0,1,.4-.154,2.426,2.426,0,0,1,.461-.043,1.982,1.982,0,0,1,.415.043,1.216,1.216,0,0,1,.366.144.786.786,0,0,1,.261.255.7.7,0,0,1,.1.383Zm-.626-.792a.771.771,0,0,1-.353.113c-.139.012-.279.032-.419.057a1.254,1.254,0,0,0-.192.048.571.571,0,0,0-.164.081.357.357,0,0,0-.113.138.455.455,0,0,0-.042.207.256.256,0,0,0,.061.175.416.416,0,0,0,.146.113.633.633,0,0,0,.186.059,1.3,1.3,0,0,0,.184.016,1.038,1.038,0,0,0,.227-.027.794.794,0,0,0,.229-.093.634.634,0,0,0,.177-.169.422.422,0,0,0,.073-.25Z" fill="#333"/>
      <rect x="247.441" y="101.455" width="0.626" height="3.931" fill="#333"/>
      <path d="M250.056,105.463a1.558,1.558,0,0,1-.61-.113,1.3,1.3,0,0,1-.45-.311,1.349,1.349,0,0,1-.282-.474,1.851,1.851,0,0,1-.1-.606,1.831,1.831,0,0,1,.1-.6,1.336,1.336,0,0,1,.282-.473,1.273,1.273,0,0,1,.45-.311,1.7,1.7,0,0,1,1.218,0,1.273,1.273,0,0,1,.45.311,1.305,1.305,0,0,1,.281.473,1.8,1.8,0,0,1,.1.6,1.825,1.825,0,0,1-.1.606,1.318,1.318,0,0,1-.281.474,1.3,1.3,0,0,1-.45.311,1.558,1.558,0,0,1-.608.113m0-.5a.7.7,0,0,0,.361-.088.738.738,0,0,0,.255-.232,1.007,1.007,0,0,0,.146-.322,1.487,1.487,0,0,0,.047-.366,1.519,1.519,0,0,0-.047-.363.991.991,0,0,0-.146-.321.771.771,0,0,0-.255-.229.72.72,0,0,0-.361-.088.729.729,0,0,0-.364.088.787.787,0,0,0-.254.229.99.99,0,0,0-.145.321,1.47,1.47,0,0,0-.047.363,1.44,1.44,0,0,0,.047.366,1,1,0,0,0,.145.322.753.753,0,0,0,.254.232.709.709,0,0,0,.364.088" fill="#333"/>
      <path d="M254.645,105.238a1.209,1.209,0,0,1-.36.959,1.518,1.518,0,0,1-1.038.317,2.126,2.126,0,0,1-.432-.044,1.34,1.34,0,0,1-.4-.148.992.992,0,0,1-.3-.275.831.831,0,0,1-.143-.419h.628a.464.464,0,0,0,.25.344.59.59,0,0,0,.2.061,1.9,1.9,0,0,0,.231.014.729.729,0,0,0,.555-.188.756.756,0,0,0,.178-.538v-.436h-.012a.958.958,0,0,1-.36.368.969.969,0,0,1-.493.132,1.276,1.276,0,0,1-.58-.118,1.132,1.132,0,0,1-.4-.324,1.327,1.327,0,0,1-.228-.477,2.224,2.224,0,0,1-.073-.577,1.676,1.676,0,0,1,.089-.546,1.4,1.4,0,0,1,.252-.454,1.2,1.2,0,0,1,.949-.427,1.087,1.087,0,0,1,.494.113.757.757,0,0,1,.347.355h.012v-.39h.626Zm-1.391-.348a.687.687,0,0,0,.354-.084.7.7,0,0,0,.237-.227,1,1,0,0,0,.132-.319,1.575,1.575,0,0,0,.042-.361,1.478,1.478,0,0,0-.044-.353.956.956,0,0,0-.136-.3.636.636,0,0,0-.236-.209.734.734,0,0,0-.349-.078.658.658,0,0,0-.353.089.7.7,0,0,0-.231.228.969.969,0,0,0-.127.319,1.753,1.753,0,0,0-.039.355,1.418,1.418,0,0,0,.044.345.955.955,0,0,0,.136.3.728.728,0,0,0,.23.215.664.664,0,0,0,.34.082" fill="#333"/>
      <polygon points="257.938 101.361 258.538 101.361 256.958 105.479 256.358 105.479 257.938 101.361" fill="#333"/>
      <path d="M260.366,101.455H262a1.829,1.829,0,0,1,.781.154,1.454,1.454,0,0,1,.54.421,1.792,1.792,0,0,1,.31.626,2.916,2.916,0,0,1,0,1.529,1.8,1.8,0,0,1-.31.625,1.444,1.444,0,0,1-.54.421,1.829,1.829,0,0,1-.781.155h-1.63Zm.688,3.369h.677a1.685,1.685,0,0,0,.657-.108.937.937,0,0,0,.4-.3,1.062,1.062,0,0,0,.2-.446,2.966,2.966,0,0,0,0-1.106,1.067,1.067,0,0,0-.2-.446.945.945,0,0,0-.4-.3,1.7,1.7,0,0,0-.657-.108h-.677Z" fill="#333"/>
      <path d="M264.268,101.455h.628v.594h-.628Zm0,1.084h.628v2.847h-.628Z" fill="#333"/>
      <path d="M268.21,105.238a1.209,1.209,0,0,1-.36.959,1.521,1.521,0,0,1-1.037.317,2.119,2.119,0,0,1-.432-.044,1.336,1.336,0,0,1-.4-.148,1,1,0,0,1-.3-.275.83.83,0,0,1-.141-.419h.626a.477.477,0,0,0,.25.344.608.608,0,0,0,.2.061,1.865,1.865,0,0,0,.229.014.736.736,0,0,0,.557-.188.755.755,0,0,0,.176-.538v-.436h-.01a.953.953,0,0,1-.361.368.969.969,0,0,1-.493.132,1.287,1.287,0,0,1-.581-.118,1.132,1.132,0,0,1-.4-.324,1.379,1.379,0,0,1-.228-.477,2.268,2.268,0,0,1-.073-.577,1.7,1.7,0,0,1,.09-.546,1.416,1.416,0,0,1,.253-.454,1.222,1.222,0,0,1,.406-.312,1.237,1.237,0,0,1,.542-.115,1.093,1.093,0,0,1,.494.113.759.759,0,0,1,.348.355h.01v-.39h.627Zm-1.392-.348a.685.685,0,0,0,.354-.084.693.693,0,0,0,.239-.227,1.072,1.072,0,0,0,.132-.319,1.63,1.63,0,0,0,.04-.361,1.428,1.428,0,0,0-.043-.353.979.979,0,0,0-.136-.3.652.652,0,0,0-.236-.209.732.732,0,0,0-.35-.078.657.657,0,0,0-.352.089.687.687,0,0,0-.23.228.994.994,0,0,0-.129.319,1.822,1.822,0,0,0-.037.355,1.371,1.371,0,0,0,.044.345.931.931,0,0,0,.135.3.707.707,0,0,0,.23.215.662.662,0,0,0,.339.082" fill="#333"/>
      <path d="M268.859,101.455h.627v.594h-.627Zm0,1.084h.627v2.847h-.627Z" fill="#333"/>
      <path d="M269.884,102.539h.474v-.853h.627v.853h.567v.468h-.567v1.519a1.665,1.665,0,0,0,.008.171.27.27,0,0,0,.039.121.177.177,0,0,0,.091.074.413.413,0,0,0,.165.026q.066,0,.132,0a.75.75,0,0,0,.132-.019v.484l-.2.023c-.067.006-.135.01-.2.01a1.412,1.412,0,0,1-.4-.046.538.538,0,0,1-.237-.138.465.465,0,0,1-.114-.229,1.666,1.666,0,0,1-.036-.314v-1.679h-.474Z" fill="#333"/>
      <path d="M274.387,104.752a.327.327,0,0,0,.031.166.126.126,0,0,0,.119.049h.065a.431.431,0,0,0,.088-.01v.435c-.022.006-.049.015-.086.024s-.07.017-.107.025l-.11.017c-.037,0-.067,0-.093,0a.609.609,0,0,1-.32-.077.388.388,0,0,1-.165-.269,1.11,1.11,0,0,1-.459.263,1.782,1.782,0,0,1-.526.083,1.268,1.268,0,0,1-.37-.053.966.966,0,0,1-.31-.153.755.755,0,0,1-.214-.26.788.788,0,0,1-.08-.365.837.837,0,0,1,.1-.43.707.707,0,0,1,.253-.259,1.165,1.165,0,0,1,.351-.135c.13-.027.262-.048.393-.064.114-.022.223-.036.326-.046a1.433,1.433,0,0,0,.272-.047.428.428,0,0,0,.188-.1.285.285,0,0,0,.069-.208.318.318,0,0,0-.058-.2.374.374,0,0,0-.144-.118.593.593,0,0,0-.19-.056,1.518,1.518,0,0,0-.2-.013.787.787,0,0,0-.435.111.425.425,0,0,0-.192.341h-.629a.944.944,0,0,1,.134-.457.924.924,0,0,1,.294-.293,1.243,1.243,0,0,1,.4-.154,2.439,2.439,0,0,1,.463-.043,1.993,1.993,0,0,1,.414.043,1.221,1.221,0,0,1,.365.144.786.786,0,0,1,.261.255.7.7,0,0,1,.1.383Zm-.627-.792a.771.771,0,0,1-.353.113c-.138.012-.279.032-.419.057a1.254,1.254,0,0,0-.192.048.571.571,0,0,0-.164.081.357.357,0,0,0-.113.138.455.455,0,0,0-.042.207.256.256,0,0,0,.061.175.435.435,0,0,0,.146.113.633.633,0,0,0,.186.059,1.3,1.3,0,0,0,.185.016,1.052,1.052,0,0,0,.227-.027.8.8,0,0,0,.228-.093.655.655,0,0,0,.179-.169.436.436,0,0,0,.071-.25Z" fill="#333"/>
      <rect x="275.081" y="101.455" width="0.626" height="3.931" fill="#333"/>
      <path d="M183,101.448h1.732a1.66,1.66,0,0,1,.683.122,1.06,1.06,0,0,1,.407.3,1.017,1.017,0,0,1,.2.4,1.725,1.725,0,0,1,.052.4,1.689,1.689,0,0,1-.052.394,1.026,1.026,0,0,1-.2.393,1.037,1.037,0,0,1-.407.3,1.7,1.7,0,0,1-.683.118h-1.045v1.508H183Zm.687,1.861h1.006a.907.907,0,0,0,.238-.032.709.709,0,0,0,.223-.108.531.531,0,0,0,.166-.2.7.7,0,0,0,.062-.31.824.824,0,0,0-.054-.321.5.5,0,0,0-.365-.3,1.122,1.122,0,0,0-.258-.027h-1.018Z" fill="#333"/>
      <path d="M188.962,104.746a.327.327,0,0,0,.031.166.127.127,0,0,0,.118.049h.066a.515.515,0,0,0,.088-.01v.434c-.023.007-.05.016-.085.025l-.108.025-.11.016c-.037,0-.068.006-.094.006a.605.605,0,0,1-.319-.077.383.383,0,0,1-.165-.27,1.113,1.113,0,0,1-.459.264,1.826,1.826,0,0,1-.526.083,1.292,1.292,0,0,1-.37-.052.96.96,0,0,1-.31-.155.732.732,0,0,1-.214-.259.789.789,0,0,1-.08-.366.836.836,0,0,1,.1-.429.725.725,0,0,1,.253-.26,1.184,1.184,0,0,1,.351-.134c.131-.028.263-.048.394-.064.115-.022.222-.036.326-.047a1.374,1.374,0,0,0,.272-.046.41.41,0,0,0,.188-.1.279.279,0,0,0,.068-.207.306.306,0,0,0-.059-.2.361.361,0,0,0-.142-.118.583.583,0,0,0-.19-.056,1.529,1.529,0,0,0-.2-.013.782.782,0,0,0-.435.11.425.425,0,0,0-.191.341h-.63a.936.936,0,0,1,.133-.456.917.917,0,0,1,.295-.293,1.218,1.218,0,0,1,.4-.155,2.521,2.521,0,0,1,.462-.042,2.038,2.038,0,0,1,.413.042,1.212,1.212,0,0,1,.367.144.8.8,0,0,1,.26.256.7.7,0,0,1,.1.382Zm-.627-.793a.763.763,0,0,1-.353.113c-.14.013-.278.033-.419.057a1.334,1.334,0,0,0-.191.048.612.612,0,0,0-.166.082.363.363,0,0,0-.113.137.474.474,0,0,0-.041.208.251.251,0,0,0,.061.175.449.449,0,0,0,.144.113.667.667,0,0,0,.187.058,1.2,1.2,0,0,0,.186.017,1.028,1.028,0,0,0,.225-.027.791.791,0,0,0,.23-.094.648.648,0,0,0,.178-.168.424.424,0,0,0,.072-.25Z" fill="#333"/>
      <path d="M189.64,102.533h.589v.551h.01a.674.674,0,0,1,.108-.227,1.1,1.1,0,0,1,.192-.2.949.949,0,0,1,.251-.146.745.745,0,0,1,.282-.055,1.244,1.244,0,0,1,.15.006l.085.011v.605l-.134-.019a1.07,1.07,0,0,0-.136-.009.728.728,0,0,0-.3.064.689.689,0,0,0-.245.187.959.959,0,0,0-.165.306,1.322,1.322,0,0,0-.061.417v1.356h-.626Z" fill="#333"/>
      <polygon points="191.594 101.449 192.221 101.449 192.221 103.683 193.354 102.533 194.126 102.533 193.036 103.58 194.231 105.38 193.464 105.38 192.595 103.997 192.221 104.362 192.221 105.38 191.594 105.38 191.594 101.449" fill="#333"/>
      <path d="M194.549,101.449h.628v.594h-.628Zm0,1.084h.628v2.847h-.628Z" fill="#333"/>
      <path d="M195.86,102.533h.594v.419l.012.011a1.044,1.044,0,0,1,.375-.372.981.981,0,0,1,.511-.135,1.069,1.069,0,0,1,.738.242.928.928,0,0,1,.269.727v1.955h-.627v-1.79a.789.789,0,0,0-.143-.488.521.521,0,0,0-.412-.15.69.69,0,0,0-.287.057.635.635,0,0,0-.215.159.8.8,0,0,0-.139.24.86.86,0,0,0-.048.292v1.68h-.628Z" fill="#333"/>
      <path d="M201.651,105.231a1.21,1.21,0,0,1-.36.96,1.526,1.526,0,0,1-1.037.317,2.12,2.12,0,0,1-.432-.045,1.308,1.308,0,0,1-.4-.147,1.009,1.009,0,0,1-.3-.275.837.837,0,0,1-.141-.419h.626a.5.5,0,0,0,.094.214.485.485,0,0,0,.157.129.6.6,0,0,0,.2.061,1.878,1.878,0,0,0,.23.015.735.735,0,0,0,.556-.188.756.756,0,0,0,.176-.539v-.436h-.01a.949.949,0,0,1-.361.369.968.968,0,0,1-.492.132,1.3,1.3,0,0,1-.582-.118,1.129,1.129,0,0,1-.4-.324,1.372,1.372,0,0,1-.229-.477,2.322,2.322,0,0,1-.072-.578,1.712,1.712,0,0,1,.089-.546,1.427,1.427,0,0,1,.253-.454,1.208,1.208,0,0,1,.948-.426,1.08,1.08,0,0,1,.494.113.759.759,0,0,1,.348.355h.01v-.391h.627Zm-1.392-.347a.67.67,0,0,0,.593-.312,1.026,1.026,0,0,0,.132-.319,1.615,1.615,0,0,0,.04-.36,1.477,1.477,0,0,0-.042-.353,1,1,0,0,0-.137-.3.644.644,0,0,0-.236-.209.732.732,0,0,0-.35-.078.66.66,0,0,0-.351.088.684.684,0,0,0-.231.229,1.018,1.018,0,0,0-.129.319,1.807,1.807,0,0,0-.037.355,1.377,1.377,0,0,0,.044.345.941.941,0,0,0,.135.3.711.711,0,0,0,.231.215.666.666,0,0,0,.338.082" fill="#333"/>
      <polygon points="86.163 110.33 86.973 110.33 86.973 114.147 88.906 114.147 88.906 114.88 86.163 114.88 86.163 110.33" fill="#333"/>
      <polygon points="73.158 110.33 73.967 110.33 73.967 114.147 75.901 114.147 75.901 114.88 73.158 114.88 73.158 110.33" fill="#333"/>
      <path d="M107.943,111.4a1.239,1.239,0,0,0-.958-.45,1.543,1.543,0,0,0-1.561,1.626,1.56,1.56,0,0,0,1.561,1.689,1.277,1.277,0,0,0,1.022-.552l.668.476a2.013,2.013,0,0,1-1.7.809,2.391,2.391,0,1,1,0-4.781,1.978,1.978,0,0,1,1.593.72Z" fill="#333"/>
      <path d="M111.377,110.214A2.261,2.261,0,0,1,113.8,112.6a2.319,2.319,0,0,1-2.423,2.4,2.391,2.391,0,1,1,0-4.782m.007,4.049a1.563,1.563,0,0,0,1.568-1.69,1.569,1.569,0,1,0-1.568,1.69" fill="#333"/>
      <polygon points="114.588 110.33 115.822 110.33 117.037 113.518 118.264 110.33 119.485 110.33 119.485 114.88 118.714 114.88 118.714 111.102 118.701 111.102 117.319 114.88 116.754 114.88 115.372 111.102 115.36 111.102 115.36 114.88 114.588 114.88 114.588 110.33" fill="#333"/>
      <polygon points="123.647 110.33 124.72 110.33 126.923 113.71 126.936 113.71 126.936 110.33 127.746 110.33 127.746 114.88 126.718 114.88 124.469 111.39 124.456 111.39 124.456 114.88 123.647 114.88 123.647 110.33" fill="#333"/>
      <path d="M131.883,111.4a1.239,1.239,0,0,0-.959-.45,1.542,1.542,0,0,0-1.56,1.626,1.559,1.559,0,0,0,1.56,1.689,1.279,1.279,0,0,0,1.023-.552l.667.476a2.011,2.011,0,0,1-1.695.809,2.391,2.391,0,1,1,0-4.781,1.978,1.978,0,0,1,1.593.72Z" fill="#333"/>
      <polygon points="136.176 110.33 137.248 110.33 139.453 113.71 139.466 113.71 139.466 110.33 140.275 110.33 140.275 114.88 139.248 114.88 136.999 111.39 136.985 111.39 136.985 114.88 136.176 114.88 136.176 110.33" fill="#333"/>
      <path d="M143.447,110.214a2.26,2.26,0,0,1,2.422,2.385,2.318,2.318,0,0,1-2.422,2.4,2.391,2.391,0,1,1,0-4.782m.007,4.049a1.562,1.562,0,0,0,1.567-1.69,1.565,1.565,0,1,0-3.128,0,1.561,1.561,0,0,0,1.561,1.69" fill="#333"/>
      <path d="M175.906,110.33h1.529c.88,0,1.677.309,1.677,1.318,0,1.142-.855,1.349-1.818,1.349h-.579v1.883h-.809Zm1.3,1.973c.462,0,1.06-.026,1.06-.642,0-.559-.533-.637-.97-.637h-.579V112.3Z" fill="#333"/>
      <polygon points="181.045 111.217 180.19 112.007 179.74 111.473 181.116 110.33 181.816 110.33 181.816 114.879 181.045 114.879 181.045 111.217" fill="#333"/>
      <path d="M188.91,110.33h1.529c.88,0,1.677.309,1.677,1.318,0,1.142-.856,1.349-1.818,1.349h-.578v1.883h-.81Zm1.3,1.973c.463,0,1.061-.026,1.061-.642,0-.559-.534-.637-.97-.637h-.578V112.3Z" fill="#333"/>
      <path d="M192.706,114.063l1.767-1.709a1.185,1.185,0,0,0,.469-.771.612.612,0,0,0-.662-.6.677.677,0,0,0-.7.617l-.81-.065a1.375,1.375,0,0,1,1.51-1.285c.817,0,1.473.417,1.473,1.292a1.768,1.768,0,0,1-.7,1.335l-1.409,1.305h2.109v.694h-3.047Z" fill="#333"/>
      <path d="M201.914,110.33h1.53c.88,0,1.678.309,1.678,1.318,0,1.142-.856,1.349-1.82,1.349h-.578v1.883h-.81Zm1.3,1.973c.461,0,1.059-.026,1.059-.642,0-.559-.533-.637-.97-.637h-.578V112.3Z" fill="#333"/>
      <path d="M206.758,112.162h.2c.444,0,.888-.065.888-.618a.6.6,0,0,0-.649-.6.711.711,0,0,0-.68.5l-.817-.218a1.4,1.4,0,0,1,1.459-.976c.784,0,1.458.411,1.458,1.214a1.027,1.027,0,0,1-.778,1.027v.014a1.034,1.034,0,0,1,.889,1.105,1.393,1.393,0,0,1-1.537,1.343,1.452,1.452,0,0,1-1.562-1.067l.824-.219a.7.7,0,0,0,.738.592.729.729,0,0,0,.765-.714c0-.591-.54-.694-1.009-.694h-.187Z" fill="#333"/>
      <rect x="255.844" y="112.971" width="1.586" height="0.655" fill="#333"/>
      <path d="M243.293,110.33h.7l1.959,4.55h-.926l-.422-1.042H242.63l-.411,1.042h-.905Zm1.027,2.814-.7-1.85-.713,1.85Z" fill="#333"/>
      <polygon points="269.314 112.605 269.314 111.191 269.971 111.191 269.971 112.605 271.384 112.605 271.384 113.26 269.971 113.26 269.971 114.674 269.314 114.674 269.314 113.26 267.901 113.26 267.901 112.605 269.314 112.605" fill="#333"/>
      <path d="M114.891,107.483a.115.115,0,0,1-.115-.114v-9.5a.115.115,0,0,1,.115-.114h17.992a.115.115,0,0,1,0,.229H115.007v9.387a.115.115,0,0,1-.116.114" fill="#333"/>
      <path d="M140.921,107.482a.115.115,0,0,1-.114-.115v-3.022a.115.115,0,1,1,.23,0v3.022a.116.116,0,0,1-.116.115" fill="#333"/>
      <path d="M140.921,104.458a1.593,1.593,0,1,1,1.593-1.592,1.595,1.595,0,0,1-1.593,1.592m0-2.956a1.364,1.364,0,1,0,1.363,1.364,1.367,1.367,0,0,0-1.363-1.364" fill="#333"/>
      <path d="M127.8,107.482a.116.116,0,0,1-.115-.115v-3.022a.115.115,0,1,1,.23,0v3.022a.115.115,0,0,1-.115.115" fill="#333"/>
      <path d="M127.8,104.458a1.593,1.593,0,1,1,1.594-1.592,1.592,1.592,0,0,1-1.594,1.592m0-2.956a1.364,1.364,0,1,0,1.364,1.364A1.365,1.365,0,0,0,127.8,101.5" fill="#333"/>
      <path d="M134.36,99.46a1.593,1.593,0,1,1,1.594-1.592,1.594,1.594,0,0,1-1.594,1.592m0-2.956a1.364,1.364,0,1,0,1.365,1.364A1.365,1.365,0,0,0,134.36,96.5" fill="#333"/>
      <path d="M129.016,104.5a.1.1,0,0,1-.081-.037.113.113,0,0,1,0-.162l5.345-5.04a.115.115,0,0,1,.158.167l-5.343,5.04a.122.122,0,0,1-.081.032" fill="#333"/>
      <path d="M274.193,107.33H239.081a.115.115,0,0,1,0-.229h35.112a.115.115,0,0,1,0,.229" fill="#333"/>
      <path d="M209.822,107.33H174.711a.115.115,0,1,1,0-.229h35.111a.115.115,0,0,1,0,.229" fill="#333"/>
      <path d="M61.313,121.192a.114.114,0,0,1-.115-.114v-3.839a.115.115,0,1,1,.23,0v3.839a.114.114,0,0,1-.115.114" fill="#333"/>
      <path d="M87.321,121.192a.113.113,0,0,1-.114-.114v-3.839a.115.115,0,1,1,.229,0v3.839a.114.114,0,0,1-.115.114" fill="#333"/>
      <path d="M74.318,121.192a.114.114,0,0,1-.115-.114v-3.839a.115.115,0,1,1,.229,0v3.839a.113.113,0,0,1-.114.114" fill="#333"/>
      <path d="M114.82,121.192a.114.114,0,0,1-.114-.114v-3.839a.115.115,0,1,1,.23,0v3.839a.115.115,0,0,1-.116.114" fill="#333"/>
      <path d="M127.873,121.192a.115.115,0,0,1-.116-.114v-3.839a.116.116,0,0,1,.231,0v3.839a.115.115,0,0,1-.115.114" fill="#333"/>
      <path d="M140.9,121.192a.114.114,0,0,1-.114-.115v-3.838a.115.115,0,1,1,.23,0v3.838a.115.115,0,0,1-.116.115" fill="#333"/>
      <path d="M179.261,121.192a.114.114,0,0,1-.114-.114v-3.839a.115.115,0,1,1,.23,0v3.839a.114.114,0,0,1-.116.114" fill="#333"/>
      <path d="M192.266,121.192a.114.114,0,0,1-.115-.115v-3.838a.115.115,0,0,1,.23,0v3.838a.115.115,0,0,1-.115.115" fill="#333"/>
      <path d="M205.271,121.192a.114.114,0,0,1-.115-.114v-3.839a.115.115,0,1,1,.229,0v3.839a.113.113,0,0,1-.114.114" fill="#333"/>
      <path d="M243.633,121.192a.115.115,0,0,1-.116-.114v-3.839a.116.116,0,0,1,.231,0v3.839a.115.115,0,0,1-.115.114" fill="#333"/>
      <path d="M256.637,121.192a.114.114,0,0,1-.116-.114v-3.839a.115.115,0,1,1,.23,0v3.839a.114.114,0,0,1-.114.114" fill="#333"/>
      <path d="M269.641,121.192a.114.114,0,0,1-.114-.114v-3.839a.115.115,0,1,1,.23,0v3.839a.115.115,0,0,1-.116.114" fill="#333"/>
      <path d="M145.473,92.4H110.339a.115.115,0,0,1,0-.229h35.134a.115.115,0,0,1,0,.229" fill="#333"/>
      <path d="M121.194,86.511h1.877a1.456,1.456,0,0,1,.975.282.978.978,0,0,1,.325.781,1.134,1.134,0,0,1-.084.465,1,1,0,0,1-.191.3.8.8,0,0,1-.218.164c-.073.032-.125.054-.157.066v.01a.722.722,0,0,1,.189.055.553.553,0,0,1,.191.141.781.781,0,0,1,.145.25,1.077,1.077,0,0,1,.057.386,3.668,3.668,0,0,0,.053.63.868.868,0,0,0,.162.405h-.736a.622.622,0,0,1-.091-.281c-.009-.1-.014-.2-.014-.3a2.7,2.7,0,0,0-.034-.465.833.833,0,0,0-.119-.326.534.534,0,0,0-.24-.189,1.031,1.031,0,0,0-.389-.061h-1.013v1.619h-.688Zm.688,1.79h1.128a.722.722,0,0,0,.5-.157.613.613,0,0,0,.17-.471.728.728,0,0,0-.055-.306.457.457,0,0,0-.151-.183.564.564,0,0,0-.22-.089,1.54,1.54,0,0,0-.258-.021h-1.116Z" fill="#333"/>
      <path d="M125.47,89.182a1.09,1.09,0,0,0,.048.319.8.8,0,0,0,.14.27.648.648,0,0,0,.237.184.887.887,0,0,0,.785-.049.71.71,0,0,0,.25-.355h.594a1.19,1.19,0,0,1-.462.718,1.225,1.225,0,0,1-.382.187,1.523,1.523,0,0,1-.444.064,1.488,1.488,0,0,1-.594-.111,1.223,1.223,0,0,1-.438-.308,1.316,1.316,0,0,1-.27-.472,1.925,1.925,0,0,1-.091-.606,1.7,1.7,0,0,1,.1-.576,1.439,1.439,0,0,1,.275-.479,1.331,1.331,0,0,1,.431-.328,1.316,1.316,0,0,1,.572-.12,1.268,1.268,0,0,1,.6.14,1.314,1.314,0,0,1,.443.372,1.5,1.5,0,0,1,.257.53,1.653,1.653,0,0,1,.04.62Zm1.465-.413a1,1,0,0,0-.063-.287.764.764,0,0,0-.143-.239.7.7,0,0,0-.22-.164.643.643,0,0,0-.29-.064.773.773,0,0,0-.3.057.683.683,0,0,0-.232.16.746.746,0,0,0-.153.24.831.831,0,0,0-.065.3Z" fill="#333"/>
      <rect x="128.058" y="86.511" width="0.628" height="3.931" fill="#333"/>
      <path d="M131.752,89.809a.327.327,0,0,0,.031.166.126.126,0,0,0,.119.05h.065a.439.439,0,0,0,.088-.011v.435c-.022.006-.049.015-.085.024s-.071.017-.108.025-.073.012-.11.017-.068,0-.092,0a.6.6,0,0,1-.321-.078.383.383,0,0,1-.165-.269,1.1,1.1,0,0,1-.459.264,1.792,1.792,0,0,1-.526.083,1.3,1.3,0,0,1-.37-.053.966.966,0,0,1-.31-.153.741.741,0,0,1-.214-.259.792.792,0,0,1-.08-.366.845.845,0,0,1,.1-.43.717.717,0,0,1,.254-.259,1.139,1.139,0,0,1,.351-.135c.13-.027.262-.048.393-.063a3.2,3.2,0,0,1,.326-.047,1.517,1.517,0,0,0,.272-.047.428.428,0,0,0,.188-.1.282.282,0,0,0,.068-.207.307.307,0,0,0-.059-.2.379.379,0,0,0-.142-.118.6.6,0,0,0-.19-.055,1.529,1.529,0,0,0-.2-.013.787.787,0,0,0-.435.11.427.427,0,0,0-.192.341h-.629a.959.959,0,0,1,.133-.458.934.934,0,0,1,.3-.292,1.23,1.23,0,0,1,.4-.154,2.436,2.436,0,0,1,.462-.044,1.964,1.964,0,0,1,.413.044,1.163,1.163,0,0,1,.367.144.786.786,0,0,1,.261.255.706.706,0,0,1,.1.383Zm-.627-.792a.771.771,0,0,1-.353.113c-.138.013-.278.032-.419.057a1.379,1.379,0,0,0-.192.047.527.527,0,0,0-.164.083.356.356,0,0,0-.114.137.471.471,0,0,0-.041.208.254.254,0,0,0,.061.175.432.432,0,0,0,.146.112.667.667,0,0,0,.185.059,1.336,1.336,0,0,0,.186.017.926.926,0,0,0,.225-.029.786.786,0,0,0,.23-.092.637.637,0,0,0,.178-.169.42.42,0,0,0,.072-.25Z" fill="#333"/>
      <path d="M132.116,87.6h.687l.745,2.125h.01l.721-2.125h.655l-1.106,3c-.052.13-.1.252-.152.37a1.3,1.3,0,0,1-.182.311.769.769,0,0,1-.267.214.894.894,0,0,1-.407.079,2.856,2.856,0,0,1-.435-.032V91.01c.052.007.1.016.148.025a.81.81,0,0,0,.149.014.519.519,0,0,0,.182-.028.3.3,0,0,0,.118-.08.47.47,0,0,0,.079-.124.9.9,0,0,0,.061-.165l.073-.22Z" fill="#333"/>
      <path d="M78.861,107.327h-22.1a.115.115,0,1,1,0-.23h22.1a.115.115,0,1,1,0,.23" fill="#333"/>
      <path d="M59.862,104.079a.874.874,0,0,0,.078.386.694.694,0,0,0,.214.262.927.927,0,0,0,.317.149,1.532,1.532,0,0,0,.389.046,1.236,1.236,0,0,0,.384-.053.736.736,0,0,0,.259-.135.473.473,0,0,0,.143-.189.593.593,0,0,0,.044-.218.463.463,0,0,0-.1-.332.56.56,0,0,0-.223-.152,4.508,4.508,0,0,0-.486-.146c-.186-.046-.414-.105-.686-.179a1.427,1.427,0,0,1-.421-.173.981.981,0,0,1-.267-.24.828.828,0,0,1-.14-.28,1.147,1.147,0,0,1-.041-.3,1.018,1.018,0,0,1,.124-.515,1.108,1.108,0,0,1,.327-.361,1.462,1.462,0,0,1,.463-.211,2.016,2.016,0,0,1,.521-.069,2.069,2.069,0,0,1,.583.079,1.452,1.452,0,0,1,.478.24,1.124,1.124,0,0,1,.448.935h-.688a.659.659,0,0,0-.258-.535,1.024,1.024,0,0,0-.588-.157,1.267,1.267,0,0,0-.25.024.816.816,0,0,0-.23.082.534.534,0,0,0-.174.157.425.425,0,0,0-.069.249.419.419,0,0,0,.13.327.814.814,0,0,0,.34.179l.171.046c.1.028.214.059.34.091l.365.1.257.069a1.192,1.192,0,0,1,.335.166,1.028,1.028,0,0,1,.24.239.96.96,0,0,1,.142.289,1.009,1.009,0,0,1,.047.309,1.131,1.131,0,0,1-.133.564,1.143,1.143,0,0,1-.356.382,1.543,1.543,0,0,1-.5.217,2.355,2.355,0,0,1-.574.07,2.316,2.316,0,0,1-.633-.083,1.447,1.447,0,0,1-.516-.253,1.235,1.235,0,0,1-.354-.438,1.478,1.478,0,0,1-.136-.631Z" fill="#333"/>
      <path d="M65.388,105.39h-.616v-.4h-.01a.856.856,0,0,1-.344.344.931.931,0,0,1-.465.13,1.042,1.042,0,0,1-.812-.278,1.214,1.214,0,0,1-.252-.839v-1.807h.629v1.746a.772.772,0,0,0,.143.529.517.517,0,0,0,.4.153.764.764,0,0,0,.329-.061.548.548,0,0,0,.214-.162.605.605,0,0,0,.12-.245,1.3,1.3,0,0,0,.036-.307v-1.653h.626Z" fill="#333"/>
      <path d="M66.067,102.543h.6v.387h.009a.784.784,0,0,1,.371-.356,1.225,1.225,0,0,1,.511-.107,1.363,1.363,0,0,1,.585.118,1.15,1.15,0,0,1,.416.325,1.4,1.4,0,0,1,.249.481,2.05,2.05,0,0,1,.082.589,2.119,2.119,0,0,1-.074.557,1.416,1.416,0,0,1-.226.476,1.149,1.149,0,0,1-.382.33,1.136,1.136,0,0,1-.545.124,1.515,1.515,0,0,1-.276-.025,1.176,1.176,0,0,1-.263-.079,1.08,1.08,0,0,1-.236-.142.779.779,0,0,1-.177-.2h-.013v1.42h-.626Zm2.19,1.427a1.467,1.467,0,0,0-.049-.375,1,1,0,0,0-.149-.322.775.775,0,0,0-.248-.225.668.668,0,0,0-.34-.086.692.692,0,0,0-.6.275,1.217,1.217,0,0,0-.2.733,1.5,1.5,0,0,0,.052.4.96.96,0,0,0,.157.317.792.792,0,0,0,.252.209.718.718,0,0,0,.339.076.691.691,0,0,0,.362-.087.737.737,0,0,0,.245-.229.909.909,0,0,0,.138-.319,1.663,1.663,0,0,0,.041-.366" fill="#333"/>
      <path d="M69.431,102.543h.595v.387h.009a.769.769,0,0,1,.37-.356,1.228,1.228,0,0,1,.511-.107,1.371,1.371,0,0,1,.586.118,1.163,1.163,0,0,1,.415.325,1.437,1.437,0,0,1,.249.481,2.05,2.05,0,0,1,.082.589,2.118,2.118,0,0,1-.073.557,1.437,1.437,0,0,1-.227.476,1.1,1.1,0,0,1-.927.454,1.515,1.515,0,0,1-.276-.025,1.233,1.233,0,0,1-.264-.079,1.116,1.116,0,0,1-.234-.142.823.823,0,0,1-.178-.2h-.012v1.42h-.626Zm2.189,1.427a1.423,1.423,0,0,0-.048-.375,1.07,1.07,0,0,0-.149-.322.775.775,0,0,0-.248-.225.677.677,0,0,0-.341-.086.7.7,0,0,0-.6.275,1.224,1.224,0,0,0-.2.733,1.458,1.458,0,0,0,.052.4.941.941,0,0,0,.157.317.792.792,0,0,0,.252.209.708.708,0,0,0,.338.076.692.692,0,0,0,.363-.087.756.756,0,0,0,.245-.229.909.909,0,0,0,.138-.319,1.662,1.662,0,0,0,.04-.366" fill="#333"/>
      <rect x="72.793" y="101.459" width="0.628" height="3.931" fill="#333"/>
      <path d="M73.79,102.544h.687l.745,2.125h.01l.721-2.125h.657l-1.108,3c-.051.129-.1.251-.152.369a1.37,1.37,0,0,1-.18.312.813.813,0,0,1-.267.214.918.918,0,0,1-.408.08,2.857,2.857,0,0,1-.435-.034v-.528c.051.007.1.016.147.025a.837.837,0,0,0,.15.014.506.506,0,0,0,.181-.028.326.326,0,0,0,.12-.079.476.476,0,0,0,.079-.125,1.15,1.15,0,0,0,.061-.165l.072-.22Z" fill="#333"/>
      <path d="M70.082,184.183c-.08,0-.457.016-.538,0-.7-.133-1.114.58-.982-.123.024-.118,1.949-13.292-3.732-20.187-5.753-6.981-5.745-11.77-5.273-18.859a4.4,4.4,0,0,0,2.566,0c-.454,6.839-.441,10.959,4.708,17.211,6.463,7.842,4.381,21.791,4.28,22.321-.119.62-.418-.363-1.029-.363" fill="#fff"/>
      <path d="M70.082,184.183c-.08,0-.457.016-.538,0-.7-.133-1.114.58-.982-.123.024-.118,1.949-13.292-3.732-20.187-5.753-6.981-5.745-11.77-5.273-18.859a4.4,4.4,0,0,0,2.566,0c-.454,6.839-.441,10.959,4.708,17.211,6.463,7.842,4.381,21.791,4.28,22.321C70.992,185.166,70.693,184.183,70.082,184.183Z" fill="none" stroke="#333" stroke-linecap="round" stroke-linejoin="round" stroke-width="0.649"/>
      <path d="M74.514,184.406a1.3,1.3,0,0,1-1.3-1.3l-.142-37.993a4.876,4.876,0,0,0,2.594-.01l.142,37.993a1.3,1.3,0,0,1-1.291,1.313Z" fill="#fff"/>
      <path d="M74.514,184.406a1.3,1.3,0,0,1-1.3-1.3l-.142-37.993a4.876,4.876,0,0,0,2.594-.01l.142,37.993a1.3,1.3,0,0,1-1.291,1.313Z" fill="none" stroke="#333" stroke-linecap="round" stroke-linejoin="round" stroke-width="0.649"/>
      <path d="M65.058,200.473q.325-8.778.6-17.7l12.965.389q-.277,9.133-.614,18.106" fill="#fff"/>
      <path d="M65.058,200.473q.325-8.778.6-17.7l12.965.389q-.277,9.133-.614,18.106" fill="none" stroke="#333" stroke-linecap="round" stroke-linejoin="round" stroke-width="0.649"/>
      <rect x="54.153" y="186.806" width="88.016" height="17.672" fill="#fff"/>
      <rect x="54.153" y="186.806" width="88.016" height="17.672" stroke-width="0.649" stroke="#333" stroke-linecap="round" stroke-linejoin="round" fill="none"/>
      <path d="M133.029,186.806c-3.742,6.036-3.938,11.935,0,17.671" fill="none" stroke="#333" stroke-linecap="round" stroke-linejoin="round" stroke-width="0.649"/>
      <line x1="65.831" y1="192.028" x2="130.682" y2="192.028" fill="none" stroke="#333" stroke-linecap="round" stroke-linejoin="round" stroke-width="0.649"/>
      <line x1="65.831" y1="200.473" x2="130.778" y2="200.473" fill="none" stroke="#333" stroke-linecap="round" stroke-linejoin="round" stroke-width="0.649"/>
      <line x1="66.252" y1="197.658" x2="130.268" y2="197.658" fill="none" stroke="#333" stroke-linecap="round" stroke-linejoin="round" stroke-width="0.649"/>
      <line x1="66.332" y1="194.843" x2="130.149" y2="194.843" fill="none" stroke="#333" stroke-linecap="round" stroke-linejoin="round" stroke-width="0.649"/>
      <path d="M63.452,186.806c3.742,6.036,3.938,11.935,0,17.671" fill="none" stroke="#333" stroke-linecap="round" stroke-linejoin="round" stroke-width="0.649"/>
      <path d="M61.1,195.98a6.949,6.949,0,1,1-6.948-6.948A6.947,6.947,0,0,1,61.1,195.98" fill="#fff"/>
      <path d="M61.1,195.98a6.949,6.949,0,1,1-6.948-6.948A6.947,6.947,0,0,1,61.1,195.98Z" fill="none" stroke="#333" stroke-linecap="round" stroke-linejoin="round" stroke-width="0.649"/>
      <path d="M58.043,195.98a3.89,3.89,0,1,1-3.889-3.891,3.89,3.89,0,0,1,3.889,3.891" fill="#fff"/>
      <path d="M58.043,195.98a3.89,3.89,0,1,1-3.889-3.891A3.89,3.89,0,0,1,58.043,195.98Z" fill="none" stroke="#333" stroke-linecap="round" stroke-linejoin="round" stroke-width="0.649"/>
      <path d="M58.646,195.452v1.055a.356.356,0,0,1-.355.358H55.4a.356.356,0,0,0-.357.356v2.9a.357.357,0,0,1-.358.357H53.626a.358.358,0,0,1-.357-.357v-2.9a.357.357,0,0,0-.357-.356H50.017a.358.358,0,0,1-.358-.358v-1.055a.357.357,0,0,1,.358-.356h2.895a.358.358,0,0,0,.357-.357v-2.9a.358.358,0,0,1,.357-.357H54.68a.357.357,0,0,1,.358.357v2.9a.357.357,0,0,0,.357.357h2.9a.355.355,0,0,1,.355.356" fill="#fff"/>
      <path d="M58.646,195.452v1.055a.356.356,0,0,1-.355.358H55.4a.356.356,0,0,0-.357.356v2.9a.357.357,0,0,1-.358.357H53.626a.358.358,0,0,1-.357-.357v-2.9a.357.357,0,0,0-.357-.356H50.017a.358.358,0,0,1-.358-.358v-1.055a.357.357,0,0,1,.358-.356h2.895a.358.358,0,0,0,.357-.357v-2.9a.358.358,0,0,1,.357-.357H54.68a.357.357,0,0,1,.358.357v2.9a.357.357,0,0,0,.357.357h2.9A.355.355,0,0,1,58.646,195.452Z" fill="none" stroke="#333" stroke-linecap="round" stroke-linejoin="round" stroke-width="0.649"/>
      <path d="M149.119,195.98a6.949,6.949,0,1,1-6.948-6.948,6.948,6.948,0,0,1,6.948,6.948" fill="#fff"/>
      <path d="M149.119,195.98a6.949,6.949,0,1,1-6.948-6.948A6.948,6.948,0,0,1,149.119,195.98Z" fill="none" stroke="#333" stroke-linecap="round" stroke-linejoin="round" stroke-width="0.649"/>
      <path d="M146.061,195.98a3.891,3.891,0,1,1-3.891-3.891,3.891,3.891,0,0,1,3.891,3.891" fill="#fff"/>
      <path d="M146.061,195.98a3.891,3.891,0,1,1-3.891-3.891A3.891,3.891,0,0,1,146.061,195.98Z" fill="none" stroke="#333" stroke-linecap="round" stroke-linejoin="round" stroke-width="0.649"/>
      <path d="M146.664,195.452v1.055a.357.357,0,0,1-.357.358h-2.9a.355.355,0,0,0-.355.356v2.9a.358.358,0,0,1-.358.357h-1.055a.356.356,0,0,1-.356-.357v-2.9a.357.357,0,0,0-.358-.356h-2.9a.357.357,0,0,1-.357-.358v-1.055a.356.356,0,0,1,.357-.356h2.9a.358.358,0,0,0,.358-.357v-2.9a.356.356,0,0,1,.356-.357H142.7a.358.358,0,0,1,.358.357v2.9a.356.356,0,0,0,.355.357h2.9a.356.356,0,0,1,.357.356" fill="#fff"/>
      <path d="M146.664,195.452v1.055a.357.357,0,0,1-.357.358h-2.9a.355.355,0,0,0-.355.356v2.9a.358.358,0,0,1-.358.357h-1.055a.356.356,0,0,1-.356-.357v-2.9a.357.357,0,0,0-.358-.356h-2.9a.357.357,0,0,1-.357-.358v-1.055a.356.356,0,0,1,.357-.356h2.9a.358.358,0,0,0,.358-.357v-2.9a.356.356,0,0,1,.356-.357H142.7a.358.358,0,0,1,.358.357v2.9a.356.356,0,0,0,.355.357h2.9A.356.356,0,0,1,146.664,195.452Z" fill="none" stroke="#333" stroke-linecap="round" stroke-linejoin="round" stroke-width="0.649"/>
      <rect x="-11.476" y="3.224" width="363.484" height="393.938" fill="none"/>
      <rect x="-11.476" y="3.224" width="363.484" height="393.938" fill="none"/>
    </g>
    <circle id="circle-2" cx="167.188" cy="253.452" r="150.785" fill="#fff" stroke="#4086aa" stroke-linecap="round" stroke-linejoin="round" stroke-width="4"/>
    <g clip-path="url(#clip-path)">
      <g>
        <path d="M-84.95,285.9V211.864a2.5,2.5,0,0,1,2.5-2.5H466.64a2.5,2.5,0,0,1,2.5,2.5V285.9" fill="none" stroke="#333" stroke-linecap="round" stroke-linejoin="round" stroke-width="0.649"/>
        <rect x="-64.92" y="228.716" width="88.355" height="46.238" fill="#fff"/>
        <rect x="-64.92" y="228.716" width="88.355" height="46.238" stroke-width="0.649" stroke="#333" stroke-linecap="round" stroke-linejoin="round" fill="none"/>
        <path d="M19.942,252.03a10.58,10.58,0,1,1-10.58-10.579,10.58,10.58,0,0,1,10.58,10.579" fill="#fff"/>
        <circle cx="9.362" cy="252.03" r="10.58" transform="translate(-227.066 164.232) rotate(-67.5)" fill="none" stroke="#333" stroke-linecap="round" stroke-linejoin="round" stroke-width="0.649"/>
        <line x1="-1.003" y1="250.323" x2="19.743" y2="250.323" fill="none" stroke="#333" stroke-linecap="round" stroke-linejoin="round" stroke-width="0.649"/>
        <line x1="19.745" y1="253.737" x2="-1.002" y2="253.737" fill="none" stroke="#333" stroke-linecap="round" stroke-linejoin="round" stroke-width="0.649"/>
        <rect x="-64.92" y="234.215" width="88.355" height="35.24" stroke-width="0.649" stroke="#333" stroke-linecap="round" stroke-linejoin="round" fill="none"/>
        <rect x="53.451" y="228.716" width="88.352" height="46.238" fill="#fff"/>
        <rect x="53.451" y="228.716" width="88.352" height="46.238" stroke-width="0.649" stroke="#333" stroke-linecap="round" stroke-linejoin="round" fill="none"/>
        <path d="M78.1,252.03a10.58,10.58,0,1,1-10.58-10.579A10.58,10.58,0,0,1,78.1,252.03" fill="#fff"/>
        <circle cx="67.518" cy="252.03" r="10.58" transform="translate(-191.166 217.961) rotate(-67.5)" fill="none" stroke="#333" stroke-linecap="round" stroke-linejoin="round" stroke-width="0.649"/>
        <line x1="57.155" y1="250.323" x2="77.902" y2="250.323" fill="none" stroke="#333" stroke-linecap="round" stroke-linejoin="round" stroke-width="0.649"/>
        <line x1="77.901" y1="253.737" x2="57.154" y2="253.737" fill="none" stroke="#333" stroke-linecap="round" stroke-linejoin="round" stroke-width="0.649"/>
        <path d="M108.205,252.03a10.58,10.58,0,1,1-10.58-10.579,10.58,10.58,0,0,1,10.58,10.579" fill="#fff"/>
        <circle cx="97.625" cy="252.03" r="10.58" transform="translate(-172.58 245.776) rotate(-67.5)" fill="none" stroke="#333" stroke-linecap="round" stroke-linejoin="round" stroke-width="0.649"/>
        <line x1="87.26" y1="250.323" x2="108.006" y2="250.323" fill="none" stroke="#333" stroke-linecap="round" stroke-linejoin="round" stroke-width="0.649"/>
        <line x1="108.007" y1="253.737" x2="87.261" y2="253.737" fill="none" stroke="#333" stroke-linecap="round" stroke-linejoin="round" stroke-width="0.649"/>
        <path d="M138.309,252.03a10.58,10.58,0,1,1-10.58-10.579,10.58,10.58,0,0,1,10.58,10.579" fill="#fff"/>
        <circle cx="127.729" cy="252.03" r="10.58" transform="translate(-153.996 273.589) rotate(-67.5)" fill="none" stroke="#333" stroke-linecap="round" stroke-linejoin="round" stroke-width="0.649"/>
        <line x1="117.366" y1="250.323" x2="138.113" y2="250.323" fill="none" stroke="#333" stroke-linecap="round" stroke-linejoin="round" stroke-width="0.649"/>
        <line x1="138.112" y1="253.737" x2="117.365" y2="253.737" fill="none" stroke="#333" stroke-linecap="round" stroke-linejoin="round" stroke-width="0.649"/>
        <rect x="53.451" y="234.215" width="88.352" height="35.24" stroke-width="0.649" stroke="#333" stroke-linecap="round" stroke-linejoin="round" fill="none"/>
        <rect x="199.879" y="228.716" width="88.352" height="46.238" fill="#fff"/>
        <rect x="199.879" y="228.716" width="88.352" height="46.238" stroke-width="0.649" stroke="#333" stroke-linecap="round" stroke-linejoin="round" fill="none"/>
        <path d="M224.531,252.03a10.58,10.58,0,1,1-10.58-10.579,10.582,10.582,0,0,1,10.58,10.579" fill="#fff"/>
        <circle cx="213.951" cy="252.03" r="10.58" transform="translate(-80.493 402.353) rotate(-76.717)" fill="none" stroke="#333" stroke-linecap="round" stroke-linejoin="round" stroke-width="0.649"/>
        <line x1="203.586" y1="250.323" x2="224.332" y2="250.323" fill="none" stroke="#333" stroke-linecap="round" stroke-linejoin="round" stroke-width="0.649"/>
        <line x1="224.33" y1="253.737" x2="203.584" y2="253.737" fill="none" stroke="#333" stroke-linecap="round" stroke-linejoin="round" stroke-width="0.649"/>
        <path d="M254.635,252.03a10.58,10.58,0,1,1-10.58-10.579,10.58,10.58,0,0,1,10.58,10.579" fill="#fff"/>
        <circle cx="244.055" cy="252.03" r="10.58" transform="translate(-57.305 431.652) rotate(-76.717)" fill="none" stroke="#333" stroke-linecap="round" stroke-linejoin="round" stroke-width="0.649"/>
        <line x1="233.692" y1="250.323" x2="254.439" y2="250.323" fill="none" stroke="#333" stroke-linecap="round" stroke-linejoin="round" stroke-width="0.649"/>
        <line x1="254.437" y1="253.737" x2="233.691" y2="253.737" fill="none" stroke="#333" stroke-linecap="round" stroke-linejoin="round" stroke-width="0.649"/>
        <path d="M284.739,252.03a10.58,10.58,0,1,1-10.58-10.579,10.58,10.58,0,0,1,10.58,10.579" fill="#fff"/>
        <circle cx="274.159" cy="252.03" r="10.58" transform="translate(-34.118 460.951) rotate(-76.718)" fill="none" stroke="#333" stroke-linecap="round" stroke-linejoin="round" stroke-width="0.649"/>
        <line x1="263.797" y1="250.323" x2="284.543" y2="250.323" fill="none" stroke="#333" stroke-linecap="round" stroke-linejoin="round" stroke-width="0.649"/>
        <line x1="284.542" y1="253.737" x2="263.795" y2="253.737" fill="none" stroke="#333" stroke-linecap="round" stroke-linejoin="round" stroke-width="0.649"/>
        <rect x="199.879" y="234.215" width="88.352" height="35.24" stroke-width="0.649" stroke="#333" stroke-linecap="round" stroke-linejoin="round" fill="none"/>
        <line x1="-84.95" y1="274.954" x2="469.14" y2="274.954" fill="none" stroke="#333" stroke-linecap="round" stroke-linejoin="round" stroke-width="0.649"/>
        <path d="M221.025,165.257h3.856a3.668,3.668,0,0,1,1.519.272,2.342,2.342,0,0,1,.906.675,2.256,2.256,0,0,1,.439.881,3.863,3.863,0,0,1,.115.88,3.812,3.812,0,0,1-.115.878,2.269,2.269,0,0,1-.439.874,2.3,2.3,0,0,1-.906.67,3.78,3.78,0,0,1-1.519.263h-2.326v3.357h-1.53Zm1.53,4.143h2.24a2.008,2.008,0,0,0,.528-.072,1.561,1.561,0,0,0,.5-.24,1.184,1.184,0,0,0,.37-.442,1.539,1.539,0,0,0,.138-.69,1.809,1.809,0,0,0-.121-.713,1.113,1.113,0,0,0-.811-.672,2.412,2.412,0,0,0-.574-.061h-2.266Z" fill="#333"/>
        <path d="M234.3,172.6a.733.733,0,0,0,.069.369.284.284,0,0,0,.263.11h.147a1.086,1.086,0,0,0,.2-.023v.967c-.051.015-.112.035-.19.055s-.156.037-.24.055-.161.026-.245.037-.15.012-.208.012a1.359,1.359,0,0,1-.71-.17.851.851,0,0,1-.367-.6,2.484,2.484,0,0,1-1.021.586,4.012,4.012,0,0,1-1.172.185,2.877,2.877,0,0,1-.823-.116,2.145,2.145,0,0,1-.69-.343,1.633,1.633,0,0,1-.476-.577,1.738,1.738,0,0,1-.179-.815,1.869,1.869,0,0,1,.213-.955,1.614,1.614,0,0,1,.563-.577,2.666,2.666,0,0,1,.782-.3c.292-.06.586-.106.878-.141.254-.049.494-.081.725-.1a3.163,3.163,0,0,0,.606-.1.922.922,0,0,0,.418-.225.631.631,0,0,0,.15-.462.694.694,0,0,0-.129-.439.824.824,0,0,0-.318-.262,1.3,1.3,0,0,0-.421-.124,3.276,3.276,0,0,0-.442-.029,1.739,1.739,0,0,0-.967.245.945.945,0,0,0-.427.759h-1.4a2.092,2.092,0,0,1,.294-1.016,2.029,2.029,0,0,1,.658-.652,2.713,2.713,0,0,1,.9-.344,5.553,5.553,0,0,1,1.028-.095,4.5,4.5,0,0,1,.92.095,2.666,2.666,0,0,1,.817.321,1.783,1.783,0,0,1,.578.568,1.543,1.543,0,0,1,.222.852Zm-1.394-1.764a1.718,1.718,0,0,1-.785.251c-.312.029-.621.073-.933.127a3.03,3.03,0,0,0-.427.107,1.418,1.418,0,0,0-.37.182.833.833,0,0,0-.251.306,1.082,1.082,0,0,0-.089.462.547.547,0,0,0,.136.39.978.978,0,0,0,.32.251,1.462,1.462,0,0,0,.416.13,2.838,2.838,0,0,0,.412.037,2.315,2.315,0,0,0,.5-.06,1.809,1.809,0,0,0,.511-.208,1.443,1.443,0,0,0,.4-.376.938.938,0,0,0,.162-.557Z" fill="#333"/>
        <path d="M235.812,167.672h1.311V168.9h.023a1.454,1.454,0,0,1,.24-.506,2.479,2.479,0,0,1,.427-.444,2.119,2.119,0,0,1,.56-.326A1.677,1.677,0,0,1,239,167.5a2.845,2.845,0,0,1,.335.012l.188.026v1.345c-.095-.014-.2-.029-.3-.04a2.093,2.093,0,0,0-.3-.02,1.637,1.637,0,0,0-.666.141,1.542,1.542,0,0,0-.546.416,2.133,2.133,0,0,0-.367.681,2.956,2.956,0,0,0-.135.929v3.017h-1.395Z" fill="#333"/>
        <polygon points="240.162 165.258 241.556 165.258 241.556 170.232 244.079 167.672 245.797 167.672 243.372 170.001 246.031 174.008 244.325 174.008 242.391 170.931 241.556 171.742 241.556 174.008 240.162 174.008 240.162 165.258" fill="#333"/>
        <path d="M246.738,165.259h1.4v1.322h-1.4Zm0,2.413h1.4v6.336h-1.4Z" fill="#333"/>
        <path d="M249.657,167.672h1.322v.932l.026.026a2.306,2.306,0,0,1,.834-.828,2.19,2.19,0,0,1,1.137-.3,2.377,2.377,0,0,1,1.643.537,2.069,2.069,0,0,1,.6,1.62v4.35h-1.4v-3.984a1.746,1.746,0,0,0-.318-1.085,1.159,1.159,0,0,0-.917-.335,1.546,1.546,0,0,0-.638.127,1.411,1.411,0,0,0-.48.355,1.775,1.775,0,0,0-.308.534,1.923,1.923,0,0,0-.107.65v3.738h-1.4Z" fill="#333"/>
        <path d="M262.544,173.677a2.7,2.7,0,0,1-.8,2.137,3.4,3.4,0,0,1-2.31.7,4.779,4.779,0,0,1-.961-.1,2.921,2.921,0,0,1-.886-.329,2.213,2.213,0,0,1-.667-.612,1.843,1.843,0,0,1-.315-.933H258a1.085,1.085,0,0,0,.208.477,1.067,1.067,0,0,0,.349.288,1.326,1.326,0,0,0,.45.136,4.2,4.2,0,0,0,.511.032,1.631,1.631,0,0,0,1.238-.419,1.676,1.676,0,0,0,.393-1.2v-.97h-.023a2.124,2.124,0,0,1-.8.82,2.156,2.156,0,0,1-1.1.3,2.887,2.887,0,0,1-1.294-.263,2.512,2.512,0,0,1-.883-.722,3.05,3.05,0,0,1-.508-1.062,5.08,5.08,0,0,1-.162-1.285,3.8,3.8,0,0,1,.2-1.215,3.14,3.14,0,0,1,.563-1.01,2.693,2.693,0,0,1,2.111-.95,2.434,2.434,0,0,1,1.1.251,1.7,1.7,0,0,1,.774.791h.023v-.869h1.394Zm-3.1-.773a1.484,1.484,0,0,0,1.319-.693,2.317,2.317,0,0,0,.295-.71,3.62,3.62,0,0,0,.089-.8,3.257,3.257,0,0,0-.095-.785,2.2,2.2,0,0,0-.3-.672,1.422,1.422,0,0,0-.526-.465,1.627,1.627,0,0,0-.779-.173,1.466,1.466,0,0,0-.782.2,1.542,1.542,0,0,0-.514.508,2.251,2.251,0,0,0-.286.71,3.934,3.934,0,0,0-.084.791,3.133,3.133,0,0,0,.1.768,2.143,2.143,0,0,0,.3.667,1.594,1.594,0,0,0,.514.479,1.478,1.478,0,0,0,.753.182" fill="#333"/>
        <polygon points="5.511 185.025 7.313 185.025 7.313 193.521 11.617 193.521 11.617 195.152 5.511 195.152 5.511 185.025" fill="#333"/>
        <path d="M53.984,187.4a2.754,2.754,0,0,0-2.13-1,3.435,3.435,0,0,0-3.476,3.62,3.473,3.473,0,0,0,3.476,3.758,2.842,2.842,0,0,0,2.274-1.23l1.487,1.06a4.481,4.481,0,0,1-3.776,1.8,5.32,5.32,0,1,1,0-10.64,4.4,4.4,0,0,1,3.545,1.6Z" fill="#333"/>
        <path d="M61.629,184.766a5.032,5.032,0,0,1,5.392,5.309,5.159,5.159,0,0,1-5.392,5.334,5.322,5.322,0,1,1,0-10.643m.014,9.012a3.477,3.477,0,0,0,3.49-3.761,3.484,3.484,0,1,0-6.963,0,3.473,3.473,0,0,0,3.473,3.761" fill="#333"/>
        <polygon points="68.775 185.025 71.52 185.025 74.225 192.121 76.956 185.025 79.672 185.025 79.672 195.152 77.958 195.152 77.958 186.743 77.929 186.743 74.852 195.152 73.596 195.152 70.519 186.743 70.493 186.743 70.493 195.152 68.775 195.152 68.775 185.025" fill="#333"/>
        <polygon points="88.937 185.025 91.324 185.025 96.228 192.548 96.257 192.548 96.257 185.025 98.059 185.025 98.059 195.152 95.772 195.152 90.767 187.384 90.738 187.384 90.738 195.152 88.937 195.152 88.937 185.025" fill="#333"/>
        <path d="M107.266,187.4a2.756,2.756,0,0,0-2.133-1,3.434,3.434,0,0,0-3.473,3.62,3.472,3.472,0,0,0,3.473,3.758,2.847,2.847,0,0,0,2.277-1.23l1.484,1.06a4.476,4.476,0,0,1-3.773,1.8,5.32,5.32,0,1,1,0-10.64,4.4,4.4,0,0,1,3.545,1.6Z" fill="#333"/>
        <polygon points="116.822 185.025 119.207 185.025 124.114 192.548 124.143 192.548 124.143 185.025 125.944 185.025 125.944 195.152 123.658 195.152 118.653 187.384 118.621 187.384 118.621 195.152 116.822 195.152 116.822 185.025" fill="#333"/>
        <path d="M133,184.766a5.031,5.031,0,0,1,5.392,5.309A5.157,5.157,0,0,1,133,195.409a5.322,5.322,0,1,1,0-10.643m.017,9.012a3.475,3.475,0,0,0,3.487-3.761,3.484,3.484,0,1,0-6.962,0,3.475,3.475,0,0,0,3.475,3.761" fill="#333"/>
        <path d="M205.246,185.025h3.4c1.957,0,3.733.687,3.733,2.933,0,2.543-1.9,3-4.047,3h-1.288v4.192h-1.8Zm2.889,4.391c1.028,0,2.359-.058,2.359-1.429,0-1.244-1.187-1.417-2.159-1.417h-1.288v2.846Z" fill="#333"/>
        <polygon points="216.683 186.999 214.78 188.757 213.779 187.57 216.841 185.024 218.4 185.024 218.4 195.151 216.683 195.151 216.683 186.999" fill="#333"/>
        <path d="M234.189,185.025h3.4c1.957,0,3.732.687,3.732,2.933,0,2.543-1.905,3-4.047,3H235.99v4.192h-1.8Zm2.886,4.391c1.031,0,2.362-.058,2.362-1.429,0-1.244-1.19-1.417-2.16-1.417H235.99v2.846Z" fill="#333"/>
        <path d="M242.637,193.334l3.932-3.8a2.639,2.639,0,0,0,1.045-1.715,1.364,1.364,0,0,0-1.475-1.331,1.505,1.505,0,0,0-1.556,1.374l-1.8-.144a3.063,3.063,0,0,1,3.36-2.861c1.818,0,3.279.93,3.279,2.876a3.939,3.939,0,0,1-1.559,2.973l-3.135,2.9h4.694v1.544h-6.781Z" fill="#333"/>
        <path d="M263.131,185.025h3.4c1.96,0,3.735.687,3.735,2.933,0,2.543-1.9,3-4.05,3h-1.288v4.192h-1.8Zm2.89,4.391c1.027,0,2.358-.058,2.358-1.429,0-1.244-1.186-1.417-2.159-1.417h-1.288v2.846Z" fill="#333"/>
        <path d="M273.911,189.1h.442c.987,0,1.974-.145,1.974-1.374a1.341,1.341,0,0,0-1.443-1.331,1.581,1.581,0,0,0-1.513,1.117l-1.818-.485a3.121,3.121,0,0,1,3.247-2.174c1.744,0,3.245.915,3.245,2.7a2.286,2.286,0,0,1-1.732,2.287v.031a2.3,2.3,0,0,1,1.977,2.46c0,1.931-1.619,2.987-3.421,2.987a3.231,3.231,0,0,1-3.475-2.372l1.833-.488a1.562,1.562,0,0,0,1.642,1.316,1.622,1.622,0,0,0,1.7-1.588c0-1.316-1.2-1.544-2.246-1.544h-.416Z" fill="#333"/>
        <path d="M69.449,178.69a.258.258,0,0,1-.257-.254V157.288a.258.258,0,0,1,.257-.254h40.044a.255.255,0,0,1,.254.254.252.252,0,0,1-.254.254H69.706v20.894a.258.258,0,0,1-.257.254" fill="#333"/>
        <path d="M127.382,178.687a.256.256,0,0,1-.254-.257V171.7a.256.256,0,1,1,.511,0v6.726a.258.258,0,0,1-.257.257" fill="#333"/>
        <path d="M127.382,171.957a3.545,3.545,0,1,1,3.545-3.545,3.55,3.55,0,0,1-3.545,3.545m0-6.579a3.036,3.036,0,1,0,3.034,3.034,3.042,3.042,0,0,0-3.034-3.034" fill="#333"/>
        <path d="M98.18,178.687a.257.257,0,0,1-.256-.257V171.7a.255.255,0,1,1,.51,0v6.726a.255.255,0,0,1-.254.257" fill="#333"/>
        <path d="M98.18,171.957a3.545,3.545,0,1,1,3.548-3.545,3.545,3.545,0,0,1-3.548,3.545m0-6.579a3.036,3.036,0,1,0,3.034,3.034,3.037,3.037,0,0,0-3.034-3.034" fill="#333"/>
        <path d="M112.78,160.833a3.545,3.545,0,1,1,3.548-3.545,3.549,3.549,0,0,1-3.548,3.545m0-6.578a3.034,3.034,0,1,0,3.037,3.033,3.037,3.037,0,0,0-3.037-3.033" fill="#333"/>
        <path d="M100.887,172.051a.236.236,0,0,1-.182-.081.253.253,0,0,1,.006-.361l11.895-11.217a.256.256,0,0,1,.353.372l-11.893,11.218a.27.27,0,0,1-.179.069" fill="#333"/>
        <path d="M280.73,178.349H202.586a.256.256,0,1,1,0-.511H280.73a.256.256,0,0,1,0,.511" fill="#333"/>
        <path d="M8.088,209.2a.254.254,0,0,1-.254-.254V200.4a.256.256,0,1,1,.511,0v8.544a.255.255,0,0,1-.257.254" fill="#333"/>
        <path d="M69.291,209.2a.254.254,0,0,1-.254-.254V200.4a.256.256,0,1,1,.511,0v8.544a.256.256,0,0,1-.257.254" fill="#333"/>
        <path d="M98.341,209.2a.256.256,0,0,1-.257-.254V200.4a.257.257,0,1,1,.514,0v8.544a.257.257,0,0,1-.257.254" fill="#333"/>
        <path d="M127.332,209.2a.254.254,0,0,1-.254-.257V200.4a.256.256,0,1,1,.511,0v8.541a.256.256,0,0,1-.257.257" fill="#333"/>
        <path d="M212.713,209.2a.254.254,0,0,1-.254-.254V200.4a.256.256,0,1,1,.511,0v8.544a.254.254,0,0,1-.257.254" fill="#333"/>
        <path d="M241.656,209.2a.255.255,0,0,1-.254-.257V200.4a.256.256,0,1,1,.511,0v8.541a.257.257,0,0,1-.257.257" fill="#333"/>
        <path d="M270.6,209.2a.254.254,0,0,1-.257-.254V200.4a.256.256,0,1,1,.511,0v8.544a.254.254,0,0,1-.254.254" fill="#333"/>
        <path d="M137.514,145.122h-78.2a.256.256,0,0,1,0-.511h78.2a.256.256,0,0,1,0,.511" fill="#333"/>
        <path d="M83.477,132.014h4.177a3.246,3.246,0,0,1,2.171.626,2.183,2.183,0,0,1,.722,1.738,2.555,2.555,0,0,1-.185,1.036,2.22,2.22,0,0,1-.427.661,1.75,1.75,0,0,1-.485.364c-.162.072-.277.121-.35.147v.023a1.633,1.633,0,0,1,.422.122,1.256,1.256,0,0,1,.424.314,1.708,1.708,0,0,1,.324.557,2.389,2.389,0,0,1,.127.858,8.022,8.022,0,0,0,.118,1.4,1.886,1.886,0,0,0,.361.9h-1.64a1.37,1.37,0,0,1-.2-.623c-.02-.231-.032-.451-.032-.661a5.963,5.963,0,0,0-.075-1.037,1.836,1.836,0,0,0-.265-.724,1.174,1.174,0,0,0-.534-.422,2.322,2.322,0,0,0-.866-.135H85.007v3.6h-1.53ZM85.007,136h2.512a1.609,1.609,0,0,0,1.117-.349,1.365,1.365,0,0,0,.378-1.048,1.658,1.658,0,0,0-.121-.681,1.012,1.012,0,0,0-.338-.407,1.214,1.214,0,0,0-.488-.2,3.353,3.353,0,0,0-.574-.046H85.007Z" fill="#333"/>
        <path d="M92.993,137.958a2.443,2.443,0,0,0,.107.711,1.758,1.758,0,0,0,.312.6,1.458,1.458,0,0,0,.528.41,1.973,1.973,0,0,0,1.746-.11,1.566,1.566,0,0,0,.557-.791h1.323a2.659,2.659,0,0,1-1.028,1.6,2.756,2.756,0,0,1-.852.415,3.4,3.4,0,0,1-.987.142,3.306,3.306,0,0,1-1.322-.246A2.719,2.719,0,0,1,92.4,140a2.905,2.905,0,0,1-.6-1.05,4.27,4.27,0,0,1-.2-1.349,3.787,3.787,0,0,1,.216-1.281,3.263,3.263,0,0,1,.612-1.065,2.86,2.86,0,0,1,2.235-1A2.847,2.847,0,0,1,96,134.57a2.922,2.922,0,0,1,.984.828,3.313,3.313,0,0,1,.572,1.181,3.623,3.623,0,0,1,.089,1.379Zm3.262-.92a2.278,2.278,0,0,0-.141-.638,1.684,1.684,0,0,0-.318-.531,1.547,1.547,0,0,0-.491-.367,1.434,1.434,0,0,0-.643-.141,1.7,1.7,0,0,0-.667.127,1.548,1.548,0,0,0-.517.355,1.718,1.718,0,0,0-.341.534,1.874,1.874,0,0,0-.144.661Z" fill="#333"/>
        <rect x="98.754" y="132.013" width="1.397" height="8.749" fill="#333"/>
        <path d="M106.974,139.354a.728.728,0,0,0,.07.369.284.284,0,0,0,.265.11h.145a1.1,1.1,0,0,0,.2-.023v.967c-.049.015-.11.035-.191.055s-.156.037-.239.055-.162.026-.246.037-.15.012-.2.012a1.345,1.345,0,0,1-.713-.173.86.86,0,0,1-.366-.6,2.455,2.455,0,0,1-1.022.589,4.012,4.012,0,0,1-1.172.185,2.894,2.894,0,0,1-.823-.119,2.11,2.11,0,0,1-.69-.34,1.633,1.633,0,0,1-.476-.577,1.751,1.751,0,0,1-.179-.815,1.881,1.881,0,0,1,.214-.955,1.6,1.6,0,0,1,.565-.577,2.522,2.522,0,0,1,.783-.3c.288-.06.583-.106.874-.141a7.146,7.146,0,0,1,.725-.1,3.368,3.368,0,0,0,.606-.1.955.955,0,0,0,.419-.225.636.636,0,0,0,.15-.462.694.694,0,0,0-.13-.439.824.824,0,0,0-.318-.262,1.282,1.282,0,0,0-.421-.124,3.265,3.265,0,0,0-.442-.029,1.748,1.748,0,0,0-.967.245.947.947,0,0,0-.427.759h-1.4a2.137,2.137,0,0,1,.294-1.019,2.052,2.052,0,0,1,.659-.649,2.7,2.7,0,0,1,.9-.344,5.562,5.562,0,0,1,1.028-.1,4.486,4.486,0,0,1,.921.1,2.636,2.636,0,0,1,.817.321,1.77,1.77,0,0,1,.58.568,1.567,1.567,0,0,1,.219.852Zm-1.394-1.764a1.7,1.7,0,0,1-.785.251c-.309.029-.621.073-.932.127a3.472,3.472,0,0,0-.428.1,1.284,1.284,0,0,0-.366.185.794.794,0,0,0-.254.306,1.067,1.067,0,0,0-.09.462.557.557,0,0,0,.136.39.959.959,0,0,0,.323.251,1.521,1.521,0,0,0,.413.13,2.839,2.839,0,0,0,.413.037,2.148,2.148,0,0,0,.5-.063,1.8,1.8,0,0,0,.511-.205,1.43,1.43,0,0,0,.4-.376.938.938,0,0,0,.162-.557Z" fill="#333"/>
        <path d="M107.785,134.429h1.53l1.656,4.728H111l1.6-4.728h1.457l-2.462,6.677c-.115.288-.225.56-.338.822a2.974,2.974,0,0,1-.4.693,1.749,1.749,0,0,1-.595.476,2.006,2.006,0,0,1-.906.176,6.346,6.346,0,0,1-.967-.072v-1.175c.116.015.225.035.329.055a1.8,1.8,0,0,0,.332.032,1.149,1.149,0,0,0,.4-.063.664.664,0,0,0,.263-.177,1.033,1.033,0,0,0,.176-.277,2.094,2.094,0,0,0,.136-.366l.161-.491Z" fill="#333"/>
        <rect x="-211.799" y="-53.353" width="808.983" height="876.761" fill="none"/>
        <rect x="-211.799" y="-53.353" width="808.983" height="876.761" fill="none"/>
      </g>
    </g>
  </g>
  <g id="P3">
    <g id="P3-2" data-name="P3">
      <path id="P3-3" data-name="P3" d="M269.674,262.263l.2,98.518a102.491,102.491,0,0,0,7.867-8.194l-.561-90.352A12.933,12.933,0,0,1,269.674,262.263Z" fill="#fff" stroke="#333" stroke-linecap="round" stroke-linejoin="round" stroke-width="0.5"/>
      <rect id="P3-4" data-name="P3" x="250.331" y="283.81" width="32.955" height="21.807" transform="matrix(1, -0.005, 0.005, 1, -1.46, 1.329)" stroke-width="0.5" stroke="#333" stroke-linecap="round" stroke-linejoin="round" fill="#989898"/>
      <path id="P3-5" data-name="P3" d="M264.661,287.634v3.338c0,1.922-.673,3.664-2.876,3.664-2.494,0-2.944-1.869-2.944-3.973V289.4H254.73v-1.767Zm-4.306,2.834c0,1.008.057,2.313,1.4,2.313,1.22,0,1.39-1.163,1.39-2.118V289.4h-2.792Z" fill="#fff"/>
      <path id="P3-6" data-name="P3" d="M260.664,298.207v.433c0,.968.141,1.936,1.347,1.936a1.315,1.315,0,0,0,1.3-1.415,1.551,1.551,0,0,0-1.095-1.484l.475-1.783a3.061,3.061,0,0,1,2.132,3.185c0,1.71-.9,3.182-2.65,3.182a2.242,2.242,0,0,1-2.242-1.7H259.9a2.258,2.258,0,0,1-2.412,1.94c-1.894,0-2.931-1.589-2.931-3.355a3.169,3.169,0,0,1,2.328-3.409l.478,1.8a1.532,1.532,0,0,0-1.291,1.611,1.59,1.59,0,0,0,1.557,1.67c1.291,0,1.515-1.178,1.515-2.2v-.407Z" fill="#fff"/>
    </g>
  </g>
  <g id="P2">
    <g id="P2-2" data-name="P2">
      <path id="P2-3" data-name="P2" d="M240.187,262.265l.558,120.56c2.961-2.168,5.551-3.489,7.755-5.022l-.812-115.568C245.611,263.086,243.061,263,240.187,262.265Z" fill="#fff" stroke="#333" stroke-linecap="round" stroke-linejoin="round" stroke-width="0.5"/>
      <rect id="P2-4" data-name="P2" x="219.547" y="310.376" width="32.955" height="21.807" transform="translate(-1.593 1.176) rotate(-0.285)" stroke-width="0.5" stroke="#333" stroke-linecap="round" stroke-linejoin="round" fill="#989898"/>
      <path id="P2-5" data-name="P2" d="M233.456,313.782v3.338c0,1.92-.674,3.661-2.877,3.661-2.494,0-2.944-1.869-2.944-3.97v-1.262h-4.111v-1.767Zm-4.306,2.831c0,1.011.056,2.316,1.4,2.316,1.22,0,1.39-1.166,1.39-2.118v-1.262H229.15Z" fill="#fff"/>
      <path id="P2-6" data-name="P2" d="M225.307,322.068l3.731,3.856a2.588,2.588,0,0,0,1.682,1.025,1.338,1.338,0,0,0,1.305-1.447,1.477,1.477,0,0,0-1.348-1.526l.142-1.769a3,3,0,0,1,2.806,3.3c0,1.784-.912,3.216-2.82,3.216a3.862,3.862,0,0,1-2.916-1.528l-2.848-3.075v4.6h-1.515v-6.65Z" fill="#fff"/>
    </g>
  </g>
  <g id="P1">
    <g id="P1-2" data-name="P1">
      <path id="P1-3" data-name="P1" d="M209.7,262.265l.984,133.3c2.572-.951,4.739-1.532,7.541-2.537L217.2,262.235C215.124,263.086,212.574,263,209.7,262.265Z" fill="#fff" stroke="#333" stroke-linecap="round" stroke-linejoin="round" stroke-width="0.5"/>
      <rect id="P1-4" data-name="P1" x="186.233" y="282.966" width="32.955" height="21.807" transform="translate(-1.457 1.01) rotate(-0.285)" stroke-width="0.5" stroke="#333" stroke-linecap="round" stroke-linejoin="round" fill="#989898"/>
      <path id="P1-5" data-name="P1" d="M201.271,285.743v3.338c0,1.919-.674,3.66-2.877,3.66-2.494,0-2.944-1.865-2.944-3.969V287.51h-4.111v-1.767Zm-4.306,2.834c0,1.008.056,2.313,1.4,2.313,1.22,0,1.39-1.164,1.39-2.118V287.51h-2.791Z" fill="#fff"/>
      <polygon id="P1-6" data-name="P1" points="199.335 296.96 197.611 295.094 198.775 294.111 201.272 297.115 201.272 298.644 191.34 298.644 191.34 296.96 199.335 296.96" fill="#fff"/>
    </g>
  </g>
  <g id="NO">
    <g id="NO-2" data-name="NO">
      <path id="NO-3" data-name="NO" d="M124.4,261.927l1.091,134.113c2.5.688,4.4,1.586,7.125,1.9L131.526,261.9C129.552,262.746,127.128,262.658,124.4,261.927Z" fill="#fff" stroke="#333" stroke-linecap="round" stroke-linejoin="round" stroke-width="0.5"/>
      <rect id="NO-4" data-name="NO" x="104.513" y="310.725" width="31.322" height="20.726" transform="translate(-1.593 0.601) rotate(-0.285)" stroke-width="0.5" stroke="#333" stroke-linecap="round" stroke-linejoin="round" fill="#989898"/>
      <g id="NO-5" data-name="NO">
        <path d="M118.1,315.58l-4.858,3.057v.02l4.873-.025.008,1.5-7.266.037-.007-1.6,4.848-3.046v-.02l-4.864.024-.007-1.5,7.265-.036Z" fill="#fff"/>
        <path d="M115.974,321.472a3.65,3.65,0,0,1,1.22.7,3.219,3.219,0,0,1,.82,1.121,3.985,3.985,0,0,1,.015,3.007,3.242,3.242,0,0,1-.809,1.123,3.643,3.643,0,0,1-1.213.709,4.55,4.55,0,0,1-1.51.251,4.385,4.385,0,0,1-1.481-.236,3.571,3.571,0,0,1-1.2-.7,3.217,3.217,0,0,1-.8-1.115,4.049,4.049,0,0,1-.015-3.007,3.2,3.2,0,0,1,.794-1.129,3.528,3.528,0,0,1,1.192-.708,4.4,4.4,0,0,1,1.479-.252A4.565,4.565,0,0,1,115.974,321.472Zm-2.394,1.473a2.377,2.377,0,0,0-.777.345,1.733,1.733,0,0,0-.551.613,2.114,2.114,0,0,0,.009,1.831,1.745,1.745,0,0,0,.558.608,2.379,2.379,0,0,0,.78.337,3.7,3.7,0,0,0,.89.1,3.986,3.986,0,0,0,.926-.112,2.433,2.433,0,0,0,.8-.345,1.709,1.709,0,0,0,.555-.614,2.1,2.1,0,0,0-.009-1.83,1.717,1.717,0,0,0-.561-.608,2.421,2.421,0,0,0-.8-.337,3.878,3.878,0,0,0-.926-.1A3.66,3.66,0,0,0,113.58,322.945Z" fill="#fff"/>
      </g>
    </g>
  </g>
  <g id="NC">
    <g id="NC-2" data-name="NC">
      <path id="NC-3" data-name="NC" d="M93.4,261.927,94.5,383.089c1.985,1.163,4.576,2.96,7.131,3.753L100.532,261.9C98.557,262.746,96.134,262.658,93.4,261.927Z" fill="#fff" stroke="#333" stroke-linecap="round" stroke-linejoin="round" stroke-width="0.5"/>
      <rect id="NC-4" data-name="NC" x="72.851" y="282.67" width="31.322" height="20.726" transform="translate(-1.454 0.443) rotate(-0.285)" stroke-width="0.5" stroke="#333" stroke-linecap="round" stroke-linejoin="round" fill="#989898"/>
      <g id="NC-5" data-name="NC">
        <g>
          <path d="M87,287.743,82.141,290.8v.02l4.873-.024.008,1.5-7.266.036-.008-1.6,4.849-3.046v-.02l-4.864.024-.007-1.5,7.265-.036Z" fill="#fff"/>
          <path d="M85.115,298.366a1.624,1.624,0,0,0,.4-.359,1.658,1.658,0,0,0,.36-1.05,1.847,1.847,0,0,0-.213-.914,1.725,1.725,0,0,0-.561-.608,2.442,2.442,0,0,0-.8-.337,3.932,3.932,0,0,0-.927-.1,3.657,3.657,0,0,0-.889.111,2.377,2.377,0,0,0-.777.345,1.736,1.736,0,0,0-.551.614,1.854,1.854,0,0,0-.2.916,1.479,1.479,0,0,0,.453,1.143,2.068,2.068,0,0,0,1.183.5l.007,1.547a3.676,3.676,0,0,1-1.232-.309,2.953,2.953,0,0,1-.94-.667,2.852,2.852,0,0,1-.594-.974,3.562,3.562,0,0,1-.21-1.23,3.715,3.715,0,0,1,.282-1.5,3.209,3.209,0,0,1,.794-1.13,3.56,3.56,0,0,1,1.192-.708,4.422,4.422,0,0,1,1.479-.251,4.54,4.54,0,0,1,1.512.236,3.669,3.669,0,0,1,1.22.7,3.219,3.219,0,0,1,.82,1.121,3.9,3.9,0,0,1,.135,2.635,3.078,3.078,0,0,1-.5.958,2.729,2.729,0,0,1-.816.7,2.95,2.95,0,0,1-1.118.353l-.008-1.547A1.321,1.321,0,0,0,85.115,298.366Z" fill="#fff"/>
        </g>
      </g>
    </g>
  </g>
  <g id="COM">
    <g id="COM-2" data-name="COM">
      <path id="COM-3" data-name="COM" d="M64.011,261.927l1.073,99.7a55.3,55.3,0,0,0,7.137,6.027L71.14,261.9C69.166,262.746,66.742,262.658,64.011,261.927Z" fill="#fff" stroke="#333" stroke-linecap="round" stroke-linejoin="round" stroke-width="0.5"/>
      <rect id="COM-4" data-name="COM" x="40.566" y="309.231" width="35.663" height="20.726" transform="translate(-1.586 0.294) rotate(-0.285)" stroke-width="0.5" stroke="#333" stroke-linecap="round" stroke-linejoin="round" fill="#989898"/>
      <g id="COM-5" data-name="COM">
        <path d="M50.384,314.574a1.245,1.245,0,0,0,.306-.274,1.293,1.293,0,0,0,.2-.37,1.28,1.28,0,0,0,.071-.432,1.422,1.422,0,0,0-.163-.7,1.322,1.322,0,0,0-.429-.465,1.884,1.884,0,0,0-.612-.257,3.016,3.016,0,0,0-.709-.079,2.839,2.839,0,0,0-.679.086,1.835,1.835,0,0,0-.594.263,1.322,1.322,0,0,0-.421.469,1.407,1.407,0,0,0-.156.7,1.133,1.133,0,0,0,.346.874,1.586,1.586,0,0,0,.9.38l.006,1.182a2.794,2.794,0,0,1-.942-.237,2.175,2.175,0,0,1-1.173-1.254,2.738,2.738,0,0,1-.16-.94,2.844,2.844,0,0,1,.216-1.147,2.457,2.457,0,0,1,.606-.863,2.706,2.706,0,0,1,.912-.541,3.344,3.344,0,0,1,1.129-.193,3.489,3.489,0,0,1,1.156.181,2.789,2.789,0,0,1,.932.532,2.472,2.472,0,0,1,.627.857,2.979,2.979,0,0,1,.1,2.014,2.362,2.362,0,0,1-.381.732,2.1,2.1,0,0,1-.624.536,2.261,2.261,0,0,1-.854.269L50,314.716A1.016,1.016,0,0,0,50.384,314.574Z" fill="#fff"/>
        <path d="M50.231,316.72a2.816,2.816,0,0,1,.932.532,2.472,2.472,0,0,1,.627.857,2.834,2.834,0,0,1,.231,1.146,2.8,2.8,0,0,1-.22,1.152,2.478,2.478,0,0,1-.618.858,2.777,2.777,0,0,1-.927.542A3.5,3.5,0,0,1,49.1,322a3.368,3.368,0,0,1-1.132-.181,2.707,2.707,0,0,1-.916-.532,2.468,2.468,0,0,1-.615-.853,3.095,3.095,0,0,1-.012-2.3,2.447,2.447,0,0,1,.607-.863,2.711,2.711,0,0,1,.911-.541,3.354,3.354,0,0,1,1.13-.192A3.489,3.489,0,0,1,50.231,316.72Zm-1.83,1.126a1.8,1.8,0,0,0-.593.264,1.323,1.323,0,0,0-.422.468,1.614,1.614,0,0,0,.007,1.4,1.333,1.333,0,0,0,.426.465,1.8,1.8,0,0,0,.6.257,2.807,2.807,0,0,0,.681.079,3,3,0,0,0,.707-.085,1.866,1.866,0,0,0,.61-.264,1.323,1.323,0,0,0,.425-.469,1.614,1.614,0,0,0-.007-1.4,1.313,1.313,0,0,0-.43-.464,1.855,1.855,0,0,0-.612-.258,2.956,2.956,0,0,0-.708-.078A2.8,2.8,0,0,0,48.4,317.846Z" fill="#fff"/>
        <path d="M51.914,324.536,48.1,325.853v.015l3.824,1.21.008,1.719-5.552.027-.005-1.143,3.934-.019v-.016l-3.941-1.341-.005-.941,3.889-1.38v-.015l-3.9.019-.005-1.143,5.552-.028Z" fill="#fff"/>
      </g>
    </g>
  </g>
</svg>
